M48
; DRILL file {KiCad (5.1.5-0-10_14)} date Monday, May 04, 2020 at 05:52:22 pm
; FORMAT={-:-/ absolute / inch / decimal}
; #@! TF.CreationDate,2020-05-04T17:52:22-06:00
; #@! TF.GenerationSoftware,Kicad,Pcbnew,(5.1.5-0-10_14)
; #@! TF.FileFunction,Plated,1,2,PTH
FMAT,2
INCH
T1C0.0157
T2C0.0394
%
G90
G05
T1
X1.075Y-1.25
X1.075Y-1.3
X1.075Y-1.35
X1.075Y-1.4
X1.125Y-1.25
X1.125Y-1.3
X1.125Y-1.35
X1.125Y-1.4
X1.175Y-1.25
X1.175Y-1.3
X1.175Y-1.35
X1.175Y-1.4
X1.225Y-1.25
X1.225Y-1.3
X1.225Y-1.35
X1.225Y-1.4
T2
X1.75Y-0.55
X1.75Y-0.65
X1.75Y-0.75
X1.75Y-0.85
X1.75Y-0.95
X1.75Y-1.05
X1.75Y-1.15
X1.75Y-1.25
X1.75Y-1.35
X1.75Y-1.45
X1.75Y-1.55
X1.75Y-1.65
X1.75Y-1.75
X1.75Y-1.85
X1.75Y-1.95
X1.75Y-2.05
X1.75Y-2.15
X0.55Y-0.55
X0.55Y-0.65
X0.55Y-0.75
X0.55Y-0.85
X0.55Y-0.95
X0.55Y-1.05
X0.55Y-1.15
X0.55Y-1.25
X0.55Y-1.35
X0.55Y-1.45
X0.55Y-1.55
X0.55Y-1.65
X0.55Y-1.75
X0.55Y-1.85
X0.55Y-1.95
X0.55Y-2.05
X0.55Y-2.15
T0
M30
