G04 #@! TF.GenerationSoftware,KiCad,Pcbnew,(5.1.5-0-10_14)*
G04 #@! TF.CreationDate,2020-05-04T17:52:18-06:00*
G04 #@! TF.ProjectId,L6207Q,4c363230-3751-42e6-9b69-6361645f7063,rev?*
G04 #@! TF.SameCoordinates,Original*
G04 #@! TF.FileFunction,Legend,Top*
G04 #@! TF.FilePolarity,Positive*
%FSLAX46Y46*%
G04 Gerber Fmt 4.6, Leading zero omitted, Abs format (unit mm)*
G04 Created by KiCad (PCBNEW (5.1.5-0-10_14)) date 2020-05-04 17:52:18*
%MOMM*%
%LPD*%
G04 APERTURE LIST*
%ADD10C,0.150000*%
%ADD11C,0.120000*%
%ADD12C,0.127000*%
%ADD13C,0.200000*%
%ADD14C,0.015000*%
G04 APERTURE END LIST*
D10*
X25019523Y3087619D02*
X25638571Y3087619D01*
X25305238Y2706666D01*
X25448095Y2706666D01*
X25543333Y2659047D01*
X25590952Y2611428D01*
X25638571Y2516190D01*
X25638571Y2278095D01*
X25590952Y2182857D01*
X25543333Y2135238D01*
X25448095Y2087619D01*
X25162380Y2087619D01*
X25067142Y2135238D01*
X25019523Y2182857D01*
X26257619Y3087619D02*
X26352857Y3087619D01*
X26448095Y3040000D01*
X26495714Y2992380D01*
X26543333Y2897142D01*
X26590952Y2706666D01*
X26590952Y2468571D01*
X26543333Y2278095D01*
X26495714Y2182857D01*
X26448095Y2135238D01*
X26352857Y2087619D01*
X26257619Y2087619D01*
X26162380Y2135238D01*
X26114761Y2182857D01*
X26067142Y2278095D01*
X26019523Y2468571D01*
X26019523Y2706666D01*
X26067142Y2897142D01*
X26114761Y2992380D01*
X26162380Y3040000D01*
X26257619Y3087619D01*
X27019523Y2182857D02*
X27067142Y2135238D01*
X27019523Y2087619D01*
X26971904Y2135238D01*
X27019523Y2182857D01*
X27019523Y2087619D01*
X27924285Y2754285D02*
X27924285Y2087619D01*
X27686190Y3135238D02*
X27448095Y2420952D01*
X28067142Y2420952D01*
X28590952Y2659047D02*
X28495714Y2706666D01*
X28448095Y2754285D01*
X28400476Y2849523D01*
X28400476Y2897142D01*
X28448095Y2992380D01*
X28495714Y3040000D01*
X28590952Y3087619D01*
X28781428Y3087619D01*
X28876666Y3040000D01*
X28924285Y2992380D01*
X28971904Y2897142D01*
X28971904Y2849523D01*
X28924285Y2754285D01*
X28876666Y2706666D01*
X28781428Y2659047D01*
X28590952Y2659047D01*
X28495714Y2611428D01*
X28448095Y2563809D01*
X28400476Y2468571D01*
X28400476Y2278095D01*
X28448095Y2182857D01*
X28495714Y2135238D01*
X28590952Y2087619D01*
X28781428Y2087619D01*
X28876666Y2135238D01*
X28924285Y2182857D01*
X28971904Y2278095D01*
X28971904Y2468571D01*
X28924285Y2563809D01*
X28876666Y2611428D01*
X28781428Y2659047D01*
X29590952Y3087619D02*
X29686190Y3087619D01*
X29781428Y3040000D01*
X29829047Y2992380D01*
X29876666Y2897142D01*
X29924285Y2706666D01*
X29924285Y2468571D01*
X29876666Y2278095D01*
X29829047Y2182857D01*
X29781428Y2135238D01*
X29686190Y2087619D01*
X29590952Y2087619D01*
X29495714Y2135238D01*
X29448095Y2182857D01*
X29400476Y2278095D01*
X29352857Y2468571D01*
X29352857Y2706666D01*
X29400476Y2897142D01*
X29448095Y2992380D01*
X29495714Y3040000D01*
X29590952Y3087619D01*
X31114761Y2087619D02*
X31114761Y2754285D01*
X31114761Y2659047D02*
X31162380Y2706666D01*
X31257619Y2754285D01*
X31400476Y2754285D01*
X31495714Y2706666D01*
X31543333Y2611428D01*
X31543333Y2087619D01*
X31543333Y2611428D02*
X31590952Y2706666D01*
X31686190Y2754285D01*
X31829047Y2754285D01*
X31924285Y2706666D01*
X31971904Y2611428D01*
X31971904Y2087619D01*
X32448095Y2087619D02*
X32448095Y2754285D01*
X32448095Y2659047D02*
X32495714Y2706666D01*
X32590952Y2754285D01*
X32733809Y2754285D01*
X32829047Y2706666D01*
X32876666Y2611428D01*
X32876666Y2087619D01*
X32876666Y2611428D02*
X32924285Y2706666D01*
X33019523Y2754285D01*
X33162380Y2754285D01*
X33257619Y2706666D01*
X33305238Y2611428D01*
X33305238Y2087619D01*
D11*
X13970000Y1270000D02*
X44450000Y1270000D01*
X13970000Y-14605000D02*
X13970000Y1856421D01*
X44450000Y-14605000D02*
X44450000Y1856421D01*
X44450000Y1270000D02*
X43323496Y683579D01*
X44450000Y1270000D02*
X43323496Y1856421D01*
X13970000Y1270000D02*
X15096504Y683579D01*
X13970000Y1270000D02*
X15096504Y1856421D01*
D12*
X25660000Y-30105000D02*
X25660000Y-30450000D01*
X25660000Y-37205000D02*
X25660000Y-36860000D01*
X32760000Y-30105000D02*
X32760000Y-30450000D01*
X32760000Y-37205000D02*
X32760000Y-36860000D01*
X25660000Y-30105000D02*
X26005000Y-30105000D01*
X25660000Y-37205000D02*
X26005000Y-37205000D01*
X32760000Y-30105000D02*
X32415000Y-30105000D01*
X32760000Y-37205000D02*
X32415000Y-37205000D01*
D13*
X24815000Y-30905000D02*
G75*
G03X24815000Y-30905000I-100000J0D01*
G01*
D11*
X43120000Y-12640000D02*
X44450000Y-12640000D01*
X43120000Y-13970000D02*
X43120000Y-12640000D01*
X43120000Y-15240000D02*
X45780000Y-15240000D01*
X45780000Y-15240000D02*
X45780000Y-55940000D01*
X43120000Y-15240000D02*
X43120000Y-55940000D01*
X43120000Y-55940000D02*
X45780000Y-55940000D01*
X15300000Y-55940000D02*
X13970000Y-55940000D01*
X15300000Y-54610000D02*
X15300000Y-55940000D01*
X15300000Y-53340000D02*
X12640000Y-53340000D01*
X12640000Y-53340000D02*
X12640000Y-12640000D01*
X15300000Y-53340000D02*
X15300000Y-12640000D01*
X15300000Y-12640000D02*
X12640000Y-12640000D01*
D14*
X27623095Y-27972380D02*
X27623095Y-28781904D01*
X27670714Y-28877142D01*
X27718333Y-28924761D01*
X27813571Y-28972380D01*
X28004047Y-28972380D01*
X28099285Y-28924761D01*
X28146904Y-28877142D01*
X28194523Y-28781904D01*
X28194523Y-27972380D01*
X29194523Y-28972380D02*
X28623095Y-28972380D01*
X28908809Y-28972380D02*
X28908809Y-27972380D01*
X28813571Y-28115238D01*
X28718333Y-28210476D01*
X28623095Y-28258095D01*
M02*
