G04 #@! TF.GenerationSoftware,KiCad,Pcbnew,(6.0.5-0)*
G04 #@! TF.CreationDate,2022-10-11T01:38:54-04:00*
G04 #@! TF.ProjectId,SK6805,534b3638-3035-42e6-9b69-6361645f7063,rev?*
G04 #@! TF.SameCoordinates,Original*
G04 #@! TF.FileFunction,Legend,Bot*
G04 #@! TF.FilePolarity,Positive*
%FSLAX46Y46*%
G04 Gerber Fmt 4.6, Leading zero omitted, Abs format (unit mm)*
G04 Created by KiCad (PCBNEW (6.0.5-0)) date 2022-10-11 01:38:54*
%MOMM*%
%LPD*%
G01*
G04 APERTURE LIST*
%ADD10C,0.120000*%
%ADD11C,0.150000*%
%ADD12R,1.700000X1.700000*%
%ADD13O,1.700000X1.700000*%
G04 APERTURE END LIST*
D10*
X160902380Y-121862809D02*
X160788095Y-121900904D01*
X160597619Y-121900904D01*
X160521428Y-121862809D01*
X160483333Y-121824714D01*
X160445238Y-121748523D01*
X160445238Y-121672333D01*
X160483333Y-121596142D01*
X160521428Y-121558047D01*
X160597619Y-121519952D01*
X160750000Y-121481857D01*
X160826190Y-121443761D01*
X160864285Y-121405666D01*
X160902380Y-121329476D01*
X160902380Y-121253285D01*
X160864285Y-121177095D01*
X160826190Y-121139000D01*
X160750000Y-121100904D01*
X160559523Y-121100904D01*
X160445238Y-121139000D01*
X160102380Y-121900904D02*
X160102380Y-121100904D01*
X159645238Y-121900904D02*
X159988095Y-121443761D01*
X159645238Y-121100904D02*
X160102380Y-121558047D01*
X158959523Y-121100904D02*
X159111904Y-121100904D01*
X159188095Y-121139000D01*
X159226190Y-121177095D01*
X159302380Y-121291380D01*
X159340476Y-121443761D01*
X159340476Y-121748523D01*
X159302380Y-121824714D01*
X159264285Y-121862809D01*
X159188095Y-121900904D01*
X159035714Y-121900904D01*
X158959523Y-121862809D01*
X158921428Y-121824714D01*
X158883333Y-121748523D01*
X158883333Y-121558047D01*
X158921428Y-121481857D01*
X158959523Y-121443761D01*
X159035714Y-121405666D01*
X159188095Y-121405666D01*
X159264285Y-121443761D01*
X159302380Y-121481857D01*
X159340476Y-121558047D01*
X158426190Y-121443761D02*
X158502380Y-121405666D01*
X158540476Y-121367571D01*
X158578571Y-121291380D01*
X158578571Y-121253285D01*
X158540476Y-121177095D01*
X158502380Y-121139000D01*
X158426190Y-121100904D01*
X158273809Y-121100904D01*
X158197619Y-121139000D01*
X158159523Y-121177095D01*
X158121428Y-121253285D01*
X158121428Y-121291380D01*
X158159523Y-121367571D01*
X158197619Y-121405666D01*
X158273809Y-121443761D01*
X158426190Y-121443761D01*
X158502380Y-121481857D01*
X158540476Y-121519952D01*
X158578571Y-121596142D01*
X158578571Y-121748523D01*
X158540476Y-121824714D01*
X158502380Y-121862809D01*
X158426190Y-121900904D01*
X158273809Y-121900904D01*
X158197619Y-121862809D01*
X158159523Y-121824714D01*
X158121428Y-121748523D01*
X158121428Y-121596142D01*
X158159523Y-121519952D01*
X158197619Y-121481857D01*
X158273809Y-121443761D01*
X157626190Y-121100904D02*
X157550000Y-121100904D01*
X157473809Y-121139000D01*
X157435714Y-121177095D01*
X157397619Y-121253285D01*
X157359523Y-121405666D01*
X157359523Y-121596142D01*
X157397619Y-121748523D01*
X157435714Y-121824714D01*
X157473809Y-121862809D01*
X157550000Y-121900904D01*
X157626190Y-121900904D01*
X157702380Y-121862809D01*
X157740476Y-121824714D01*
X157778571Y-121748523D01*
X157816666Y-121596142D01*
X157816666Y-121405666D01*
X157778571Y-121253285D01*
X157740476Y-121177095D01*
X157702380Y-121139000D01*
X157626190Y-121100904D01*
X156635714Y-121100904D02*
X157016666Y-121100904D01*
X157054761Y-121481857D01*
X157016666Y-121443761D01*
X156940476Y-121405666D01*
X156750000Y-121405666D01*
X156673809Y-121443761D01*
X156635714Y-121481857D01*
X156597619Y-121558047D01*
X156597619Y-121748523D01*
X156635714Y-121824714D01*
X156673809Y-121862809D01*
X156750000Y-121900904D01*
X156940476Y-121900904D01*
X157016666Y-121862809D01*
X157054761Y-121824714D01*
D11*
X162893333Y-116122380D02*
X162893333Y-116836666D01*
X162940952Y-116979523D01*
X163036190Y-117074761D01*
X163179047Y-117122380D01*
X163274285Y-117122380D01*
X162464761Y-116217619D02*
X162417142Y-116170000D01*
X162321904Y-116122380D01*
X162083809Y-116122380D01*
X161988571Y-116170000D01*
X161940952Y-116217619D01*
X161893333Y-116312857D01*
X161893333Y-116408095D01*
X161940952Y-116550952D01*
X162512380Y-117122380D01*
X161893333Y-117122380D01*
X155273333Y-116122380D02*
X155273333Y-116836666D01*
X155320952Y-116979523D01*
X155416190Y-117074761D01*
X155559047Y-117122380D01*
X155654285Y-117122380D01*
X154273333Y-117122380D02*
X154844761Y-117122380D01*
X154559047Y-117122380D02*
X154559047Y-116122380D01*
X154654285Y-116265238D01*
X154749523Y-116360476D01*
X154844761Y-116408095D01*
D10*
X163890000Y-125410000D02*
X161230000Y-125410000D01*
X163890000Y-120270000D02*
X161230000Y-120270000D01*
X163890000Y-119000000D02*
X163890000Y-117670000D01*
X163890000Y-120270000D02*
X163890000Y-125410000D01*
X163890000Y-117670000D02*
X162560000Y-117670000D01*
X161230000Y-120270000D02*
X161230000Y-125410000D01*
X153610000Y-120270000D02*
X153610000Y-125410000D01*
X156270000Y-120270000D02*
X153610000Y-120270000D01*
X156270000Y-117670000D02*
X154940000Y-117670000D01*
X156270000Y-125410000D02*
X153610000Y-125410000D01*
X156270000Y-119000000D02*
X156270000Y-117670000D01*
X156270000Y-120270000D02*
X156270000Y-125410000D01*
%LPC*%
D12*
X162560000Y-119000000D03*
D13*
X162560000Y-121540000D03*
X162560000Y-124080000D03*
D12*
X154940000Y-119000000D03*
D13*
X154940000Y-121540000D03*
X154940000Y-124080000D03*
M02*
