G04 #@! TF.GenerationSoftware,KiCad,Pcbnew,(5.1.5-0-10_14)*
G04 #@! TF.CreationDate,2020-05-04T17:52:18-06:00*
G04 #@! TF.ProjectId,L6207Q,4c363230-3751-42e6-9b69-6361645f7063,rev?*
G04 #@! TF.SameCoordinates,Original*
G04 #@! TF.FileFunction,Copper,L1,Top*
G04 #@! TF.FilePolarity,Positive*
%FSLAX46Y46*%
G04 Gerber Fmt 4.6, Leading zero omitted, Abs format (unit mm)*
G04 Created by KiCad (PCBNEW (5.1.5-0-10_14)) date 2020-05-04 17:52:18*
%MOMM*%
%LPD*%
G04 APERTURE LIST*
%ADD10R,5.600000X5.600000*%
%ADD11R,0.860000X0.270000*%
%ADD12R,0.270000X0.860000*%
%ADD13O,1.700000X1.700000*%
%ADD14R,1.700000X1.700000*%
%ADD15C,0.800000*%
%ADD16C,0.270000*%
%ADD17C,0.254000*%
G04 APERTURE END LIST*
D10*
X29210000Y-33655000D03*
D11*
X32645000Y-30905000D03*
X32645000Y-31405000D03*
X32645000Y-31905000D03*
X32645000Y-32405000D03*
X32645000Y-32905000D03*
X32645000Y-33405000D03*
X32645000Y-33905000D03*
X32645000Y-34405000D03*
X32645000Y-34905000D03*
X32645000Y-35405000D03*
X32645000Y-35905000D03*
X32645000Y-36405000D03*
X25775000Y-36405000D03*
X25775000Y-35905000D03*
X25775000Y-35405000D03*
X25775000Y-34905000D03*
X25775000Y-34405000D03*
X25775000Y-33905000D03*
X25775000Y-33405000D03*
X25775000Y-32905000D03*
X25775000Y-32405000D03*
X25775000Y-31905000D03*
X25775000Y-31405000D03*
X25775000Y-30905000D03*
D12*
X26460000Y-30220000D03*
X26960000Y-30220000D03*
X27460000Y-30220000D03*
X27960000Y-30220000D03*
X28460000Y-30220000D03*
X28960000Y-30220000D03*
X29460000Y-30220000D03*
X29960000Y-30220000D03*
X30460000Y-30220000D03*
X30960000Y-30220000D03*
X31460000Y-30220000D03*
X31960000Y-30220000D03*
X31960000Y-37090000D03*
X31460000Y-37090000D03*
X30960000Y-37090000D03*
X30460000Y-37090000D03*
X29960000Y-37090000D03*
X29460000Y-37090000D03*
X28960000Y-37090000D03*
X28460000Y-37090000D03*
X27960000Y-37090000D03*
X27460000Y-37090000D03*
X26960000Y-37090000D03*
X26460000Y-37090000D03*
D13*
X44450000Y-54610000D03*
X44450000Y-52070000D03*
X44450000Y-49530000D03*
X44450000Y-46990000D03*
X44450000Y-44450000D03*
X44450000Y-41910000D03*
X44450000Y-39370000D03*
X44450000Y-36830000D03*
X44450000Y-34290000D03*
X44450000Y-31750000D03*
X44450000Y-29210000D03*
X44450000Y-26670000D03*
X44450000Y-24130000D03*
X44450000Y-21590000D03*
X44450000Y-19050000D03*
X44450000Y-16510000D03*
D14*
X44450000Y-13970000D03*
D13*
X13970000Y-13970000D03*
X13970000Y-16510000D03*
X13970000Y-19050000D03*
X13970000Y-21590000D03*
X13970000Y-24130000D03*
X13970000Y-26670000D03*
X13970000Y-29210000D03*
X13970000Y-31750000D03*
X13970000Y-34290000D03*
X13970000Y-36830000D03*
X13970000Y-39370000D03*
X13970000Y-41910000D03*
X13970000Y-44450000D03*
X13970000Y-46990000D03*
X13970000Y-49530000D03*
X13970000Y-52070000D03*
D14*
X13970000Y-54610000D03*
D15*
X28575000Y-34290000D03*
X29845000Y-33020000D03*
X27305000Y-33020000D03*
X28575000Y-33020000D03*
X27305000Y-31750000D03*
X27305000Y-35560000D03*
X28575000Y-35560000D03*
X31115000Y-31750000D03*
X28575000Y-31750000D03*
X29845000Y-34290000D03*
X31115000Y-33020000D03*
X29845000Y-31750000D03*
X31115000Y-34290000D03*
X27305000Y-34290000D03*
X29845000Y-35560000D03*
X31115000Y-35560000D03*
D16*
X22860000Y-16510000D02*
X13970000Y-16510000D01*
X22860000Y-29158002D02*
X22860000Y-16510000D01*
X25106998Y-31405000D02*
X22860000Y-29158002D01*
X25775000Y-31405000D02*
X25106998Y-31405000D01*
X25525010Y-31875010D02*
X24912313Y-31875009D01*
X25555000Y-31905000D02*
X25525010Y-31875010D01*
X25775000Y-31905000D02*
X25555000Y-31905000D01*
X24912313Y-31875009D02*
X22389990Y-29352686D01*
X22389990Y-29352686D02*
X22389990Y-19050000D01*
X22389990Y-19050000D02*
X13970000Y-19050000D01*
X25075000Y-33405000D02*
X21590000Y-29920000D01*
X25775000Y-33405000D02*
X25075000Y-33405000D01*
X21590000Y-29920000D02*
X21590000Y-21590000D01*
X21590000Y-21590000D02*
X13970000Y-21590000D01*
X25075000Y-35405000D02*
X20320000Y-30650000D01*
X25775000Y-35405000D02*
X25075000Y-35405000D01*
X20320000Y-30650000D02*
X20320000Y-24130000D01*
X20320000Y-24130000D02*
X13970000Y-24130000D01*
X24910306Y-35905000D02*
X19050000Y-30044694D01*
X25775000Y-35905000D02*
X24910306Y-35905000D01*
X19050000Y-30044694D02*
X19050000Y-26670000D01*
X19050000Y-26670000D02*
X13970000Y-26670000D01*
X17411998Y-29210000D02*
X13970000Y-29210000D01*
X25291998Y-37090000D02*
X17411998Y-29210000D01*
X26460000Y-37090000D02*
X25291998Y-37090000D01*
X27394999Y-37855001D02*
X25155001Y-37855001D01*
X27460000Y-37790000D02*
X27394999Y-37855001D01*
X27460000Y-37090000D02*
X27460000Y-37790000D01*
X19050000Y-31750000D02*
X13970000Y-31750000D01*
X25155001Y-37855001D02*
X19050000Y-31750000D01*
X27589683Y-38325011D02*
X24355011Y-38325011D01*
X27960000Y-37954694D02*
X27589683Y-38325011D01*
X27960000Y-37090000D02*
X27960000Y-37954694D01*
X20320000Y-34290000D02*
X13970000Y-34290000D01*
X24355011Y-38325011D02*
X20320000Y-34290000D01*
X28460000Y-37350000D02*
X28430010Y-37379990D01*
X28430010Y-37379990D02*
X28430010Y-38244990D01*
X28460000Y-37090000D02*
X28460000Y-37350000D01*
X27879979Y-38795021D02*
X23555021Y-38795021D01*
X28430010Y-38244990D02*
X27879979Y-38795021D01*
X21590000Y-36830000D02*
X13970000Y-36830000D01*
X23555021Y-38795021D02*
X21590000Y-36830000D01*
X28960000Y-37090000D02*
X28960000Y-38985000D01*
X28575000Y-39370000D02*
X13970000Y-39370000D01*
X28960000Y-38985000D02*
X28575000Y-39370000D01*
X15172081Y-41910000D02*
X13970000Y-41910000D01*
X29460000Y-39149694D02*
X26699694Y-41910000D01*
X26699694Y-41910000D02*
X15172081Y-41910000D01*
X29460000Y-37090000D02*
X29460000Y-39149694D01*
X29960000Y-37350000D02*
X29930010Y-37379990D01*
X29960000Y-37090000D02*
X29960000Y-37350000D01*
X15172081Y-44450000D02*
X13970000Y-44450000D01*
X24824388Y-44450000D02*
X15172081Y-44450000D01*
X29930009Y-39344379D02*
X24824388Y-44450000D01*
X29930010Y-37379990D02*
X29930009Y-39344379D01*
X30460000Y-37090000D02*
X30460000Y-39350000D01*
X15172081Y-46990000D02*
X13970000Y-46990000D01*
X30400018Y-39539064D02*
X22949082Y-46990000D01*
X22949082Y-46990000D02*
X15172081Y-46990000D01*
X30400019Y-39409981D02*
X30400018Y-39539064D01*
X30460000Y-39350000D02*
X30400019Y-39409981D01*
X15172081Y-49530000D02*
X13970000Y-49530000D01*
X30960000Y-39643776D02*
X21073776Y-49530000D01*
X21073776Y-49530000D02*
X15172081Y-49530000D01*
X30960000Y-37090000D02*
X30960000Y-39643776D01*
X19198470Y-52070000D02*
X15172081Y-52070000D01*
X15172081Y-52070000D02*
X13970000Y-52070000D01*
X31460000Y-39808470D02*
X19198470Y-52070000D01*
X31460000Y-37090000D02*
X31460000Y-39808470D01*
X33313002Y-35905000D02*
X33655000Y-36246998D01*
X32645000Y-35905000D02*
X33313002Y-35905000D01*
X33655000Y-36246998D02*
X33655000Y-52070000D01*
X33655000Y-52070000D02*
X44450000Y-52070000D01*
X33477696Y-35405000D02*
X34125010Y-36052314D01*
X32645000Y-35405000D02*
X33477696Y-35405000D01*
X34125010Y-36052314D02*
X34125010Y-49530000D01*
X34125010Y-49530000D02*
X44450000Y-49530000D01*
X34595020Y-46990000D02*
X44450000Y-46990000D01*
X34595020Y-34687018D02*
X34595020Y-46990000D01*
X33313002Y-33405000D02*
X34595020Y-34687018D01*
X32645000Y-33405000D02*
X33313002Y-33405000D01*
X35065030Y-33657028D02*
X35065030Y-44450000D01*
X33313002Y-31905000D02*
X35065030Y-33657028D01*
X35065030Y-44450000D02*
X44450000Y-44450000D01*
X32645000Y-31905000D02*
X33313002Y-31905000D01*
X33477696Y-31405000D02*
X35560000Y-33487304D01*
X32645000Y-31405000D02*
X33477696Y-31405000D01*
X35560000Y-33487304D02*
X35560000Y-41910000D01*
X35560000Y-41910000D02*
X44450000Y-41910000D01*
X36030010Y-39370000D02*
X44450000Y-39370000D01*
X32363001Y-29454999D02*
X36030010Y-33122008D01*
X31460000Y-30220000D02*
X31460000Y-29551998D01*
X36030010Y-33122008D02*
X36030010Y-39370000D01*
X31556999Y-29454999D02*
X32363001Y-29454999D01*
X31460000Y-29551998D02*
X31556999Y-29454999D01*
X32557686Y-28984990D02*
X36500020Y-32927324D01*
X30960000Y-29387304D02*
X31362315Y-28984989D01*
X31362315Y-28984989D02*
X32557686Y-28984990D01*
X30960000Y-30220000D02*
X30960000Y-29387304D01*
X36500020Y-32927324D02*
X36500020Y-36830000D01*
X36500020Y-36830000D02*
X44450000Y-36830000D01*
X32752371Y-28514981D02*
X36970030Y-32732640D01*
X30460000Y-29222610D02*
X31167632Y-28514980D01*
X31167632Y-28514980D02*
X32752371Y-28514981D01*
X30460000Y-30220000D02*
X30460000Y-29222610D01*
X36970030Y-32732640D02*
X36970030Y-34290000D01*
X36970030Y-34290000D02*
X44450000Y-34290000D01*
X29960000Y-29057920D02*
X30972949Y-28044971D01*
X30972949Y-28044971D02*
X33124971Y-28044971D01*
X29960000Y-30220000D02*
X29960000Y-29057920D01*
X36830000Y-31750000D02*
X44450000Y-31750000D01*
X33124971Y-28044971D02*
X36830000Y-31750000D01*
X30778265Y-27574961D02*
X33319656Y-27574962D01*
X29460000Y-28893226D02*
X30778265Y-27574961D01*
X29460000Y-30220000D02*
X29460000Y-28893226D01*
X34954694Y-29210000D02*
X44450000Y-29210000D01*
X33319656Y-27574962D02*
X34954694Y-29210000D01*
X43247919Y-26670000D02*
X44450000Y-26670000D01*
X31018534Y-26670000D02*
X43247919Y-26670000D01*
X28960000Y-28728534D02*
X31018534Y-26670000D01*
X28960000Y-30220000D02*
X28960000Y-28728534D01*
X43247919Y-24130000D02*
X44450000Y-24130000D01*
X32893840Y-24130000D02*
X43247919Y-24130000D01*
X28460000Y-28563840D02*
X32893840Y-24130000D01*
X28460000Y-30220000D02*
X28460000Y-28563840D01*
X43247919Y-21590000D02*
X44450000Y-21590000D01*
X27960000Y-28399146D02*
X34769146Y-21590000D01*
X34769146Y-21590000D02*
X43247919Y-21590000D01*
X27960000Y-30220000D02*
X27960000Y-28399146D01*
X43247919Y-19050000D02*
X44450000Y-19050000D01*
X36644452Y-19050000D02*
X43247919Y-19050000D01*
X27460000Y-28234452D02*
X36644452Y-19050000D01*
X27460000Y-30220000D02*
X27460000Y-28234452D01*
X43247919Y-16510000D02*
X44450000Y-16510000D01*
X38519758Y-16510000D02*
X43247919Y-16510000D01*
X26460000Y-28569758D02*
X38519758Y-16510000D01*
X26460000Y-30220000D02*
X26460000Y-28569758D01*
D17*
G36*
X32885001Y-52032170D02*
G01*
X32881275Y-52070000D01*
X32896142Y-52220946D01*
X32940171Y-52366092D01*
X33011671Y-52499859D01*
X33107894Y-52617106D01*
X33225141Y-52713329D01*
X33358908Y-52784829D01*
X33504054Y-52828858D01*
X33617180Y-52840000D01*
X33655000Y-52843725D01*
X33692820Y-52840000D01*
X43178503Y-52840000D01*
X43296525Y-53016632D01*
X43503368Y-53223475D01*
X43677760Y-53340000D01*
X43503368Y-53456525D01*
X43296525Y-53663368D01*
X43134010Y-53906589D01*
X43022068Y-54176842D01*
X42965000Y-54463740D01*
X42965000Y-54756260D01*
X43022068Y-55043158D01*
X43134010Y-55313411D01*
X43296525Y-55556632D01*
X43503368Y-55763475D01*
X43640345Y-55855000D01*
X15317295Y-55855000D01*
X15350537Y-55814494D01*
X15409502Y-55704180D01*
X15445812Y-55584482D01*
X15458072Y-55460000D01*
X15458072Y-53760000D01*
X15445812Y-53635518D01*
X15409502Y-53515820D01*
X15350537Y-53405506D01*
X15271185Y-53308815D01*
X15174494Y-53229463D01*
X15064180Y-53170498D01*
X14991620Y-53148487D01*
X15123475Y-53016632D01*
X15241497Y-52840000D01*
X19160657Y-52840000D01*
X19198470Y-52843724D01*
X19236283Y-52840000D01*
X19236290Y-52840000D01*
X19349416Y-52828858D01*
X19494562Y-52784829D01*
X19628329Y-52713329D01*
X19745576Y-52617106D01*
X19769691Y-52587722D01*
X31977727Y-40379687D01*
X32007106Y-40355576D01*
X32103329Y-40238329D01*
X32174829Y-40104562D01*
X32180815Y-40084829D01*
X32218858Y-39959417D01*
X32223025Y-39917106D01*
X32230000Y-39846290D01*
X32230000Y-39846284D01*
X32233724Y-39808471D01*
X32230000Y-39770658D01*
X32230000Y-38142621D01*
X32339180Y-38109502D01*
X32449494Y-38050537D01*
X32546185Y-37971185D01*
X32625537Y-37874494D01*
X32684502Y-37764180D01*
X32720812Y-37644482D01*
X32733072Y-37520000D01*
X32733072Y-37178072D01*
X32885000Y-37178072D01*
X32885001Y-52032170D01*
G37*
X32885001Y-52032170D02*
X32881275Y-52070000D01*
X32896142Y-52220946D01*
X32940171Y-52366092D01*
X33011671Y-52499859D01*
X33107894Y-52617106D01*
X33225141Y-52713329D01*
X33358908Y-52784829D01*
X33504054Y-52828858D01*
X33617180Y-52840000D01*
X33655000Y-52843725D01*
X33692820Y-52840000D01*
X43178503Y-52840000D01*
X43296525Y-53016632D01*
X43503368Y-53223475D01*
X43677760Y-53340000D01*
X43503368Y-53456525D01*
X43296525Y-53663368D01*
X43134010Y-53906589D01*
X43022068Y-54176842D01*
X42965000Y-54463740D01*
X42965000Y-54756260D01*
X43022068Y-55043158D01*
X43134010Y-55313411D01*
X43296525Y-55556632D01*
X43503368Y-55763475D01*
X43640345Y-55855000D01*
X15317295Y-55855000D01*
X15350537Y-55814494D01*
X15409502Y-55704180D01*
X15445812Y-55584482D01*
X15458072Y-55460000D01*
X15458072Y-53760000D01*
X15445812Y-53635518D01*
X15409502Y-53515820D01*
X15350537Y-53405506D01*
X15271185Y-53308815D01*
X15174494Y-53229463D01*
X15064180Y-53170498D01*
X14991620Y-53148487D01*
X15123475Y-53016632D01*
X15241497Y-52840000D01*
X19160657Y-52840000D01*
X19198470Y-52843724D01*
X19236283Y-52840000D01*
X19236290Y-52840000D01*
X19349416Y-52828858D01*
X19494562Y-52784829D01*
X19628329Y-52713329D01*
X19745576Y-52617106D01*
X19769691Y-52587722D01*
X31977727Y-40379687D01*
X32007106Y-40355576D01*
X32103329Y-40238329D01*
X32174829Y-40104562D01*
X32180815Y-40084829D01*
X32218858Y-39959417D01*
X32223025Y-39917106D01*
X32230000Y-39846290D01*
X32230000Y-39846284D01*
X32233724Y-39808471D01*
X32230000Y-39770658D01*
X32230000Y-38142621D01*
X32339180Y-38109502D01*
X32449494Y-38050537D01*
X32546185Y-37971185D01*
X32625537Y-37874494D01*
X32684502Y-37764180D01*
X32720812Y-37644482D01*
X32733072Y-37520000D01*
X32733072Y-37178072D01*
X32885000Y-37178072D01*
X32885001Y-52032170D01*
G36*
X45695000Y-55855000D02*
G01*
X45259655Y-55855000D01*
X45396632Y-55763475D01*
X45603475Y-55556632D01*
X45695000Y-55419655D01*
X45695000Y-55855000D01*
G37*
X45695000Y-55855000D02*
X45259655Y-55855000D01*
X45396632Y-55763475D01*
X45603475Y-55556632D01*
X45695000Y-55419655D01*
X45695000Y-55855000D01*
G36*
X45695000Y-53800345D02*
G01*
X45603475Y-53663368D01*
X45396632Y-53456525D01*
X45222240Y-53340000D01*
X45396632Y-53223475D01*
X45603475Y-53016632D01*
X45695000Y-52879655D01*
X45695000Y-53800345D01*
G37*
X45695000Y-53800345D02*
X45603475Y-53663368D01*
X45396632Y-53456525D01*
X45222240Y-53340000D01*
X45396632Y-53223475D01*
X45603475Y-53016632D01*
X45695000Y-52879655D01*
X45695000Y-53800345D01*
G36*
X12816525Y-53016632D02*
G01*
X12948380Y-53148487D01*
X12875820Y-53170498D01*
X12765506Y-53229463D01*
X12725000Y-53262705D01*
X12725000Y-52879655D01*
X12816525Y-53016632D01*
G37*
X12816525Y-53016632D02*
X12948380Y-53148487D01*
X12875820Y-53170498D01*
X12765506Y-53229463D01*
X12725000Y-53262705D01*
X12725000Y-52879655D01*
X12816525Y-53016632D01*
G36*
X18879527Y-51300000D02*
G01*
X15241497Y-51300000D01*
X15123475Y-51123368D01*
X14916632Y-50916525D01*
X14742240Y-50800000D01*
X14916632Y-50683475D01*
X15123475Y-50476632D01*
X15241497Y-50300000D01*
X19879527Y-50300000D01*
X18879527Y-51300000D01*
G37*
X18879527Y-51300000D02*
X15241497Y-51300000D01*
X15123475Y-51123368D01*
X14916632Y-50916525D01*
X14742240Y-50800000D01*
X14916632Y-50683475D01*
X15123475Y-50476632D01*
X15241497Y-50300000D01*
X19879527Y-50300000D01*
X18879527Y-51300000D01*
G36*
X43296525Y-50476632D02*
G01*
X43503368Y-50683475D01*
X43677760Y-50800000D01*
X43503368Y-50916525D01*
X43296525Y-51123368D01*
X43178503Y-51300000D01*
X34425000Y-51300000D01*
X34425000Y-50300000D01*
X43178503Y-50300000D01*
X43296525Y-50476632D01*
G37*
X43296525Y-50476632D02*
X43503368Y-50683475D01*
X43677760Y-50800000D01*
X43503368Y-50916525D01*
X43296525Y-51123368D01*
X43178503Y-51300000D01*
X34425000Y-51300000D01*
X34425000Y-50300000D01*
X43178503Y-50300000D01*
X43296525Y-50476632D01*
G36*
X12816525Y-50476632D02*
G01*
X13023368Y-50683475D01*
X13197760Y-50800000D01*
X13023368Y-50916525D01*
X12816525Y-51123368D01*
X12725000Y-51260345D01*
X12725000Y-50339655D01*
X12816525Y-50476632D01*
G37*
X12816525Y-50476632D02*
X13023368Y-50683475D01*
X13197760Y-50800000D01*
X13023368Y-50916525D01*
X12816525Y-51123368D01*
X12725000Y-51260345D01*
X12725000Y-50339655D01*
X12816525Y-50476632D01*
G36*
X45695000Y-51260345D02*
G01*
X45603475Y-51123368D01*
X45396632Y-50916525D01*
X45222240Y-50800000D01*
X45396632Y-50683475D01*
X45603475Y-50476632D01*
X45695000Y-50339655D01*
X45695000Y-51260345D01*
G37*
X45695000Y-51260345D02*
X45603475Y-51123368D01*
X45396632Y-50916525D01*
X45222240Y-50800000D01*
X45396632Y-50683475D01*
X45603475Y-50476632D01*
X45695000Y-50339655D01*
X45695000Y-51260345D01*
G36*
X43296525Y-47936632D02*
G01*
X43503368Y-48143475D01*
X43677760Y-48260000D01*
X43503368Y-48376525D01*
X43296525Y-48583368D01*
X43178503Y-48760000D01*
X34895010Y-48760000D01*
X34895010Y-47760000D01*
X43178503Y-47760000D01*
X43296525Y-47936632D01*
G37*
X43296525Y-47936632D02*
X43503368Y-48143475D01*
X43677760Y-48260000D01*
X43503368Y-48376525D01*
X43296525Y-48583368D01*
X43178503Y-48760000D01*
X34895010Y-48760000D01*
X34895010Y-47760000D01*
X43178503Y-47760000D01*
X43296525Y-47936632D01*
G36*
X20754833Y-48760000D02*
G01*
X15241497Y-48760000D01*
X15123475Y-48583368D01*
X14916632Y-48376525D01*
X14742240Y-48260000D01*
X14916632Y-48143475D01*
X15123475Y-47936632D01*
X15241497Y-47760000D01*
X21754833Y-47760000D01*
X20754833Y-48760000D01*
G37*
X20754833Y-48760000D02*
X15241497Y-48760000D01*
X15123475Y-48583368D01*
X14916632Y-48376525D01*
X14742240Y-48260000D01*
X14916632Y-48143475D01*
X15123475Y-47936632D01*
X15241497Y-47760000D01*
X21754833Y-47760000D01*
X20754833Y-48760000D01*
G36*
X45695000Y-48720345D02*
G01*
X45603475Y-48583368D01*
X45396632Y-48376525D01*
X45222240Y-48260000D01*
X45396632Y-48143475D01*
X45603475Y-47936632D01*
X45695000Y-47799655D01*
X45695000Y-48720345D01*
G37*
X45695000Y-48720345D02*
X45603475Y-48583368D01*
X45396632Y-48376525D01*
X45222240Y-48260000D01*
X45396632Y-48143475D01*
X45603475Y-47936632D01*
X45695000Y-47799655D01*
X45695000Y-48720345D01*
G36*
X12816525Y-47936632D02*
G01*
X13023368Y-48143475D01*
X13197760Y-48260000D01*
X13023368Y-48376525D01*
X12816525Y-48583368D01*
X12725000Y-48720345D01*
X12725000Y-47799655D01*
X12816525Y-47936632D01*
G37*
X12816525Y-47936632D02*
X13023368Y-48143475D01*
X13197760Y-48260000D01*
X13023368Y-48376525D01*
X12816525Y-48583368D01*
X12725000Y-48720345D01*
X12725000Y-47799655D01*
X12816525Y-47936632D01*
G36*
X43296525Y-45396632D02*
G01*
X43503368Y-45603475D01*
X43677760Y-45720000D01*
X43503368Y-45836525D01*
X43296525Y-46043368D01*
X43178503Y-46220000D01*
X35365020Y-46220000D01*
X35365020Y-45220000D01*
X43178503Y-45220000D01*
X43296525Y-45396632D01*
G37*
X43296525Y-45396632D02*
X43503368Y-45603475D01*
X43677760Y-45720000D01*
X43503368Y-45836525D01*
X43296525Y-46043368D01*
X43178503Y-46220000D01*
X35365020Y-46220000D01*
X35365020Y-45220000D01*
X43178503Y-45220000D01*
X43296525Y-45396632D01*
G36*
X22630139Y-46220000D02*
G01*
X15241497Y-46220000D01*
X15123475Y-46043368D01*
X14916632Y-45836525D01*
X14742240Y-45720000D01*
X14916632Y-45603475D01*
X15123475Y-45396632D01*
X15241497Y-45220000D01*
X23630139Y-45220000D01*
X22630139Y-46220000D01*
G37*
X22630139Y-46220000D02*
X15241497Y-46220000D01*
X15123475Y-46043368D01*
X14916632Y-45836525D01*
X14742240Y-45720000D01*
X14916632Y-45603475D01*
X15123475Y-45396632D01*
X15241497Y-45220000D01*
X23630139Y-45220000D01*
X22630139Y-46220000D01*
G36*
X12816525Y-45396632D02*
G01*
X13023368Y-45603475D01*
X13197760Y-45720000D01*
X13023368Y-45836525D01*
X12816525Y-46043368D01*
X12725000Y-46180345D01*
X12725000Y-45259655D01*
X12816525Y-45396632D01*
G37*
X12816525Y-45396632D02*
X13023368Y-45603475D01*
X13197760Y-45720000D01*
X13023368Y-45836525D01*
X12816525Y-46043368D01*
X12725000Y-46180345D01*
X12725000Y-45259655D01*
X12816525Y-45396632D01*
G36*
X45695000Y-46180345D02*
G01*
X45603475Y-46043368D01*
X45396632Y-45836525D01*
X45222240Y-45720000D01*
X45396632Y-45603475D01*
X45603475Y-45396632D01*
X45695000Y-45259655D01*
X45695000Y-46180345D01*
G37*
X45695000Y-46180345D02*
X45603475Y-46043368D01*
X45396632Y-45836525D01*
X45222240Y-45720000D01*
X45396632Y-45603475D01*
X45603475Y-45396632D01*
X45695000Y-45259655D01*
X45695000Y-46180345D01*
G36*
X43296525Y-42856632D02*
G01*
X43503368Y-43063475D01*
X43677760Y-43180000D01*
X43503368Y-43296525D01*
X43296525Y-43503368D01*
X43178503Y-43680000D01*
X35835030Y-43680000D01*
X35835030Y-42680000D01*
X43178503Y-42680000D01*
X43296525Y-42856632D01*
G37*
X43296525Y-42856632D02*
X43503368Y-43063475D01*
X43677760Y-43180000D01*
X43503368Y-43296525D01*
X43296525Y-43503368D01*
X43178503Y-43680000D01*
X35835030Y-43680000D01*
X35835030Y-42680000D01*
X43178503Y-42680000D01*
X43296525Y-42856632D01*
G36*
X24505445Y-43680000D02*
G01*
X15241497Y-43680000D01*
X15123475Y-43503368D01*
X14916632Y-43296525D01*
X14742240Y-43180000D01*
X14916632Y-43063475D01*
X15123475Y-42856632D01*
X15241497Y-42680000D01*
X25505445Y-42680000D01*
X24505445Y-43680000D01*
G37*
X24505445Y-43680000D02*
X15241497Y-43680000D01*
X15123475Y-43503368D01*
X14916632Y-43296525D01*
X14742240Y-43180000D01*
X14916632Y-43063475D01*
X15123475Y-42856632D01*
X15241497Y-42680000D01*
X25505445Y-42680000D01*
X24505445Y-43680000D01*
G36*
X12816525Y-42856632D02*
G01*
X13023368Y-43063475D01*
X13197760Y-43180000D01*
X13023368Y-43296525D01*
X12816525Y-43503368D01*
X12725000Y-43640345D01*
X12725000Y-42719655D01*
X12816525Y-42856632D01*
G37*
X12816525Y-42856632D02*
X13023368Y-43063475D01*
X13197760Y-43180000D01*
X13023368Y-43296525D01*
X12816525Y-43503368D01*
X12725000Y-43640345D01*
X12725000Y-42719655D01*
X12816525Y-42856632D01*
G36*
X45695000Y-43640345D02*
G01*
X45603475Y-43503368D01*
X45396632Y-43296525D01*
X45222240Y-43180000D01*
X45396632Y-43063475D01*
X45603475Y-42856632D01*
X45695000Y-42719655D01*
X45695000Y-43640345D01*
G37*
X45695000Y-43640345D02*
X45603475Y-43503368D01*
X45396632Y-43296525D01*
X45222240Y-43180000D01*
X45396632Y-43063475D01*
X45603475Y-42856632D01*
X45695000Y-42719655D01*
X45695000Y-43640345D01*
G36*
X43296525Y-40316632D02*
G01*
X43503368Y-40523475D01*
X43677760Y-40640000D01*
X43503368Y-40756525D01*
X43296525Y-40963368D01*
X43178503Y-41140000D01*
X36330000Y-41140000D01*
X36330000Y-40140000D01*
X43178503Y-40140000D01*
X43296525Y-40316632D01*
G37*
X43296525Y-40316632D02*
X43503368Y-40523475D01*
X43677760Y-40640000D01*
X43503368Y-40756525D01*
X43296525Y-40963368D01*
X43178503Y-41140000D01*
X36330000Y-41140000D01*
X36330000Y-40140000D01*
X43178503Y-40140000D01*
X43296525Y-40316632D01*
G36*
X26380751Y-41140000D02*
G01*
X15241497Y-41140000D01*
X15123475Y-40963368D01*
X14916632Y-40756525D01*
X14742240Y-40640000D01*
X14916632Y-40523475D01*
X15123475Y-40316632D01*
X15241497Y-40140000D01*
X27380751Y-40140000D01*
X26380751Y-41140000D01*
G37*
X26380751Y-41140000D02*
X15241497Y-41140000D01*
X15123475Y-40963368D01*
X14916632Y-40756525D01*
X14742240Y-40640000D01*
X14916632Y-40523475D01*
X15123475Y-40316632D01*
X15241497Y-40140000D01*
X27380751Y-40140000D01*
X26380751Y-41140000D01*
G36*
X12816525Y-40316632D02*
G01*
X13023368Y-40523475D01*
X13197760Y-40640000D01*
X13023368Y-40756525D01*
X12816525Y-40963368D01*
X12725000Y-41100345D01*
X12725000Y-40179655D01*
X12816525Y-40316632D01*
G37*
X12816525Y-40316632D02*
X13023368Y-40523475D01*
X13197760Y-40640000D01*
X13023368Y-40756525D01*
X12816525Y-40963368D01*
X12725000Y-41100345D01*
X12725000Y-40179655D01*
X12816525Y-40316632D01*
G36*
X45695000Y-41100345D02*
G01*
X45603475Y-40963368D01*
X45396632Y-40756525D01*
X45222240Y-40640000D01*
X45396632Y-40523475D01*
X45603475Y-40316632D01*
X45695000Y-40179655D01*
X45695000Y-41100345D01*
G37*
X45695000Y-41100345D02*
X45603475Y-40963368D01*
X45396632Y-40756525D01*
X45222240Y-40640000D01*
X45396632Y-40523475D01*
X45603475Y-40316632D01*
X45695000Y-40179655D01*
X45695000Y-41100345D01*
G36*
X43296525Y-37776632D02*
G01*
X43503368Y-37983475D01*
X43677760Y-38100000D01*
X43503368Y-38216525D01*
X43296525Y-38423368D01*
X43178503Y-38600000D01*
X36800010Y-38600000D01*
X36800010Y-37600000D01*
X43178503Y-37600000D01*
X43296525Y-37776632D01*
G37*
X43296525Y-37776632D02*
X43503368Y-37983475D01*
X43677760Y-38100000D01*
X43503368Y-38216525D01*
X43296525Y-38423368D01*
X43178503Y-38600000D01*
X36800010Y-38600000D01*
X36800010Y-37600000D01*
X43178503Y-37600000D01*
X43296525Y-37776632D01*
G36*
X22271056Y-38600000D02*
G01*
X15241497Y-38600000D01*
X15123475Y-38423368D01*
X14916632Y-38216525D01*
X14742240Y-38100000D01*
X14916632Y-37983475D01*
X15123475Y-37776632D01*
X15241497Y-37600000D01*
X21271057Y-37600000D01*
X22271056Y-38600000D01*
G37*
X22271056Y-38600000D02*
X15241497Y-38600000D01*
X15123475Y-38423368D01*
X14916632Y-38216525D01*
X14742240Y-38100000D01*
X14916632Y-37983475D01*
X15123475Y-37776632D01*
X15241497Y-37600000D01*
X21271057Y-37600000D01*
X22271056Y-38600000D01*
G36*
X45695000Y-38560346D02*
G01*
X45603475Y-38423368D01*
X45396632Y-38216525D01*
X45222240Y-38100000D01*
X45396632Y-37983475D01*
X45603475Y-37776632D01*
X45695000Y-37639654D01*
X45695000Y-38560346D01*
G37*
X45695000Y-38560346D02*
X45603475Y-38423368D01*
X45396632Y-38216525D01*
X45222240Y-38100000D01*
X45396632Y-37983475D01*
X45603475Y-37776632D01*
X45695000Y-37639654D01*
X45695000Y-38560346D01*
G36*
X12816525Y-37776632D02*
G01*
X13023368Y-37983475D01*
X13197760Y-38100000D01*
X13023368Y-38216525D01*
X12816525Y-38423368D01*
X12725000Y-38560345D01*
X12725000Y-37639655D01*
X12816525Y-37776632D01*
G37*
X12816525Y-37776632D02*
X13023368Y-37983475D01*
X13197760Y-38100000D01*
X13023368Y-38216525D01*
X12816525Y-38423368D01*
X12725000Y-38560345D01*
X12725000Y-37639655D01*
X12816525Y-37776632D01*
G36*
X43296525Y-35236632D02*
G01*
X43503368Y-35443475D01*
X43677760Y-35560000D01*
X43503368Y-35676525D01*
X43296525Y-35883368D01*
X43178503Y-36060000D01*
X37270020Y-36060000D01*
X37270020Y-35060000D01*
X43178503Y-35060000D01*
X43296525Y-35236632D01*
G37*
X43296525Y-35236632D02*
X43503368Y-35443475D01*
X43677760Y-35560000D01*
X43503368Y-35676525D01*
X43296525Y-35883368D01*
X43178503Y-36060000D01*
X37270020Y-36060000D01*
X37270020Y-35060000D01*
X43178503Y-35060000D01*
X43296525Y-35236632D01*
G36*
X21001057Y-36060000D02*
G01*
X15241497Y-36060000D01*
X15123475Y-35883368D01*
X14916632Y-35676525D01*
X14742240Y-35560000D01*
X14916632Y-35443475D01*
X15123475Y-35236632D01*
X15241497Y-35060000D01*
X20001057Y-35060000D01*
X21001057Y-36060000D01*
G37*
X21001057Y-36060000D02*
X15241497Y-36060000D01*
X15123475Y-35883368D01*
X14916632Y-35676525D01*
X14742240Y-35560000D01*
X14916632Y-35443475D01*
X15123475Y-35236632D01*
X15241497Y-35060000D01*
X20001057Y-35060000D01*
X21001057Y-36060000D01*
G36*
X45695000Y-36020346D02*
G01*
X45603475Y-35883368D01*
X45396632Y-35676525D01*
X45222240Y-35560000D01*
X45396632Y-35443475D01*
X45603475Y-35236632D01*
X45695000Y-35099654D01*
X45695000Y-36020346D01*
G37*
X45695000Y-36020346D02*
X45603475Y-35883368D01*
X45396632Y-35676525D01*
X45222240Y-35560000D01*
X45396632Y-35443475D01*
X45603475Y-35236632D01*
X45695000Y-35099654D01*
X45695000Y-36020346D01*
G36*
X12816525Y-35236632D02*
G01*
X13023368Y-35443475D01*
X13197760Y-35560000D01*
X13023368Y-35676525D01*
X12816525Y-35883368D01*
X12725000Y-36020345D01*
X12725000Y-35099655D01*
X12816525Y-35236632D01*
G37*
X12816525Y-35236632D02*
X13023368Y-35443475D01*
X13197760Y-35560000D01*
X13023368Y-35676525D01*
X12816525Y-35883368D01*
X12725000Y-36020345D01*
X12725000Y-35099655D01*
X12816525Y-35236632D01*
G36*
X43296525Y-32696632D02*
G01*
X43503368Y-32903475D01*
X43677760Y-33020000D01*
X43503368Y-33136525D01*
X43296525Y-33343368D01*
X43178503Y-33520000D01*
X37740030Y-33520000D01*
X37740030Y-32770460D01*
X37743755Y-32732640D01*
X37728888Y-32581694D01*
X37710174Y-32520000D01*
X43178503Y-32520000D01*
X43296525Y-32696632D01*
G37*
X43296525Y-32696632D02*
X43503368Y-32903475D01*
X43677760Y-33020000D01*
X43503368Y-33136525D01*
X43296525Y-33343368D01*
X43178503Y-33520000D01*
X37740030Y-33520000D01*
X37740030Y-32770460D01*
X37743755Y-32732640D01*
X37728888Y-32581694D01*
X37710174Y-32520000D01*
X43178503Y-32520000D01*
X43296525Y-32696632D01*
G36*
X19731057Y-33520000D02*
G01*
X15241497Y-33520000D01*
X15123475Y-33343368D01*
X14916632Y-33136525D01*
X14742240Y-33020000D01*
X14916632Y-32903475D01*
X15123475Y-32696632D01*
X15241497Y-32520000D01*
X18731057Y-32520000D01*
X19731057Y-33520000D01*
G37*
X19731057Y-33520000D02*
X15241497Y-33520000D01*
X15123475Y-33343368D01*
X14916632Y-33136525D01*
X14742240Y-33020000D01*
X14916632Y-32903475D01*
X15123475Y-32696632D01*
X15241497Y-32520000D01*
X18731057Y-32520000D01*
X19731057Y-33520000D01*
G36*
X45695001Y-33480346D02*
G01*
X45603475Y-33343368D01*
X45396632Y-33136525D01*
X45222240Y-33020000D01*
X45396632Y-32903475D01*
X45603475Y-32696632D01*
X45695001Y-32559654D01*
X45695001Y-33480346D01*
G37*
X45695001Y-33480346D02*
X45603475Y-33343368D01*
X45396632Y-33136525D01*
X45222240Y-33020000D01*
X45396632Y-32903475D01*
X45603475Y-32696632D01*
X45695001Y-32559654D01*
X45695001Y-33480346D01*
G36*
X12816525Y-32696632D02*
G01*
X13023368Y-32903475D01*
X13197760Y-33020000D01*
X13023368Y-33136525D01*
X12816525Y-33343368D01*
X12725000Y-33480345D01*
X12725000Y-32559655D01*
X12816525Y-32696632D01*
G37*
X12816525Y-32696632D02*
X13023368Y-32903475D01*
X13197760Y-33020000D01*
X13023368Y-33136525D01*
X12816525Y-33343368D01*
X12725000Y-33480345D01*
X12725000Y-32559655D01*
X12816525Y-32696632D01*
G36*
X43296525Y-30156632D02*
G01*
X43503368Y-30363475D01*
X43677760Y-30480000D01*
X43503368Y-30596525D01*
X43296525Y-30803368D01*
X43178503Y-30980000D01*
X37148944Y-30980000D01*
X36148944Y-29980000D01*
X43178503Y-29980000D01*
X43296525Y-30156632D01*
G37*
X43296525Y-30156632D02*
X43503368Y-30363475D01*
X43677760Y-30480000D01*
X43503368Y-30596525D01*
X43296525Y-30803368D01*
X43178503Y-30980000D01*
X37148944Y-30980000D01*
X36148944Y-29980000D01*
X43178503Y-29980000D01*
X43296525Y-30156632D01*
G36*
X18093055Y-30980000D02*
G01*
X15241497Y-30980000D01*
X15123475Y-30803368D01*
X14916632Y-30596525D01*
X14742240Y-30480000D01*
X14916632Y-30363475D01*
X15123475Y-30156632D01*
X15241497Y-29980000D01*
X17093055Y-29980000D01*
X18093055Y-30980000D01*
G37*
X18093055Y-30980000D02*
X15241497Y-30980000D01*
X15123475Y-30803368D01*
X14916632Y-30596525D01*
X14742240Y-30480000D01*
X14916632Y-30363475D01*
X15123475Y-30156632D01*
X15241497Y-29980000D01*
X17093055Y-29980000D01*
X18093055Y-30980000D01*
G36*
X45695001Y-30940346D02*
G01*
X45603475Y-30803368D01*
X45396632Y-30596525D01*
X45222240Y-30480000D01*
X45396632Y-30363475D01*
X45603475Y-30156632D01*
X45695001Y-30019654D01*
X45695001Y-30940346D01*
G37*
X45695001Y-30940346D02*
X45603475Y-30803368D01*
X45396632Y-30596525D01*
X45222240Y-30480000D01*
X45396632Y-30363475D01*
X45603475Y-30156632D01*
X45695001Y-30019654D01*
X45695001Y-30940346D01*
G36*
X12816525Y-30156632D02*
G01*
X13023368Y-30363475D01*
X13197760Y-30480000D01*
X13023368Y-30596525D01*
X12816525Y-30803368D01*
X12725000Y-30940345D01*
X12725000Y-30019655D01*
X12816525Y-30156632D01*
G37*
X12816525Y-30156632D02*
X13023368Y-30363475D01*
X13197760Y-30480000D01*
X13023368Y-30596525D01*
X12816525Y-30803368D01*
X12725000Y-30940345D01*
X12725000Y-30019655D01*
X12816525Y-30156632D01*
G36*
X43069463Y-12765506D02*
G01*
X43010498Y-12875820D01*
X42974188Y-12995518D01*
X42961928Y-13120000D01*
X42961928Y-14820000D01*
X42974188Y-14944482D01*
X43010498Y-15064180D01*
X43069463Y-15174494D01*
X43148815Y-15271185D01*
X43245506Y-15350537D01*
X43355820Y-15409502D01*
X43428380Y-15431513D01*
X43296525Y-15563368D01*
X43178503Y-15740000D01*
X38557570Y-15740000D01*
X38519757Y-15736276D01*
X38481944Y-15740000D01*
X38481938Y-15740000D01*
X38384210Y-15749625D01*
X38368811Y-15751142D01*
X38324782Y-15764498D01*
X38223666Y-15795171D01*
X38089899Y-15866671D01*
X37972652Y-15962894D01*
X37948541Y-15992273D01*
X25942274Y-27998541D01*
X25912895Y-28022652D01*
X25816672Y-28139899D01*
X25794474Y-28181428D01*
X25745171Y-28273667D01*
X25701142Y-28418812D01*
X25686276Y-28569758D01*
X25690001Y-28607580D01*
X25690000Y-29758805D01*
X25686928Y-29790000D01*
X25686928Y-30131928D01*
X25345000Y-30131928D01*
X25220518Y-30144188D01*
X25100820Y-30180498D01*
X25016507Y-30225565D01*
X23630000Y-28839059D01*
X23630000Y-16547820D01*
X23633725Y-16510000D01*
X23618858Y-16359054D01*
X23574829Y-16213908D01*
X23503329Y-16080141D01*
X23407106Y-15962894D01*
X23289859Y-15866671D01*
X23156092Y-15795171D01*
X23010946Y-15751142D01*
X22897820Y-15740000D01*
X22860000Y-15736275D01*
X22822180Y-15740000D01*
X15241497Y-15740000D01*
X15123475Y-15563368D01*
X14916632Y-15356525D01*
X14742240Y-15240000D01*
X14916632Y-15123475D01*
X15123475Y-14916632D01*
X15285990Y-14673411D01*
X15397932Y-14403158D01*
X15455000Y-14116260D01*
X15455000Y-13823740D01*
X15397932Y-13536842D01*
X15285990Y-13266589D01*
X15123475Y-13023368D01*
X14916632Y-12816525D01*
X14779655Y-12725000D01*
X43102705Y-12725000D01*
X43069463Y-12765506D01*
G37*
X43069463Y-12765506D02*
X43010498Y-12875820D01*
X42974188Y-12995518D01*
X42961928Y-13120000D01*
X42961928Y-14820000D01*
X42974188Y-14944482D01*
X43010498Y-15064180D01*
X43069463Y-15174494D01*
X43148815Y-15271185D01*
X43245506Y-15350537D01*
X43355820Y-15409502D01*
X43428380Y-15431513D01*
X43296525Y-15563368D01*
X43178503Y-15740000D01*
X38557570Y-15740000D01*
X38519757Y-15736276D01*
X38481944Y-15740000D01*
X38481938Y-15740000D01*
X38384210Y-15749625D01*
X38368811Y-15751142D01*
X38324782Y-15764498D01*
X38223666Y-15795171D01*
X38089899Y-15866671D01*
X37972652Y-15962894D01*
X37948541Y-15992273D01*
X25942274Y-27998541D01*
X25912895Y-28022652D01*
X25816672Y-28139899D01*
X25794474Y-28181428D01*
X25745171Y-28273667D01*
X25701142Y-28418812D01*
X25686276Y-28569758D01*
X25690001Y-28607580D01*
X25690000Y-29758805D01*
X25686928Y-29790000D01*
X25686928Y-30131928D01*
X25345000Y-30131928D01*
X25220518Y-30144188D01*
X25100820Y-30180498D01*
X25016507Y-30225565D01*
X23630000Y-28839059D01*
X23630000Y-16547820D01*
X23633725Y-16510000D01*
X23618858Y-16359054D01*
X23574829Y-16213908D01*
X23503329Y-16080141D01*
X23407106Y-15962894D01*
X23289859Y-15866671D01*
X23156092Y-15795171D01*
X23010946Y-15751142D01*
X22897820Y-15740000D01*
X22860000Y-15736275D01*
X22822180Y-15740000D01*
X15241497Y-15740000D01*
X15123475Y-15563368D01*
X14916632Y-15356525D01*
X14742240Y-15240000D01*
X14916632Y-15123475D01*
X15123475Y-14916632D01*
X15285990Y-14673411D01*
X15397932Y-14403158D01*
X15455000Y-14116260D01*
X15455000Y-13823740D01*
X15397932Y-13536842D01*
X15285990Y-13266589D01*
X15123475Y-13023368D01*
X14916632Y-12816525D01*
X14779655Y-12725000D01*
X43102705Y-12725000D01*
X43069463Y-12765506D01*
G36*
X18280000Y-28989059D02*
G01*
X17983219Y-28692278D01*
X17959104Y-28662894D01*
X17841857Y-28566671D01*
X17708090Y-28495171D01*
X17562944Y-28451142D01*
X17449818Y-28440000D01*
X17449811Y-28440000D01*
X17411998Y-28436276D01*
X17374185Y-28440000D01*
X15241497Y-28440000D01*
X15123475Y-28263368D01*
X14916632Y-28056525D01*
X14742240Y-27940000D01*
X14916632Y-27823475D01*
X15123475Y-27616632D01*
X15241497Y-27440000D01*
X18280001Y-27440000D01*
X18280000Y-28989059D01*
G37*
X18280000Y-28989059D02*
X17983219Y-28692278D01*
X17959104Y-28662894D01*
X17841857Y-28566671D01*
X17708090Y-28495171D01*
X17562944Y-28451142D01*
X17449818Y-28440000D01*
X17449811Y-28440000D01*
X17411998Y-28436276D01*
X17374185Y-28440000D01*
X15241497Y-28440000D01*
X15123475Y-28263368D01*
X14916632Y-28056525D01*
X14742240Y-27940000D01*
X14916632Y-27823475D01*
X15123475Y-27616632D01*
X15241497Y-27440000D01*
X18280001Y-27440000D01*
X18280000Y-28989059D01*
G36*
X43296525Y-27616632D02*
G01*
X43503368Y-27823475D01*
X43677760Y-27940000D01*
X43503368Y-28056525D01*
X43296525Y-28263368D01*
X43178503Y-28440000D01*
X35273639Y-28440000D01*
X34273638Y-27440000D01*
X43178503Y-27440000D01*
X43296525Y-27616632D01*
G37*
X43296525Y-27616632D02*
X43503368Y-27823475D01*
X43677760Y-27940000D01*
X43503368Y-28056525D01*
X43296525Y-28263368D01*
X43178503Y-28440000D01*
X35273639Y-28440000D01*
X34273638Y-27440000D01*
X43178503Y-27440000D01*
X43296525Y-27616632D01*
G36*
X45695001Y-28400346D02*
G01*
X45603475Y-28263368D01*
X45396632Y-28056525D01*
X45222240Y-27940000D01*
X45396632Y-27823475D01*
X45603475Y-27616632D01*
X45695001Y-27479654D01*
X45695001Y-28400346D01*
G37*
X45695001Y-28400346D02*
X45603475Y-28263368D01*
X45396632Y-28056525D01*
X45222240Y-27940000D01*
X45396632Y-27823475D01*
X45603475Y-27616632D01*
X45695001Y-27479654D01*
X45695001Y-28400346D01*
G36*
X12816525Y-27616632D02*
G01*
X13023368Y-27823475D01*
X13197760Y-27940000D01*
X13023368Y-28056525D01*
X12816525Y-28263368D01*
X12725000Y-28400345D01*
X12725000Y-27479655D01*
X12816525Y-27616632D01*
G37*
X12816525Y-27616632D02*
X13023368Y-27823475D01*
X13197760Y-27940000D01*
X13023368Y-28056525D01*
X12816525Y-28263368D01*
X12725000Y-28400345D01*
X12725000Y-27479655D01*
X12816525Y-27616632D01*
G36*
X19550001Y-26084235D02*
G01*
X19479859Y-26026671D01*
X19346092Y-25955171D01*
X19200946Y-25911142D01*
X19087820Y-25900000D01*
X19050000Y-25896275D01*
X19012180Y-25900000D01*
X15241497Y-25900000D01*
X15123475Y-25723368D01*
X14916632Y-25516525D01*
X14742240Y-25400000D01*
X14916632Y-25283475D01*
X15123475Y-25076632D01*
X15241497Y-24900000D01*
X19550001Y-24900000D01*
X19550001Y-26084235D01*
G37*
X19550001Y-26084235D02*
X19479859Y-26026671D01*
X19346092Y-25955171D01*
X19200946Y-25911142D01*
X19087820Y-25900000D01*
X19050000Y-25896275D01*
X19012180Y-25900000D01*
X15241497Y-25900000D01*
X15123475Y-25723368D01*
X14916632Y-25516525D01*
X14742240Y-25400000D01*
X14916632Y-25283475D01*
X15123475Y-25076632D01*
X15241497Y-24900000D01*
X19550001Y-24900000D01*
X19550001Y-26084235D01*
G36*
X43296525Y-25076632D02*
G01*
X43503368Y-25283475D01*
X43677760Y-25400000D01*
X43503368Y-25516525D01*
X43296525Y-25723368D01*
X43178503Y-25900000D01*
X32212784Y-25900000D01*
X33212785Y-24900000D01*
X43178503Y-24900000D01*
X43296525Y-25076632D01*
G37*
X43296525Y-25076632D02*
X43503368Y-25283475D01*
X43677760Y-25400000D01*
X43503368Y-25516525D01*
X43296525Y-25723368D01*
X43178503Y-25900000D01*
X32212784Y-25900000D01*
X33212785Y-24900000D01*
X43178503Y-24900000D01*
X43296525Y-25076632D01*
G36*
X45695001Y-25860346D02*
G01*
X45603475Y-25723368D01*
X45396632Y-25516525D01*
X45222240Y-25400000D01*
X45396632Y-25283475D01*
X45603475Y-25076632D01*
X45695001Y-24939654D01*
X45695001Y-25860346D01*
G37*
X45695001Y-25860346D02*
X45603475Y-25723368D01*
X45396632Y-25516525D01*
X45222240Y-25400000D01*
X45396632Y-25283475D01*
X45603475Y-25076632D01*
X45695001Y-24939654D01*
X45695001Y-25860346D01*
G36*
X12816525Y-25076632D02*
G01*
X13023368Y-25283475D01*
X13197760Y-25400000D01*
X13023368Y-25516525D01*
X12816525Y-25723368D01*
X12725000Y-25860345D01*
X12725000Y-24939655D01*
X12816525Y-25076632D01*
G37*
X12816525Y-25076632D02*
X13023368Y-25283475D01*
X13197760Y-25400000D01*
X13023368Y-25516525D01*
X12816525Y-25723368D01*
X12725000Y-25860345D01*
X12725000Y-24939655D01*
X12816525Y-25076632D01*
G36*
X20820001Y-23544235D02*
G01*
X20749859Y-23486671D01*
X20616092Y-23415171D01*
X20470946Y-23371142D01*
X20357820Y-23360000D01*
X20320000Y-23356275D01*
X20282180Y-23360000D01*
X15241497Y-23360000D01*
X15123475Y-23183368D01*
X14916632Y-22976525D01*
X14742240Y-22860000D01*
X14916632Y-22743475D01*
X15123475Y-22536632D01*
X15241497Y-22360000D01*
X20820001Y-22360000D01*
X20820001Y-23544235D01*
G37*
X20820001Y-23544235D02*
X20749859Y-23486671D01*
X20616092Y-23415171D01*
X20470946Y-23371142D01*
X20357820Y-23360000D01*
X20320000Y-23356275D01*
X20282180Y-23360000D01*
X15241497Y-23360000D01*
X15123475Y-23183368D01*
X14916632Y-22976525D01*
X14742240Y-22860000D01*
X14916632Y-22743475D01*
X15123475Y-22536632D01*
X15241497Y-22360000D01*
X20820001Y-22360000D01*
X20820001Y-23544235D01*
G36*
X43296525Y-22536632D02*
G01*
X43503368Y-22743475D01*
X43677760Y-22860000D01*
X43503368Y-22976525D01*
X43296525Y-23183368D01*
X43178503Y-23360000D01*
X34088091Y-23360000D01*
X35088091Y-22360000D01*
X43178503Y-22360000D01*
X43296525Y-22536632D01*
G37*
X43296525Y-22536632D02*
X43503368Y-22743475D01*
X43677760Y-22860000D01*
X43503368Y-22976525D01*
X43296525Y-23183368D01*
X43178503Y-23360000D01*
X34088091Y-23360000D01*
X35088091Y-22360000D01*
X43178503Y-22360000D01*
X43296525Y-22536632D01*
G36*
X45695001Y-23320346D02*
G01*
X45603475Y-23183368D01*
X45396632Y-22976525D01*
X45222240Y-22860000D01*
X45396632Y-22743475D01*
X45603475Y-22536632D01*
X45695001Y-22399654D01*
X45695001Y-23320346D01*
G37*
X45695001Y-23320346D02*
X45603475Y-23183368D01*
X45396632Y-22976525D01*
X45222240Y-22860000D01*
X45396632Y-22743475D01*
X45603475Y-22536632D01*
X45695001Y-22399654D01*
X45695001Y-23320346D01*
G36*
X12816525Y-22536632D02*
G01*
X13023368Y-22743475D01*
X13197760Y-22860000D01*
X13023368Y-22976525D01*
X12816525Y-23183368D01*
X12725000Y-23320345D01*
X12725000Y-22399655D01*
X12816525Y-22536632D01*
G37*
X12816525Y-22536632D02*
X13023368Y-22743475D01*
X13197760Y-22860000D01*
X13023368Y-22976525D01*
X12816525Y-23183368D01*
X12725000Y-23320345D01*
X12725000Y-22399655D01*
X12816525Y-22536632D01*
G36*
X43296525Y-19996632D02*
G01*
X43503368Y-20203475D01*
X43677760Y-20320000D01*
X43503368Y-20436525D01*
X43296525Y-20643368D01*
X43178503Y-20820000D01*
X35963397Y-20820000D01*
X36963397Y-19820000D01*
X43178503Y-19820000D01*
X43296525Y-19996632D01*
G37*
X43296525Y-19996632D02*
X43503368Y-20203475D01*
X43677760Y-20320000D01*
X43503368Y-20436525D01*
X43296525Y-20643368D01*
X43178503Y-20820000D01*
X35963397Y-20820000D01*
X36963397Y-19820000D01*
X43178503Y-19820000D01*
X43296525Y-19996632D01*
G36*
X21619991Y-20819229D02*
G01*
X21590000Y-20816275D01*
X21552180Y-20820000D01*
X15241497Y-20820000D01*
X15123475Y-20643368D01*
X14916632Y-20436525D01*
X14742240Y-20320000D01*
X14916632Y-20203475D01*
X15123475Y-19996632D01*
X15241497Y-19820000D01*
X21619991Y-19820000D01*
X21619991Y-20819229D01*
G37*
X21619991Y-20819229D02*
X21590000Y-20816275D01*
X21552180Y-20820000D01*
X15241497Y-20820000D01*
X15123475Y-20643368D01*
X14916632Y-20436525D01*
X14742240Y-20320000D01*
X14916632Y-20203475D01*
X15123475Y-19996632D01*
X15241497Y-19820000D01*
X21619991Y-19820000D01*
X21619991Y-20819229D01*
G36*
X45695001Y-20780346D02*
G01*
X45603475Y-20643368D01*
X45396632Y-20436525D01*
X45222240Y-20320000D01*
X45396632Y-20203475D01*
X45603475Y-19996632D01*
X45695001Y-19859654D01*
X45695001Y-20780346D01*
G37*
X45695001Y-20780346D02*
X45603475Y-20643368D01*
X45396632Y-20436525D01*
X45222240Y-20320000D01*
X45396632Y-20203475D01*
X45603475Y-19996632D01*
X45695001Y-19859654D01*
X45695001Y-20780346D01*
G36*
X12816525Y-19996632D02*
G01*
X13023368Y-20203475D01*
X13197760Y-20320000D01*
X13023368Y-20436525D01*
X12816525Y-20643368D01*
X12725000Y-20780345D01*
X12725000Y-19859655D01*
X12816525Y-19996632D01*
G37*
X12816525Y-19996632D02*
X13023368Y-20203475D01*
X13197760Y-20320000D01*
X13023368Y-20436525D01*
X12816525Y-20643368D01*
X12725000Y-20780345D01*
X12725000Y-19859655D01*
X12816525Y-19996632D01*
G36*
X43296525Y-17456632D02*
G01*
X43503368Y-17663475D01*
X43677760Y-17780000D01*
X43503368Y-17896525D01*
X43296525Y-18103368D01*
X43178503Y-18280000D01*
X37838702Y-18280000D01*
X38838702Y-17280000D01*
X43178503Y-17280000D01*
X43296525Y-17456632D01*
G37*
X43296525Y-17456632D02*
X43503368Y-17663475D01*
X43677760Y-17780000D01*
X43503368Y-17896525D01*
X43296525Y-18103368D01*
X43178503Y-18280000D01*
X37838702Y-18280000D01*
X38838702Y-17280000D01*
X43178503Y-17280000D01*
X43296525Y-17456632D01*
G36*
X22090001Y-18280000D02*
G01*
X15241497Y-18280000D01*
X15123475Y-18103368D01*
X14916632Y-17896525D01*
X14742240Y-17780000D01*
X14916632Y-17663475D01*
X15123475Y-17456632D01*
X15241497Y-17280000D01*
X22090001Y-17280000D01*
X22090001Y-18280000D01*
G37*
X22090001Y-18280000D02*
X15241497Y-18280000D01*
X15123475Y-18103368D01*
X14916632Y-17896525D01*
X14742240Y-17780000D01*
X14916632Y-17663475D01*
X15123475Y-17456632D01*
X15241497Y-17280000D01*
X22090001Y-17280000D01*
X22090001Y-18280000D01*
G36*
X45695001Y-18240346D02*
G01*
X45603475Y-18103368D01*
X45396632Y-17896525D01*
X45222240Y-17780000D01*
X45396632Y-17663475D01*
X45603475Y-17456632D01*
X45695001Y-17319654D01*
X45695001Y-18240346D01*
G37*
X45695001Y-18240346D02*
X45603475Y-18103368D01*
X45396632Y-17896525D01*
X45222240Y-17780000D01*
X45396632Y-17663475D01*
X45603475Y-17456632D01*
X45695001Y-17319654D01*
X45695001Y-18240346D01*
G36*
X12816525Y-17456632D02*
G01*
X13023368Y-17663475D01*
X13197760Y-17780000D01*
X13023368Y-17896525D01*
X12816525Y-18103368D01*
X12725000Y-18240345D01*
X12725000Y-17319655D01*
X12816525Y-17456632D01*
G37*
X12816525Y-17456632D02*
X13023368Y-17663475D01*
X13197760Y-17780000D01*
X13023368Y-17896525D01*
X12816525Y-18103368D01*
X12725000Y-18240345D01*
X12725000Y-17319655D01*
X12816525Y-17456632D01*
G36*
X45695001Y-15700346D02*
G01*
X45603475Y-15563368D01*
X45471620Y-15431513D01*
X45544180Y-15409502D01*
X45654494Y-15350537D01*
X45695001Y-15317294D01*
X45695001Y-15700346D01*
G37*
X45695001Y-15700346D02*
X45603475Y-15563368D01*
X45471620Y-15431513D01*
X45544180Y-15409502D01*
X45654494Y-15350537D01*
X45695001Y-15317294D01*
X45695001Y-15700346D01*
G36*
X12816525Y-14916632D02*
G01*
X13023368Y-15123475D01*
X13197760Y-15240000D01*
X13023368Y-15356525D01*
X12816525Y-15563368D01*
X12725000Y-15700345D01*
X12725000Y-14779655D01*
X12816525Y-14916632D01*
G37*
X12816525Y-14916632D02*
X13023368Y-15123475D01*
X13197760Y-15240000D01*
X13023368Y-15356525D01*
X12816525Y-15563368D01*
X12725000Y-15700345D01*
X12725000Y-14779655D01*
X12816525Y-14916632D01*
G36*
X13023368Y-12816525D02*
G01*
X12816525Y-13023368D01*
X12725000Y-13160345D01*
X12725000Y-12725000D01*
X13160345Y-12725000D01*
X13023368Y-12816525D01*
G37*
X13023368Y-12816525D02*
X12816525Y-13023368D01*
X12725000Y-13160345D01*
X12725000Y-12725000D01*
X13160345Y-12725000D01*
X13023368Y-12816525D01*
M02*
