M48
; DRILL file {KiCad (6.0.5-0)} date Tuesday, October 18, 2022 at 09:30:22 pm
; FORMAT={-:-/ absolute / metric / decimal}
; #@! TF.CreationDate,2022-10-18T21:30:22-04:00
; #@! TF.GenerationSoftware,Kicad,Pcbnew,(6.0.5-0)
; #@! TF.FileFunction,Plated,1,4,PTH
FMAT,2
METRIC
; #@! TA.AperFunction,Plated,PTH,ViaDrill
T1C0.400
; #@! TA.AperFunction,Plated,PTH,ComponentDrill
T2C0.460
%
G90
G05
T1
X118.6Y-73.507
X118.6Y-80.492
X120.0Y-73.507
X120.0Y-80.492
X121.4Y-73.507
X121.4Y-80.492
X127.05Y-73.5
X127.05Y-80.5
X131.05Y-73.5
X131.05Y-80.5
X135.05Y-73.5
X135.05Y-80.5
X139.05Y-73.5
X139.05Y-80.5
X143.05Y-73.5
X143.05Y-80.5
X147.05Y-73.5
X147.05Y-80.5
X151.05Y-73.5
X151.05Y-80.5
X155.05Y-73.5
X155.05Y-80.5
X160.7Y-73.5
X160.7Y-80.492
X162.1Y-73.5
X162.1Y-80.492
X163.5Y-73.5
X163.5Y-80.492
T2
X122.985Y-73.507
X122.985Y-80.492
X159.115Y-73.507
X159.115Y-80.492
T0
M30
