G04 #@! TF.GenerationSoftware,KiCad,Pcbnew,(6.0.5-0)*
G04 #@! TF.CreationDate,2022-10-18T21:30:21-04:00*
G04 #@! TF.ProjectId,TL-Losses-JLCPCB,544c2d4c-6f73-4736-9573-2d4a4c435043,rev?*
G04 #@! TF.SameCoordinates,Original*
G04 #@! TF.FileFunction,Legend,Top*
G04 #@! TF.FilePolarity,Positive*
%FSLAX46Y46*%
G04 Gerber Fmt 4.6, Leading zero omitted, Abs format (unit mm)*
G04 Created by KiCad (PCBNEW (6.0.5-0)) date 2022-10-18 21:30:21*
%MOMM*%
%LPD*%
G01*
G04 APERTURE LIST*
%ADD10C,0.150000*%
%ADD11C,0.120000*%
%ADD12R,4.190000X1.780000*%
%ADD13R,4.190000X2.665000*%
G04 APERTURE END LIST*
D10*
X122438095Y-70252380D02*
X123009523Y-70252380D01*
X122723809Y-71252380D02*
X122723809Y-70252380D01*
X123342857Y-71252380D02*
X123342857Y-70585714D01*
X123342857Y-70776190D02*
X123390476Y-70680952D01*
X123438095Y-70633333D01*
X123533333Y-70585714D01*
X123628571Y-70585714D01*
X124390476Y-71252380D02*
X124390476Y-70728571D01*
X124342857Y-70633333D01*
X124247619Y-70585714D01*
X124057142Y-70585714D01*
X123961904Y-70633333D01*
X124390476Y-71204761D02*
X124295238Y-71252380D01*
X124057142Y-71252380D01*
X123961904Y-71204761D01*
X123914285Y-71109523D01*
X123914285Y-71014285D01*
X123961904Y-70919047D01*
X124057142Y-70871428D01*
X124295238Y-70871428D01*
X124390476Y-70823809D01*
X125295238Y-71204761D02*
X125199999Y-71252380D01*
X125009523Y-71252380D01*
X124914285Y-71204761D01*
X124866666Y-71157142D01*
X124819047Y-71061904D01*
X124819047Y-70776190D01*
X124866666Y-70680952D01*
X124914285Y-70633333D01*
X125009523Y-70585714D01*
X125199999Y-70585714D01*
X125295238Y-70633333D01*
X126104761Y-71204761D02*
X126009523Y-71252380D01*
X125819047Y-71252380D01*
X125723809Y-71204761D01*
X125676190Y-71109523D01*
X125676190Y-70728571D01*
X125723809Y-70633333D01*
X125819047Y-70585714D01*
X126009523Y-70585714D01*
X126104761Y-70633333D01*
X126152380Y-70728571D01*
X126152380Y-70823809D01*
X125676190Y-70919047D01*
X127819047Y-71252380D02*
X127342857Y-71252380D01*
X127342857Y-70252380D01*
X128533333Y-71204761D02*
X128438095Y-71252380D01*
X128247619Y-71252380D01*
X128152380Y-71204761D01*
X128104761Y-71109523D01*
X128104761Y-70728571D01*
X128152380Y-70633333D01*
X128247619Y-70585714D01*
X128438095Y-70585714D01*
X128533333Y-70633333D01*
X128580952Y-70728571D01*
X128580952Y-70823809D01*
X128104761Y-70919047D01*
X129009523Y-70585714D02*
X129009523Y-71252380D01*
X129009523Y-70680952D02*
X129057142Y-70633333D01*
X129152380Y-70585714D01*
X129295238Y-70585714D01*
X129390476Y-70633333D01*
X129438095Y-70728571D01*
X129438095Y-71252380D01*
X130342857Y-70585714D02*
X130342857Y-71395238D01*
X130295238Y-71490476D01*
X130247619Y-71538095D01*
X130152380Y-71585714D01*
X130009523Y-71585714D01*
X129914285Y-71538095D01*
X130342857Y-71204761D02*
X130247619Y-71252380D01*
X130057142Y-71252380D01*
X129961904Y-71204761D01*
X129914285Y-71157142D01*
X129866666Y-71061904D01*
X129866666Y-70776190D01*
X129914285Y-70680952D01*
X129961904Y-70633333D01*
X130057142Y-70585714D01*
X130247619Y-70585714D01*
X130342857Y-70633333D01*
X130676190Y-70585714D02*
X131057142Y-70585714D01*
X130819047Y-70252380D02*
X130819047Y-71109523D01*
X130866666Y-71204761D01*
X130961904Y-71252380D01*
X131057142Y-71252380D01*
X131390476Y-71252380D02*
X131390476Y-70252380D01*
X131819047Y-71252380D02*
X131819047Y-70728571D01*
X131771428Y-70633333D01*
X131676190Y-70585714D01*
X131533333Y-70585714D01*
X131438095Y-70633333D01*
X131390476Y-70680952D01*
X132295238Y-71157142D02*
X132342857Y-71204761D01*
X132295238Y-71252380D01*
X132247619Y-71204761D01*
X132295238Y-71157142D01*
X132295238Y-71252380D01*
X132295238Y-70633333D02*
X132342857Y-70680952D01*
X132295238Y-70728571D01*
X132247619Y-70680952D01*
X132295238Y-70633333D01*
X132295238Y-70728571D01*
X133961904Y-70585714D02*
X133961904Y-71252380D01*
X133723809Y-70204761D02*
X133485714Y-70919047D01*
X134104761Y-70919047D01*
X135009523Y-71252380D02*
X134438095Y-71252380D01*
X134723809Y-71252380D02*
X134723809Y-70252380D01*
X134628571Y-70395238D01*
X134533333Y-70490476D01*
X134438095Y-70538095D01*
X135438095Y-71157142D02*
X135485714Y-71204761D01*
X135438095Y-71252380D01*
X135390476Y-71204761D01*
X135438095Y-71157142D01*
X135438095Y-71252380D01*
X135819047Y-70252380D02*
X136438095Y-70252380D01*
X136104761Y-70633333D01*
X136247619Y-70633333D01*
X136342857Y-70680952D01*
X136390476Y-70728571D01*
X136438095Y-70823809D01*
X136438095Y-71061904D01*
X136390476Y-71157142D01*
X136342857Y-71204761D01*
X136247619Y-71252380D01*
X135961904Y-71252380D01*
X135866666Y-71204761D01*
X135819047Y-71157142D01*
X136914285Y-71204761D02*
X136914285Y-71252380D01*
X136866666Y-71347619D01*
X136819047Y-71395238D01*
X138676190Y-71252380D02*
X138342857Y-70776190D01*
X138104761Y-71252380D02*
X138104761Y-70252380D01*
X138485714Y-70252380D01*
X138580952Y-70300000D01*
X138628571Y-70347619D01*
X138676190Y-70442857D01*
X138676190Y-70585714D01*
X138628571Y-70680952D01*
X138580952Y-70728571D01*
X138485714Y-70776190D01*
X138104761Y-70776190D01*
X139485714Y-71204761D02*
X139390476Y-71252380D01*
X139200000Y-71252380D01*
X139104761Y-71204761D01*
X139057142Y-71109523D01*
X139057142Y-70728571D01*
X139104761Y-70633333D01*
X139200000Y-70585714D01*
X139390476Y-70585714D01*
X139485714Y-70633333D01*
X139533333Y-70728571D01*
X139533333Y-70823809D01*
X139057142Y-70919047D01*
X139866666Y-70585714D02*
X140104761Y-71252380D01*
X140342857Y-70585714D01*
X140723809Y-71252380D02*
X140723809Y-70585714D01*
X140723809Y-70252380D02*
X140676190Y-70300000D01*
X140723809Y-70347619D01*
X140771428Y-70300000D01*
X140723809Y-70252380D01*
X140723809Y-70347619D01*
X141152380Y-71204761D02*
X141247619Y-71252380D01*
X141438095Y-71252380D01*
X141533333Y-71204761D01*
X141580952Y-71109523D01*
X141580952Y-71061904D01*
X141533333Y-70966666D01*
X141438095Y-70919047D01*
X141295238Y-70919047D01*
X141200000Y-70871428D01*
X141152380Y-70776190D01*
X141152380Y-70728571D01*
X141200000Y-70633333D01*
X141295238Y-70585714D01*
X141438095Y-70585714D01*
X141533333Y-70633333D01*
X142009523Y-71252380D02*
X142009523Y-70585714D01*
X142009523Y-70252380D02*
X141961904Y-70300000D01*
X142009523Y-70347619D01*
X142057142Y-70300000D01*
X142009523Y-70252380D01*
X142009523Y-70347619D01*
X142628571Y-71252380D02*
X142533333Y-71204761D01*
X142485714Y-71157142D01*
X142438095Y-71061904D01*
X142438095Y-70776190D01*
X142485714Y-70680952D01*
X142533333Y-70633333D01*
X142628571Y-70585714D01*
X142771428Y-70585714D01*
X142866666Y-70633333D01*
X142914285Y-70680952D01*
X142961904Y-70776190D01*
X142961904Y-71061904D01*
X142914285Y-71157142D01*
X142866666Y-71204761D01*
X142771428Y-71252380D01*
X142628571Y-71252380D01*
X143390476Y-70585714D02*
X143390476Y-71252380D01*
X143390476Y-70680952D02*
X143438095Y-70633333D01*
X143533333Y-70585714D01*
X143676190Y-70585714D01*
X143771428Y-70633333D01*
X143819047Y-70728571D01*
X143819047Y-71252380D01*
X145580952Y-71252380D02*
X145009523Y-71252380D01*
X145295238Y-71252380D02*
X145295238Y-70252380D01*
X145200000Y-70395238D01*
X145104761Y-70490476D01*
X145009523Y-70538095D01*
X146057142Y-71204761D02*
X146057142Y-71252380D01*
X146009523Y-71347619D01*
X145961904Y-71395238D01*
X147533333Y-70252380D02*
X147533333Y-70966666D01*
X147485714Y-71109523D01*
X147390476Y-71204761D01*
X147247619Y-71252380D01*
X147152380Y-71252380D01*
X148485714Y-71252380D02*
X148009523Y-71252380D01*
X148009523Y-70252380D01*
X149390476Y-71157142D02*
X149342857Y-71204761D01*
X149200000Y-71252380D01*
X149104761Y-71252380D01*
X148961904Y-71204761D01*
X148866666Y-71109523D01*
X148819047Y-71014285D01*
X148771428Y-70823809D01*
X148771428Y-70680952D01*
X148819047Y-70490476D01*
X148866666Y-70395238D01*
X148961904Y-70300000D01*
X149104761Y-70252380D01*
X149200000Y-70252380D01*
X149342857Y-70300000D01*
X149390476Y-70347619D01*
X149723809Y-70252380D02*
X150390476Y-70252380D01*
X149961904Y-71252380D01*
X151200000Y-70252380D02*
X151009523Y-70252380D01*
X150914285Y-70300000D01*
X150866666Y-70347619D01*
X150771428Y-70490476D01*
X150723809Y-70680952D01*
X150723809Y-71061904D01*
X150771428Y-71157142D01*
X150819047Y-71204761D01*
X150914285Y-71252380D01*
X151104761Y-71252380D01*
X151200000Y-71204761D01*
X151247619Y-71157142D01*
X151295238Y-71061904D01*
X151295238Y-70823809D01*
X151247619Y-70728571D01*
X151200000Y-70680952D01*
X151104761Y-70633333D01*
X150914285Y-70633333D01*
X150819047Y-70680952D01*
X150771428Y-70728571D01*
X150723809Y-70823809D01*
X151676190Y-70347619D02*
X151723809Y-70300000D01*
X151819047Y-70252380D01*
X152057142Y-70252380D01*
X152152380Y-70300000D01*
X152199999Y-70347619D01*
X152247619Y-70442857D01*
X152247619Y-70538095D01*
X152199999Y-70680952D01*
X151628571Y-71252380D01*
X152247619Y-71252380D01*
X152819047Y-70680952D02*
X152723809Y-70633333D01*
X152676190Y-70585714D01*
X152628571Y-70490476D01*
X152628571Y-70442857D01*
X152676190Y-70347619D01*
X152723809Y-70300000D01*
X152819047Y-70252380D01*
X153009523Y-70252380D01*
X153104761Y-70300000D01*
X153152380Y-70347619D01*
X153199999Y-70442857D01*
X153199999Y-70490476D01*
X153152380Y-70585714D01*
X153104761Y-70633333D01*
X153009523Y-70680952D01*
X152819047Y-70680952D01*
X152723809Y-70728571D01*
X152676190Y-70776190D01*
X152628571Y-70871428D01*
X152628571Y-71061904D01*
X152676190Y-71157142D01*
X152723809Y-71204761D01*
X152819047Y-71252380D01*
X153009523Y-71252380D01*
X153104761Y-71204761D01*
X153152380Y-71157142D01*
X153199999Y-71061904D01*
X153199999Y-70871428D01*
X153152380Y-70776190D01*
X153104761Y-70728571D01*
X153009523Y-70680952D01*
X154342857Y-71204761D02*
X154485714Y-71252380D01*
X154723809Y-71252380D01*
X154819047Y-71204761D01*
X154866666Y-71157142D01*
X154914285Y-71061904D01*
X154914285Y-70966666D01*
X154866666Y-70871428D01*
X154819047Y-70823809D01*
X154723809Y-70776190D01*
X154533333Y-70728571D01*
X154438095Y-70680952D01*
X154390476Y-70633333D01*
X154342857Y-70538095D01*
X154342857Y-70442857D01*
X154390476Y-70347619D01*
X154438095Y-70300000D01*
X154533333Y-70252380D01*
X154771428Y-70252380D01*
X154914285Y-70300000D01*
X155199999Y-70585714D02*
X155580952Y-70585714D01*
X155342857Y-70252380D02*
X155342857Y-71109523D01*
X155390476Y-71204761D01*
X155485714Y-71252380D01*
X155580952Y-71252380D01*
X156342857Y-71252380D02*
X156342857Y-70728571D01*
X156295238Y-70633333D01*
X156199999Y-70585714D01*
X156009523Y-70585714D01*
X155914285Y-70633333D01*
X156342857Y-71204761D02*
X156247619Y-71252380D01*
X156009523Y-71252380D01*
X155914285Y-71204761D01*
X155866666Y-71109523D01*
X155866666Y-71014285D01*
X155914285Y-70919047D01*
X156009523Y-70871428D01*
X156247619Y-70871428D01*
X156342857Y-70823809D01*
X157247619Y-71204761D02*
X157152380Y-71252380D01*
X156961904Y-71252380D01*
X156866666Y-71204761D01*
X156819047Y-71157142D01*
X156771428Y-71061904D01*
X156771428Y-70776190D01*
X156819047Y-70680952D01*
X156866666Y-70633333D01*
X156961904Y-70585714D01*
X157152380Y-70585714D01*
X157247619Y-70633333D01*
X157676190Y-71252380D02*
X157676190Y-70252380D01*
X157771428Y-70871428D02*
X158057142Y-71252380D01*
X158057142Y-70585714D02*
X157676190Y-70966666D01*
X158914285Y-70585714D02*
X158914285Y-71252380D01*
X158485714Y-70585714D02*
X158485714Y-71109523D01*
X158533333Y-71204761D01*
X158628571Y-71252380D01*
X158771428Y-71252380D01*
X158866666Y-71204761D01*
X158914285Y-71157142D01*
X159390476Y-70585714D02*
X159390476Y-71585714D01*
X159390476Y-70633333D02*
X159485714Y-70585714D01*
X159676190Y-70585714D01*
X159771428Y-70633333D01*
X159819047Y-70680952D01*
X159866666Y-70776190D01*
X159866666Y-71061904D01*
X159819047Y-71157142D01*
X159771428Y-71204761D01*
X159676190Y-71252380D01*
X159485714Y-71252380D01*
X159390476Y-71204761D01*
X161061666Y-82552380D02*
X161061666Y-83266666D01*
X161014047Y-83409523D01*
X160918809Y-83504761D01*
X160775952Y-83552380D01*
X160680714Y-83552380D01*
X162061666Y-83552380D02*
X161490238Y-83552380D01*
X161775952Y-83552380D02*
X161775952Y-82552380D01*
X161680714Y-82695238D01*
X161585476Y-82790476D01*
X161490238Y-82838095D01*
X120371666Y-70352380D02*
X120371666Y-71066666D01*
X120324047Y-71209523D01*
X120228809Y-71304761D01*
X120085952Y-71352380D01*
X119990714Y-71352380D01*
X120800238Y-70447619D02*
X120847857Y-70400000D01*
X120943095Y-70352380D01*
X121181190Y-70352380D01*
X121276428Y-70400000D01*
X121324047Y-70447619D01*
X121371666Y-70542857D01*
X121371666Y-70638095D01*
X121324047Y-70780952D01*
X120752619Y-71352380D01*
X121371666Y-71352380D01*
D11*
X159700000Y-77000000D02*
X159200000Y-76750000D01*
X159200000Y-76750000D02*
X159200000Y-77250000D01*
X159200000Y-77250000D02*
X159700000Y-77000000D01*
X122900000Y-76750000D02*
X122400000Y-77000000D01*
X122900000Y-77250000D02*
X122900000Y-76750000D01*
X122400000Y-77000000D02*
X122900000Y-77250000D01*
%LPC*%
D12*
X162100000Y-77000000D03*
D13*
X162100000Y-80492500D03*
X162100000Y-73507500D03*
X120000000Y-73507500D03*
X120000000Y-80492500D03*
D12*
X120000000Y-77000000D03*
M02*
