G04 #@! TF.GenerationSoftware,KiCad,Pcbnew,(6.0.5-0)*
G04 #@! TF.CreationDate,2022-10-18T21:30:20-04:00*
G04 #@! TF.ProjectId,TL-Losses-JLCPCB,544c2d4c-6f73-4736-9573-2d4a4c435043,rev?*
G04 #@! TF.SameCoordinates,Original*
G04 #@! TF.FileFunction,Copper,L3,Inr*
G04 #@! TF.FilePolarity,Positive*
%FSLAX46Y46*%
G04 Gerber Fmt 4.6, Leading zero omitted, Abs format (unit mm)*
G04 Created by KiCad (PCBNEW (6.0.5-0)) date 2022-10-18 21:30:20*
%MOMM*%
%LPD*%
G01*
G04 APERTURE LIST*
G04 #@! TA.AperFunction,ComponentPad*
%ADD10C,0.970000*%
G04 #@! TD*
G04 #@! TA.AperFunction,ViaPad*
%ADD11C,0.800000*%
G04 #@! TD*
G04 APERTURE END LIST*
D10*
X159115000Y-80492500D03*
X159115000Y-73507500D03*
X122985000Y-73507500D03*
X122985000Y-80492500D03*
D11*
X160700000Y-73500000D03*
X162100000Y-73500000D03*
X163500000Y-73500000D03*
X163500000Y-80492500D03*
X160700000Y-80492500D03*
X162100000Y-80492500D03*
X118600000Y-80492500D03*
X121400000Y-80492500D03*
X120000000Y-80492500D03*
X118600000Y-73507500D03*
X121400000Y-73507500D03*
X120000000Y-73507500D03*
X127050000Y-73500000D03*
X135050000Y-73500000D03*
X131050000Y-73500000D03*
X155050000Y-73500000D03*
X147050000Y-73500000D03*
X151050000Y-73500000D03*
X139050000Y-73500000D03*
X143050000Y-73500000D03*
X127050000Y-80500000D03*
X131050000Y-80500000D03*
X135050000Y-80500000D03*
X155050000Y-80500000D03*
X147050000Y-80500000D03*
X151050000Y-80500000D03*
X139050000Y-80500000D03*
X143050000Y-80500000D03*
G04 #@! TA.AperFunction,Conductor*
G36*
X164041621Y-70120502D02*
G01*
X164088114Y-70174158D01*
X164099500Y-70226500D01*
X164099500Y-83773500D01*
X164079498Y-83841621D01*
X164025842Y-83888114D01*
X163973500Y-83899500D01*
X118126500Y-83899500D01*
X118058379Y-83879498D01*
X118011886Y-83825842D01*
X118000500Y-83773500D01*
X118000500Y-81350609D01*
X122491721Y-81350609D01*
X122496630Y-81357167D01*
X122580150Y-81403844D01*
X122591390Y-81408755D01*
X122764877Y-81465124D01*
X122776851Y-81467757D01*
X122957992Y-81489357D01*
X122970241Y-81489614D01*
X123152125Y-81475619D01*
X123164205Y-81473488D01*
X123339895Y-81424434D01*
X123351328Y-81420000D01*
X123469342Y-81360387D01*
X123479626Y-81350742D01*
X123479581Y-81350609D01*
X158621721Y-81350609D01*
X158626630Y-81357167D01*
X158710150Y-81403844D01*
X158721390Y-81408755D01*
X158894877Y-81465124D01*
X158906851Y-81467757D01*
X159087992Y-81489357D01*
X159100241Y-81489614D01*
X159282125Y-81475619D01*
X159294205Y-81473488D01*
X159469895Y-81424434D01*
X159481328Y-81420000D01*
X159599342Y-81360387D01*
X159609626Y-81350742D01*
X159607388Y-81344098D01*
X159127812Y-80864522D01*
X159113868Y-80856908D01*
X159112035Y-80857039D01*
X159105420Y-80861290D01*
X158628481Y-81338229D01*
X158621721Y-81350609D01*
X123479581Y-81350609D01*
X123477388Y-81344098D01*
X122997812Y-80864522D01*
X122983868Y-80856908D01*
X122982035Y-80857039D01*
X122975420Y-80861290D01*
X122498481Y-81338229D01*
X122491721Y-81350609D01*
X118000500Y-81350609D01*
X118000500Y-80484712D01*
X121987808Y-80484712D01*
X122003071Y-80666482D01*
X122005286Y-80678547D01*
X122055565Y-80853891D01*
X122060083Y-80865303D01*
X122117286Y-80976607D01*
X122127007Y-80986828D01*
X122133806Y-80984484D01*
X122612978Y-80505312D01*
X122619356Y-80493632D01*
X123349408Y-80493632D01*
X123349539Y-80495465D01*
X123353790Y-80502080D01*
X123830659Y-80978949D01*
X123843039Y-80985709D01*
X123849773Y-80980668D01*
X123893494Y-80903707D01*
X123898487Y-80892491D01*
X123956062Y-80719414D01*
X123958782Y-80707442D01*
X123981973Y-80523864D01*
X123982465Y-80516835D01*
X123982756Y-80496005D01*
X123982463Y-80489012D01*
X123982041Y-80484712D01*
X158117808Y-80484712D01*
X158133071Y-80666482D01*
X158135286Y-80678547D01*
X158185565Y-80853891D01*
X158190083Y-80865303D01*
X158247286Y-80976607D01*
X158257007Y-80986828D01*
X158263806Y-80984484D01*
X158742978Y-80505312D01*
X158749356Y-80493632D01*
X159479408Y-80493632D01*
X159479539Y-80495465D01*
X159483790Y-80502080D01*
X159960659Y-80978949D01*
X159973039Y-80985709D01*
X159979773Y-80980668D01*
X160023494Y-80903707D01*
X160028487Y-80892491D01*
X160086062Y-80719414D01*
X160088782Y-80707442D01*
X160111973Y-80523864D01*
X160112465Y-80516835D01*
X160112756Y-80496005D01*
X160112463Y-80489012D01*
X160094403Y-80304825D01*
X160092020Y-80292790D01*
X160039298Y-80118165D01*
X160034623Y-80106824D01*
X159982472Y-80008741D01*
X159972610Y-79998658D01*
X159965484Y-80001226D01*
X159487022Y-80479688D01*
X159479408Y-80493632D01*
X158749356Y-80493632D01*
X158750592Y-80491368D01*
X158750461Y-80489535D01*
X158746210Y-80482920D01*
X158269166Y-80005876D01*
X158256786Y-79999116D01*
X158250398Y-80003898D01*
X158200854Y-80094016D01*
X158196017Y-80105301D01*
X158140861Y-80279175D01*
X158138313Y-80291164D01*
X158117979Y-80472443D01*
X158117808Y-80484712D01*
X123982041Y-80484712D01*
X123964403Y-80304825D01*
X123962020Y-80292790D01*
X123909298Y-80118165D01*
X123904623Y-80106824D01*
X123852472Y-80008741D01*
X123842610Y-79998658D01*
X123835484Y-80001226D01*
X123357022Y-80479688D01*
X123349408Y-80493632D01*
X122619356Y-80493632D01*
X122620592Y-80491368D01*
X122620461Y-80489535D01*
X122616210Y-80482920D01*
X122139166Y-80005876D01*
X122126786Y-79999116D01*
X122120398Y-80003898D01*
X122070854Y-80094016D01*
X122066017Y-80105301D01*
X122010861Y-80279175D01*
X122008313Y-80291164D01*
X121987979Y-80472443D01*
X121987808Y-80484712D01*
X118000500Y-80484712D01*
X118000500Y-79634716D01*
X122490934Y-79634716D01*
X122493389Y-79641679D01*
X122972188Y-80120478D01*
X122986132Y-80128092D01*
X122987965Y-80127961D01*
X122994580Y-80123710D01*
X123471766Y-79646524D01*
X123478214Y-79634716D01*
X158620934Y-79634716D01*
X158623389Y-79641679D01*
X159102188Y-80120478D01*
X159116132Y-80128092D01*
X159117965Y-80127961D01*
X159124580Y-80123710D01*
X159601766Y-79646524D01*
X159608526Y-79634144D01*
X159603867Y-79627921D01*
X159507083Y-79575590D01*
X159495778Y-79570838D01*
X159321524Y-79516897D01*
X159309511Y-79514431D01*
X159128094Y-79495363D01*
X159115826Y-79495278D01*
X158934169Y-79511810D01*
X158922120Y-79514108D01*
X158747128Y-79565611D01*
X158735751Y-79570208D01*
X158631083Y-79624927D01*
X158620934Y-79634716D01*
X123478214Y-79634716D01*
X123478526Y-79634144D01*
X123473867Y-79627921D01*
X123377083Y-79575590D01*
X123365778Y-79570838D01*
X123191524Y-79516897D01*
X123179511Y-79514431D01*
X122998094Y-79495363D01*
X122985826Y-79495278D01*
X122804169Y-79511810D01*
X122792120Y-79514108D01*
X122617128Y-79565611D01*
X122605751Y-79570208D01*
X122501083Y-79624927D01*
X122490934Y-79634716D01*
X118000500Y-79634716D01*
X118000500Y-74365609D01*
X122491721Y-74365609D01*
X122496630Y-74372167D01*
X122580150Y-74418844D01*
X122591390Y-74423755D01*
X122764877Y-74480124D01*
X122776851Y-74482757D01*
X122957992Y-74504357D01*
X122970241Y-74504614D01*
X123152125Y-74490619D01*
X123164205Y-74488488D01*
X123339895Y-74439434D01*
X123351328Y-74435000D01*
X123469342Y-74375387D01*
X123479626Y-74365742D01*
X123479581Y-74365609D01*
X158621721Y-74365609D01*
X158626630Y-74372167D01*
X158710150Y-74418844D01*
X158721390Y-74423755D01*
X158894877Y-74480124D01*
X158906851Y-74482757D01*
X159087992Y-74504357D01*
X159100241Y-74504614D01*
X159282125Y-74490619D01*
X159294205Y-74488488D01*
X159469895Y-74439434D01*
X159481328Y-74435000D01*
X159599342Y-74375387D01*
X159609626Y-74365742D01*
X159607388Y-74359098D01*
X159127812Y-73879522D01*
X159113868Y-73871908D01*
X159112035Y-73872039D01*
X159105420Y-73876290D01*
X158628481Y-74353229D01*
X158621721Y-74365609D01*
X123479581Y-74365609D01*
X123477388Y-74359098D01*
X122997812Y-73879522D01*
X122983868Y-73871908D01*
X122982035Y-73872039D01*
X122975420Y-73876290D01*
X122498481Y-74353229D01*
X122491721Y-74365609D01*
X118000500Y-74365609D01*
X118000500Y-73499712D01*
X121987808Y-73499712D01*
X122003071Y-73681482D01*
X122005286Y-73693547D01*
X122055565Y-73868891D01*
X122060083Y-73880303D01*
X122117286Y-73991607D01*
X122127007Y-74001828D01*
X122133806Y-73999484D01*
X122612978Y-73520312D01*
X122619356Y-73508632D01*
X123349408Y-73508632D01*
X123349539Y-73510465D01*
X123353790Y-73517080D01*
X123830659Y-73993949D01*
X123843039Y-74000709D01*
X123849773Y-73995668D01*
X123893494Y-73918707D01*
X123898487Y-73907491D01*
X123956062Y-73734414D01*
X123958782Y-73722442D01*
X123981973Y-73538864D01*
X123982465Y-73531835D01*
X123982756Y-73511005D01*
X123982463Y-73504012D01*
X123982041Y-73499712D01*
X158117808Y-73499712D01*
X158133071Y-73681482D01*
X158135286Y-73693547D01*
X158185565Y-73868891D01*
X158190083Y-73880303D01*
X158247286Y-73991607D01*
X158257007Y-74001828D01*
X158263806Y-73999484D01*
X158742978Y-73520312D01*
X158749356Y-73508632D01*
X159479408Y-73508632D01*
X159479539Y-73510465D01*
X159483790Y-73517080D01*
X159960659Y-73993949D01*
X159973039Y-74000709D01*
X159979773Y-73995668D01*
X160023494Y-73918707D01*
X160028487Y-73907491D01*
X160086062Y-73734414D01*
X160088782Y-73722442D01*
X160111973Y-73538864D01*
X160112465Y-73531835D01*
X160112756Y-73511005D01*
X160112463Y-73504012D01*
X160094403Y-73319825D01*
X160092020Y-73307790D01*
X160039298Y-73133165D01*
X160034623Y-73121824D01*
X159982472Y-73023741D01*
X159972610Y-73013658D01*
X159965484Y-73016226D01*
X159487022Y-73494688D01*
X159479408Y-73508632D01*
X158749356Y-73508632D01*
X158750592Y-73506368D01*
X158750461Y-73504535D01*
X158746210Y-73497920D01*
X158269166Y-73020876D01*
X158256786Y-73014116D01*
X158250398Y-73018898D01*
X158200854Y-73109016D01*
X158196017Y-73120301D01*
X158140861Y-73294175D01*
X158138313Y-73306164D01*
X158117979Y-73487443D01*
X158117808Y-73499712D01*
X123982041Y-73499712D01*
X123964403Y-73319825D01*
X123962020Y-73307790D01*
X123909298Y-73133165D01*
X123904623Y-73121824D01*
X123852472Y-73023741D01*
X123842610Y-73013658D01*
X123835484Y-73016226D01*
X123357022Y-73494688D01*
X123349408Y-73508632D01*
X122619356Y-73508632D01*
X122620592Y-73506368D01*
X122620461Y-73504535D01*
X122616210Y-73497920D01*
X122139166Y-73020876D01*
X122126786Y-73014116D01*
X122120398Y-73018898D01*
X122070854Y-73109016D01*
X122066017Y-73120301D01*
X122010861Y-73294175D01*
X122008313Y-73306164D01*
X121987979Y-73487443D01*
X121987808Y-73499712D01*
X118000500Y-73499712D01*
X118000500Y-72649716D01*
X122490934Y-72649716D01*
X122493389Y-72656679D01*
X122972188Y-73135478D01*
X122986132Y-73143092D01*
X122987965Y-73142961D01*
X122994580Y-73138710D01*
X123471766Y-72661524D01*
X123478214Y-72649716D01*
X158620934Y-72649716D01*
X158623389Y-72656679D01*
X159102188Y-73135478D01*
X159116132Y-73143092D01*
X159117965Y-73142961D01*
X159124580Y-73138710D01*
X159601766Y-72661524D01*
X159608526Y-72649144D01*
X159603867Y-72642921D01*
X159507083Y-72590590D01*
X159495778Y-72585838D01*
X159321524Y-72531897D01*
X159309511Y-72529431D01*
X159128094Y-72510363D01*
X159115826Y-72510278D01*
X158934169Y-72526810D01*
X158922120Y-72529108D01*
X158747128Y-72580611D01*
X158735751Y-72585208D01*
X158631083Y-72639927D01*
X158620934Y-72649716D01*
X123478214Y-72649716D01*
X123478526Y-72649144D01*
X123473867Y-72642921D01*
X123377083Y-72590590D01*
X123365778Y-72585838D01*
X123191524Y-72531897D01*
X123179511Y-72529431D01*
X122998094Y-72510363D01*
X122985826Y-72510278D01*
X122804169Y-72526810D01*
X122792120Y-72529108D01*
X122617128Y-72580611D01*
X122605751Y-72585208D01*
X122501083Y-72639927D01*
X122490934Y-72649716D01*
X118000500Y-72649716D01*
X118000500Y-70226500D01*
X118020502Y-70158379D01*
X118074158Y-70111886D01*
X118126500Y-70100500D01*
X163973500Y-70100500D01*
X164041621Y-70120502D01*
G37*
G04 #@! TD.AperFunction*
M02*
