G04 #@! TF.GenerationSoftware,KiCad,Pcbnew,(5.1.5-0-10_14)*
G04 #@! TF.CreationDate,2020-05-09T22:59:04-06:00*
G04 #@! TF.ProjectId,HVSSOP-8,48565353-4f50-42d3-982e-6b696361645f,rev?*
G04 #@! TF.SameCoordinates,Original*
G04 #@! TF.FileFunction,Copper,L1,Top*
G04 #@! TF.FilePolarity,Positive*
%FSLAX46Y46*%
G04 Gerber Fmt 4.6, Leading zero omitted, Abs format (unit mm)*
G04 Created by KiCad (PCBNEW (5.1.5-0-10_14)) date 2020-05-09 22:59:04*
%MOMM*%
%LPD*%
G04 APERTURE LIST*
%ADD10O,1.700000X1.700000*%
%ADD11R,1.700000X1.700000*%
%ADD12R,1.727200X1.854200*%
%ADD13R,1.371600X0.457200*%
%ADD14C,0.400000*%
%ADD15C,2.000000*%
G04 APERTURE END LIST*
D10*
X159512000Y-98806000D03*
X159512000Y-96266000D03*
X159512000Y-93726000D03*
X159512000Y-91186000D03*
D11*
X159512000Y-88646000D03*
D10*
X149352000Y-98806000D03*
X149352000Y-96266000D03*
X149352000Y-93726000D03*
X149352000Y-91186000D03*
D11*
X149352000Y-88646000D03*
D12*
X154432000Y-92456000D03*
D13*
X156641800Y-91490800D03*
X156641800Y-92125800D03*
X156641800Y-92786200D03*
X156641800Y-93421200D03*
X152222200Y-93421200D03*
X152222200Y-92786200D03*
X152222200Y-92125800D03*
X152222200Y-91490800D03*
D14*
X150291800Y-92125800D02*
X149352000Y-91186000D01*
X152222200Y-92125800D02*
X150291800Y-92125800D01*
X150291800Y-92786200D02*
X149352000Y-93726000D01*
X152222200Y-92786200D02*
X150291800Y-92786200D01*
X152222200Y-93421200D02*
X152222200Y-95681800D01*
X151638000Y-96266000D02*
X149352000Y-96266000D01*
X152222200Y-95681800D02*
X151638000Y-96266000D01*
X152222200Y-91490800D02*
X152222200Y-88976200D01*
X151892000Y-88646000D02*
X149352000Y-88646000D01*
X152222200Y-88976200D02*
X151892000Y-88646000D01*
X156641800Y-91490800D02*
X156641800Y-88976200D01*
X156972000Y-88646000D02*
X159512000Y-88646000D01*
X156641800Y-88976200D02*
X156972000Y-88646000D01*
X156641800Y-93421200D02*
X156641800Y-95935800D01*
X156972000Y-96266000D02*
X159512000Y-96266000D01*
X156641800Y-95935800D02*
X156972000Y-96266000D01*
X158572200Y-92786200D02*
X159512000Y-93726000D01*
X156641800Y-92786200D02*
X158572200Y-92786200D01*
X158572200Y-92125800D02*
X159512000Y-91186000D01*
X156641800Y-92125800D02*
X158572200Y-92125800D01*
D15*
X154432000Y-92456000D02*
X154432000Y-98806000D01*
X154432000Y-98806000D02*
X159512000Y-98806000D01*
X154432000Y-98806000D02*
X149352000Y-98806000D01*
M02*
