G04 #@! TF.GenerationSoftware,KiCad,Pcbnew,(5.1.5-0-10_14)*
G04 #@! TF.CreationDate,2020-05-04T17:52:18-06:00*
G04 #@! TF.ProjectId,L6207Q,4c363230-3751-42e6-9b69-6361645f7063,rev?*
G04 #@! TF.SameCoordinates,Original*
G04 #@! TF.FileFunction,Paste,Top*
G04 #@! TF.FilePolarity,Positive*
%FSLAX46Y46*%
G04 Gerber Fmt 4.6, Leading zero omitted, Abs format (unit mm)*
G04 Created by KiCad (PCBNEW (5.1.5-0-10_14)) date 2020-05-04 17:52:18*
%MOMM*%
%LPD*%
G04 APERTURE LIST*
%ADD10C,0.010000*%
%ADD11R,0.860000X0.270000*%
%ADD12R,0.270000X0.860000*%
G04 APERTURE END LIST*
D10*
G36*
X29720000Y-34165000D02*
G01*
X31500000Y-34165000D01*
X31500000Y-35945000D01*
X29720000Y-35945000D01*
X29720000Y-34165000D01*
G37*
X29720000Y-34165000D02*
X31500000Y-34165000D01*
X31500000Y-35945000D01*
X29720000Y-35945000D01*
X29720000Y-34165000D01*
G36*
X26920000Y-34165000D02*
G01*
X28700000Y-34165000D01*
X28700000Y-35945000D01*
X26920000Y-35945000D01*
X26920000Y-34165000D01*
G37*
X26920000Y-34165000D02*
X28700000Y-34165000D01*
X28700000Y-35945000D01*
X26920000Y-35945000D01*
X26920000Y-34165000D01*
G36*
X29720000Y-31365000D02*
G01*
X31500000Y-31365000D01*
X31500000Y-33145000D01*
X29720000Y-33145000D01*
X29720000Y-31365000D01*
G37*
X29720000Y-31365000D02*
X31500000Y-31365000D01*
X31500000Y-33145000D01*
X29720000Y-33145000D01*
X29720000Y-31365000D01*
G36*
X26920000Y-31365000D02*
G01*
X28700000Y-31365000D01*
X28700000Y-33145000D01*
X26920000Y-33145000D01*
X26920000Y-31365000D01*
G37*
X26920000Y-31365000D02*
X28700000Y-31365000D01*
X28700000Y-33145000D01*
X26920000Y-33145000D01*
X26920000Y-31365000D01*
D11*
X32645000Y-30905000D03*
X32645000Y-31405000D03*
X32645000Y-31905000D03*
X32645000Y-32405000D03*
X32645000Y-32905000D03*
X32645000Y-33405000D03*
X32645000Y-33905000D03*
X32645000Y-34405000D03*
X32645000Y-34905000D03*
X32645000Y-35405000D03*
X32645000Y-35905000D03*
X32645000Y-36405000D03*
X25775000Y-36405000D03*
X25775000Y-35905000D03*
X25775000Y-35405000D03*
X25775000Y-34905000D03*
X25775000Y-34405000D03*
X25775000Y-33905000D03*
X25775000Y-33405000D03*
X25775000Y-32905000D03*
X25775000Y-32405000D03*
X25775000Y-31905000D03*
X25775000Y-31405000D03*
X25775000Y-30905000D03*
D12*
X26460000Y-30220000D03*
X26960000Y-30220000D03*
X27460000Y-30220000D03*
X27960000Y-30220000D03*
X28460000Y-30220000D03*
X28960000Y-30220000D03*
X29460000Y-30220000D03*
X29960000Y-30220000D03*
X30460000Y-30220000D03*
X30960000Y-30220000D03*
X31460000Y-30220000D03*
X31960000Y-30220000D03*
X31960000Y-37090000D03*
X31460000Y-37090000D03*
X30960000Y-37090000D03*
X30460000Y-37090000D03*
X29960000Y-37090000D03*
X29460000Y-37090000D03*
X28960000Y-37090000D03*
X28460000Y-37090000D03*
X27960000Y-37090000D03*
X27460000Y-37090000D03*
X26960000Y-37090000D03*
X26460000Y-37090000D03*
M02*
