%TF.GenerationSoftware,KiCad,Pcbnew,(5.1.6-0-10_14)*%
%TF.CreationDate,2020-08-30T18:10:07-06:00*%
%TF.ProjectId,TSL25911FN,54534c32-3539-4313-9146-4e2e6b696361,rev?*%
%TF.SameCoordinates,Original*%
%TF.FileFunction,Legend,Top*%
%TF.FilePolarity,Positive*%
%FSLAX46Y46*%
G04 Gerber Fmt 4.6, Leading zero omitted, Abs format (unit mm)*
G04 Created by KiCad (PCBNEW (5.1.6-0-10_14)) date 2020-08-30 18:10:07*
%MOMM*%
%LPD*%
G01*
G04 APERTURE LIST*
%ADD10C,0.120000*%
%ADD11C,0.150000*%
G04 APERTURE END LIST*
D10*
X152152428Y-79101904D02*
X152152428Y-78301904D01*
X152609571Y-79101904D01*
X152609571Y-78301904D01*
X153447666Y-79025714D02*
X153409571Y-79063809D01*
X153295285Y-79101904D01*
X153219095Y-79101904D01*
X153104809Y-79063809D01*
X153028619Y-78987619D01*
X152990523Y-78911428D01*
X152952428Y-78759047D01*
X152952428Y-78644761D01*
X152990523Y-78492380D01*
X153028619Y-78416190D01*
X153104809Y-78340000D01*
X153219095Y-78301904D01*
X153295285Y-78301904D01*
X153409571Y-78340000D01*
X153447666Y-78378095D01*
D11*
X150931714Y-74064761D02*
X151074571Y-74112380D01*
X151312666Y-74112380D01*
X151407904Y-74064761D01*
X151455523Y-74017142D01*
X151503142Y-73921904D01*
X151503142Y-73826666D01*
X151455523Y-73731428D01*
X151407904Y-73683809D01*
X151312666Y-73636190D01*
X151122190Y-73588571D01*
X151026952Y-73540952D01*
X150979333Y-73493333D01*
X150931714Y-73398095D01*
X150931714Y-73302857D01*
X150979333Y-73207619D01*
X151026952Y-73160000D01*
X151122190Y-73112380D01*
X151360285Y-73112380D01*
X151503142Y-73160000D01*
X151931714Y-74112380D02*
X151931714Y-73112380D01*
X152169809Y-73112380D01*
X152312666Y-73160000D01*
X152407904Y-73255238D01*
X152455523Y-73350476D01*
X152503142Y-73540952D01*
X152503142Y-73683809D01*
X152455523Y-73874285D01*
X152407904Y-73969523D01*
X152312666Y-74064761D01*
X152169809Y-74112380D01*
X151931714Y-74112380D01*
X152884095Y-73826666D02*
X153360285Y-73826666D01*
X152788857Y-74112380D02*
X153122190Y-73112380D01*
X153455523Y-74112380D01*
D10*
X151460333Y-75761904D02*
X151727000Y-76561904D01*
X151993666Y-75761904D01*
X152260333Y-76561904D02*
X152260333Y-75761904D01*
X152450809Y-75761904D01*
X152565095Y-75800000D01*
X152641285Y-75876190D01*
X152679380Y-75952380D01*
X152717476Y-76104761D01*
X152717476Y-76219047D01*
X152679380Y-76371428D01*
X152641285Y-76447619D01*
X152565095Y-76523809D01*
X152450809Y-76561904D01*
X152260333Y-76561904D01*
X153060333Y-76561904D02*
X153060333Y-75761904D01*
X153250809Y-75761904D01*
X153365095Y-75800000D01*
X153441285Y-75876190D01*
X153479380Y-75952380D01*
X153517476Y-76104761D01*
X153517476Y-76219047D01*
X153479380Y-76371428D01*
X153441285Y-76447619D01*
X153365095Y-76523809D01*
X153250809Y-76561904D01*
X153060333Y-76561904D01*
D11*
X146288238Y-76652380D02*
X146288238Y-75652380D01*
X146764428Y-76652380D02*
X146764428Y-75652380D01*
X147335857Y-76652380D01*
X147335857Y-75652380D01*
X147669190Y-75652380D02*
X148240619Y-75652380D01*
X147954904Y-76652380D02*
X147954904Y-75652380D01*
X146812095Y-78240000D02*
X146716857Y-78192380D01*
X146574000Y-78192380D01*
X146431142Y-78240000D01*
X146335904Y-78335238D01*
X146288285Y-78430476D01*
X146240666Y-78620952D01*
X146240666Y-78763809D01*
X146288285Y-78954285D01*
X146335904Y-79049523D01*
X146431142Y-79144761D01*
X146574000Y-79192380D01*
X146669238Y-79192380D01*
X146812095Y-79144761D01*
X146859714Y-79097142D01*
X146859714Y-78763809D01*
X146669238Y-78763809D01*
X147288285Y-79192380D02*
X147288285Y-78192380D01*
X147859714Y-79192380D01*
X147859714Y-78192380D01*
X148335904Y-79192380D02*
X148335904Y-78192380D01*
X148574000Y-78192380D01*
X148716857Y-78240000D01*
X148812095Y-78335238D01*
X148859714Y-78430476D01*
X148907333Y-78620952D01*
X148907333Y-78763809D01*
X148859714Y-78954285D01*
X148812095Y-79049523D01*
X148716857Y-79144761D01*
X148574000Y-79192380D01*
X148335904Y-79192380D01*
X146272380Y-74064761D02*
X146415238Y-74112380D01*
X146653333Y-74112380D01*
X146748571Y-74064761D01*
X146796190Y-74017142D01*
X146843809Y-73921904D01*
X146843809Y-73826666D01*
X146796190Y-73731428D01*
X146748571Y-73683809D01*
X146653333Y-73636190D01*
X146462857Y-73588571D01*
X146367619Y-73540952D01*
X146320000Y-73493333D01*
X146272380Y-73398095D01*
X146272380Y-73302857D01*
X146320000Y-73207619D01*
X146367619Y-73160000D01*
X146462857Y-73112380D01*
X146700952Y-73112380D01*
X146843809Y-73160000D01*
X147843809Y-74017142D02*
X147796190Y-74064761D01*
X147653333Y-74112380D01*
X147558095Y-74112380D01*
X147415238Y-74064761D01*
X147320000Y-73969523D01*
X147272380Y-73874285D01*
X147224761Y-73683809D01*
X147224761Y-73540952D01*
X147272380Y-73350476D01*
X147320000Y-73255238D01*
X147415238Y-73160000D01*
X147558095Y-73112380D01*
X147653333Y-73112380D01*
X147796190Y-73160000D01*
X147843809Y-73207619D01*
X148415238Y-74112380D02*
X148320000Y-74064761D01*
X148272380Y-73969523D01*
X148272380Y-73112380D01*
D10*
%TO.C,U1*%
X150860000Y-74900000D02*
X148860000Y-74900000D01*
X150860000Y-77500000D02*
X149860000Y-77500000D01*
%TD*%
M02*
