%TF.GenerationSoftware,KiCad,Pcbnew,(5.1.6-0-10_14)*%
%TF.CreationDate,2020-08-30T18:10:07-06:00*%
%TF.ProjectId,TSL25911FN,54534c32-3539-4313-9146-4e2e6b696361,rev?*%
%TF.SameCoordinates,Original*%
%TF.FileFunction,Legend,Bot*%
%TF.FilePolarity,Positive*%
%FSLAX46Y46*%
G04 Gerber Fmt 4.6, Leading zero omitted, Abs format (unit mm)*
G04 Created by KiCad (PCBNEW (5.1.6-0-10_14)) date 2020-08-30 18:10:07*
%MOMM*%
%LPD*%
G01*
G04 APERTURE LIST*
%ADD10C,0.120000*%
G04 APERTURE END LIST*
D10*
X153910000Y-73194142D02*
X153395714Y-73194142D01*
X153652857Y-74094142D02*
X153652857Y-73194142D01*
X153138571Y-74051285D02*
X153010000Y-74094142D01*
X152795714Y-74094142D01*
X152710000Y-74051285D01*
X152667142Y-74008428D01*
X152624285Y-73922714D01*
X152624285Y-73837000D01*
X152667142Y-73751285D01*
X152710000Y-73708428D01*
X152795714Y-73665571D01*
X152967142Y-73622714D01*
X153052857Y-73579857D01*
X153095714Y-73537000D01*
X153138571Y-73451285D01*
X153138571Y-73365571D01*
X153095714Y-73279857D01*
X153052857Y-73237000D01*
X152967142Y-73194142D01*
X152752857Y-73194142D01*
X152624285Y-73237000D01*
X151810000Y-74094142D02*
X152238571Y-74094142D01*
X152238571Y-73194142D01*
X151552857Y-73279857D02*
X151510000Y-73237000D01*
X151424285Y-73194142D01*
X151210000Y-73194142D01*
X151124285Y-73237000D01*
X151081428Y-73279857D01*
X151038571Y-73365571D01*
X151038571Y-73451285D01*
X151081428Y-73579857D01*
X151595714Y-74094142D01*
X151038571Y-74094142D01*
X150224285Y-73194142D02*
X150652857Y-73194142D01*
X150695714Y-73622714D01*
X150652857Y-73579857D01*
X150567142Y-73537000D01*
X150352857Y-73537000D01*
X150267142Y-73579857D01*
X150224285Y-73622714D01*
X150181428Y-73708428D01*
X150181428Y-73922714D01*
X150224285Y-74008428D01*
X150267142Y-74051285D01*
X150352857Y-74094142D01*
X150567142Y-74094142D01*
X150652857Y-74051285D01*
X150695714Y-74008428D01*
X149752857Y-74094142D02*
X149581428Y-74094142D01*
X149495714Y-74051285D01*
X149452857Y-74008428D01*
X149367142Y-73879857D01*
X149324285Y-73708428D01*
X149324285Y-73365571D01*
X149367142Y-73279857D01*
X149410000Y-73237000D01*
X149495714Y-73194142D01*
X149667142Y-73194142D01*
X149752857Y-73237000D01*
X149795714Y-73279857D01*
X149838571Y-73365571D01*
X149838571Y-73579857D01*
X149795714Y-73665571D01*
X149752857Y-73708428D01*
X149667142Y-73751285D01*
X149495714Y-73751285D01*
X149410000Y-73708428D01*
X149367142Y-73665571D01*
X149324285Y-73579857D01*
X148467142Y-74094142D02*
X148981428Y-74094142D01*
X148724285Y-74094142D02*
X148724285Y-73194142D01*
X148810000Y-73322714D01*
X148895714Y-73408428D01*
X148981428Y-73451285D01*
X147610000Y-74094142D02*
X148124285Y-74094142D01*
X147867142Y-74094142D02*
X147867142Y-73194142D01*
X147952857Y-73322714D01*
X148038571Y-73408428D01*
X148124285Y-73451285D01*
X146924285Y-73622714D02*
X147224285Y-73622714D01*
X147224285Y-74094142D02*
X147224285Y-73194142D01*
X146795714Y-73194142D01*
X146452857Y-74094142D02*
X146452857Y-73194142D01*
X145938571Y-74094142D01*
X145938571Y-73194142D01*
X151102857Y-75564142D02*
X151402857Y-75135571D01*
X151617142Y-75564142D02*
X151617142Y-74664142D01*
X151274285Y-74664142D01*
X151188571Y-74707000D01*
X151145714Y-74749857D01*
X151102857Y-74835571D01*
X151102857Y-74964142D01*
X151145714Y-75049857D01*
X151188571Y-75092714D01*
X151274285Y-75135571D01*
X151617142Y-75135571D01*
X150717142Y-75092714D02*
X150417142Y-75092714D01*
X150288571Y-75564142D02*
X150717142Y-75564142D01*
X150717142Y-74664142D01*
X150288571Y-74664142D01*
X150031428Y-74664142D02*
X149731428Y-75564142D01*
X149431428Y-74664142D01*
X148488571Y-75307000D02*
X148060000Y-75307000D01*
X148574285Y-75564142D02*
X148274285Y-74664142D01*
X147974285Y-75564142D01*
%TO.C,J2*%
X156270000Y-80070000D02*
X153610000Y-80070000D01*
X156270000Y-74930000D02*
X156270000Y-80070000D01*
X153610000Y-74930000D02*
X153610000Y-80070000D01*
X156270000Y-74930000D02*
X153610000Y-74930000D01*
X156270000Y-73660000D02*
X156270000Y-72330000D01*
X156270000Y-72330000D02*
X154940000Y-72330000D01*
%TO.C,J1*%
X146110000Y-80070000D02*
X143450000Y-80070000D01*
X146110000Y-74930000D02*
X146110000Y-80070000D01*
X143450000Y-74930000D02*
X143450000Y-80070000D01*
X146110000Y-74930000D02*
X143450000Y-74930000D01*
X146110000Y-73660000D02*
X146110000Y-72330000D01*
X146110000Y-72330000D02*
X144780000Y-72330000D01*
%TD*%
M02*
