%TF.GenerationSoftware,KiCad,Pcbnew,7.0.7*%
%TF.CreationDate,2023-10-18T21:09:21-04:00*%
%TF.ProjectId,JST-SR-HORIZONTAL-1.00mm-1x06,4a53542d-5352-42d4-984f-52495a4f4e54,rev?*%
%TF.SameCoordinates,Original*%
%TF.FileFunction,Legend,Bot*%
%TF.FilePolarity,Positive*%
%FSLAX46Y46*%
G04 Gerber Fmt 4.6, Leading zero omitted, Abs format (unit mm)*
G04 Created by KiCad (PCBNEW 7.0.7) date 2023-10-18 21:09:21*
%MOMM*%
%LPD*%
G01*
G04 APERTURE LIST*
%ADD10C,0.150000*%
%ADD11C,0.120000*%
G04 APERTURE END LIST*
D10*
X-249291666Y-119254819D02*
X-249291666Y-119969104D01*
X-249291666Y-119969104D02*
X-249244047Y-120111961D01*
X-249244047Y-120111961D02*
X-249148809Y-120207200D01*
X-249148809Y-120207200D02*
X-249005952Y-120254819D01*
X-249005952Y-120254819D02*
X-248910714Y-120254819D01*
X-249720238Y-119350057D02*
X-249767857Y-119302438D01*
X-249767857Y-119302438D02*
X-249863095Y-119254819D01*
X-249863095Y-119254819D02*
X-250101190Y-119254819D01*
X-250101190Y-119254819D02*
X-250196428Y-119302438D01*
X-250196428Y-119302438D02*
X-250244047Y-119350057D01*
X-250244047Y-119350057D02*
X-250291666Y-119445295D01*
X-250291666Y-119445295D02*
X-250291666Y-119540533D01*
X-250291666Y-119540533D02*
X-250244047Y-119683390D01*
X-250244047Y-119683390D02*
X-249672619Y-120254819D01*
X-249672619Y-120254819D02*
X-250291666Y-120254819D01*
D11*
%TO.C,J2*%
X-248455000Y-104770000D02*
X-245795000Y-104770000D01*
X-248455000Y-117530000D02*
X-248455000Y-104770000D01*
X-248455000Y-117530000D02*
X-245795000Y-117530000D01*
X-248455000Y-118800000D02*
X-248455000Y-120130000D01*
X-248455000Y-120130000D02*
X-247125000Y-120130000D01*
X-245795000Y-117530000D02*
X-245795000Y-104770000D01*
%TD*%
M02*
