%TF.GenerationSoftware,KiCad,Pcbnew,7.0.7*%
%TF.CreationDate,2023-10-18T21:09:21-04:00*%
%TF.ProjectId,JST-SR-HORIZONTAL-1.00mm-1x06,4a53542d-5352-42d4-984f-52495a4f4e54,rev?*%
%TF.SameCoordinates,Original*%
%TF.FileFunction,Legend,Top*%
%TF.FilePolarity,Positive*%
%FSLAX46Y46*%
G04 Gerber Fmt 4.6, Leading zero omitted, Abs format (unit mm)*
G04 Created by KiCad (PCBNEW 7.0.7) date 2023-10-18 21:09:21*
%MOMM*%
%LPD*%
G01*
G04 APERTURE LIST*
%ADD10C,0.150000*%
%ADD11C,0.120000*%
G04 APERTURE END LIST*
D10*
X-240208333Y-116004819D02*
X-240208333Y-116719104D01*
X-240208333Y-116719104D02*
X-240255952Y-116861961D01*
X-240255952Y-116861961D02*
X-240351190Y-116957200D01*
X-240351190Y-116957200D02*
X-240494047Y-117004819D01*
X-240494047Y-117004819D02*
X-240589285Y-117004819D01*
X-239208333Y-117004819D02*
X-239779761Y-117004819D01*
X-239494047Y-117004819D02*
X-239494047Y-116004819D01*
X-239494047Y-116004819D02*
X-239589285Y-116147676D01*
X-239589285Y-116147676D02*
X-239684523Y-116242914D01*
X-239684523Y-116242914D02*
X-239779761Y-116290533D01*
%TO.C,kibuzzard-65308191*%
G36*
X-234996302Y-106999617D02*
G01*
X-235327031Y-106999617D01*
X-237347919Y-106999617D01*
X-238336931Y-106999617D01*
X-238454406Y-106999617D01*
X-239144969Y-106999617D01*
X-239475698Y-106999617D01*
X-239475698Y-106668888D01*
X-239144969Y-106668888D01*
X-238949706Y-106668888D01*
X-238949706Y-106306937D01*
X-238848106Y-106306937D01*
X-238794330Y-106396830D01*
X-238744125Y-106485531D01*
X-238698683Y-106575423D01*
X-238659194Y-106668888D01*
X-238454406Y-106668888D01*
X-238499650Y-106564906D01*
X-238554419Y-106455369D01*
X-238613156Y-106350594D01*
X-238670306Y-106259313D01*
X-238600853Y-106214466D01*
X-238554419Y-106152950D01*
X-238528225Y-106079131D01*
X-238519494Y-105997375D01*
X-238526042Y-105920183D01*
X-238545687Y-105853706D01*
X-238621094Y-105752900D01*
X-238675069Y-105718372D01*
X-238738569Y-105694162D01*
X-238778696Y-105686225D01*
X-238336931Y-105686225D01*
X-238336931Y-106668888D01*
X-237706694Y-106668888D01*
X-237706694Y-106506963D01*
X-238141669Y-106506963D01*
X-238141669Y-106230737D01*
X-237794006Y-106230737D01*
X-237794006Y-106068812D01*
X-238141669Y-106068812D01*
X-238141669Y-105848150D01*
X-237741619Y-105848150D01*
X-237741619Y-105686225D01*
X-237622556Y-105686225D01*
X-237604300Y-105775125D01*
X-237578106Y-105886250D01*
X-237557116Y-105969417D01*
X-237534362Y-106055936D01*
X-237509844Y-106145806D01*
X-237483915Y-106237440D01*
X-237456927Y-106329251D01*
X-237428881Y-106421238D01*
X-237387209Y-106552206D01*
X-237347919Y-106668888D01*
X-237146306Y-106668888D01*
X-237115967Y-106584309D01*
X-237086334Y-106497790D01*
X-237057406Y-106409331D01*
X-237029625Y-106320431D01*
X-237003431Y-106232590D01*
X-236978825Y-106145806D01*
X-236945091Y-106019402D01*
X-236915325Y-105898950D01*
X-236913510Y-105891013D01*
X-235979494Y-105891013D01*
X-235915994Y-106052938D01*
X-235819156Y-106014044D01*
X-235717556Y-105957687D01*
X-235717556Y-106506963D01*
X-235923931Y-106506963D01*
X-235923931Y-106668888D01*
X-235327031Y-106668888D01*
X-235327031Y-106506963D01*
X-235522294Y-106506963D01*
X-235522294Y-105686225D01*
X-235655644Y-105686225D01*
X-235723906Y-105748137D01*
X-235808044Y-105805287D01*
X-235896944Y-105854500D01*
X-235979494Y-105891013D01*
X-236913510Y-105891013D01*
X-236889727Y-105787031D01*
X-236868494Y-105686225D01*
X-237073281Y-105686225D01*
X-237087569Y-105768775D01*
X-237105031Y-105864025D01*
X-237124875Y-105967014D01*
X-237146306Y-106072781D01*
X-237169325Y-106179144D01*
X-237193931Y-106283919D01*
X-237219331Y-106382145D01*
X-237244731Y-106468863D01*
X-237270330Y-106380955D01*
X-237296325Y-106282331D01*
X-237321725Y-106177556D01*
X-237345537Y-106071194D01*
X-237367564Y-105965625D01*
X-237387606Y-105863231D01*
X-237404275Y-105768577D01*
X-237416181Y-105686225D01*
X-237622556Y-105686225D01*
X-237741619Y-105686225D01*
X-238336931Y-105686225D01*
X-238778696Y-105686225D01*
X-238810800Y-105679875D01*
X-238890969Y-105675112D01*
X-238946531Y-105676700D01*
X-239013206Y-105680669D01*
X-239082262Y-105688606D01*
X-239144969Y-105700512D01*
X-239144969Y-106668888D01*
X-239475698Y-106668888D01*
X-239475698Y-105344383D01*
X-239144969Y-105344383D01*
X-235327031Y-105344383D01*
X-234996302Y-105344383D01*
X-234996302Y-106999617D01*
G37*
G36*
X-238820722Y-105854103D02*
G01*
X-238765556Y-105881488D01*
X-238729837Y-105928319D01*
X-238717931Y-105995787D01*
X-238762381Y-106106119D01*
X-238820722Y-106135289D01*
X-238906844Y-106145012D01*
X-238949706Y-106145012D01*
X-238949706Y-105849737D01*
X-238917956Y-105845769D01*
X-238890969Y-105844975D01*
X-238820722Y-105854103D01*
G37*
D11*
%TO.C,J1*%
X-238910000Y-116560000D02*
X-238910000Y-115510000D01*
X-236410000Y-116560000D02*
X-238910000Y-116560000D01*
X-238910000Y-115510000D02*
X-239900000Y-115510000D01*
X-234440000Y-115390000D02*
X-234440000Y-109510000D01*
X-238910000Y-108340000D02*
X-238910000Y-109390000D01*
X-236410000Y-108340000D02*
X-238910000Y-108340000D01*
%TO.C,kibuzzard-65307E68*%
G36*
X-243924407Y-111151917D02*
G01*
X-243880481Y-111251329D01*
X-243895894Y-111319915D01*
X-243935196Y-111361529D01*
X-243989910Y-111381566D01*
X-244053102Y-111386960D01*
X-244100111Y-111385419D01*
X-244144037Y-111380795D01*
X-244144037Y-111121863D01*
X-244042313Y-111121863D01*
X-243924407Y-111151917D01*
G37*
G36*
X-244006864Y-110743483D02*
G01*
X-243963709Y-110758896D01*
X-243934425Y-110791262D01*
X-243923636Y-110845977D01*
X-243960627Y-110933058D01*
X-244070056Y-110964654D01*
X-244144037Y-110964654D01*
X-244144037Y-110745795D01*
X-244102423Y-110741171D01*
X-244057726Y-110739630D01*
X-244006864Y-110743483D01*
G37*
G36*
X-244012927Y-108752427D02*
G01*
X-243958577Y-108779406D01*
X-243923386Y-108825546D01*
X-243911655Y-108892017D01*
X-243955448Y-109000718D01*
X-244012927Y-109029457D01*
X-244097776Y-109039037D01*
X-244140005Y-109039037D01*
X-244140005Y-108748126D01*
X-244108724Y-108744215D01*
X-244082136Y-108743433D01*
X-244012927Y-108752427D01*
G37*
G36*
X-242499859Y-114757228D02*
G01*
X-242438456Y-114826868D01*
X-242407005Y-114927210D01*
X-242398019Y-115044026D01*
X-242409252Y-115170577D01*
X-242446693Y-115270170D01*
X-242515584Y-115336066D01*
X-242621168Y-115360028D01*
X-242637642Y-115360028D01*
X-242654116Y-115358531D01*
X-242654116Y-114735512D01*
X-242627159Y-114731768D01*
X-242600201Y-114731019D01*
X-242499859Y-114757228D01*
G37*
G36*
X-243182289Y-110755042D02*
G01*
X-243136822Y-110825941D01*
X-243115244Y-110931517D01*
X-243109850Y-111061754D01*
X-243115244Y-111191220D01*
X-243136822Y-111296796D01*
X-243183060Y-111368465D01*
X-243260894Y-111394666D01*
X-243339498Y-111368465D01*
X-243384965Y-111297567D01*
X-243406543Y-111191990D01*
X-243411937Y-111061754D01*
X-243406543Y-110932288D01*
X-243384965Y-110826711D01*
X-243339498Y-110755042D01*
X-243260894Y-110728841D01*
X-243182289Y-110755042D01*
G37*
G36*
X-242411658Y-110755042D02*
G01*
X-242366191Y-110825941D01*
X-242344613Y-110931517D01*
X-242339219Y-111061754D01*
X-242344613Y-111191220D01*
X-242366191Y-111296796D01*
X-242412429Y-111368465D01*
X-242490262Y-111394666D01*
X-242568867Y-111368465D01*
X-242614334Y-111297567D01*
X-242635912Y-111191990D01*
X-242641306Y-111061754D01*
X-242635912Y-110932288D01*
X-242614334Y-110826711D01*
X-242568867Y-110755042D01*
X-242490262Y-110728841D01*
X-242411658Y-110755042D01*
G37*
G36*
X-241042118Y-118024498D02*
G01*
X-241372847Y-118024498D01*
X-241624073Y-118024498D01*
X-242640637Y-118024498D01*
X-243403794Y-118024498D01*
X-244118538Y-118024498D01*
X-244377153Y-118024498D01*
X-244707882Y-118024498D01*
X-244707882Y-117464612D01*
X-244365154Y-117464612D01*
X-244323067Y-117480856D01*
X-244261782Y-117496362D01*
X-244190898Y-117507437D01*
X-244118538Y-117511868D01*
X-244033994Y-117506330D01*
X-243960526Y-117489716D01*
X-243846817Y-117427693D01*
X-243778887Y-117333920D01*
X-243756735Y-117216519D01*
X-243779256Y-117093211D01*
X-243846817Y-117000914D01*
X-243917208Y-116956940D01*
X-244008274Y-116927405D01*
X-244120015Y-116912309D01*
X-244112631Y-116828135D01*
X-244105247Y-116729193D01*
X-243790701Y-116729193D01*
X-243790701Y-116578565D01*
X-243659270Y-116578565D01*
X-243642288Y-116661263D01*
X-243617922Y-116764635D01*
X-243588017Y-116881852D01*
X-243554422Y-117006083D01*
X-243530301Y-117091324D01*
X-243505197Y-117176729D01*
X-243479108Y-117262298D01*
X-243440343Y-117384129D01*
X-243403794Y-117492670D01*
X-243216247Y-117492670D01*
X-243174160Y-117373977D01*
X-243133549Y-117251222D01*
X-243095339Y-117127545D01*
X-243060451Y-117006083D01*
X-243029070Y-116888497D01*
X-243001381Y-116776449D01*
X-242977568Y-116672339D01*
X-242957817Y-116578565D01*
X-243136357Y-116578565D01*
X-243148317Y-116578565D01*
X-243161608Y-116655356D01*
X-243177852Y-116743961D01*
X-243196311Y-116839764D01*
X-243216247Y-116938152D01*
X-243237660Y-117037094D01*
X-243260549Y-117134559D01*
X-243284177Y-117225933D01*
X-243307805Y-117306600D01*
X-243331618Y-117224825D01*
X-243355799Y-117133083D01*
X-243379427Y-117035618D01*
X-243401578Y-116936676D01*
X-243422068Y-116838472D01*
X-243440712Y-116743222D01*
X-243456218Y-116655171D01*
X-243467294Y-116578565D01*
X-243652025Y-116578565D01*
X-243659270Y-116578565D01*
X-243790701Y-116578565D01*
X-243997500Y-116578565D01*
X-244257352Y-116578565D01*
X-244262890Y-116691352D01*
X-244270642Y-116808199D01*
X-244280980Y-116928369D01*
X-244294270Y-117051123D01*
X-244192744Y-117054261D01*
X-244112631Y-117063676D01*
X-244005567Y-117099118D01*
X-243955358Y-117153757D01*
X-243942805Y-117223902D01*
X-243950189Y-117272635D01*
X-243977509Y-117314722D01*
X-244032148Y-117344995D01*
X-244120015Y-117356809D01*
X-244245538Y-117343519D01*
X-244328235Y-117313984D01*
X-244365154Y-117464612D01*
X-244707882Y-117464612D01*
X-244707882Y-115044026D01*
X-244376404Y-115044026D01*
X-244369664Y-115156536D01*
X-244349446Y-115254445D01*
X-244316873Y-115337564D01*
X-244273067Y-115405706D01*
X-244218590Y-115458873D01*
X-244154004Y-115497063D01*
X-244080058Y-115520089D01*
X-243997500Y-115527764D01*
X-243905957Y-115524020D01*
X-243829016Y-115512788D01*
X-243726427Y-115485830D01*
X-243726427Y-115023059D01*
X-243910637Y-115023059D01*
X-243910637Y-115361526D01*
X-243946581Y-115366019D01*
X-243982524Y-115367517D01*
X-244072008Y-115347860D01*
X-244136781Y-115288890D01*
X-244176094Y-115188361D01*
X-244189199Y-115044026D01*
X-244186016Y-114975322D01*
X-244176469Y-114912982D01*
X-244134535Y-114811143D01*
X-244060401Y-114744498D01*
X-243949576Y-114720535D01*
X-243850732Y-114737010D01*
X-243769859Y-114774451D01*
X-243721934Y-114627682D01*
X-243752636Y-114609710D01*
X-243804305Y-114587245D01*
X-243828026Y-114581255D01*
X-243599128Y-114581255D01*
X-243599128Y-115508295D01*
X-243432890Y-115508295D01*
X-243432890Y-114892764D01*
X-243377227Y-114995519D01*
X-243324061Y-115098108D01*
X-243273391Y-115200530D01*
X-243225217Y-115302952D01*
X-243179539Y-115405540D01*
X-243136357Y-115508295D01*
X-242988090Y-115508295D01*
X-242988090Y-115497811D01*
X-242838326Y-115497811D01*
X-242737235Y-115515034D01*
X-242640637Y-115520276D01*
X-242550217Y-115513724D01*
X-242467660Y-115494067D01*
X-242394462Y-115460183D01*
X-242332123Y-115410948D01*
X-242281391Y-115345614D01*
X-242243013Y-115263431D01*
X-242218864Y-115163276D01*
X-242210814Y-115044026D01*
X-242218115Y-114927397D01*
X-242240018Y-114829114D01*
X-242275026Y-114747867D01*
X-242321640Y-114682346D01*
X-242379860Y-114632362D01*
X-242449688Y-114597729D01*
X-242488721Y-114587810D01*
X-242529250Y-114577511D01*
X-242616675Y-114570771D01*
X-242720012Y-114575264D01*
X-242838326Y-114593236D01*
X-242838326Y-115497811D01*
X-242988090Y-115497811D01*
X-242988090Y-114581255D01*
X-243117976Y-114581255D01*
X-243154328Y-114581255D01*
X-243154328Y-115151856D01*
X-243180724Y-115093448D01*
X-243211988Y-115026054D01*
X-243247182Y-114953044D01*
X-243285372Y-114877788D01*
X-243325621Y-114801221D01*
X-243366993Y-114724280D01*
X-243408927Y-114649959D01*
X-243450861Y-114581255D01*
X-243599128Y-114581255D01*
X-243828026Y-114581255D01*
X-243878438Y-114568525D01*
X-243975036Y-114560288D01*
X-244056283Y-114567963D01*
X-244132288Y-114590989D01*
X-244200805Y-114629367D01*
X-244259588Y-114683094D01*
X-244307887Y-114751799D01*
X-244321134Y-114781573D01*
X-244344953Y-114835105D01*
X-244368541Y-114932639D01*
X-244376404Y-115044026D01*
X-244707882Y-115044026D01*
X-244707882Y-113523920D01*
X-244321134Y-113523920D01*
X-243718036Y-113523920D01*
X-243718036Y-113368968D01*
X-244134280Y-113368968D01*
X-244134280Y-113104638D01*
X-243801589Y-113104638D01*
X-243801589Y-112949685D01*
X-244134280Y-112949685D01*
X-244134280Y-112738525D01*
X-243751457Y-112738525D01*
X-243751457Y-112583573D01*
X-243587390Y-112583573D01*
X-243587390Y-113523920D01*
X-243418766Y-113523920D01*
X-243418766Y-112899554D01*
X-243362305Y-113003784D01*
X-243308375Y-113107845D01*
X-243256978Y-113211737D01*
X-243208112Y-113315629D01*
X-243161778Y-113419690D01*
X-243117976Y-113523920D01*
X-242967582Y-113523920D01*
X-242967582Y-112583573D01*
X-243136206Y-112583573D01*
X-243136206Y-113162365D01*
X-243162981Y-113103118D01*
X-243194693Y-113034757D01*
X-243230393Y-112960699D01*
X-243259352Y-112903632D01*
X-243269131Y-112884362D01*
X-243309958Y-112806697D01*
X-243351924Y-112728651D01*
X-243394460Y-112653264D01*
X-243436996Y-112583573D01*
X-243587390Y-112583573D01*
X-243751457Y-112583573D01*
X-244068515Y-112583573D01*
X-244321134Y-112583573D01*
X-244321134Y-113523920D01*
X-244707882Y-113523920D01*
X-244707882Y-111524132D01*
X-244333612Y-111524132D01*
X-244266952Y-111536270D01*
X-244199522Y-111544939D01*
X-244068515Y-111551875D01*
X-243992415Y-111548215D01*
X-243921324Y-111537233D01*
X-243802647Y-111487913D01*
X-243723272Y-111395437D01*
X-243701309Y-111330511D01*
X-243693988Y-111251329D01*
X-243702658Y-111186596D01*
X-243728667Y-111124945D01*
X-243778950Y-111071001D01*
X-243797059Y-111061754D01*
X-243604595Y-111061754D01*
X-243599056Y-111177493D01*
X-243582439Y-111278108D01*
X-243554745Y-111363600D01*
X-243515972Y-111433968D01*
X-243448071Y-111503753D01*
X-243362531Y-111545624D01*
X-243259352Y-111559581D01*
X-243158656Y-111545624D01*
X-243074401Y-111503753D01*
X-243006585Y-111433968D01*
X-242967476Y-111363600D01*
X-242939540Y-111278108D01*
X-242922779Y-111177493D01*
X-242917192Y-111061754D01*
X-242833964Y-111061754D01*
X-242828425Y-111177493D01*
X-242811808Y-111278108D01*
X-242784114Y-111363600D01*
X-242745341Y-111433968D01*
X-242677440Y-111503753D01*
X-242591900Y-111545624D01*
X-242488721Y-111559581D01*
X-242388025Y-111545624D01*
X-242303770Y-111503753D01*
X-242235954Y-111433968D01*
X-242196845Y-111363600D01*
X-242168909Y-111278108D01*
X-242152148Y-111177493D01*
X-242146561Y-111061754D01*
X-242152052Y-110946014D01*
X-242168524Y-110845399D01*
X-242195978Y-110759907D01*
X-242234413Y-110689539D01*
X-242301886Y-110619754D01*
X-242371647Y-110585504D01*
X-242066415Y-110585504D01*
X-242066415Y-110742712D01*
X-241815190Y-110742712D01*
X-241815190Y-111539545D01*
X-241624073Y-111539545D01*
X-241624073Y-110742712D01*
X-241372847Y-110742712D01*
X-241372847Y-110585504D01*
X-242066415Y-110585504D01*
X-242371647Y-110585504D01*
X-242387169Y-110577883D01*
X-242490262Y-110563926D01*
X-242590273Y-110577883D01*
X-242674529Y-110619754D01*
X-242743029Y-110689539D01*
X-242782813Y-110759907D01*
X-242811230Y-110845399D01*
X-242828280Y-110946014D01*
X-242833964Y-111061754D01*
X-242917192Y-111061754D01*
X-242922683Y-110946014D01*
X-242939155Y-110845399D01*
X-242966609Y-110759907D01*
X-243005044Y-110689539D01*
X-243072517Y-110619754D01*
X-243078022Y-110617051D01*
X-243157800Y-110577883D01*
X-243260894Y-110563926D01*
X-243360904Y-110577883D01*
X-243445160Y-110619754D01*
X-243513660Y-110689539D01*
X-243553444Y-110759907D01*
X-243581861Y-110845399D01*
X-243598912Y-110946014D01*
X-243604595Y-111061754D01*
X-243797059Y-111061754D01*
X-243860444Y-111029387D01*
X-243771822Y-110946159D01*
X-243738685Y-110825941D01*
X-243752556Y-110736547D01*
X-243804959Y-110655631D01*
X-243911306Y-110597063D01*
X-243989140Y-110580302D01*
X-244087010Y-110574715D01*
X-244214935Y-110581650D01*
X-244333612Y-110597834D01*
X-244333612Y-111524132D01*
X-244707882Y-111524132D01*
X-244707882Y-109555170D01*
X-244332382Y-109555170D01*
X-244140005Y-109555170D01*
X-244140005Y-109198569D01*
X-244039907Y-109198569D01*
X-243986925Y-109287133D01*
X-243937462Y-109374523D01*
X-243892691Y-109463087D01*
X-243853786Y-109555170D01*
X-243652025Y-109555170D01*
X-243617616Y-109555170D01*
X-243409599Y-109555170D01*
X-243373626Y-109470516D01*
X-243331397Y-109376087D01*
X-243286040Y-109278530D01*
X-243240682Y-109184493D01*
X-243194739Y-109281463D01*
X-243150750Y-109378433D01*
X-243111063Y-109471103D01*
X-243078022Y-109555170D01*
X-242870005Y-109555170D01*
X-242912234Y-109452725D01*
X-242940973Y-109390164D01*
X-242974014Y-109322910D01*
X-243010573Y-109252333D01*
X-243049870Y-109179800D01*
X-243090926Y-109107855D01*
X-243132764Y-109039037D01*
X-242885646Y-108587030D01*
X-243057940Y-108587030D01*
X-243079586Y-108587030D01*
X-243240682Y-108896709D01*
X-243393958Y-108587030D01*
X-243601976Y-108587030D01*
X-243348601Y-109043729D01*
X-243386920Y-109112351D01*
X-243426803Y-109183711D01*
X-243466491Y-109255461D01*
X-243504223Y-109325256D01*
X-243539414Y-109391728D01*
X-243571477Y-109453507D01*
X-243617616Y-109555170D01*
X-243652025Y-109555170D01*
X-243696600Y-109452725D01*
X-243750559Y-109344807D01*
X-243808429Y-109241580D01*
X-243864734Y-109151648D01*
X-243796307Y-109107464D01*
X-243750559Y-109046857D01*
X-243724753Y-108974129D01*
X-243716150Y-108893581D01*
X-243722602Y-108817530D01*
X-243741957Y-108752036D01*
X-243816249Y-108652719D01*
X-243921540Y-108600074D01*
X-243931988Y-108594850D01*
X-244003152Y-108580773D01*
X-244082136Y-108576081D01*
X-244136877Y-108577645D01*
X-244202567Y-108581555D01*
X-244270602Y-108589376D01*
X-244332382Y-108601106D01*
X-244332382Y-109555170D01*
X-244707882Y-109555170D01*
X-244707882Y-106588132D01*
X-244377153Y-106588132D01*
X-244377153Y-106750057D01*
X-244118390Y-106750057D01*
X-244118390Y-107570795D01*
X-243921540Y-107570795D01*
X-243605628Y-107570795D01*
X-243394490Y-107570795D01*
X-243357978Y-107484871D01*
X-243315115Y-107389026D01*
X-243269078Y-107290006D01*
X-243223040Y-107194557D01*
X-243176407Y-107292982D01*
X-243131759Y-107391407D01*
X-243091476Y-107485467D01*
X-243057940Y-107570795D01*
X-242846803Y-107570795D01*
X-242889665Y-107466814D01*
X-242918835Y-107403314D01*
X-242952371Y-107335051D01*
X-242989479Y-107263415D01*
X-243029365Y-107189795D01*
X-243071037Y-107116770D01*
X-243113503Y-107046920D01*
X-242862678Y-106588132D01*
X-243059528Y-106588132D01*
X-243223040Y-106902457D01*
X-243378615Y-106588132D01*
X-243589753Y-106588132D01*
X-243332578Y-107051682D01*
X-243371471Y-107121334D01*
X-243411953Y-107193764D01*
X-243452235Y-107266590D01*
X-243490534Y-107337432D01*
X-243526253Y-107404901D01*
X-243558796Y-107467607D01*
X-243605628Y-107570795D01*
X-243921540Y-107570795D01*
X-243921540Y-106750057D01*
X-243662778Y-106750057D01*
X-243662778Y-106588132D01*
X-244377153Y-106588132D01*
X-244707882Y-106588132D01*
X-244707882Y-106075502D01*
X-244377153Y-106075502D01*
X-241372847Y-106075502D01*
X-241042118Y-106075502D01*
X-241042118Y-118024498D01*
G37*
%TD*%
M02*
