G04 #@! TF.GenerationSoftware,KiCad,Pcbnew,(5.1.5-0-10_14)*
G04 #@! TF.CreationDate,2020-08-05T22:51:02-06:00*
G04 #@! TF.ProjectId,SOT-363,534f542d-3336-4332-9e6b-696361645f70,rev?*
G04 #@! TF.SameCoordinates,Original*
G04 #@! TF.FileFunction,Legend,Top*
G04 #@! TF.FilePolarity,Positive*
%FSLAX46Y46*%
G04 Gerber Fmt 4.6, Leading zero omitted, Abs format (unit mm)*
G04 Created by KiCad (PCBNEW (5.1.5-0-10_14)) date 2020-08-05 22:51:02*
%MOMM*%
%LPD*%
G04 APERTURE LIST*
%ADD10C,0.150000*%
%ADD11C,0.120000*%
%ADD12C,0.100000*%
G04 APERTURE END LIST*
D10*
X123761904Y-61364761D02*
X123904761Y-61412380D01*
X124142857Y-61412380D01*
X124238095Y-61364761D01*
X124285714Y-61317142D01*
X124333333Y-61221904D01*
X124333333Y-61126666D01*
X124285714Y-61031428D01*
X124238095Y-60983809D01*
X124142857Y-60936190D01*
X123952380Y-60888571D01*
X123857142Y-60840952D01*
X123809523Y-60793333D01*
X123761904Y-60698095D01*
X123761904Y-60602857D01*
X123809523Y-60507619D01*
X123857142Y-60460000D01*
X123952380Y-60412380D01*
X124190476Y-60412380D01*
X124333333Y-60460000D01*
X124952380Y-60412380D02*
X125142857Y-60412380D01*
X125238095Y-60460000D01*
X125333333Y-60555238D01*
X125380952Y-60745714D01*
X125380952Y-61079047D01*
X125333333Y-61269523D01*
X125238095Y-61364761D01*
X125142857Y-61412380D01*
X124952380Y-61412380D01*
X124857142Y-61364761D01*
X124761904Y-61269523D01*
X124714285Y-61079047D01*
X124714285Y-60745714D01*
X124761904Y-60555238D01*
X124857142Y-60460000D01*
X124952380Y-60412380D01*
X125666666Y-60412380D02*
X126238095Y-60412380D01*
X125952380Y-61412380D02*
X125952380Y-60412380D01*
X126571428Y-61031428D02*
X127333333Y-61031428D01*
X127714285Y-60412380D02*
X128333333Y-60412380D01*
X128000000Y-60793333D01*
X128142857Y-60793333D01*
X128238095Y-60840952D01*
X128285714Y-60888571D01*
X128333333Y-60983809D01*
X128333333Y-61221904D01*
X128285714Y-61317142D01*
X128238095Y-61364761D01*
X128142857Y-61412380D01*
X127857142Y-61412380D01*
X127761904Y-61364761D01*
X127714285Y-61317142D01*
X129190476Y-60412380D02*
X129000000Y-60412380D01*
X128904761Y-60460000D01*
X128857142Y-60507619D01*
X128761904Y-60650476D01*
X128714285Y-60840952D01*
X128714285Y-61221904D01*
X128761904Y-61317142D01*
X128809523Y-61364761D01*
X128904761Y-61412380D01*
X129095238Y-61412380D01*
X129190476Y-61364761D01*
X129238095Y-61317142D01*
X129285714Y-61221904D01*
X129285714Y-60983809D01*
X129238095Y-60888571D01*
X129190476Y-60840952D01*
X129095238Y-60793333D01*
X128904761Y-60793333D01*
X128809523Y-60840952D01*
X128761904Y-60888571D01*
X128714285Y-60983809D01*
X129619047Y-60412380D02*
X130238095Y-60412380D01*
X129904761Y-60793333D01*
X130047619Y-60793333D01*
X130142857Y-60840952D01*
X130190476Y-60888571D01*
X130238095Y-60983809D01*
X130238095Y-61221904D01*
X130190476Y-61317142D01*
X130142857Y-61364761D01*
X130047619Y-61412380D01*
X129761904Y-61412380D01*
X129666666Y-61364761D01*
X129619047Y-61317142D01*
D11*
X133410000Y-67370000D02*
X132080000Y-67370000D01*
X133410000Y-66040000D02*
X133410000Y-67370000D01*
X133410000Y-64770000D02*
X130750000Y-64770000D01*
X130750000Y-64770000D02*
X130750000Y-59630000D01*
X133410000Y-64770000D02*
X133410000Y-59630000D01*
X133410000Y-59630000D02*
X130750000Y-59630000D01*
X120590000Y-59630000D02*
X121920000Y-59630000D01*
X120590000Y-60960000D02*
X120590000Y-59630000D01*
X120590000Y-62230000D02*
X123250000Y-62230000D01*
X123250000Y-62230000D02*
X123250000Y-67370000D01*
X120590000Y-62230000D02*
X120590000Y-67370000D01*
X120590000Y-67370000D02*
X123250000Y-67370000D01*
D12*
X126200000Y-62275000D02*
X126425000Y-62275000D01*
X126200000Y-62575000D02*
X126200000Y-62275000D01*
X127800000Y-62275000D02*
X127550000Y-62275000D01*
X127800000Y-62550000D02*
X127800000Y-62275000D01*
X126200000Y-64725000D02*
X126500000Y-64725000D01*
X126200000Y-64425000D02*
X126200000Y-64725000D01*
X127800000Y-64425000D02*
X128200000Y-64425000D01*
X127475000Y-64725000D02*
X127800000Y-64425000D01*
M02*
