%TF.GenerationSoftware,KiCad,Pcbnew,(5.1.6-0-10_14)*%
%TF.CreationDate,2020-08-16T22:52:20-04:00*%
%TF.ProjectId,PAM8016,50414d38-3031-4362-9e6b-696361645f70,rev?*%
%TF.SameCoordinates,Original*%
%TF.FileFunction,Legend,Top*%
%TF.FilePolarity,Positive*%
%FSLAX46Y46*%
G04 Gerber Fmt 4.6, Leading zero omitted, Abs format (unit mm)*
G04 Created by KiCad (PCBNEW (5.1.6-0-10_14)) date 2020-08-16 22:52:20*
%MOMM*%
%LPD*%
G01*
G04 APERTURE LIST*
%ADD10C,0.150000*%
%ADD11C,0.090000*%
%ADD12C,0.120000*%
G04 APERTURE END LIST*
D10*
X128270142Y-51252380D02*
X128270142Y-50252380D01*
X128746333Y-51252380D02*
X128746333Y-50252380D01*
X129317761Y-51252380D01*
X129317761Y-50252380D01*
X129793952Y-50871428D02*
X130555857Y-50871428D01*
X129008285Y-48664761D02*
X129151142Y-48712380D01*
X129389238Y-48712380D01*
X129484476Y-48664761D01*
X129532095Y-48617142D01*
X129579714Y-48521904D01*
X129579714Y-48426666D01*
X129532095Y-48331428D01*
X129484476Y-48283809D01*
X129389238Y-48236190D01*
X129198761Y-48188571D01*
X129103523Y-48140952D01*
X129055904Y-48093333D01*
X129008285Y-47998095D01*
X129008285Y-47902857D01*
X129055904Y-47807619D01*
X129103523Y-47760000D01*
X129198761Y-47712380D01*
X129436857Y-47712380D01*
X129579714Y-47760000D01*
X130008285Y-48712380D02*
X130008285Y-47712380D01*
X130246380Y-47712380D01*
X130389238Y-47760000D01*
X130484476Y-47855238D01*
X130532095Y-47950476D01*
X130579714Y-48140952D01*
X130579714Y-48283809D01*
X130532095Y-48474285D01*
X130484476Y-48569523D01*
X130389238Y-48664761D01*
X130246380Y-48712380D01*
X130008285Y-48712380D01*
D11*
X128568571Y-45391428D02*
X128682857Y-45391428D01*
X128740000Y-45420000D01*
X128797142Y-45477142D01*
X128825714Y-45591428D01*
X128825714Y-45791428D01*
X128797142Y-45905714D01*
X128740000Y-45962857D01*
X128682857Y-45991428D01*
X128568571Y-45991428D01*
X128511428Y-45962857D01*
X128454285Y-45905714D01*
X128425714Y-45791428D01*
X128425714Y-45591428D01*
X128454285Y-45477142D01*
X128511428Y-45420000D01*
X128568571Y-45391428D01*
X129082857Y-45391428D02*
X129082857Y-45877142D01*
X129111428Y-45934285D01*
X129140000Y-45962857D01*
X129197142Y-45991428D01*
X129311428Y-45991428D01*
X129368571Y-45962857D01*
X129397142Y-45934285D01*
X129425714Y-45877142D01*
X129425714Y-45391428D01*
X129625714Y-45391428D02*
X129968571Y-45391428D01*
X129797142Y-45991428D02*
X129797142Y-45391428D01*
X130168571Y-45762857D02*
X130625714Y-45762857D01*
X130397142Y-45991428D02*
X130397142Y-45534285D01*
D10*
X128524095Y-42680000D02*
X128428857Y-42632380D01*
X128286000Y-42632380D01*
X128143142Y-42680000D01*
X128047904Y-42775238D01*
X128000285Y-42870476D01*
X127952666Y-43060952D01*
X127952666Y-43203809D01*
X128000285Y-43394285D01*
X128047904Y-43489523D01*
X128143142Y-43584761D01*
X128286000Y-43632380D01*
X128381238Y-43632380D01*
X128524095Y-43584761D01*
X128571714Y-43537142D01*
X128571714Y-43203809D01*
X128381238Y-43203809D01*
X129000285Y-43632380D02*
X129000285Y-42632380D01*
X129571714Y-43632380D01*
X129571714Y-42632380D01*
X130047904Y-43632380D02*
X130047904Y-42632380D01*
X130286000Y-42632380D01*
X130428857Y-42680000D01*
X130524095Y-42775238D01*
X130571714Y-42870476D01*
X130619333Y-43060952D01*
X130619333Y-43203809D01*
X130571714Y-43394285D01*
X130524095Y-43489523D01*
X130428857Y-43584761D01*
X130286000Y-43632380D01*
X130047904Y-43632380D01*
X123602952Y-42632380D02*
X123793428Y-42632380D01*
X123888666Y-42680000D01*
X123983904Y-42775238D01*
X124031523Y-42965714D01*
X124031523Y-43299047D01*
X123983904Y-43489523D01*
X123888666Y-43584761D01*
X123793428Y-43632380D01*
X123602952Y-43632380D01*
X123507714Y-43584761D01*
X123412476Y-43489523D01*
X123364857Y-43299047D01*
X123364857Y-42965714D01*
X123412476Y-42775238D01*
X123507714Y-42680000D01*
X123602952Y-42632380D01*
X124460095Y-42632380D02*
X124460095Y-43441904D01*
X124507714Y-43537142D01*
X124555333Y-43584761D01*
X124650571Y-43632380D01*
X124841047Y-43632380D01*
X124936285Y-43584761D01*
X124983904Y-43537142D01*
X125031523Y-43441904D01*
X125031523Y-42632380D01*
X125364857Y-42632380D02*
X125936285Y-42632380D01*
X125650571Y-43632380D02*
X125650571Y-42632380D01*
X126269619Y-43251428D02*
X127031523Y-43251428D01*
X123952095Y-45220000D02*
X123856857Y-45172380D01*
X123714000Y-45172380D01*
X123571142Y-45220000D01*
X123475904Y-45315238D01*
X123428285Y-45410476D01*
X123380666Y-45600952D01*
X123380666Y-45743809D01*
X123428285Y-45934285D01*
X123475904Y-46029523D01*
X123571142Y-46124761D01*
X123714000Y-46172380D01*
X123809238Y-46172380D01*
X123952095Y-46124761D01*
X123999714Y-46077142D01*
X123999714Y-45743809D01*
X123809238Y-45743809D01*
X124428285Y-46172380D02*
X124428285Y-45172380D01*
X124999714Y-46172380D01*
X124999714Y-45172380D01*
X125475904Y-46172380D02*
X125475904Y-45172380D01*
X125714000Y-45172380D01*
X125856857Y-45220000D01*
X125952095Y-45315238D01*
X125999714Y-45410476D01*
X126047333Y-45600952D01*
X126047333Y-45743809D01*
X125999714Y-45934285D01*
X125952095Y-46029523D01*
X125856857Y-46124761D01*
X125714000Y-46172380D01*
X125475904Y-46172380D01*
X123444142Y-48712380D02*
X123444142Y-47712380D01*
X123920333Y-48712380D02*
X123920333Y-47712380D01*
X124491761Y-48712380D01*
X124491761Y-47712380D01*
X124967952Y-48331428D02*
X125729857Y-48331428D01*
X125348904Y-48712380D02*
X125348904Y-47950476D01*
X123380666Y-50252380D02*
X123714000Y-51252380D01*
X124047333Y-50252380D01*
X124380666Y-51252380D02*
X124380666Y-50252380D01*
X124618761Y-50252380D01*
X124761619Y-50300000D01*
X124856857Y-50395238D01*
X124904476Y-50490476D01*
X124952095Y-50680952D01*
X124952095Y-50823809D01*
X124904476Y-51014285D01*
X124856857Y-51109523D01*
X124761619Y-51204761D01*
X124618761Y-51252380D01*
X124380666Y-51252380D01*
X125380666Y-51252380D02*
X125380666Y-50252380D01*
X125618761Y-50252380D01*
X125761619Y-50300000D01*
X125856857Y-50395238D01*
X125904476Y-50490476D01*
X125952095Y-50680952D01*
X125952095Y-50823809D01*
X125904476Y-51014285D01*
X125856857Y-51109523D01*
X125761619Y-51204761D01*
X125618761Y-51252380D01*
X125380666Y-51252380D01*
D12*
%TO.C,J2*%
X130750000Y-41850000D02*
X132080000Y-41850000D01*
X130750000Y-43180000D02*
X130750000Y-41850000D01*
X130750000Y-44450000D02*
X133410000Y-44450000D01*
X133410000Y-44450000D02*
X133410000Y-52130000D01*
X130750000Y-44450000D02*
X130750000Y-52130000D01*
X130750000Y-52130000D02*
X133410000Y-52130000D01*
%TO.C,J1*%
X120590000Y-41850000D02*
X121920000Y-41850000D01*
X120590000Y-43180000D02*
X120590000Y-41850000D01*
X120590000Y-44450000D02*
X123250000Y-44450000D01*
X123250000Y-44450000D02*
X123250000Y-52130000D01*
X120590000Y-44450000D02*
X120590000Y-52130000D01*
X120590000Y-52130000D02*
X123250000Y-52130000D01*
%TO.C,U1*%
X127718420Y-47708420D02*
X127089803Y-48337038D01*
X127718420Y-47708420D02*
X128347038Y-47079803D01*
X127000000Y-45553159D02*
X127269408Y-45822567D01*
X125563159Y-46990000D02*
X127000000Y-45553159D01*
X125832567Y-47259408D02*
X125563159Y-46990000D01*
%TD*%
M02*
