%TF.GenerationSoftware,KiCad,Pcbnew,(5.1.6-0-10_14)*%
%TF.CreationDate,2020-08-16T22:52:20-04:00*%
%TF.ProjectId,PAM8016,50414d38-3031-4362-9e6b-696361645f70,rev?*%
%TF.SameCoordinates,Original*%
%TF.FileFunction,Copper,L1,Top*%
%TF.FilePolarity,Positive*%
%FSLAX46Y46*%
G04 Gerber Fmt 4.6, Leading zero omitted, Abs format (unit mm)*
G04 Created by KiCad (PCBNEW (5.1.6-0-10_14)) date 2020-08-16 22:52:20*
%MOMM*%
%LPD*%
G01*
G04 APERTURE LIST*
%TA.AperFunction,ComponentPad*%
%ADD10O,1.700000X1.700000*%
%TD*%
%TA.AperFunction,ComponentPad*%
%ADD11R,1.700000X1.700000*%
%TD*%
%TA.AperFunction,SMDPad,CuDef*%
%ADD12C,0.100000*%
%TD*%
%TA.AperFunction,Conductor*%
%ADD13C,0.250000*%
%TD*%
G04 APERTURE END LIST*
D10*
%TO.P,J2,4*%
%TO.N,IN-*%
X132080000Y-50800000D03*
%TO.P,J2,3*%
%TO.N,SD*%
X132080000Y-48260000D03*
%TO.P,J2,2*%
%TO.N,OUT+*%
X132080000Y-45720000D03*
D11*
%TO.P,J2,1*%
%TO.N,GND2*%
X132080000Y-43180000D03*
%TD*%
D10*
%TO.P,J1,4*%
%TO.N,VDD*%
X121920000Y-50800000D03*
%TO.P,J1,3*%
%TO.N,IN+*%
X121920000Y-48260000D03*
%TO.P,J1,2*%
%TO.N,GND1*%
X121920000Y-45720000D03*
D11*
%TO.P,J1,1*%
%TO.N,OUT-*%
X121920000Y-43180000D03*
%TD*%
%TA.AperFunction,SMDPad,CuDef*%
D12*
%TO.P,U1,8*%
%TO.N,SD*%
G36*
X127724784Y-47467297D02*
G01*
X127477297Y-47714784D01*
X127106066Y-47343553D01*
X127353553Y-47096066D01*
X127724784Y-47467297D01*
G37*
%TD.AperFunction*%
%TA.AperFunction,SMDPad,CuDef*%
%TO.P,U1,2*%
%TO.N,GND1*%
G36*
X126893934Y-46636447D02*
G01*
X126646447Y-46883934D01*
X126275216Y-46512703D01*
X126522703Y-46265216D01*
X126893934Y-46636447D01*
G37*
%TD.AperFunction*%
%TA.AperFunction,SMDPad,CuDef*%
%TO.P,U1,6*%
%TO.N,GND2*%
G36*
X127353553Y-46883934D02*
G01*
X127106066Y-46636447D01*
X127477297Y-46265216D01*
X127724784Y-46512703D01*
X127353553Y-46883934D01*
G37*
%TD.AperFunction*%
%TA.AperFunction,SMDPad,CuDef*%
%TO.P,U1,4*%
%TO.N,VDD*%
G36*
X126522703Y-47714784D02*
G01*
X126275216Y-47467297D01*
X126646447Y-47096066D01*
X126893934Y-47343553D01*
X126522703Y-47714784D01*
G37*
%TD.AperFunction*%
%TA.AperFunction,SMDPad,CuDef*%
%TO.P,U1,5*%
G36*
X127000000Y-47237487D02*
G01*
X126752513Y-46990000D01*
X127000000Y-46742513D01*
X127247487Y-46990000D01*
X127000000Y-47237487D01*
G37*
%TD.AperFunction*%
%TA.AperFunction,SMDPad,CuDef*%
%TO.P,U1,7*%
%TO.N,IN-*%
G36*
X127000000Y-48192081D02*
G01*
X126628769Y-47820850D01*
X127000000Y-47449619D01*
X127371231Y-47820850D01*
X127000000Y-48192081D01*
G37*
%TD.AperFunction*%
%TA.AperFunction,SMDPad,CuDef*%
%TO.P,U1,1*%
%TO.N,IN+*%
G36*
X126169150Y-47361231D02*
G01*
X125797919Y-46990000D01*
X126169150Y-46618769D01*
X126540381Y-46990000D01*
X126169150Y-47361231D01*
G37*
%TD.AperFunction*%
%TA.AperFunction,SMDPad,CuDef*%
%TO.P,U1,3*%
%TO.N,OUT-*%
G36*
X127000000Y-46530381D02*
G01*
X126628769Y-46159150D01*
X127000000Y-45787919D01*
X127371231Y-46159150D01*
X127000000Y-46530381D01*
G37*
%TD.AperFunction*%
%TA.AperFunction,SMDPad,CuDef*%
%TO.P,U1,9*%
%TO.N,OUT+*%
G36*
X127830850Y-47361231D02*
G01*
X127459619Y-46990000D01*
X127830850Y-46618769D01*
X128202081Y-46990000D01*
X127830850Y-47361231D01*
G37*
%TD.AperFunction*%
%TD*%
D13*
%TO.N,SD*%
X128270000Y-48260000D02*
X127415425Y-47405425D01*
X132080000Y-48260000D02*
X128270000Y-48260000D01*
%TO.N,VDD*%
X121920000Y-50800000D02*
X123190000Y-50800000D01*
X123190000Y-50800000D02*
X126303759Y-47686241D01*
X126303759Y-47686241D02*
X127000000Y-46990000D01*
%TO.N,IN-*%
X129979150Y-50800000D02*
X132080000Y-50800000D01*
X127000000Y-47820850D02*
X129979150Y-50800000D01*
%TO.N,IN+*%
X123190000Y-46990000D02*
X121920000Y-48260000D01*
X126169150Y-46990000D02*
X123190000Y-46990000D01*
%TO.N,OUT-*%
X124020850Y-43180000D02*
X121920000Y-43180000D01*
X127000000Y-46159150D02*
X124020850Y-43180000D01*
%TO.N,OUT+*%
X130810000Y-46990000D02*
X132080000Y-45720000D01*
X127830850Y-46990000D02*
X130810000Y-46990000D01*
%TO.N,GND1*%
X125730000Y-45720000D02*
X126584575Y-46574575D01*
X121920000Y-45720000D02*
X125730000Y-45720000D01*
%TO.N,GND2*%
X130810000Y-43180000D02*
X127415425Y-46574575D01*
X132080000Y-43180000D02*
X130810000Y-43180000D01*
%TD*%
M02*
