%TF.GenerationSoftware,KiCad,Pcbnew,(5.1.6-0-10_14)*%
%TF.CreationDate,2020-08-16T22:52:20-04:00*%
%TF.ProjectId,PAM8016,50414d38-3031-4362-9e6b-696361645f70,rev?*%
%TF.SameCoordinates,Original*%
%TF.FileFunction,Paste,Top*%
%TF.FilePolarity,Positive*%
%FSLAX46Y46*%
G04 Gerber Fmt 4.6, Leading zero omitted, Abs format (unit mm)*
G04 Created by KiCad (PCBNEW (5.1.6-0-10_14)) date 2020-08-16 22:52:20*
%MOMM*%
%LPD*%
G01*
G04 APERTURE LIST*
%ADD10C,0.100000*%
G04 APERTURE END LIST*
D10*
%TO.C,U1*%
G36*
X127724784Y-47467297D02*
G01*
X127477297Y-47714784D01*
X127106066Y-47343553D01*
X127353553Y-47096066D01*
X127724784Y-47467297D01*
G37*
G36*
X126893934Y-46636447D02*
G01*
X126646447Y-46883934D01*
X126275216Y-46512703D01*
X126522703Y-46265216D01*
X126893934Y-46636447D01*
G37*
G36*
X127353553Y-46883934D02*
G01*
X127106066Y-46636447D01*
X127477297Y-46265216D01*
X127724784Y-46512703D01*
X127353553Y-46883934D01*
G37*
G36*
X126522703Y-47714784D02*
G01*
X126275216Y-47467297D01*
X126646447Y-47096066D01*
X126893934Y-47343553D01*
X126522703Y-47714784D01*
G37*
G36*
X127000000Y-47237487D02*
G01*
X126752513Y-46990000D01*
X127000000Y-46742513D01*
X127247487Y-46990000D01*
X127000000Y-47237487D01*
G37*
G36*
X127000000Y-48192081D02*
G01*
X126628769Y-47820850D01*
X127000000Y-47449619D01*
X127371231Y-47820850D01*
X127000000Y-48192081D01*
G37*
G36*
X126169150Y-47361231D02*
G01*
X125797919Y-46990000D01*
X126169150Y-46618769D01*
X126540381Y-46990000D01*
X126169150Y-47361231D01*
G37*
G36*
X127000000Y-46530381D02*
G01*
X126628769Y-46159150D01*
X127000000Y-45787919D01*
X127371231Y-46159150D01*
X127000000Y-46530381D01*
G37*
G36*
X127830850Y-47361231D02*
G01*
X127459619Y-46990000D01*
X127830850Y-46618769D01*
X128202081Y-46990000D01*
X127830850Y-47361231D01*
G37*
%TD*%
M02*
