%TF.GenerationSoftware,KiCad,Pcbnew,(5.1.6-0-10_14)*%
%TF.CreationDate,2020-08-16T22:52:20-04:00*%
%TF.ProjectId,PAM8016,50414d38-3031-4362-9e6b-696361645f70,rev?*%
%TF.SameCoordinates,Original*%
%TF.FileFunction,Soldermask,Top*%
%TF.FilePolarity,Negative*%
%FSLAX46Y46*%
G04 Gerber Fmt 4.6, Leading zero omitted, Abs format (unit mm)*
G04 Created by KiCad (PCBNEW (5.1.6-0-10_14)) date 2020-08-16 22:52:20*
%MOMM*%
%LPD*%
G01*
G04 APERTURE LIST*
%ADD10O,1.800000X1.800000*%
%ADD11R,1.800000X1.800000*%
%ADD12C,0.100000*%
G04 APERTURE END LIST*
D10*
%TO.C,J2*%
X132080000Y-50800000D03*
X132080000Y-48260000D03*
X132080000Y-45720000D03*
D11*
X132080000Y-43180000D03*
%TD*%
D10*
%TO.C,J1*%
X121920000Y-50800000D03*
X121920000Y-48260000D03*
X121920000Y-45720000D03*
D11*
X121920000Y-43180000D03*
%TD*%
D12*
%TO.C,U1*%
G36*
X127795495Y-47467297D02*
G01*
X127477297Y-47785495D01*
X127035355Y-47343553D01*
X127353553Y-47025355D01*
X127795495Y-47467297D01*
G37*
G36*
X126964645Y-46636447D02*
G01*
X126646447Y-46954645D01*
X126204505Y-46512703D01*
X126522703Y-46194505D01*
X126964645Y-46636447D01*
G37*
G36*
X127353553Y-46954645D02*
G01*
X127035355Y-46636447D01*
X127477297Y-46194505D01*
X127795495Y-46512703D01*
X127353553Y-46954645D01*
G37*
G36*
X126522703Y-47785495D02*
G01*
X126204505Y-47467297D01*
X126646447Y-47025355D01*
X126964645Y-47343553D01*
X126522703Y-47785495D01*
G37*
G36*
X127000000Y-47308198D02*
G01*
X126681802Y-46990000D01*
X127000000Y-46671802D01*
X127318198Y-46990000D01*
X127000000Y-47308198D01*
G37*
G36*
X127000000Y-48262792D02*
G01*
X126558058Y-47820850D01*
X127000000Y-47378908D01*
X127441942Y-47820850D01*
X127000000Y-48262792D01*
G37*
G36*
X126169150Y-47431942D02*
G01*
X125727208Y-46990000D01*
X126169150Y-46548058D01*
X126611092Y-46990000D01*
X126169150Y-47431942D01*
G37*
G36*
X127000000Y-46601092D02*
G01*
X126558058Y-46159150D01*
X127000000Y-45717208D01*
X127441942Y-46159150D01*
X127000000Y-46601092D01*
G37*
G36*
X127830850Y-47431942D02*
G01*
X127388908Y-46990000D01*
X127830850Y-46548058D01*
X128272792Y-46990000D01*
X127830850Y-47431942D01*
G37*
%TD*%
M02*
