%TF.GenerationSoftware,KiCad,Pcbnew,(5.1.6-0-10_14)*%
%TF.CreationDate,2020-08-30T19:17:27-06:00*%
%TF.ProjectId,BME280,424d4532-3830-42e6-9b69-6361645f7063,rev?*%
%TF.SameCoordinates,Original*%
%TF.FileFunction,Copper,L1,Top*%
%TF.FilePolarity,Positive*%
%FSLAX46Y46*%
G04 Gerber Fmt 4.6, Leading zero omitted, Abs format (unit mm)*
G04 Created by KiCad (PCBNEW (5.1.6-0-10_14)) date 2020-08-30 19:17:27*
%MOMM*%
%LPD*%
G01*
G04 APERTURE LIST*
%TA.AperFunction,ComponentPad*%
%ADD10O,1.700000X1.700000*%
%TD*%
%TA.AperFunction,ComponentPad*%
%ADD11R,1.700000X1.700000*%
%TD*%
%TA.AperFunction,SMDPad,CuDef*%
%ADD12R,0.500000X0.350000*%
%TD*%
%TA.AperFunction,Conductor*%
%ADD13C,0.250000*%
%TD*%
G04 APERTURE END LIST*
D10*
%TO.P,J2,4*%
%TO.N,SCK*%
X190627000Y-113157000D03*
%TO.P,J2,3*%
%TO.N,SDI*%
X190627000Y-110617000D03*
%TO.P,J2,2*%
%TO.N,CSB*%
X190627000Y-108077000D03*
D11*
%TO.P,J2,1*%
%TO.N,GND*%
X190627000Y-105537000D03*
%TD*%
D10*
%TO.P,J1,4*%
%TO.N,SDO*%
X180467000Y-113157000D03*
%TO.P,J1,3*%
%TO.N,VDDIO*%
X180467000Y-110617000D03*
%TO.P,J1,2*%
%TO.N,GND2*%
X180467000Y-108077000D03*
D11*
%TO.P,J1,1*%
%TO.N,VDD*%
X180467000Y-105537000D03*
%TD*%
D12*
%TO.P,U1,5*%
%TO.N,SDO*%
X184522000Y-110322000D03*
%TO.P,U1,6*%
%TO.N,VDDIO*%
X184522000Y-109672000D03*
%TO.P,U1,7*%
%TO.N,GND2*%
X184522000Y-109022000D03*
%TO.P,U1,8*%
%TO.N,VDD*%
X184522000Y-108372000D03*
%TO.P,U1,1*%
%TO.N,GND*%
X186572000Y-108372000D03*
%TO.P,U1,2*%
%TO.N,CSB*%
X186572000Y-109022000D03*
%TO.P,U1,3*%
%TO.N,SDI*%
X186572000Y-109672000D03*
%TO.P,U1,4*%
%TO.N,SCK*%
X186572000Y-110322000D03*
%TD*%
D13*
%TO.N,GND*%
X187792000Y-108372000D02*
X190627000Y-105537000D01*
X186572000Y-108372000D02*
X187792000Y-108372000D01*
%TO.N,CSB*%
X189682000Y-109022000D02*
X190627000Y-108077000D01*
X186572000Y-109022000D02*
X189682000Y-109022000D01*
%TO.N,SDI*%
X189682000Y-109672000D02*
X190627000Y-110617000D01*
X186572000Y-109672000D02*
X189682000Y-109672000D01*
%TO.N,SCK*%
X187792000Y-110322000D02*
X190627000Y-113157000D01*
X186572000Y-110322000D02*
X187792000Y-110322000D01*
%TO.N,VDDIO*%
X181412000Y-109672000D02*
X180467000Y-110617000D01*
X184522000Y-109672000D02*
X181412000Y-109672000D01*
%TO.N,GND2*%
X181412000Y-109022000D02*
X180467000Y-108077000D01*
X184522000Y-109022000D02*
X181412000Y-109022000D01*
%TO.N,VDD*%
X183302000Y-108372000D02*
X180467000Y-105537000D01*
X184522000Y-108372000D02*
X183302000Y-108372000D01*
%TO.N,SDO*%
X183302000Y-110322000D02*
X180467000Y-113157000D01*
X184522000Y-110322000D02*
X183302000Y-110322000D01*
%TD*%
M02*
