%TF.GenerationSoftware,KiCad,Pcbnew,(5.1.6-0-10_14)*%
%TF.CreationDate,2020-08-30T17:10:21-06:00*%
%TF.ProjectId,BME280,424d4532-3830-42e6-9b69-6361645f7063,rev?*%
%TF.SameCoordinates,Original*%
%TF.FileFunction,Legend,Top*%
%TF.FilePolarity,Positive*%
%FSLAX46Y46*%
G04 Gerber Fmt 4.6, Leading zero omitted, Abs format (unit mm)*
G04 Created by KiCad (PCBNEW (5.1.6-0-10_14)) date 2020-08-30 17:10:21*
%MOMM*%
%LPD*%
G01*
G04 APERTURE LIST*
%ADD10C,0.120000*%
%ADD11C,0.090000*%
%ADD12C,0.150000*%
%ADD13C,0.100000*%
G04 APERTURE END LIST*
D10*
X187775952Y-110940809D02*
X187890238Y-110978904D01*
X188080714Y-110978904D01*
X188156904Y-110940809D01*
X188195000Y-110902714D01*
X188233095Y-110826523D01*
X188233095Y-110750333D01*
X188195000Y-110674142D01*
X188156904Y-110636047D01*
X188080714Y-110597952D01*
X187928333Y-110559857D01*
X187852142Y-110521761D01*
X187814047Y-110483666D01*
X187775952Y-110407476D01*
X187775952Y-110331285D01*
X187814047Y-110255095D01*
X187852142Y-110217000D01*
X187928333Y-110178904D01*
X188118809Y-110178904D01*
X188233095Y-110217000D01*
X188575952Y-110978904D02*
X188575952Y-110178904D01*
X188766428Y-110178904D01*
X188880714Y-110217000D01*
X188956904Y-110293190D01*
X188995000Y-110369380D01*
X189033095Y-110521761D01*
X189033095Y-110636047D01*
X188995000Y-110788428D01*
X188956904Y-110864619D01*
X188880714Y-110940809D01*
X188766428Y-110978904D01*
X188575952Y-110978904D01*
X189375952Y-110978904D02*
X189375952Y-110178904D01*
X187807666Y-108362714D02*
X187769571Y-108400809D01*
X187655285Y-108438904D01*
X187579095Y-108438904D01*
X187464809Y-108400809D01*
X187388619Y-108324619D01*
X187350523Y-108248428D01*
X187312428Y-108096047D01*
X187312428Y-107981761D01*
X187350523Y-107829380D01*
X187388619Y-107753190D01*
X187464809Y-107677000D01*
X187579095Y-107638904D01*
X187655285Y-107638904D01*
X187769571Y-107677000D01*
X187807666Y-107715095D01*
X188112428Y-108400809D02*
X188226714Y-108438904D01*
X188417190Y-108438904D01*
X188493380Y-108400809D01*
X188531476Y-108362714D01*
X188569571Y-108286523D01*
X188569571Y-108210333D01*
X188531476Y-108134142D01*
X188493380Y-108096047D01*
X188417190Y-108057952D01*
X188264809Y-108019857D01*
X188188619Y-107981761D01*
X188150523Y-107943666D01*
X188112428Y-107867476D01*
X188112428Y-107791285D01*
X188150523Y-107715095D01*
X188188619Y-107677000D01*
X188264809Y-107638904D01*
X188455285Y-107638904D01*
X188569571Y-107677000D01*
X189179095Y-108019857D02*
X189293380Y-108057952D01*
X189331476Y-108096047D01*
X189369571Y-108172238D01*
X189369571Y-108286523D01*
X189331476Y-108362714D01*
X189293380Y-108400809D01*
X189217190Y-108438904D01*
X188912428Y-108438904D01*
X188912428Y-107638904D01*
X189179095Y-107638904D01*
X189255285Y-107677000D01*
X189293380Y-107715095D01*
X189331476Y-107791285D01*
X189331476Y-107867476D01*
X189293380Y-107943666D01*
X189255285Y-107981761D01*
X189179095Y-108019857D01*
X188912428Y-108019857D01*
D11*
X181705380Y-110343190D02*
X181872047Y-110843190D01*
X182038714Y-110343190D01*
X182205380Y-110843190D02*
X182205380Y-110343190D01*
X182324428Y-110343190D01*
X182395857Y-110367000D01*
X182443476Y-110414619D01*
X182467285Y-110462238D01*
X182491095Y-110557476D01*
X182491095Y-110628904D01*
X182467285Y-110724142D01*
X182443476Y-110771761D01*
X182395857Y-110819380D01*
X182324428Y-110843190D01*
X182205380Y-110843190D01*
X182705380Y-110843190D02*
X182705380Y-110343190D01*
X182824428Y-110343190D01*
X182895857Y-110367000D01*
X182943476Y-110414619D01*
X182967285Y-110462238D01*
X182991095Y-110557476D01*
X182991095Y-110628904D01*
X182967285Y-110724142D01*
X182943476Y-110771761D01*
X182895857Y-110819380D01*
X182824428Y-110843190D01*
X182705380Y-110843190D01*
X183205380Y-110843190D02*
X183205380Y-110343190D01*
X183538714Y-110343190D02*
X183633952Y-110343190D01*
X183681571Y-110367000D01*
X183729190Y-110414619D01*
X183753000Y-110509857D01*
X183753000Y-110676523D01*
X183729190Y-110771761D01*
X183681571Y-110819380D01*
X183633952Y-110843190D01*
X183538714Y-110843190D01*
X183491095Y-110819380D01*
X183443476Y-110771761D01*
X183419666Y-110676523D01*
X183419666Y-110509857D01*
X183443476Y-110414619D01*
X183491095Y-110367000D01*
X183538714Y-110343190D01*
D10*
X182143476Y-107677000D02*
X182067285Y-107638904D01*
X181953000Y-107638904D01*
X181838714Y-107677000D01*
X181762523Y-107753190D01*
X181724428Y-107829380D01*
X181686333Y-107981761D01*
X181686333Y-108096047D01*
X181724428Y-108248428D01*
X181762523Y-108324619D01*
X181838714Y-108400809D01*
X181953000Y-108438904D01*
X182029190Y-108438904D01*
X182143476Y-108400809D01*
X182181571Y-108362714D01*
X182181571Y-108096047D01*
X182029190Y-108096047D01*
X182524428Y-108438904D02*
X182524428Y-107638904D01*
X182981571Y-108438904D01*
X182981571Y-107638904D01*
X183362523Y-108438904D02*
X183362523Y-107638904D01*
X183553000Y-107638904D01*
X183667285Y-107677000D01*
X183743476Y-107753190D01*
X183781571Y-107829380D01*
X183819666Y-107981761D01*
X183819666Y-108096047D01*
X183781571Y-108248428D01*
X183743476Y-108324619D01*
X183667285Y-108400809D01*
X183553000Y-108438904D01*
X183362523Y-108438904D01*
D12*
X181697476Y-113561761D02*
X181840333Y-113609380D01*
X182078428Y-113609380D01*
X182173666Y-113561761D01*
X182221285Y-113514142D01*
X182268904Y-113418904D01*
X182268904Y-113323666D01*
X182221285Y-113228428D01*
X182173666Y-113180809D01*
X182078428Y-113133190D01*
X181887952Y-113085571D01*
X181792714Y-113037952D01*
X181745095Y-112990333D01*
X181697476Y-112895095D01*
X181697476Y-112799857D01*
X181745095Y-112704619D01*
X181792714Y-112657000D01*
X181887952Y-112609380D01*
X182126047Y-112609380D01*
X182268904Y-112657000D01*
X182697476Y-113609380D02*
X182697476Y-112609380D01*
X182935571Y-112609380D01*
X183078428Y-112657000D01*
X183173666Y-112752238D01*
X183221285Y-112847476D01*
X183268904Y-113037952D01*
X183268904Y-113180809D01*
X183221285Y-113371285D01*
X183173666Y-113466523D01*
X183078428Y-113561761D01*
X182935571Y-113609380D01*
X182697476Y-113609380D01*
X183887952Y-112609380D02*
X184078428Y-112609380D01*
X184173666Y-112657000D01*
X184268904Y-112752238D01*
X184316523Y-112942714D01*
X184316523Y-113276047D01*
X184268904Y-113466523D01*
X184173666Y-113561761D01*
X184078428Y-113609380D01*
X183887952Y-113609380D01*
X183792714Y-113561761D01*
X183697476Y-113466523D01*
X183649857Y-113276047D01*
X183649857Y-112942714D01*
X183697476Y-112752238D01*
X183792714Y-112657000D01*
X183887952Y-112609380D01*
X186801285Y-113561761D02*
X186944142Y-113609380D01*
X187182238Y-113609380D01*
X187277476Y-113561761D01*
X187325095Y-113514142D01*
X187372714Y-113418904D01*
X187372714Y-113323666D01*
X187325095Y-113228428D01*
X187277476Y-113180809D01*
X187182238Y-113133190D01*
X186991761Y-113085571D01*
X186896523Y-113037952D01*
X186848904Y-112990333D01*
X186801285Y-112895095D01*
X186801285Y-112799857D01*
X186848904Y-112704619D01*
X186896523Y-112657000D01*
X186991761Y-112609380D01*
X187229857Y-112609380D01*
X187372714Y-112657000D01*
X188372714Y-113514142D02*
X188325095Y-113561761D01*
X188182238Y-113609380D01*
X188087000Y-113609380D01*
X187944142Y-113561761D01*
X187848904Y-113466523D01*
X187801285Y-113371285D01*
X187753666Y-113180809D01*
X187753666Y-113037952D01*
X187801285Y-112847476D01*
X187848904Y-112752238D01*
X187944142Y-112657000D01*
X188087000Y-112609380D01*
X188182238Y-112609380D01*
X188325095Y-112657000D01*
X188372714Y-112704619D01*
X188801285Y-113609380D02*
X188801285Y-112609380D01*
X189372714Y-113609380D02*
X188944142Y-113037952D01*
X189372714Y-112609380D02*
X188801285Y-113180809D01*
X187198095Y-105037000D02*
X187102857Y-104989380D01*
X186960000Y-104989380D01*
X186817142Y-105037000D01*
X186721904Y-105132238D01*
X186674285Y-105227476D01*
X186626666Y-105417952D01*
X186626666Y-105560809D01*
X186674285Y-105751285D01*
X186721904Y-105846523D01*
X186817142Y-105941761D01*
X186960000Y-105989380D01*
X187055238Y-105989380D01*
X187198095Y-105941761D01*
X187245714Y-105894142D01*
X187245714Y-105560809D01*
X187055238Y-105560809D01*
X187674285Y-105989380D02*
X187674285Y-104989380D01*
X188245714Y-105989380D01*
X188245714Y-104989380D01*
X188721904Y-105989380D02*
X188721904Y-104989380D01*
X188960000Y-104989380D01*
X189102857Y-105037000D01*
X189198095Y-105132238D01*
X189245714Y-105227476D01*
X189293333Y-105417952D01*
X189293333Y-105560809D01*
X189245714Y-105751285D01*
X189198095Y-105846523D01*
X189102857Y-105941761D01*
X188960000Y-105989380D01*
X188721904Y-105989380D01*
X181673666Y-104989380D02*
X182007000Y-105989380D01*
X182340333Y-104989380D01*
X182673666Y-105989380D02*
X182673666Y-104989380D01*
X182911761Y-104989380D01*
X183054619Y-105037000D01*
X183149857Y-105132238D01*
X183197476Y-105227476D01*
X183245095Y-105417952D01*
X183245095Y-105560809D01*
X183197476Y-105751285D01*
X183149857Y-105846523D01*
X183054619Y-105941761D01*
X182911761Y-105989380D01*
X182673666Y-105989380D01*
X183673666Y-105989380D02*
X183673666Y-104989380D01*
X183911761Y-104989380D01*
X184054619Y-105037000D01*
X184149857Y-105132238D01*
X184197476Y-105227476D01*
X184245095Y-105417952D01*
X184245095Y-105560809D01*
X184197476Y-105751285D01*
X184149857Y-105846523D01*
X184054619Y-105941761D01*
X183911761Y-105989380D01*
X183673666Y-105989380D01*
D13*
%TO.C,U1*%
X184187000Y-107997000D02*
X184187000Y-108147000D01*
X184197000Y-107997000D02*
X184347000Y-107997000D01*
X184197000Y-110697000D02*
X184347000Y-110697000D01*
X184197000Y-110697000D02*
X184197000Y-110547000D01*
X186897000Y-110547000D02*
X186897000Y-110697000D01*
X186897000Y-110697000D02*
X186747000Y-110697000D01*
X186747000Y-107997000D02*
X186997000Y-107997000D01*
%TD*%
M02*
