G04 #@! TF.GenerationSoftware,KiCad,Pcbnew,(5.1.6-0-10_14)*
G04 #@! TF.CreationDate,2020-08-17T18:52:46-06:00*
G04 #@! TF.ProjectId,LD56100,4c443536-3130-4302-9e6b-696361645f70,rev?*
G04 #@! TF.SameCoordinates,Original*
G04 #@! TF.FileFunction,Legend,Bot*
G04 #@! TF.FilePolarity,Positive*
%FSLAX46Y46*%
G04 Gerber Fmt 4.6, Leading zero omitted, Abs format (unit mm)*
G04 Created by KiCad (PCBNEW (5.1.6-0-10_14)) date 2020-08-17 18:52:46*
%MOMM*%
%LPD*%
G01*
G04 APERTURE LIST*
%ADD10C,0.150000*%
G04 APERTURE END LIST*
D10*
X145827619Y-86558380D02*
X146160952Y-86082190D01*
X146399047Y-86558380D02*
X146399047Y-85558380D01*
X146018095Y-85558380D01*
X145922857Y-85606000D01*
X145875238Y-85653619D01*
X145827619Y-85748857D01*
X145827619Y-85891714D01*
X145875238Y-85986952D01*
X145922857Y-86034571D01*
X146018095Y-86082190D01*
X146399047Y-86082190D01*
X145399047Y-86034571D02*
X145065714Y-86034571D01*
X144922857Y-86558380D02*
X145399047Y-86558380D01*
X145399047Y-85558380D01*
X144922857Y-85558380D01*
X144637142Y-85558380D02*
X144303809Y-86558380D01*
X143970476Y-85558380D01*
X143113333Y-86558380D02*
X143684761Y-86558380D01*
X143399047Y-86558380D02*
X143399047Y-85558380D01*
X143494285Y-85701238D01*
X143589523Y-85796476D01*
X143684761Y-85844095D01*
X147351428Y-85288380D02*
X147827619Y-85288380D01*
X147827619Y-84288380D01*
X147018095Y-85288380D02*
X147018095Y-84288380D01*
X146780000Y-84288380D01*
X146637142Y-84336000D01*
X146541904Y-84431238D01*
X146494285Y-84526476D01*
X146446666Y-84716952D01*
X146446666Y-84859809D01*
X146494285Y-85050285D01*
X146541904Y-85145523D01*
X146637142Y-85240761D01*
X146780000Y-85288380D01*
X147018095Y-85288380D01*
X145541904Y-84288380D02*
X146018095Y-84288380D01*
X146065714Y-84764571D01*
X146018095Y-84716952D01*
X145922857Y-84669333D01*
X145684761Y-84669333D01*
X145589523Y-84716952D01*
X145541904Y-84764571D01*
X145494285Y-84859809D01*
X145494285Y-85097904D01*
X145541904Y-85193142D01*
X145589523Y-85240761D01*
X145684761Y-85288380D01*
X145922857Y-85288380D01*
X146018095Y-85240761D01*
X146065714Y-85193142D01*
X144637142Y-84288380D02*
X144827619Y-84288380D01*
X144922857Y-84336000D01*
X144970476Y-84383619D01*
X145065714Y-84526476D01*
X145113333Y-84716952D01*
X145113333Y-85097904D01*
X145065714Y-85193142D01*
X145018095Y-85240761D01*
X144922857Y-85288380D01*
X144732380Y-85288380D01*
X144637142Y-85240761D01*
X144589523Y-85193142D01*
X144541904Y-85097904D01*
X144541904Y-84859809D01*
X144589523Y-84764571D01*
X144637142Y-84716952D01*
X144732380Y-84669333D01*
X144922857Y-84669333D01*
X145018095Y-84716952D01*
X145065714Y-84764571D01*
X145113333Y-84859809D01*
X143589523Y-85288380D02*
X144160952Y-85288380D01*
X143875238Y-85288380D02*
X143875238Y-84288380D01*
X143970476Y-84431238D01*
X144065714Y-84526476D01*
X144160952Y-84574095D01*
X142970476Y-84288380D02*
X142875238Y-84288380D01*
X142780000Y-84336000D01*
X142732380Y-84383619D01*
X142684761Y-84478857D01*
X142637142Y-84669333D01*
X142637142Y-84907428D01*
X142684761Y-85097904D01*
X142732380Y-85193142D01*
X142780000Y-85240761D01*
X142875238Y-85288380D01*
X142970476Y-85288380D01*
X143065714Y-85240761D01*
X143113333Y-85193142D01*
X143160952Y-85097904D01*
X143208571Y-84907428D01*
X143208571Y-84669333D01*
X143160952Y-84478857D01*
X143113333Y-84383619D01*
X143065714Y-84336000D01*
X142970476Y-84288380D01*
X142018095Y-84288380D02*
X141922857Y-84288380D01*
X141827619Y-84336000D01*
X141780000Y-84383619D01*
X141732380Y-84478857D01*
X141684761Y-84669333D01*
X141684761Y-84907428D01*
X141732380Y-85097904D01*
X141780000Y-85193142D01*
X141827619Y-85240761D01*
X141922857Y-85288380D01*
X142018095Y-85288380D01*
X142113333Y-85240761D01*
X142160952Y-85193142D01*
X142208571Y-85097904D01*
X142256190Y-84907428D01*
X142256190Y-84669333D01*
X142208571Y-84478857D01*
X142160952Y-84383619D01*
X142113333Y-84336000D01*
X142018095Y-84288380D01*
M02*
