  0
SECTION
  2
HEADER
  9
$ANGBASE
  50
0.0
  9
$ANGDIR
  70
1
  9
$MEASUREMENT
  70
0
  0
ENDSEC
  0
SECTION
  2
TABLES
  0
TABLE
  2
LTYPE
  70
4
  0
LTYPE
  5
40F
  2
CONTINUOUS
  70
0
  3
Solid line
  72
65
  73
0
  40
0.0
  0
LTYPE
  5
410
  2
DASHDOT
 70
0
  3
Dash Dot ____ _ ____ _
 72
65
 73
4
 40
2.0
 49
1.25
 49
-0.25
 49
0.25
 49
-0.25
  0
LTYPE
  5
411
  2
DASHED
 70
0
  3
Dashed __ __ __ __ __
 72
65
 73
2
 40
0.75
 49
0.5
 49
-0.25
  0
LTYPE
  5
43B
  2
DOTTED
 70
0
  3
Dotted .  .  .  .
 72
65
 73
2
 40
0.2
 49
0.0
 49
-0.2
  0
ENDTAB
  0
TABLE
  2
STYLE
  70
4
  0
STYLE
  2
KICAD
  70
0
  40
0
  41
1
  42
1
  50
0
  71
0
  3
isocp.shx
  0
STYLE
  2
KICADB
  70
0
  40
0
  41
1
  42
1
  50
0
  71
0
  3
isocp.shx
  0
STYLE
  2
KICADI
  70
0
  40
0
  41
1
  42
1
  50
15
  71
0
  3
isocp.shx
  0
STYLE
  2
KICADBI
  70
0
  40
0
  41
1
  42
1
  50
15
  71
0
  3
isocp.shx
  0
ENDTAB
  0
TABLE
  2
LAYER
  70
1
  0
LAYER
  2
BLACK
  70
0
  62
7
  6
CONTINUOUS
  0
ENDTAB
  0
ENDSEC
  0
SECTION
  2
ENTITIES
0
LINE
8
BLACK
6
CONTINUOUS
10
5.95
20
-3.29
11
5.95
21
-3.7
0
LINE
8
BLACK
6
CONTINUOUS
10
5.45
20
-3.29
11
5.95
21
-3.29
0
LINE
8
BLACK
6
CONTINUOUS
10
5.45
20
-3.7
11
5.45
21
-3.29
0
LINE
8
BLACK
6
CONTINUOUS
10
5.95
20
-3.7
11
5.45
21
-3.7
0
LINE
8
BLACK
6
CONTINUOUS
10
5.48031
20
-3.32677
11
5.51969
21
-3.36614
0
LINE
8
BLACK
6
CONTINUOUS
10
5.51969
20
-3.32677
11
5.48031
21
-3.36614
0
LINE
8
BLACK
6
CONTINUOUS
10
5.48031
20
-3.42677
11
5.51969
21
-3.46614
0
LINE
8
BLACK
6
CONTINUOUS
10
5.51969
20
-3.42677
11
5.48031
21
-3.46614
0
LINE
8
BLACK
6
CONTINUOUS
10
5.48031
20
-3.52677
11
5.51969
21
-3.56614
0
LINE
8
BLACK
6
CONTINUOUS
10
5.51969
20
-3.52677
11
5.48031
21
-3.56614
0
LINE
8
BLACK
6
CONTINUOUS
10
5.48031
20
-3.62677
11
5.51969
21
-3.66614
0
LINE
8
BLACK
6
CONTINUOUS
10
5.51969
20
-3.62677
11
5.48031
21
-3.66614
0
LINE
8
BLACK
6
CONTINUOUS
10
5.88031
20
-3.32677
11
5.91969
21
-3.36614
0
LINE
8
BLACK
6
CONTINUOUS
10
5.91969
20
-3.32677
11
5.88031
21
-3.36614
0
LINE
8
BLACK
6
CONTINUOUS
10
5.88031
20
-3.42677
11
5.91969
21
-3.46614
0
LINE
8
BLACK
6
CONTINUOUS
10
5.91969
20
-3.42677
11
5.88031
21
-3.46614
0
LINE
8
BLACK
6
CONTINUOUS
10
5.88031
20
-3.52677
11
5.91969
21
-3.56614
0
LINE
8
BLACK
6
CONTINUOUS
10
5.91969
20
-3.52677
11
5.88031
21
-3.56614
0
LINE
8
BLACK
6
CONTINUOUS
10
5.88031
20
-3.62677
11
5.91969
21
-3.66614
0
LINE
8
BLACK
6
CONTINUOUS
10
5.91969
20
-3.62677
11
5.88031
21
-3.66614
0
LINE
8
BLACK
6
CONTINUOUS
10
5.56178
20
-3.88434
11
5.56178
21
-3.76623
0
LINE
8
BLACK
6
CONTINUOUS
10
5.56178
20
-3.76623
11
5.5899
21
-3.76623
0
LINE
8
BLACK
6
CONTINUOUS
10
5.5899
20
-3.76623
11
5.60678
21
-3.77185
0
LINE
8
BLACK
6
CONTINUOUS
10
5.60678
20
-3.77185
11
5.61803
21
-3.7831
0
LINE
8
BLACK
6
CONTINUOUS
10
5.61803
20
-3.7831
11
5.62365
21
-3.79435
0
LINE
8
BLACK
6
CONTINUOUS
10
5.62365
20
-3.79435
11
5.62927
21
-3.81684
0
LINE
8
BLACK
6
CONTINUOUS
10
5.62927
20
-3.81684
11
5.62927
21
-3.83372
0
LINE
8
BLACK
6
CONTINUOUS
10
5.62927
20
-3.83372
11
5.62365
21
-3.85621
0
LINE
8
BLACK
6
CONTINUOUS
10
5.62365
20
-3.85621
11
5.61803
21
-3.86746
0
LINE
8
BLACK
6
CONTINUOUS
10
5.61803
20
-3.86746
11
5.60678
21
-3.87871
0
LINE
8
BLACK
6
CONTINUOUS
10
5.60678
20
-3.87871
11
5.5899
21
-3.88434
0
LINE
8
BLACK
6
CONTINUOUS
10
5.5899
20
-3.88434
11
5.56178
21
-3.88434
0
LINE
8
BLACK
6
CONTINUOUS
10
5.67989
20
-3.88434
11
5.67989
21
-3.8056
0
LINE
8
BLACK
6
CONTINUOUS
10
5.67989
20
-3.82809
11
5.68552
21
-3.81684
0
LINE
8
BLACK
6
CONTINUOUS
10
5.68552
20
-3.81684
11
5.69114
21
-3.81122
0
LINE
8
BLACK
6
CONTINUOUS
10
5.69114
20
-3.81122
11
5.70239
21
-3.8056
0
LINE
8
BLACK
6
CONTINUOUS
10
5.70239
20
-3.8056
11
5.71364
21
-3.8056
0
LINE
8
BLACK
6
CONTINUOUS
10
5.75301
20
-3.88434
11
5.75301
21
-3.8056
0
LINE
8
BLACK
6
CONTINUOUS
10
5.75301
20
-3.76623
11
5.74738
21
-3.77185
0
LINE
8
BLACK
6
CONTINUOUS
10
5.74738
20
-3.77185
11
5.75301
21
-3.77747
0
LINE
8
BLACK
6
CONTINUOUS
10
5.75301
20
-3.77747
11
5.75863
21
-3.77185
0
LINE
8
BLACK
6
CONTINUOUS
10
5.75863
20
-3.77185
11
5.75301
21
-3.76623
0
LINE
8
BLACK
6
CONTINUOUS
10
5.75301
20
-3.76623
11
5.75301
21
-3.77747
0
LINE
8
BLACK
6
CONTINUOUS
10
5.82612
20
-3.88434
11
5.81488
21
-3.87871
0
LINE
8
BLACK
6
CONTINUOUS
10
5.81488
20
-3.87871
11
5.80925
21
-3.86746
0
LINE
8
BLACK
6
CONTINUOUS
10
5.80925
20
-3.86746
11
5.80925
21
-3.76623
0
LINE
8
BLACK
6
CONTINUOUS
10
5.88799
20
-3.88434
11
5.87674
21
-3.87871
0
LINE
8
BLACK
6
CONTINUOUS
10
5.87674
20
-3.87871
11
5.87112
21
-3.86746
0
LINE
8
BLACK
6
CONTINUOUS
10
5.87112
20
-3.86746
11
5.87112
21
-3.76623
0
LINE
8
BLACK
6
CONTINUOUS
10
6.02298
20
-3.88434
11
6.02298
21
-3.76623
0
LINE
8
BLACK
6
CONTINUOUS
10
6.02298
20
-3.76623
11
6.06235
21
-3.85059
0
LINE
8
BLACK
6
CONTINUOUS
10
6.06235
20
-3.85059
11
6.10172
21
-3.76623
0
LINE
8
BLACK
6
CONTINUOUS
10
6.10172
20
-3.76623
11
6.10172
21
-3.88434
0
LINE
8
BLACK
6
CONTINUOUS
10
6.20858
20
-3.88434
11
6.20858
21
-3.82247
0
LINE
8
BLACK
6
CONTINUOUS
10
6.20858
20
-3.82247
11
6.20295
21
-3.81122
0
LINE
8
BLACK
6
CONTINUOUS
10
6.20295
20
-3.81122
11
6.1917
21
-3.8056
0
LINE
8
BLACK
6
CONTINUOUS
10
6.1917
20
-3.8056
11
6.16921
21
-3.8056
0
LINE
8
BLACK
6
CONTINUOUS
10
6.16921
20
-3.8056
11
6.15796
21
-3.81122
0
LINE
8
BLACK
6
CONTINUOUS
10
6.20858
20
-3.87871
11
6.19733
21
-3.88434
0
LINE
8
BLACK
6
CONTINUOUS
10
6.19733
20
-3.88434
11
6.16921
21
-3.88434
0
LINE
8
BLACK
6
CONTINUOUS
10
6.16921
20
-3.88434
11
6.15796
21
-3.87871
0
LINE
8
BLACK
6
CONTINUOUS
10
6.15796
20
-3.87871
11
6.15233
21
-3.86746
0
LINE
8
BLACK
6
CONTINUOUS
10
6.15233
20
-3.86746
11
6.15233
21
-3.85621
0
LINE
8
BLACK
6
CONTINUOUS
10
6.15233
20
-3.85621
11
6.15796
21
-3.84497
0
LINE
8
BLACK
6
CONTINUOUS
10
6.15796
20
-3.84497
11
6.16921
21
-3.83934
0
LINE
8
BLACK
6
CONTINUOUS
10
6.16921
20
-3.83934
11
6.19733
21
-3.83934
0
LINE
8
BLACK
6
CONTINUOUS
10
6.19733
20
-3.83934
11
6.20858
21
-3.83372
0
LINE
8
BLACK
6
CONTINUOUS
10
6.26482
20
-3.8056
11
6.26482
21
-3.92371
0
LINE
8
BLACK
6
CONTINUOUS
10
6.26482
20
-3.81122
11
6.27607
21
-3.8056
0
LINE
8
BLACK
6
CONTINUOUS
10
6.27607
20
-3.8056
11
6.29857
21
-3.8056
0
LINE
8
BLACK
6
CONTINUOUS
10
6.29857
20
-3.8056
11
6.30981
21
-3.81122
0
LINE
8
BLACK
6
CONTINUOUS
10
6.30981
20
-3.81122
11
6.31544
21
-3.81684
0
LINE
8
BLACK
6
CONTINUOUS
10
6.31544
20
-3.81684
11
6.32106
21
-3.82809
0
LINE
8
BLACK
6
CONTINUOUS
10
6.32106
20
-3.82809
11
6.32106
21
-3.86184
0
LINE
8
BLACK
6
CONTINUOUS
10
6.32106
20
-3.86184
11
6.31544
21
-3.87309
0
LINE
8
BLACK
6
CONTINUOUS
10
6.31544
20
-3.87309
11
6.30981
21
-3.87871
0
LINE
8
BLACK
6
CONTINUOUS
10
6.30981
20
-3.87871
11
6.29857
21
-3.88434
0
LINE
8
BLACK
6
CONTINUOUS
10
6.29857
20
-3.88434
11
6.27607
21
-3.88434
0
LINE
8
BLACK
6
CONTINUOUS
10
6.27607
20
-3.88434
11
6.26482
21
-3.87871
0
LINE
8
BLACK
6
CONTINUOUS
10
6.37168
20
-3.87309
11
6.37731
21
-3.87871
0
LINE
8
BLACK
6
CONTINUOUS
10
6.37731
20
-3.87871
11
6.37168
21
-3.88434
0
LINE
8
BLACK
6
CONTINUOUS
10
6.37168
20
-3.88434
11
6.36606
21
-3.87871
0
LINE
8
BLACK
6
CONTINUOUS
10
6.36606
20
-3.87871
11
6.37168
21
-3.87309
0
LINE
8
BLACK
6
CONTINUOUS
10
6.37168
20
-3.87309
11
6.37168
21
-3.88434
0
LINE
8
BLACK
6
CONTINUOUS
10
6.37168
20
-3.81122
11
6.37731
21
-3.81684
0
LINE
8
BLACK
6
CONTINUOUS
10
6.37731
20
-3.81684
11
6.37168
21
-3.82247
0
LINE
8
BLACK
6
CONTINUOUS
10
6.37168
20
-3.82247
11
6.36606
21
-3.81684
0
LINE
8
BLACK
6
CONTINUOUS
10
6.36606
20
-3.81684
11
6.37168
21
-3.81122
0
LINE
8
BLACK
6
CONTINUOUS
10
6.37168
20
-3.81122
11
6.37168
21
-3.82247
0
LINE
8
BLACK
6
CONTINUOUS
10
5.40965
20
-4.05925
11
5.44902
21
-4.09862
0
LINE
8
BLACK
6
CONTINUOUS
10
5.44902
20
-4.05925
11
5.40965
21
-4.09862
0
LINE
8
BLACK
6
CONTINUOUS
10
5.62365
20
-4.13237
11
5.55616
21
-4.13237
0
LINE
8
BLACK
6
CONTINUOUS
10
5.5899
20
-4.13237
11
5.5899
21
-4.01426
0
LINE
8
BLACK
6
CONTINUOUS
10
5.5899
20
-4.01426
11
5.57866
21
-4.03113
0
LINE
8
BLACK
6
CONTINUOUS
10
5.57866
20
-4.03113
11
5.56741
21
-4.04238
0
LINE
8
BLACK
6
CONTINUOUS
10
5.56741
20
-4.04238
11
5.55616
21
-4.048
0
LINE
8
BLACK
6
CONTINUOUS
10
5.67427
20
-4.12112
11
5.67989
21
-4.12674
0
LINE
8
BLACK
6
CONTINUOUS
10
5.67989
20
-4.12674
11
5.67427
21
-4.13237
0
LINE
8
BLACK
6
CONTINUOUS
10
5.67427
20
-4.13237
11
5.66864
21
-4.12674
0
LINE
8
BLACK
6
CONTINUOUS
10
5.66864
20
-4.12674
11
5.67427
21
-4.12112
0
LINE
8
BLACK
6
CONTINUOUS
10
5.67427
20
-4.12112
11
5.67427
21
-4.13237
0
LINE
8
BLACK
6
CONTINUOUS
10
5.75301
20
-4.01426
11
5.76426
21
-4.01426
0
LINE
8
BLACK
6
CONTINUOUS
10
5.76426
20
-4.01426
11
5.77551
21
-4.01988
0
LINE
8
BLACK
6
CONTINUOUS
10
5.77551
20
-4.01988
11
5.78113
21
-4.02551
0
LINE
8
BLACK
6
CONTINUOUS
10
5.78113
20
-4.02551
11
5.78675
21
-4.03675
0
LINE
8
BLACK
6
CONTINUOUS
10
5.78675
20
-4.03675
11
5.79238
21
-4.05925
0
LINE
8
BLACK
6
CONTINUOUS
10
5.79238
20
-4.05925
11
5.79238
21
-4.08737
0
LINE
8
BLACK
6
CONTINUOUS
10
5.79238
20
-4.08737
11
5.78675
21
-4.10987
0
LINE
8
BLACK
6
CONTINUOUS
10
5.78675
20
-4.10987
11
5.78113
21
-4.12112
0
LINE
8
BLACK
6
CONTINUOUS
10
5.78113
20
-4.12112
11
5.77551
21
-4.12674
0
LINE
8
BLACK
6
CONTINUOUS
10
5.77551
20
-4.12674
11
5.76426
21
-4.13237
0
LINE
8
BLACK
6
CONTINUOUS
10
5.76426
20
-4.13237
11
5.75301
21
-4.13237
0
LINE
8
BLACK
6
CONTINUOUS
10
5.75301
20
-4.13237
11
5.74176
21
-4.12674
0
LINE
8
BLACK
6
CONTINUOUS
10
5.74176
20
-4.12674
11
5.73614
21
-4.12112
0
LINE
8
BLACK
6
CONTINUOUS
10
5.73614
20
-4.12112
11
5.73051
21
-4.10987
0
LINE
8
BLACK
6
CONTINUOUS
10
5.73051
20
-4.10987
11
5.72489
21
-4.08737
0
LINE
8
BLACK
6
CONTINUOUS
10
5.72489
20
-4.08737
11
5.72489
21
-4.05925
0
LINE
8
BLACK
6
CONTINUOUS
10
5.72489
20
-4.05925
11
5.73051
21
-4.03675
0
LINE
8
BLACK
6
CONTINUOUS
10
5.73051
20
-4.03675
11
5.73614
21
-4.02551
0
LINE
8
BLACK
6
CONTINUOUS
10
5.73614
20
-4.02551
11
5.74176
21
-4.01988
0
LINE
8
BLACK
6
CONTINUOUS
10
5.74176
20
-4.01988
11
5.75301
21
-4.01426
0
LINE
8
BLACK
6
CONTINUOUS
10
5.86549
20
-4.01426
11
5.87674
21
-4.01426
0
LINE
8
BLACK
6
CONTINUOUS
10
5.87674
20
-4.01426
11
5.88799
21
-4.01988
0
LINE
8
BLACK
6
CONTINUOUS
10
5.88799
20
-4.01988
11
5.89362
21
-4.02551
0
LINE
8
BLACK
6
CONTINUOUS
10
5.89362
20
-4.02551
11
5.89924
21
-4.03675
0
LINE
8
BLACK
6
CONTINUOUS
10
5.89924
20
-4.03675
11
5.90486
21
-4.05925
0
LINE
8
BLACK
6
CONTINUOUS
10
5.90486
20
-4.05925
11
5.90486
21
-4.08737
0
LINE
8
BLACK
6
CONTINUOUS
10
5.90486
20
-4.08737
11
5.89924
21
-4.10987
0
LINE
8
BLACK
6
CONTINUOUS
10
5.89924
20
-4.10987
11
5.89362
21
-4.12112
0
LINE
8
BLACK
6
CONTINUOUS
10
5.89362
20
-4.12112
11
5.88799
21
-4.12674
0
LINE
8
BLACK
6
CONTINUOUS
10
5.88799
20
-4.12674
11
5.87674
21
-4.13237
0
LINE
8
BLACK
6
CONTINUOUS
10
5.87674
20
-4.13237
11
5.86549
21
-4.13237
0
LINE
8
BLACK
6
CONTINUOUS
10
5.86549
20
-4.13237
11
5.85425
21
-4.12674
0
LINE
8
BLACK
6
CONTINUOUS
10
5.85425
20
-4.12674
11
5.84862
21
-4.12112
0
LINE
8
BLACK
6
CONTINUOUS
10
5.84862
20
-4.12112
11
5.843
21
-4.10987
0
LINE
8
BLACK
6
CONTINUOUS
10
5.843
20
-4.10987
11
5.83737
21
-4.08737
0
LINE
8
BLACK
6
CONTINUOUS
10
5.83737
20
-4.08737
11
5.83737
21
-4.05925
0
LINE
8
BLACK
6
CONTINUOUS
10
5.83737
20
-4.05925
11
5.843
21
-4.03675
0
LINE
8
BLACK
6
CONTINUOUS
10
5.843
20
-4.03675
11
5.84862
21
-4.02551
0
LINE
8
BLACK
6
CONTINUOUS
10
5.84862
20
-4.02551
11
5.85425
21
-4.01988
0
LINE
8
BLACK
6
CONTINUOUS
10
5.85425
20
-4.01988
11
5.86549
21
-4.01426
0
LINE
8
BLACK
6
CONTINUOUS
10
5.95548
20
-4.13237
11
5.95548
21
-4.05363
0
LINE
8
BLACK
6
CONTINUOUS
10
5.95548
20
-4.06488
11
5.96111
21
-4.05925
0
LINE
8
BLACK
6
CONTINUOUS
10
5.96111
20
-4.05925
11
5.97236
21
-4.05363
0
LINE
8
BLACK
6
CONTINUOUS
10
5.97236
20
-4.05363
11
5.98923
21
-4.05363
0
LINE
8
BLACK
6
CONTINUOUS
10
5.98923
20
-4.05363
11
6.00048
21
-4.05925
0
LINE
8
BLACK
6
CONTINUOUS
10
6.00048
20
-4.05925
11
6.0061
21
-4.0705
0
LINE
8
BLACK
6
CONTINUOUS
10
6.0061
20
-4.0705
11
6.0061
21
-4.13237
0
LINE
8
BLACK
6
CONTINUOUS
10
6.0061
20
-4.0705
11
6.01173
21
-4.05925
0
LINE
8
BLACK
6
CONTINUOUS
10
6.01173
20
-4.05925
11
6.02298
21
-4.05363
0
LINE
8
BLACK
6
CONTINUOUS
10
6.02298
20
-4.05363
11
6.03985
21
-4.05363
0
LINE
8
BLACK
6
CONTINUOUS
10
6.03985
20
-4.05363
11
6.0511
21
-4.05925
0
LINE
8
BLACK
6
CONTINUOUS
10
6.0511
20
-4.05925
11
6.05672
21
-4.0705
0
LINE
8
BLACK
6
CONTINUOUS
10
6.05672
20
-4.0705
11
6.05672
21
-4.13237
0
LINE
8
BLACK
6
CONTINUOUS
10
6.11296
20
-4.13237
11
6.11296
21
-4.05363
0
LINE
8
BLACK
6
CONTINUOUS
10
6.11296
20
-4.06488
11
6.11859
21
-4.05925
0
LINE
8
BLACK
6
CONTINUOUS
10
6.11859
20
-4.05925
11
6.12984
21
-4.05363
0
LINE
8
BLACK
6
CONTINUOUS
10
6.12984
20
-4.05363
11
6.14671
21
-4.05363
0
LINE
8
BLACK
6
CONTINUOUS
10
6.14671
20
-4.05363
11
6.15796
21
-4.05925
0
LINE
8
BLACK
6
CONTINUOUS
10
6.15796
20
-4.05925
11
6.16358
21
-4.0705
0
LINE
8
BLACK
6
CONTINUOUS
10
6.16358
20
-4.0705
11
6.16358
21
-4.13237
0
LINE
8
BLACK
6
CONTINUOUS
10
6.16358
20
-4.0705
11
6.16921
21
-4.05925
0
LINE
8
BLACK
6
CONTINUOUS
10
6.16921
20
-4.05925
11
6.18046
21
-4.05363
0
LINE
8
BLACK
6
CONTINUOUS
10
6.18046
20
-4.05363
11
6.19733
21
-4.05363
0
LINE
8
BLACK
6
CONTINUOUS
10
6.19733
20
-4.05363
11
6.20858
21
-4.05925
0
LINE
8
BLACK
6
CONTINUOUS
10
6.20858
20
-4.05925
11
6.2142
21
-4.0705
0
LINE
8
BLACK
6
CONTINUOUS
10
6.2142
20
-4.0705
11
6.2142
21
-4.13237
0
LINE
8
BLACK
6
CONTINUOUS
10
6.4448
20
-4.00863
11
6.34356
21
-4.16049
0
LINE
8
BLACK
6
CONTINUOUS
10
6.59665
20
-4.01426
11
6.6079
21
-4.01426
0
LINE
8
BLACK
6
CONTINUOUS
10
6.6079
20
-4.01426
11
6.61915
21
-4.01988
0
LINE
8
BLACK
6
CONTINUOUS
10
6.61915
20
-4.01988
11
6.62477
21
-4.02551
0
LINE
8
BLACK
6
CONTINUOUS
10
6.62477
20
-4.02551
11
6.6304
21
-4.03675
0
LINE
8
BLACK
6
CONTINUOUS
10
6.6304
20
-4.03675
11
6.63602
21
-4.05925
0
LINE
8
BLACK
6
CONTINUOUS
10
6.63602
20
-4.05925
11
6.63602
21
-4.08737
0
LINE
8
BLACK
6
CONTINUOUS
10
6.63602
20
-4.08737
11
6.6304
21
-4.10987
0
LINE
8
BLACK
6
CONTINUOUS
10
6.6304
20
-4.10987
11
6.62477
21
-4.12112
0
LINE
8
BLACK
6
CONTINUOUS
10
6.62477
20
-4.12112
11
6.61915
21
-4.12674
0
LINE
8
BLACK
6
CONTINUOUS
10
6.61915
20
-4.12674
11
6.6079
21
-4.13237
0
LINE
8
BLACK
6
CONTINUOUS
10
6.6079
20
-4.13237
11
6.59665
21
-4.13237
0
LINE
8
BLACK
6
CONTINUOUS
10
6.59665
20
-4.13237
11
6.5854
21
-4.12674
0
LINE
8
BLACK
6
CONTINUOUS
10
6.5854
20
-4.12674
11
6.57978
21
-4.12112
0
LINE
8
BLACK
6
CONTINUOUS
10
6.57978
20
-4.12112
11
6.57416
21
-4.10987
0
LINE
8
BLACK
6
CONTINUOUS
10
6.57416
20
-4.10987
11
6.56853
21
-4.08737
0
LINE
8
BLACK
6
CONTINUOUS
10
6.56853
20
-4.08737
11
6.56853
21
-4.05925
0
LINE
8
BLACK
6
CONTINUOUS
10
6.56853
20
-4.05925
11
6.57416
21
-4.03675
0
LINE
8
BLACK
6
CONTINUOUS
10
6.57416
20
-4.03675
11
6.57978
21
-4.02551
0
LINE
8
BLACK
6
CONTINUOUS
10
6.57978
20
-4.02551
11
6.5854
21
-4.01988
0
LINE
8
BLACK
6
CONTINUOUS
10
6.5854
20
-4.01988
11
6.59665
21
-4.01426
0
LINE
8
BLACK
6
CONTINUOUS
10
6.68664
20
-4.12112
11
6.69227
21
-4.12674
0
LINE
8
BLACK
6
CONTINUOUS
10
6.69227
20
-4.12674
11
6.68664
21
-4.13237
0
LINE
8
BLACK
6
CONTINUOUS
10
6.68664
20
-4.13237
11
6.68102
21
-4.12674
0
LINE
8
BLACK
6
CONTINUOUS
10
6.68102
20
-4.12674
11
6.68664
21
-4.12112
0
LINE
8
BLACK
6
CONTINUOUS
10
6.68664
20
-4.12112
11
6.68664
21
-4.13237
0
LINE
8
BLACK
6
CONTINUOUS
10
6.76538
20
-4.01426
11
6.77663
21
-4.01426
0
LINE
8
BLACK
6
CONTINUOUS
10
6.77663
20
-4.01426
11
6.78788
21
-4.01988
0
LINE
8
BLACK
6
CONTINUOUS
10
6.78788
20
-4.01988
11
6.7935
21
-4.02551
0
LINE
8
BLACK
6
CONTINUOUS
10
6.7935
20
-4.02551
11
6.79913
21
-4.03675
0
LINE
8
BLACK
6
CONTINUOUS
10
6.79913
20
-4.03675
11
6.80475
21
-4.05925
0
LINE
8
BLACK
6
CONTINUOUS
10
6.80475
20
-4.05925
11
6.80475
21
-4.08737
0
LINE
8
BLACK
6
CONTINUOUS
10
6.80475
20
-4.08737
11
6.79913
21
-4.10987
0
LINE
8
BLACK
6
CONTINUOUS
10
6.79913
20
-4.10987
11
6.7935
21
-4.12112
0
LINE
8
BLACK
6
CONTINUOUS
10
6.7935
20
-4.12112
11
6.78788
21
-4.12674
0
LINE
8
BLACK
6
CONTINUOUS
10
6.78788
20
-4.12674
11
6.77663
21
-4.13237
0
LINE
8
BLACK
6
CONTINUOUS
10
6.77663
20
-4.13237
11
6.76538
21
-4.13237
0
LINE
8
BLACK
6
CONTINUOUS
10
6.76538
20
-4.13237
11
6.75413
21
-4.12674
0
LINE
8
BLACK
6
CONTINUOUS
10
6.75413
20
-4.12674
11
6.74851
21
-4.12112
0
LINE
8
BLACK
6
CONTINUOUS
10
6.74851
20
-4.12112
11
6.74289
21
-4.10987
0
LINE
8
BLACK
6
CONTINUOUS
10
6.74289
20
-4.10987
11
6.73726
21
-4.08737
0
LINE
8
BLACK
6
CONTINUOUS
10
6.73726
20
-4.08737
11
6.73726
21
-4.05925
0
LINE
8
BLACK
6
CONTINUOUS
10
6.73726
20
-4.05925
11
6.74289
21
-4.03675
0
LINE
8
BLACK
6
CONTINUOUS
10
6.74289
20
-4.03675
11
6.74851
21
-4.02551
0
LINE
8
BLACK
6
CONTINUOUS
10
6.74851
20
-4.02551
11
6.75413
21
-4.01988
0
LINE
8
BLACK
6
CONTINUOUS
10
6.75413
20
-4.01988
11
6.76538
21
-4.01426
0
LINE
8
BLACK
6
CONTINUOUS
10
6.84412
20
-4.01426
11
6.91724
21
-4.01426
0
LINE
8
BLACK
6
CONTINUOUS
10
6.91724
20
-4.01426
11
6.87787
21
-4.05925
0
LINE
8
BLACK
6
CONTINUOUS
10
6.87787
20
-4.05925
11
6.89474
21
-4.05925
0
LINE
8
BLACK
6
CONTINUOUS
10
6.89474
20
-4.05925
11
6.90599
21
-4.06488
0
LINE
8
BLACK
6
CONTINUOUS
10
6.90599
20
-4.06488
11
6.91161
21
-4.0705
0
LINE
8
BLACK
6
CONTINUOUS
10
6.91161
20
-4.0705
11
6.91724
21
-4.08175
0
LINE
8
BLACK
6
CONTINUOUS
10
6.91724
20
-4.08175
11
6.91724
21
-4.10987
0
LINE
8
BLACK
6
CONTINUOUS
10
6.91724
20
-4.10987
11
6.91161
21
-4.12112
0
LINE
8
BLACK
6
CONTINUOUS
10
6.91161
20
-4.12112
11
6.90599
21
-4.12674
0
LINE
8
BLACK
6
CONTINUOUS
10
6.90599
20
-4.12674
11
6.89474
21
-4.13237
0
LINE
8
BLACK
6
CONTINUOUS
10
6.89474
20
-4.13237
11
6.861
21
-4.13237
0
LINE
8
BLACK
6
CONTINUOUS
10
6.861
20
-4.13237
11
6.84975
21
-4.12674
0
LINE
8
BLACK
6
CONTINUOUS
10
6.84975
20
-4.12674
11
6.84412
21
-4.12112
0
LINE
8
BLACK
6
CONTINUOUS
10
6.97348
20
-4.13237
11
6.99598
21
-4.13237
0
LINE
8
BLACK
6
CONTINUOUS
10
6.99598
20
-4.13237
11
7.00723
21
-4.12674
0
LINE
8
BLACK
6
CONTINUOUS
10
7.00723
20
-4.12674
11
7.01285
21
-4.12112
0
LINE
8
BLACK
6
CONTINUOUS
10
7.01285
20
-4.12112
11
7.0241
21
-4.10425
0
LINE
8
BLACK
6
CONTINUOUS
10
7.0241
20
-4.10425
11
7.02972
21
-4.08175
0
LINE
8
BLACK
6
CONTINUOUS
10
7.02972
20
-4.08175
11
7.02972
21
-4.03675
0
LINE
8
BLACK
6
CONTINUOUS
10
7.02972
20
-4.03675
11
7.0241
21
-4.02551
0
LINE
8
BLACK
6
CONTINUOUS
10
7.0241
20
-4.02551
11
7.01848
21
-4.01988
0
LINE
8
BLACK
6
CONTINUOUS
10
7.01848
20
-4.01988
11
7.00723
21
-4.01426
0
LINE
8
BLACK
6
CONTINUOUS
10
7.00723
20
-4.01426
11
6.98473
21
-4.01426
0
LINE
8
BLACK
6
CONTINUOUS
10
6.98473
20
-4.01426
11
6.97348
21
-4.01988
0
LINE
8
BLACK
6
CONTINUOUS
10
6.97348
20
-4.01988
11
6.96786
21
-4.02551
0
LINE
8
BLACK
6
CONTINUOUS
10
6.96786
20
-4.02551
11
6.96223
21
-4.03675
0
LINE
8
BLACK
6
CONTINUOUS
10
6.96223
20
-4.03675
11
6.96223
21
-4.06488
0
LINE
8
BLACK
6
CONTINUOUS
10
6.96223
20
-4.06488
11
6.96786
21
-4.07612
0
LINE
8
BLACK
6
CONTINUOUS
10
6.96786
20
-4.07612
11
6.97348
21
-4.08175
0
LINE
8
BLACK
6
CONTINUOUS
10
6.97348
20
-4.08175
11
6.98473
21
-4.08737
0
LINE
8
BLACK
6
CONTINUOUS
10
6.98473
20
-4.08737
11
7.00723
21
-4.08737
0
LINE
8
BLACK
6
CONTINUOUS
10
7.00723
20
-4.08737
11
7.01848
21
-4.08175
0
LINE
8
BLACK
6
CONTINUOUS
10
7.01848
20
-4.08175
11
7.0241
21
-4.07612
0
LINE
8
BLACK
6
CONTINUOUS
10
7.0241
20
-4.07612
11
7.02972
21
-4.06488
0
LINE
8
BLACK
6
CONTINUOUS
10
7.07472
20
-4.01426
11
7.07472
21
-4.03675
0
LINE
8
BLACK
6
CONTINUOUS
10
7.11971
20
-4.01426
11
7.11971
21
-4.03675
0
LINE
8
BLACK
6
CONTINUOUS
10
7.29407
20
-4.17736
11
7.28844
21
-4.17174
0
LINE
8
BLACK
6
CONTINUOUS
10
7.28844
20
-4.17174
11
7.27719
21
-4.15487
0
LINE
8
BLACK
6
CONTINUOUS
10
7.27719
20
-4.15487
11
7.27157
21
-4.14362
0
LINE
8
BLACK
6
CONTINUOUS
10
7.27157
20
-4.14362
11
7.26594
21
-4.12674
0
LINE
8
BLACK
6
CONTINUOUS
10
7.26594
20
-4.12674
11
7.26032
21
-4.09862
0
LINE
8
BLACK
6
CONTINUOUS
10
7.26032
20
-4.09862
11
7.26032
21
-4.07612
0
LINE
8
BLACK
6
CONTINUOUS
10
7.26032
20
-4.07612
11
7.26594
21
-4.048
0
LINE
8
BLACK
6
CONTINUOUS
10
7.26594
20
-4.048
11
7.27157
21
-4.03113
0
LINE
8
BLACK
6
CONTINUOUS
10
7.27157
20
-4.03113
11
7.27719
21
-4.01988
0
LINE
8
BLACK
6
CONTINUOUS
10
7.27719
20
-4.01988
11
7.28844
21
-4.00301
0
LINE
8
BLACK
6
CONTINUOUS
10
7.28844
20
-4.00301
11
7.29407
21
-3.99738
0
LINE
8
BLACK
6
CONTINUOUS
10
7.35593
20
-4.06488
11
7.34469
21
-4.05925
0
LINE
8
BLACK
6
CONTINUOUS
10
7.34469
20
-4.05925
11
7.33906
21
-4.05363
0
LINE
8
BLACK
6
CONTINUOUS
10
7.33906
20
-4.05363
11
7.33344
21
-4.04238
0
LINE
8
BLACK
6
CONTINUOUS
10
7.33344
20
-4.04238
11
7.33344
21
-4.03675
0
LINE
8
BLACK
6
CONTINUOUS
10
7.33344
20
-4.03675
11
7.33906
21
-4.02551
0
LINE
8
BLACK
6
CONTINUOUS
10
7.33906
20
-4.02551
11
7.34469
21
-4.01988
0
LINE
8
BLACK
6
CONTINUOUS
10
7.34469
20
-4.01988
11
7.35593
21
-4.01426
0
LINE
8
BLACK
6
CONTINUOUS
10
7.35593
20
-4.01426
11
7.37843
21
-4.01426
0
LINE
8
BLACK
6
CONTINUOUS
10
7.37843
20
-4.01426
11
7.38968
21
-4.01988
0
LINE
8
BLACK
6
CONTINUOUS
10
7.38968
20
-4.01988
11
7.3953
21
-4.02551
0
LINE
8
BLACK
6
CONTINUOUS
10
7.3953
20
-4.02551
11
7.40093
21
-4.03675
0
LINE
8
BLACK
6
CONTINUOUS
10
7.40093
20
-4.03675
11
7.40093
21
-4.04238
0
LINE
8
BLACK
6
CONTINUOUS
10
7.40093
20
-4.04238
11
7.3953
21
-4.05363
0
LINE
8
BLACK
6
CONTINUOUS
10
7.3953
20
-4.05363
11
7.38968
21
-4.05925
0
LINE
8
BLACK
6
CONTINUOUS
10
7.38968
20
-4.05925
11
7.37843
21
-4.06488
0
LINE
8
BLACK
6
CONTINUOUS
10
7.37843
20
-4.06488
11
7.35593
21
-4.06488
0
LINE
8
BLACK
6
CONTINUOUS
10
7.35593
20
-4.06488
11
7.34469
21
-4.0705
0
LINE
8
BLACK
6
CONTINUOUS
10
7.34469
20
-4.0705
11
7.33906
21
-4.07612
0
LINE
8
BLACK
6
CONTINUOUS
10
7.33906
20
-4.07612
11
7.33344
21
-4.08737
0
LINE
8
BLACK
6
CONTINUOUS
10
7.33344
20
-4.08737
11
7.33344
21
-4.10987
0
LINE
8
BLACK
6
CONTINUOUS
10
7.33344
20
-4.10987
11
7.33906
21
-4.12112
0
LINE
8
BLACK
6
CONTINUOUS
10
7.33906
20
-4.12112
11
7.34469
21
-4.12674
0
LINE
8
BLACK
6
CONTINUOUS
10
7.34469
20
-4.12674
11
7.35593
21
-4.13237
0
LINE
8
BLACK
6
CONTINUOUS
10
7.35593
20
-4.13237
11
7.37843
21
-4.13237
0
LINE
8
BLACK
6
CONTINUOUS
10
7.37843
20
-4.13237
11
7.38968
21
-4.12674
0
LINE
8
BLACK
6
CONTINUOUS
10
7.38968
20
-4.12674
11
7.3953
21
-4.12112
0
LINE
8
BLACK
6
CONTINUOUS
10
7.3953
20
-4.12112
11
7.40093
21
-4.10987
0
LINE
8
BLACK
6
CONTINUOUS
10
7.40093
20
-4.10987
11
7.40093
21
-4.08737
0
LINE
8
BLACK
6
CONTINUOUS
10
7.40093
20
-4.08737
11
7.3953
21
-4.07612
0
LINE
8
BLACK
6
CONTINUOUS
10
7.3953
20
-4.07612
11
7.38968
21
-4.0705
0
LINE
8
BLACK
6
CONTINUOUS
10
7.38968
20
-4.0705
11
7.37843
21
-4.06488
0
LINE
8
BLACK
6
CONTINUOUS
10
7.54154
20
-4.13237
11
7.54154
21
-4.01426
0
LINE
8
BLACK
6
CONTINUOUS
10
7.59215
20
-4.13237
11
7.59215
21
-4.0705
0
LINE
8
BLACK
6
CONTINUOUS
10
7.59215
20
-4.0705
11
7.58653
21
-4.05925
0
LINE
8
BLACK
6
CONTINUOUS
10
7.58653
20
-4.05925
11
7.57528
21
-4.05363
0
LINE
8
BLACK
6
CONTINUOUS
10
7.57528
20
-4.05363
11
7.55841
21
-4.05363
0
LINE
8
BLACK
6
CONTINUOUS
10
7.55841
20
-4.05363
11
7.54716
21
-4.05925
0
LINE
8
BLACK
6
CONTINUOUS
10
7.54716
20
-4.05925
11
7.54154
21
-4.06488
0
LINE
8
BLACK
6
CONTINUOUS
10
7.66527
20
-4.13237
11
7.65402
21
-4.12674
0
LINE
8
BLACK
6
CONTINUOUS
10
7.65402
20
-4.12674
11
7.6484
21
-4.12112
0
LINE
8
BLACK
6
CONTINUOUS
10
7.6484
20
-4.12112
11
7.64277
21
-4.10987
0
LINE
8
BLACK
6
CONTINUOUS
10
7.64277
20
-4.10987
11
7.64277
21
-4.07612
0
LINE
8
BLACK
6
CONTINUOUS
10
7.64277
20
-4.07612
11
7.6484
21
-4.06488
0
LINE
8
BLACK
6
CONTINUOUS
10
7.6484
20
-4.06488
11
7.65402
21
-4.05925
0
LINE
8
BLACK
6
CONTINUOUS
10
7.65402
20
-4.05925
11
7.66527
21
-4.05363
0
LINE
8
BLACK
6
CONTINUOUS
10
7.66527
20
-4.05363
11
7.68214
21
-4.05363
0
LINE
8
BLACK
6
CONTINUOUS
10
7.68214
20
-4.05363
11
7.69339
21
-4.05925
0
LINE
8
BLACK
6
CONTINUOUS
10
7.69339
20
-4.05925
11
7.69902
21
-4.06488
0
LINE
8
BLACK
6
CONTINUOUS
10
7.69902
20
-4.06488
11
7.70464
21
-4.07612
0
LINE
8
BLACK
6
CONTINUOUS
10
7.70464
20
-4.07612
11
7.70464
21
-4.10987
0
LINE
8
BLACK
6
CONTINUOUS
10
7.70464
20
-4.10987
11
7.69902
21
-4.12112
0
LINE
8
BLACK
6
CONTINUOUS
10
7.69902
20
-4.12112
11
7.69339
21
-4.12674
0
LINE
8
BLACK
6
CONTINUOUS
10
7.69339
20
-4.12674
11
7.68214
21
-4.13237
0
LINE
8
BLACK
6
CONTINUOUS
10
7.68214
20
-4.13237
11
7.66527
21
-4.13237
0
LINE
8
BLACK
6
CONTINUOUS
10
7.77213
20
-4.13237
11
7.76088
21
-4.12674
0
LINE
8
BLACK
6
CONTINUOUS
10
7.76088
20
-4.12674
11
7.75526
21
-4.11549
0
LINE
8
BLACK
6
CONTINUOUS
10
7.75526
20
-4.11549
11
7.75526
21
-4.01426
0
LINE
8
BLACK
6
CONTINUOUS
10
7.86212
20
-4.12674
11
7.85087
21
-4.13237
0
LINE
8
BLACK
6
CONTINUOUS
10
7.85087
20
-4.13237
11
7.82837
21
-4.13237
0
LINE
8
BLACK
6
CONTINUOUS
10
7.82837
20
-4.13237
11
7.81713
21
-4.12674
0
LINE
8
BLACK
6
CONTINUOUS
10
7.81713
20
-4.12674
11
7.8115
21
-4.11549
0
LINE
8
BLACK
6
CONTINUOUS
10
7.8115
20
-4.11549
11
7.8115
21
-4.0705
0
LINE
8
BLACK
6
CONTINUOUS
10
7.8115
20
-4.0705
11
7.81713
21
-4.05925
0
LINE
8
BLACK
6
CONTINUOUS
10
7.81713
20
-4.05925
11
7.82837
21
-4.05363
0
LINE
8
BLACK
6
CONTINUOUS
10
7.82837
20
-4.05363
11
7.85087
21
-4.05363
0
LINE
8
BLACK
6
CONTINUOUS
10
7.85087
20
-4.05363
11
7.86212
21
-4.05925
0
LINE
8
BLACK
6
CONTINUOUS
10
7.86212
20
-4.05925
11
7.86774
21
-4.0705
0
LINE
8
BLACK
6
CONTINUOUS
10
7.86774
20
-4.0705
11
7.86774
21
-4.08175
0
LINE
8
BLACK
6
CONTINUOUS
10
7.86774
20
-4.08175
11
7.8115
21
-4.093
0
LINE
8
BLACK
6
CONTINUOUS
10
7.91274
20
-4.12674
11
7.92399
21
-4.13237
0
LINE
8
BLACK
6
CONTINUOUS
10
7.92399
20
-4.13237
11
7.94648
21
-4.13237
0
LINE
8
BLACK
6
CONTINUOUS
10
7.94648
20
-4.13237
11
7.95773
21
-4.12674
0
LINE
8
BLACK
6
CONTINUOUS
10
7.95773
20
-4.12674
11
7.96336
21
-4.11549
0
LINE
8
BLACK
6
CONTINUOUS
10
7.96336
20
-4.11549
11
7.96336
21
-4.10987
0
LINE
8
BLACK
6
CONTINUOUS
10
7.96336
20
-4.10987
11
7.95773
21
-4.09862
0
LINE
8
BLACK
6
CONTINUOUS
10
7.95773
20
-4.09862
11
7.94648
21
-4.093
0
LINE
8
BLACK
6
CONTINUOUS
10
7.94648
20
-4.093
11
7.92961
21
-4.093
0
LINE
8
BLACK
6
CONTINUOUS
10
7.92961
20
-4.093
11
7.91836
21
-4.08737
0
LINE
8
BLACK
6
CONTINUOUS
10
7.91836
20
-4.08737
11
7.91274
21
-4.07612
0
LINE
8
BLACK
6
CONTINUOUS
10
7.91274
20
-4.07612
11
7.91274
21
-4.0705
0
LINE
8
BLACK
6
CONTINUOUS
10
7.91274
20
-4.0705
11
7.91836
21
-4.05925
0
LINE
8
BLACK
6
CONTINUOUS
10
7.91836
20
-4.05925
11
7.92961
21
-4.05363
0
LINE
8
BLACK
6
CONTINUOUS
10
7.92961
20
-4.05363
11
7.94648
21
-4.05363
0
LINE
8
BLACK
6
CONTINUOUS
10
7.94648
20
-4.05363
11
7.95773
21
-4.05925
0
LINE
8
BLACK
6
CONTINUOUS
10
8.00273
20
-4.17736
11
8.00835
21
-4.17174
0
LINE
8
BLACK
6
CONTINUOUS
10
8.00835
20
-4.17174
11
8.0196
21
-4.15487
0
LINE
8
BLACK
6
CONTINUOUS
10
8.0196
20
-4.15487
11
8.02522
21
-4.14362
0
LINE
8
BLACK
6
CONTINUOUS
10
8.02522
20
-4.14362
11
8.03085
21
-4.12674
0
LINE
8
BLACK
6
CONTINUOUS
10
8.03085
20
-4.12674
11
8.03647
21
-4.09862
0
LINE
8
BLACK
6
CONTINUOUS
10
8.03647
20
-4.09862
11
8.03647
21
-4.07612
0
LINE
8
BLACK
6
CONTINUOUS
10
8.03647
20
-4.07612
11
8.03085
21
-4.048
0
LINE
8
BLACK
6
CONTINUOUS
10
8.03085
20
-4.048
11
8.02522
21
-4.03113
0
LINE
8
BLACK
6
CONTINUOUS
10
8.02522
20
-4.03113
11
8.0196
21
-4.01988
0
LINE
8
BLACK
6
CONTINUOUS
10
8.0196
20
-4.01988
11
8.00835
21
-4.00301
0
LINE
8
BLACK
6
CONTINUOUS
10
8.00835
20
-4.00301
11
8.00273
21
-3.99738
  0
ENDSEC
  0
EOF
