G04 #@! TF.GenerationSoftware,KiCad,Pcbnew,(5.1.6-0-10_14)*
G04 #@! TF.CreationDate,2020-08-17T18:52:46-06:00*
G04 #@! TF.ProjectId,LD56100,4c443536-3130-4302-9e6b-696361645f70,rev?*
G04 #@! TF.SameCoordinates,Original*
G04 #@! TF.FileFunction,Soldermask,Top*
G04 #@! TF.FilePolarity,Negative*
%FSLAX46Y46*%
G04 Gerber Fmt 4.6, Leading zero omitted, Abs format (unit mm)*
G04 Created by KiCad (PCBNEW (5.1.6-0-10_14)) date 2020-08-17 18:52:46*
%MOMM*%
%LPD*%
G01*
G04 APERTURE LIST*
%ADD10C,0.100000*%
G04 APERTURE END LIST*
D10*
G36*
X149973512Y-91723927D02*
G01*
X150122812Y-91753624D01*
X150286784Y-91821544D01*
X150434354Y-91920147D01*
X150559853Y-92045646D01*
X150658456Y-92193216D01*
X150726376Y-92357188D01*
X150761000Y-92531259D01*
X150761000Y-92708741D01*
X150726376Y-92882812D01*
X150658456Y-93046784D01*
X150559853Y-93194354D01*
X150434354Y-93319853D01*
X150286784Y-93418456D01*
X150122812Y-93486376D01*
X149973512Y-93516073D01*
X149948742Y-93521000D01*
X149771258Y-93521000D01*
X149746488Y-93516073D01*
X149597188Y-93486376D01*
X149433216Y-93418456D01*
X149285646Y-93319853D01*
X149160147Y-93194354D01*
X149061544Y-93046784D01*
X148993624Y-92882812D01*
X148959000Y-92708741D01*
X148959000Y-92531259D01*
X148993624Y-92357188D01*
X149061544Y-92193216D01*
X149160147Y-92045646D01*
X149285646Y-91920147D01*
X149433216Y-91821544D01*
X149597188Y-91753624D01*
X149746488Y-91723927D01*
X149771258Y-91719000D01*
X149948742Y-91719000D01*
X149973512Y-91723927D01*
G37*
G36*
X139813512Y-91723927D02*
G01*
X139962812Y-91753624D01*
X140126784Y-91821544D01*
X140274354Y-91920147D01*
X140399853Y-92045646D01*
X140498456Y-92193216D01*
X140566376Y-92357188D01*
X140601000Y-92531259D01*
X140601000Y-92708741D01*
X140566376Y-92882812D01*
X140498456Y-93046784D01*
X140399853Y-93194354D01*
X140274354Y-93319853D01*
X140126784Y-93418456D01*
X139962812Y-93486376D01*
X139813512Y-93516073D01*
X139788742Y-93521000D01*
X139611258Y-93521000D01*
X139586488Y-93516073D01*
X139437188Y-93486376D01*
X139273216Y-93418456D01*
X139125646Y-93319853D01*
X139000147Y-93194354D01*
X138901544Y-93046784D01*
X138833624Y-92882812D01*
X138799000Y-92708741D01*
X138799000Y-92531259D01*
X138833624Y-92357188D01*
X138901544Y-92193216D01*
X139000147Y-92045646D01*
X139125646Y-91920147D01*
X139273216Y-91821544D01*
X139437188Y-91753624D01*
X139586488Y-91723927D01*
X139611258Y-91719000D01*
X139788742Y-91719000D01*
X139813512Y-91723927D01*
G37*
G36*
X149973512Y-89183927D02*
G01*
X150122812Y-89213624D01*
X150286784Y-89281544D01*
X150434354Y-89380147D01*
X150559853Y-89505646D01*
X150658456Y-89653216D01*
X150726376Y-89817188D01*
X150761000Y-89991259D01*
X150761000Y-90168741D01*
X150726376Y-90342812D01*
X150658456Y-90506784D01*
X150559853Y-90654354D01*
X150434354Y-90779853D01*
X150286784Y-90878456D01*
X150122812Y-90946376D01*
X149973512Y-90976073D01*
X149948742Y-90981000D01*
X149771258Y-90981000D01*
X149746488Y-90976073D01*
X149597188Y-90946376D01*
X149433216Y-90878456D01*
X149285646Y-90779853D01*
X149160147Y-90654354D01*
X149061544Y-90506784D01*
X148993624Y-90342812D01*
X148959000Y-90168741D01*
X148959000Y-89991259D01*
X148993624Y-89817188D01*
X149061544Y-89653216D01*
X149160147Y-89505646D01*
X149285646Y-89380147D01*
X149433216Y-89281544D01*
X149597188Y-89213624D01*
X149746488Y-89183927D01*
X149771258Y-89179000D01*
X149948742Y-89179000D01*
X149973512Y-89183927D01*
G37*
G36*
X139813512Y-89183927D02*
G01*
X139962812Y-89213624D01*
X140126784Y-89281544D01*
X140274354Y-89380147D01*
X140399853Y-89505646D01*
X140498456Y-89653216D01*
X140566376Y-89817188D01*
X140601000Y-89991259D01*
X140601000Y-90168741D01*
X140566376Y-90342812D01*
X140498456Y-90506784D01*
X140399853Y-90654354D01*
X140274354Y-90779853D01*
X140126784Y-90878456D01*
X139962812Y-90946376D01*
X139813512Y-90976073D01*
X139788742Y-90981000D01*
X139611258Y-90981000D01*
X139586488Y-90976073D01*
X139437188Y-90946376D01*
X139273216Y-90878456D01*
X139125646Y-90779853D01*
X139000147Y-90654354D01*
X138901544Y-90506784D01*
X138833624Y-90342812D01*
X138799000Y-90168741D01*
X138799000Y-89991259D01*
X138833624Y-89817188D01*
X138901544Y-89653216D01*
X139000147Y-89505646D01*
X139125646Y-89380147D01*
X139273216Y-89281544D01*
X139437188Y-89213624D01*
X139586488Y-89183927D01*
X139611258Y-89179000D01*
X139788742Y-89179000D01*
X139813512Y-89183927D01*
G37*
G36*
X144486553Y-88127934D02*
G01*
X144508164Y-88139485D01*
X144531613Y-88146598D01*
X144555999Y-88149000D01*
X145004001Y-88149000D01*
X145028387Y-88146598D01*
X145051836Y-88139485D01*
X145073447Y-88127934D01*
X145084333Y-88119000D01*
X145531000Y-88119000D01*
X145531000Y-89681000D01*
X145084333Y-89681000D01*
X145073447Y-89672066D01*
X145051836Y-89660515D01*
X145028387Y-89653402D01*
X145004001Y-89651000D01*
X144555999Y-89651000D01*
X144531613Y-89653402D01*
X144508164Y-89660515D01*
X144486553Y-89672066D01*
X144475667Y-89681000D01*
X144029000Y-89681000D01*
X144029000Y-88119000D01*
X144475667Y-88119000D01*
X144486553Y-88127934D01*
G37*
G36*
X149973512Y-86643927D02*
G01*
X150122812Y-86673624D01*
X150286784Y-86741544D01*
X150434354Y-86840147D01*
X150559853Y-86965646D01*
X150658456Y-87113216D01*
X150726376Y-87277188D01*
X150761000Y-87451259D01*
X150761000Y-87628741D01*
X150726376Y-87802812D01*
X150658456Y-87966784D01*
X150559853Y-88114354D01*
X150434354Y-88239853D01*
X150286784Y-88338456D01*
X150122812Y-88406376D01*
X149973512Y-88436073D01*
X149948742Y-88441000D01*
X149771258Y-88441000D01*
X149746488Y-88436073D01*
X149597188Y-88406376D01*
X149433216Y-88338456D01*
X149285646Y-88239853D01*
X149160147Y-88114354D01*
X149061544Y-87966784D01*
X148993624Y-87802812D01*
X148959000Y-87628741D01*
X148959000Y-87451259D01*
X148993624Y-87277188D01*
X149061544Y-87113216D01*
X149160147Y-86965646D01*
X149285646Y-86840147D01*
X149433216Y-86741544D01*
X149597188Y-86673624D01*
X149746488Y-86643927D01*
X149771258Y-86639000D01*
X149948742Y-86639000D01*
X149973512Y-86643927D01*
G37*
G36*
X139813512Y-86643927D02*
G01*
X139962812Y-86673624D01*
X140126784Y-86741544D01*
X140274354Y-86840147D01*
X140399853Y-86965646D01*
X140498456Y-87113216D01*
X140566376Y-87277188D01*
X140601000Y-87451259D01*
X140601000Y-87628741D01*
X140566376Y-87802812D01*
X140498456Y-87966784D01*
X140399853Y-88114354D01*
X140274354Y-88239853D01*
X140126784Y-88338456D01*
X139962812Y-88406376D01*
X139813512Y-88436073D01*
X139788742Y-88441000D01*
X139611258Y-88441000D01*
X139586488Y-88436073D01*
X139437188Y-88406376D01*
X139273216Y-88338456D01*
X139125646Y-88239853D01*
X139000147Y-88114354D01*
X138901544Y-87966784D01*
X138833624Y-87802812D01*
X138799000Y-87628741D01*
X138799000Y-87451259D01*
X138833624Y-87277188D01*
X138901544Y-87113216D01*
X139000147Y-86965646D01*
X139125646Y-86840147D01*
X139273216Y-86741544D01*
X139437188Y-86673624D01*
X139586488Y-86643927D01*
X139611258Y-86639000D01*
X139788742Y-86639000D01*
X139813512Y-86643927D01*
G37*
G36*
X150761000Y-85901000D02*
G01*
X148959000Y-85901000D01*
X148959000Y-84099000D01*
X150761000Y-84099000D01*
X150761000Y-85901000D01*
G37*
G36*
X140601000Y-85901000D02*
G01*
X138799000Y-85901000D01*
X138799000Y-84099000D01*
X140601000Y-84099000D01*
X140601000Y-85901000D01*
G37*
M02*
