G04 #@! TF.GenerationSoftware,KiCad,Pcbnew,(5.1.6-0-10_14)*
G04 #@! TF.CreationDate,2020-08-16T23:08:59-04:00*
G04 #@! TF.ProjectId,LD56100,4c443536-3130-4302-9e6b-696361645f70,rev?*
G04 #@! TF.SameCoordinates,Original*
G04 #@! TF.FileFunction,Copper,L1,Top*
G04 #@! TF.FilePolarity,Positive*
%FSLAX46Y46*%
G04 Gerber Fmt 4.6, Leading zero omitted, Abs format (unit mm)*
G04 Created by KiCad (PCBNEW (5.1.6-0-10_14)) date 2020-08-16 23:08:59*
%MOMM*%
%LPD*%
G01*
G04 APERTURE LIST*
G04 #@! TA.AperFunction,SMDPad,CuDef*
%ADD10R,0.400000X1.400000*%
G04 #@! TD*
G04 #@! TA.AperFunction,SMDPad,CuDef*
%ADD11R,0.300000X0.260000*%
G04 #@! TD*
G04 #@! TA.AperFunction,ComponentPad*
%ADD12O,1.700000X1.700000*%
G04 #@! TD*
G04 #@! TA.AperFunction,ComponentPad*
%ADD13R,1.700000X1.700000*%
G04 #@! TD*
G04 #@! TA.AperFunction,Conductor*
%ADD14C,0.250000*%
G04 #@! TD*
G04 APERTURE END LIST*
D10*
X144780000Y-88900000D03*
D11*
X145330000Y-88300000D03*
X145330000Y-89100000D03*
X145330000Y-88700000D03*
X145330000Y-89500000D03*
X144230000Y-89500000D03*
X144230000Y-89100000D03*
X144230000Y-88700000D03*
X144230000Y-88300000D03*
D12*
X149860000Y-92620000D03*
X149860000Y-90080000D03*
X149860000Y-87540000D03*
D13*
X149860000Y-85000000D03*
D12*
X139700000Y-92620000D03*
X139700000Y-90080000D03*
X139700000Y-87540000D03*
D13*
X139700000Y-85000000D03*
D14*
X144780000Y-88900000D02*
X144780000Y-92646500D01*
X139726500Y-92646500D02*
X139700000Y-92620000D01*
X144780000Y-92646500D02*
X139726500Y-92646500D01*
X149833500Y-92646500D02*
X149860000Y-92620000D01*
X144780000Y-92646500D02*
X149833500Y-92646500D01*
X145330000Y-88700000D02*
X145330000Y-88300000D01*
X148630000Y-85000000D02*
X145330000Y-88300000D01*
X149860000Y-85000000D02*
X148630000Y-85000000D01*
X148300000Y-89100000D02*
X149860000Y-87540000D01*
X145330000Y-89100000D02*
X148300000Y-89100000D01*
X145910000Y-90080000D02*
X145330000Y-89500000D01*
X149860000Y-90080000D02*
X145910000Y-90080000D01*
X143650000Y-90080000D02*
X144230000Y-89500000D01*
X139700000Y-90080000D02*
X143650000Y-90080000D01*
X141260000Y-89100000D02*
X139700000Y-87540000D01*
X144230000Y-89100000D02*
X141260000Y-89100000D01*
X144230000Y-88300000D02*
X144230000Y-88700000D01*
X140930000Y-85000000D02*
X144230000Y-88300000D01*
X139700000Y-85000000D02*
X140930000Y-85000000D01*
M02*
