G04 #@! TF.GenerationSoftware,KiCad,Pcbnew,(5.1.6-0-10_14)*
G04 #@! TF.CreationDate,2020-08-17T18:52:46-06:00*
G04 #@! TF.ProjectId,LD56100,4c443536-3130-4302-9e6b-696361645f70,rev?*
G04 #@! TF.SameCoordinates,Original*
G04 #@! TF.FileFunction,Legend,Top*
G04 #@! TF.FilePolarity,Positive*
%FSLAX46Y46*%
G04 Gerber Fmt 4.6, Leading zero omitted, Abs format (unit mm)*
G04 Created by KiCad (PCBNEW (5.1.6-0-10_14)) date 2020-08-17 18:52:46*
%MOMM*%
%LPD*%
G01*
G04 APERTURE LIST*
%ADD10C,0.150000*%
%ADD11C,0.090000*%
%ADD12C,0.120000*%
G04 APERTURE END LIST*
D10*
X146351761Y-84542380D02*
X146685095Y-85542380D01*
X147018428Y-84542380D01*
X147351761Y-85542380D02*
X147351761Y-84542380D01*
X147827952Y-85542380D02*
X147827952Y-84542380D01*
X148399380Y-85542380D01*
X148399380Y-84542380D01*
X146835904Y-87558571D02*
X147169238Y-87558571D01*
X147312095Y-88082380D02*
X146835904Y-88082380D01*
X146835904Y-87082380D01*
X147312095Y-87082380D01*
X147740666Y-88082380D02*
X147740666Y-87082380D01*
X148312095Y-88082380D01*
X148312095Y-87082380D01*
X146177095Y-89670000D02*
X146081857Y-89622380D01*
X145939000Y-89622380D01*
X145796142Y-89670000D01*
X145700904Y-89765238D01*
X145653285Y-89860476D01*
X145605666Y-90050952D01*
X145605666Y-90193809D01*
X145653285Y-90384285D01*
X145700904Y-90479523D01*
X145796142Y-90574761D01*
X145939000Y-90622380D01*
X146034238Y-90622380D01*
X146177095Y-90574761D01*
X146224714Y-90527142D01*
X146224714Y-90193809D01*
X146034238Y-90193809D01*
X146653285Y-90622380D02*
X146653285Y-89622380D01*
X147224714Y-90622380D01*
X147224714Y-89622380D01*
X147700904Y-90622380D02*
X147700904Y-89622380D01*
X147939000Y-89622380D01*
X148081857Y-89670000D01*
X148177095Y-89765238D01*
X148224714Y-89860476D01*
X148272333Y-90050952D01*
X148272333Y-90193809D01*
X148224714Y-90384285D01*
X148177095Y-90479523D01*
X148081857Y-90574761D01*
X147939000Y-90622380D01*
X147700904Y-90622380D01*
X145875523Y-93162380D02*
X145875523Y-92162380D01*
X146256476Y-92162380D01*
X146351714Y-92210000D01*
X146399333Y-92257619D01*
X146446952Y-92352857D01*
X146446952Y-92495714D01*
X146399333Y-92590952D01*
X146351714Y-92638571D01*
X146256476Y-92686190D01*
X145875523Y-92686190D01*
X146827904Y-92876666D02*
X147304095Y-92876666D01*
X146732666Y-93162380D02*
X147066000Y-92162380D01*
X147399333Y-93162380D01*
X147732666Y-93162380D02*
X147732666Y-92162380D01*
X147970761Y-92162380D01*
X148113619Y-92210000D01*
X148208857Y-92305238D01*
X148256476Y-92400476D01*
X148304095Y-92590952D01*
X148304095Y-92733809D01*
X148256476Y-92924285D01*
X148208857Y-93019523D01*
X148113619Y-93114761D01*
X147970761Y-93162380D01*
X147732666Y-93162380D01*
X141176523Y-93035380D02*
X141176523Y-92035380D01*
X141557476Y-92035380D01*
X141652714Y-92083000D01*
X141700333Y-92130619D01*
X141747952Y-92225857D01*
X141747952Y-92368714D01*
X141700333Y-92463952D01*
X141652714Y-92511571D01*
X141557476Y-92559190D01*
X141176523Y-92559190D01*
X142128904Y-92749666D02*
X142605095Y-92749666D01*
X142033666Y-93035380D02*
X142367000Y-92035380D01*
X142700333Y-93035380D01*
X143033666Y-93035380D02*
X143033666Y-92035380D01*
X143271761Y-92035380D01*
X143414619Y-92083000D01*
X143509857Y-92178238D01*
X143557476Y-92273476D01*
X143605095Y-92463952D01*
X143605095Y-92606809D01*
X143557476Y-92797285D01*
X143509857Y-92892523D01*
X143414619Y-92987761D01*
X143271761Y-93035380D01*
X143033666Y-93035380D01*
X141501857Y-89971571D02*
X141168523Y-89971571D01*
X141168523Y-90495380D02*
X141168523Y-89495380D01*
X141644714Y-89495380D01*
X142359000Y-89971571D02*
X142501857Y-90019190D01*
X142549476Y-90066809D01*
X142597095Y-90162047D01*
X142597095Y-90304904D01*
X142549476Y-90400142D01*
X142501857Y-90447761D01*
X142406619Y-90495380D01*
X142025666Y-90495380D01*
X142025666Y-89495380D01*
X142359000Y-89495380D01*
X142454238Y-89543000D01*
X142501857Y-89590619D01*
X142549476Y-89685857D01*
X142549476Y-89781095D01*
X142501857Y-89876333D01*
X142454238Y-89923952D01*
X142359000Y-89971571D01*
X142025666Y-89971571D01*
D11*
X141497142Y-87901428D02*
X141211428Y-87901428D01*
X141211428Y-87301428D01*
X142040000Y-87844285D02*
X142011428Y-87872857D01*
X141925714Y-87901428D01*
X141868571Y-87901428D01*
X141782857Y-87872857D01*
X141725714Y-87815714D01*
X141697142Y-87758571D01*
X141668571Y-87644285D01*
X141668571Y-87558571D01*
X141697142Y-87444285D01*
X141725714Y-87387142D01*
X141782857Y-87330000D01*
X141868571Y-87301428D01*
X141925714Y-87301428D01*
X142011428Y-87330000D01*
X142040000Y-87358571D01*
X142411428Y-87301428D02*
X142525714Y-87301428D01*
X142582857Y-87330000D01*
X142640000Y-87387142D01*
X142668571Y-87501428D01*
X142668571Y-87701428D01*
X142640000Y-87815714D01*
X142582857Y-87872857D01*
X142525714Y-87901428D01*
X142411428Y-87901428D01*
X142354285Y-87872857D01*
X142297142Y-87815714D01*
X142268571Y-87701428D01*
X142268571Y-87501428D01*
X142297142Y-87387142D01*
X142354285Y-87330000D01*
X142411428Y-87301428D01*
X142925714Y-87901428D02*
X142925714Y-87301428D01*
X143268571Y-87901428D01*
X143268571Y-87301428D01*
D10*
X141240095Y-84542380D02*
X141573428Y-85542380D01*
X141906761Y-84542380D01*
X142430571Y-84542380D02*
X142621047Y-84542380D01*
X142716285Y-84590000D01*
X142811523Y-84685238D01*
X142859142Y-84875714D01*
X142859142Y-85209047D01*
X142811523Y-85399523D01*
X142716285Y-85494761D01*
X142621047Y-85542380D01*
X142430571Y-85542380D01*
X142335333Y-85494761D01*
X142240095Y-85399523D01*
X142192476Y-85209047D01*
X142192476Y-84875714D01*
X142240095Y-84685238D01*
X142335333Y-84590000D01*
X142430571Y-84542380D01*
X143287714Y-84542380D02*
X143287714Y-85351904D01*
X143335333Y-85447142D01*
X143382952Y-85494761D01*
X143478190Y-85542380D01*
X143668666Y-85542380D01*
X143763904Y-85494761D01*
X143811523Y-85447142D01*
X143859142Y-85351904D01*
X143859142Y-84542380D01*
X144192476Y-84542380D02*
X144763904Y-84542380D01*
X144478190Y-85542380D02*
X144478190Y-84542380D01*
D12*
X144180000Y-89800000D02*
X144780000Y-89800000D01*
X144180000Y-88000000D02*
X145380000Y-88000000D01*
X149860000Y-83670000D02*
X151190000Y-83670000D01*
X151190000Y-83670000D02*
X151190000Y-85000000D01*
X151190000Y-86270000D02*
X151190000Y-93950000D01*
X148530000Y-93950000D02*
X151190000Y-93950000D01*
X148530000Y-86270000D02*
X148530000Y-93950000D01*
X148530000Y-86270000D02*
X151190000Y-86270000D01*
X139700000Y-83670000D02*
X141030000Y-83670000D01*
X141030000Y-83670000D02*
X141030000Y-85000000D01*
X141030000Y-86270000D02*
X141030000Y-93950000D01*
X138370000Y-93950000D02*
X141030000Y-93950000D01*
X138370000Y-86270000D02*
X138370000Y-93950000D01*
X138370000Y-86270000D02*
X141030000Y-86270000D01*
M02*
