G04 #@! TF.GenerationSoftware,KiCad,Pcbnew,(5.1.6-0-10_14)*
G04 #@! TF.CreationDate,2020-08-16T23:08:59-04:00*
G04 #@! TF.ProjectId,LD56100,4c443536-3130-4302-9e6b-696361645f70,rev?*
G04 #@! TF.SameCoordinates,Original*
G04 #@! TF.FileFunction,Legend,Bot*
G04 #@! TF.FilePolarity,Positive*
%FSLAX46Y46*%
G04 Gerber Fmt 4.6, Leading zero omitted, Abs format (unit mm)*
G04 Created by KiCad (PCBNEW (5.1.6-0-10_14)) date 2020-08-16 23:08:59*
%MOMM*%
%LPD*%
G01*
G04 APERTURE LIST*
%ADD10C,0.150000*%
G04 APERTURE END LIST*
D10*
X143732380Y-86558380D02*
X143399047Y-86082190D01*
X143160952Y-86558380D02*
X143160952Y-85558380D01*
X143541904Y-85558380D01*
X143637142Y-85606000D01*
X143684761Y-85653619D01*
X143732380Y-85748857D01*
X143732380Y-85891714D01*
X143684761Y-85986952D01*
X143637142Y-86034571D01*
X143541904Y-86082190D01*
X143160952Y-86082190D01*
X144160952Y-86034571D02*
X144494285Y-86034571D01*
X144637142Y-86558380D02*
X144160952Y-86558380D01*
X144160952Y-85558380D01*
X144637142Y-85558380D01*
X144922857Y-85558380D02*
X145256190Y-86558380D01*
X145589523Y-85558380D01*
X146446666Y-86558380D02*
X145875238Y-86558380D01*
X146160952Y-86558380D02*
X146160952Y-85558380D01*
X146065714Y-85701238D01*
X145970476Y-85796476D01*
X145875238Y-85844095D01*
X142208571Y-85288380D02*
X141732380Y-85288380D01*
X141732380Y-84288380D01*
X142541904Y-85288380D02*
X142541904Y-84288380D01*
X142780000Y-84288380D01*
X142922857Y-84336000D01*
X143018095Y-84431238D01*
X143065714Y-84526476D01*
X143113333Y-84716952D01*
X143113333Y-84859809D01*
X143065714Y-85050285D01*
X143018095Y-85145523D01*
X142922857Y-85240761D01*
X142780000Y-85288380D01*
X142541904Y-85288380D01*
X144018095Y-84288380D02*
X143541904Y-84288380D01*
X143494285Y-84764571D01*
X143541904Y-84716952D01*
X143637142Y-84669333D01*
X143875238Y-84669333D01*
X143970476Y-84716952D01*
X144018095Y-84764571D01*
X144065714Y-84859809D01*
X144065714Y-85097904D01*
X144018095Y-85193142D01*
X143970476Y-85240761D01*
X143875238Y-85288380D01*
X143637142Y-85288380D01*
X143541904Y-85240761D01*
X143494285Y-85193142D01*
X144922857Y-84288380D02*
X144732380Y-84288380D01*
X144637142Y-84336000D01*
X144589523Y-84383619D01*
X144494285Y-84526476D01*
X144446666Y-84716952D01*
X144446666Y-85097904D01*
X144494285Y-85193142D01*
X144541904Y-85240761D01*
X144637142Y-85288380D01*
X144827619Y-85288380D01*
X144922857Y-85240761D01*
X144970476Y-85193142D01*
X145018095Y-85097904D01*
X145018095Y-84859809D01*
X144970476Y-84764571D01*
X144922857Y-84716952D01*
X144827619Y-84669333D01*
X144637142Y-84669333D01*
X144541904Y-84716952D01*
X144494285Y-84764571D01*
X144446666Y-84859809D01*
X145970476Y-85288380D02*
X145399047Y-85288380D01*
X145684761Y-85288380D02*
X145684761Y-84288380D01*
X145589523Y-84431238D01*
X145494285Y-84526476D01*
X145399047Y-84574095D01*
X146589523Y-84288380D02*
X146684761Y-84288380D01*
X146780000Y-84336000D01*
X146827619Y-84383619D01*
X146875238Y-84478857D01*
X146922857Y-84669333D01*
X146922857Y-84907428D01*
X146875238Y-85097904D01*
X146827619Y-85193142D01*
X146780000Y-85240761D01*
X146684761Y-85288380D01*
X146589523Y-85288380D01*
X146494285Y-85240761D01*
X146446666Y-85193142D01*
X146399047Y-85097904D01*
X146351428Y-84907428D01*
X146351428Y-84669333D01*
X146399047Y-84478857D01*
X146446666Y-84383619D01*
X146494285Y-84336000D01*
X146589523Y-84288380D01*
X147541904Y-84288380D02*
X147637142Y-84288380D01*
X147732380Y-84336000D01*
X147780000Y-84383619D01*
X147827619Y-84478857D01*
X147875238Y-84669333D01*
X147875238Y-84907428D01*
X147827619Y-85097904D01*
X147780000Y-85193142D01*
X147732380Y-85240761D01*
X147637142Y-85288380D01*
X147541904Y-85288380D01*
X147446666Y-85240761D01*
X147399047Y-85193142D01*
X147351428Y-85097904D01*
X147303809Y-84907428D01*
X147303809Y-84669333D01*
X147351428Y-84478857D01*
X147399047Y-84383619D01*
X147446666Y-84336000D01*
X147541904Y-84288380D01*
M02*
