  0
SECTION
  2
HEADER
  9
$ANGBASE
  50
0.0
  9
$ANGDIR
  70
1
  9
$MEASUREMENT
  70
0
  0
ENDSEC
  0
SECTION
  2
TABLES
  0
TABLE
  2
LTYPE
  70
4
  0
LTYPE
  5
40F
  2
CONTINUOUS
  70
0
  3
Solid line
  72
65
  73
0
  40
0.0
  0
LTYPE
  5
410
  2
DASHDOT
 70
0
  3
Dash Dot ____ _ ____ _
 72
65
 73
4
 40
2.0
 49
1.25
 49
-0.25
 49
0.25
 49
-0.25
  0
LTYPE
  5
411
  2
DASHED
 70
0
  3
Dashed __ __ __ __ __
 72
65
 73
2
 40
0.75
 49
0.5
 49
-0.25
  0
LTYPE
  5
43B
  2
DOTTED
 70
0
  3
Dotted .  .  .  .
 72
65
 73
2
 40
0.2
 49
0.0
 49
-0.2
  0
ENDTAB
  0
TABLE
  2
STYLE
  70
4
  0
STYLE
  2
KICAD
  70
0
  40
0
  41
1
  42
1
  50
0
  71
0
  3
isocp.shx
  0
STYLE
  2
KICADB
  70
0
  40
0
  41
1
  42
1
  50
0
  71
0
  3
isocp.shx
  0
STYLE
  2
KICADI
  70
0
  40
0
  41
1
  42
1
  50
15
  71
0
  3
isocp.shx
  0
STYLE
  2
KICADBI
  70
0
  40
0
  41
1
  42
1
  50
15
  71
0
  3
isocp.shx
  0
ENDTAB
  0
TABLE
  2
LAYER
  70
1
  0
LAYER
  2
BLACK
  70
0
  62
7
  6
CONTINUOUS
  0
ENDTAB
  0
ENDSEC
  0
SECTION
  2
ENTITIES
0
LINE
8
BLACK
6
CONTINUOUS
10
5.95
20
-3.29
11
5.95
21
-3.7
0
LINE
8
BLACK
6
CONTINUOUS
10
5.45
20
-3.29
11
5.95
21
-3.29
0
LINE
8
BLACK
6
CONTINUOUS
10
5.45
20
-3.7
11
5.45
21
-3.29
0
LINE
8
BLACK
6
CONTINUOUS
10
5.95
20
-3.7
11
5.45
21
-3.7
0
LINE
8
BLACK
6
CONTINUOUS
10
5.56178
20
-3.88434
11
5.56178
21
-3.76623
0
LINE
8
BLACK
6
CONTINUOUS
10
5.56178
20
-3.76623
11
5.5899
21
-3.76623
0
LINE
8
BLACK
6
CONTINUOUS
10
5.5899
20
-3.76623
11
5.60678
21
-3.77185
0
LINE
8
BLACK
6
CONTINUOUS
10
5.60678
20
-3.77185
11
5.61803
21
-3.7831
0
LINE
8
BLACK
6
CONTINUOUS
10
5.61803
20
-3.7831
11
5.62365
21
-3.79435
0
LINE
8
BLACK
6
CONTINUOUS
10
5.62365
20
-3.79435
11
5.62927
21
-3.81684
0
LINE
8
BLACK
6
CONTINUOUS
10
5.62927
20
-3.81684
11
5.62927
21
-3.83372
0
LINE
8
BLACK
6
CONTINUOUS
10
5.62927
20
-3.83372
11
5.62365
21
-3.85621
0
LINE
8
BLACK
6
CONTINUOUS
10
5.62365
20
-3.85621
11
5.61803
21
-3.86746
0
LINE
8
BLACK
6
CONTINUOUS
10
5.61803
20
-3.86746
11
5.60678
21
-3.87871
0
LINE
8
BLACK
6
CONTINUOUS
10
5.60678
20
-3.87871
11
5.5899
21
-3.88434
0
LINE
8
BLACK
6
CONTINUOUS
10
5.5899
20
-3.88434
11
5.56178
21
-3.88434
0
LINE
8
BLACK
6
CONTINUOUS
10
5.67989
20
-3.88434
11
5.67989
21
-3.8056
0
LINE
8
BLACK
6
CONTINUOUS
10
5.67989
20
-3.82809
11
5.68552
21
-3.81684
0
LINE
8
BLACK
6
CONTINUOUS
10
5.68552
20
-3.81684
11
5.69114
21
-3.81122
0
LINE
8
BLACK
6
CONTINUOUS
10
5.69114
20
-3.81122
11
5.70239
21
-3.8056
0
LINE
8
BLACK
6
CONTINUOUS
10
5.70239
20
-3.8056
11
5.71364
21
-3.8056
0
LINE
8
BLACK
6
CONTINUOUS
10
5.75301
20
-3.88434
11
5.75301
21
-3.8056
0
LINE
8
BLACK
6
CONTINUOUS
10
5.75301
20
-3.76623
11
5.74738
21
-3.77185
0
LINE
8
BLACK
6
CONTINUOUS
10
5.74738
20
-3.77185
11
5.75301
21
-3.77747
0
LINE
8
BLACK
6
CONTINUOUS
10
5.75301
20
-3.77747
11
5.75863
21
-3.77185
0
LINE
8
BLACK
6
CONTINUOUS
10
5.75863
20
-3.77185
11
5.75301
21
-3.76623
0
LINE
8
BLACK
6
CONTINUOUS
10
5.75301
20
-3.76623
11
5.75301
21
-3.77747
0
LINE
8
BLACK
6
CONTINUOUS
10
5.82612
20
-3.88434
11
5.81488
21
-3.87871
0
LINE
8
BLACK
6
CONTINUOUS
10
5.81488
20
-3.87871
11
5.80925
21
-3.86746
0
LINE
8
BLACK
6
CONTINUOUS
10
5.80925
20
-3.86746
11
5.80925
21
-3.76623
0
LINE
8
BLACK
6
CONTINUOUS
10
5.88799
20
-3.88434
11
5.87674
21
-3.87871
0
LINE
8
BLACK
6
CONTINUOUS
10
5.87674
20
-3.87871
11
5.87112
21
-3.86746
0
LINE
8
BLACK
6
CONTINUOUS
10
5.87112
20
-3.86746
11
5.87112
21
-3.76623
0
LINE
8
BLACK
6
CONTINUOUS
10
6.02298
20
-3.88434
11
6.02298
21
-3.76623
0
LINE
8
BLACK
6
CONTINUOUS
10
6.02298
20
-3.76623
11
6.06235
21
-3.85059
0
LINE
8
BLACK
6
CONTINUOUS
10
6.06235
20
-3.85059
11
6.10172
21
-3.76623
0
LINE
8
BLACK
6
CONTINUOUS
10
6.10172
20
-3.76623
11
6.10172
21
-3.88434
0
LINE
8
BLACK
6
CONTINUOUS
10
6.20858
20
-3.88434
11
6.20858
21
-3.82247
0
LINE
8
BLACK
6
CONTINUOUS
10
6.20858
20
-3.82247
11
6.20295
21
-3.81122
0
LINE
8
BLACK
6
CONTINUOUS
10
6.20295
20
-3.81122
11
6.1917
21
-3.8056
0
LINE
8
BLACK
6
CONTINUOUS
10
6.1917
20
-3.8056
11
6.16921
21
-3.8056
0
LINE
8
BLACK
6
CONTINUOUS
10
6.16921
20
-3.8056
11
6.15796
21
-3.81122
0
LINE
8
BLACK
6
CONTINUOUS
10
6.20858
20
-3.87871
11
6.19733
21
-3.88434
0
LINE
8
BLACK
6
CONTINUOUS
10
6.19733
20
-3.88434
11
6.16921
21
-3.88434
0
LINE
8
BLACK
6
CONTINUOUS
10
6.16921
20
-3.88434
11
6.15796
21
-3.87871
0
LINE
8
BLACK
6
CONTINUOUS
10
6.15796
20
-3.87871
11
6.15233
21
-3.86746
0
LINE
8
BLACK
6
CONTINUOUS
10
6.15233
20
-3.86746
11
6.15233
21
-3.85621
0
LINE
8
BLACK
6
CONTINUOUS
10
6.15233
20
-3.85621
11
6.15796
21
-3.84497
0
LINE
8
BLACK
6
CONTINUOUS
10
6.15796
20
-3.84497
11
6.16921
21
-3.83934
0
LINE
8
BLACK
6
CONTINUOUS
10
6.16921
20
-3.83934
11
6.19733
21
-3.83934
0
LINE
8
BLACK
6
CONTINUOUS
10
6.19733
20
-3.83934
11
6.20858
21
-3.83372
0
LINE
8
BLACK
6
CONTINUOUS
10
6.26482
20
-3.8056
11
6.26482
21
-3.92371
0
LINE
8
BLACK
6
CONTINUOUS
10
6.26482
20
-3.81122
11
6.27607
21
-3.8056
0
LINE
8
BLACK
6
CONTINUOUS
10
6.27607
20
-3.8056
11
6.29857
21
-3.8056
0
LINE
8
BLACK
6
CONTINUOUS
10
6.29857
20
-3.8056
11
6.30981
21
-3.81122
0
LINE
8
BLACK
6
CONTINUOUS
10
6.30981
20
-3.81122
11
6.31544
21
-3.81684
0
LINE
8
BLACK
6
CONTINUOUS
10
6.31544
20
-3.81684
11
6.32106
21
-3.82809
0
LINE
8
BLACK
6
CONTINUOUS
10
6.32106
20
-3.82809
11
6.32106
21
-3.86184
0
LINE
8
BLACK
6
CONTINUOUS
10
6.32106
20
-3.86184
11
6.31544
21
-3.87309
0
LINE
8
BLACK
6
CONTINUOUS
10
6.31544
20
-3.87309
11
6.30981
21
-3.87871
0
LINE
8
BLACK
6
CONTINUOUS
10
6.30981
20
-3.87871
11
6.29857
21
-3.88434
0
LINE
8
BLACK
6
CONTINUOUS
10
6.29857
20
-3.88434
11
6.27607
21
-3.88434
0
LINE
8
BLACK
6
CONTINUOUS
10
6.27607
20
-3.88434
11
6.26482
21
-3.87871
0
LINE
8
BLACK
6
CONTINUOUS
10
6.37168
20
-3.87309
11
6.37731
21
-3.87871
0
LINE
8
BLACK
6
CONTINUOUS
10
6.37731
20
-3.87871
11
6.37168
21
-3.88434
0
LINE
8
BLACK
6
CONTINUOUS
10
6.37168
20
-3.88434
11
6.36606
21
-3.87871
0
LINE
8
BLACK
6
CONTINUOUS
10
6.36606
20
-3.87871
11
6.37168
21
-3.87309
0
LINE
8
BLACK
6
CONTINUOUS
10
6.37168
20
-3.87309
11
6.37168
21
-3.88434
0
LINE
8
BLACK
6
CONTINUOUS
10
6.37168
20
-3.81122
11
6.37731
21
-3.81684
0
LINE
8
BLACK
6
CONTINUOUS
10
6.37731
20
-3.81684
11
6.37168
21
-3.82247
0
LINE
8
BLACK
6
CONTINUOUS
10
6.37168
20
-3.82247
11
6.36606
21
-3.81684
0
LINE
8
BLACK
6
CONTINUOUS
10
6.36606
20
-3.81684
11
6.37168
21
-3.81122
0
LINE
8
BLACK
6
CONTINUOUS
10
6.37168
20
-3.81122
11
6.37168
21
-3.82247
  0
ENDSEC
  0
EOF
