G04 #@! TF.GenerationSoftware,KiCad,Pcbnew,(5.1.5-0-10_14)*
G04 #@! TF.CreationDate,2020-08-06T21:24:35-06:00*
G04 #@! TF.ProjectId,LD56100,4c443536-3130-4302-9e6b-696361645f70,rev?*
G04 #@! TF.SameCoordinates,Original*
G04 #@! TF.FileFunction,Legend,Top*
G04 #@! TF.FilePolarity,Positive*
%FSLAX46Y46*%
G04 Gerber Fmt 4.6, Leading zero omitted, Abs format (unit mm)*
G04 Created by KiCad (PCBNEW (5.1.5-0-10_14)) date 2020-08-06 21:24:35*
%MOMM*%
%LPD*%
G04 APERTURE LIST*
%ADD10C,0.150000*%
%ADD11C,0.120000*%
G04 APERTURE END LIST*
D10*
X142208571Y-85288380D02*
X141732380Y-85288380D01*
X141732380Y-84288380D01*
X142541904Y-85288380D02*
X142541904Y-84288380D01*
X142780000Y-84288380D01*
X142922857Y-84336000D01*
X143018095Y-84431238D01*
X143065714Y-84526476D01*
X143113333Y-84716952D01*
X143113333Y-84859809D01*
X143065714Y-85050285D01*
X143018095Y-85145523D01*
X142922857Y-85240761D01*
X142780000Y-85288380D01*
X142541904Y-85288380D01*
X144018095Y-84288380D02*
X143541904Y-84288380D01*
X143494285Y-84764571D01*
X143541904Y-84716952D01*
X143637142Y-84669333D01*
X143875238Y-84669333D01*
X143970476Y-84716952D01*
X144018095Y-84764571D01*
X144065714Y-84859809D01*
X144065714Y-85097904D01*
X144018095Y-85193142D01*
X143970476Y-85240761D01*
X143875238Y-85288380D01*
X143637142Y-85288380D01*
X143541904Y-85240761D01*
X143494285Y-85193142D01*
X144922857Y-84288380D02*
X144732380Y-84288380D01*
X144637142Y-84336000D01*
X144589523Y-84383619D01*
X144494285Y-84526476D01*
X144446666Y-84716952D01*
X144446666Y-85097904D01*
X144494285Y-85193142D01*
X144541904Y-85240761D01*
X144637142Y-85288380D01*
X144827619Y-85288380D01*
X144922857Y-85240761D01*
X144970476Y-85193142D01*
X145018095Y-85097904D01*
X145018095Y-84859809D01*
X144970476Y-84764571D01*
X144922857Y-84716952D01*
X144827619Y-84669333D01*
X144637142Y-84669333D01*
X144541904Y-84716952D01*
X144494285Y-84764571D01*
X144446666Y-84859809D01*
X145970476Y-85288380D02*
X145399047Y-85288380D01*
X145684761Y-85288380D02*
X145684761Y-84288380D01*
X145589523Y-84431238D01*
X145494285Y-84526476D01*
X145399047Y-84574095D01*
X146589523Y-84288380D02*
X146684761Y-84288380D01*
X146780000Y-84336000D01*
X146827619Y-84383619D01*
X146875238Y-84478857D01*
X146922857Y-84669333D01*
X146922857Y-84907428D01*
X146875238Y-85097904D01*
X146827619Y-85193142D01*
X146780000Y-85240761D01*
X146684761Y-85288380D01*
X146589523Y-85288380D01*
X146494285Y-85240761D01*
X146446666Y-85193142D01*
X146399047Y-85097904D01*
X146351428Y-84907428D01*
X146351428Y-84669333D01*
X146399047Y-84478857D01*
X146446666Y-84383619D01*
X146494285Y-84336000D01*
X146589523Y-84288380D01*
X147541904Y-84288380D02*
X147637142Y-84288380D01*
X147732380Y-84336000D01*
X147780000Y-84383619D01*
X147827619Y-84478857D01*
X147875238Y-84669333D01*
X147875238Y-84907428D01*
X147827619Y-85097904D01*
X147780000Y-85193142D01*
X147732380Y-85240761D01*
X147637142Y-85288380D01*
X147541904Y-85288380D01*
X147446666Y-85240761D01*
X147399047Y-85193142D01*
X147351428Y-85097904D01*
X147303809Y-84907428D01*
X147303809Y-84669333D01*
X147351428Y-84478857D01*
X147399047Y-84383619D01*
X147446666Y-84336000D01*
X147541904Y-84288380D01*
D11*
X144180000Y-89800000D02*
X144780000Y-89800000D01*
X144180000Y-88000000D02*
X145380000Y-88000000D01*
X149860000Y-83670000D02*
X151190000Y-83670000D01*
X151190000Y-83670000D02*
X151190000Y-85000000D01*
X151190000Y-86270000D02*
X151190000Y-93950000D01*
X148530000Y-93950000D02*
X151190000Y-93950000D01*
X148530000Y-86270000D02*
X148530000Y-93950000D01*
X148530000Y-86270000D02*
X151190000Y-86270000D01*
X139700000Y-83670000D02*
X141030000Y-83670000D01*
X141030000Y-83670000D02*
X141030000Y-85000000D01*
X141030000Y-86270000D02*
X141030000Y-93950000D01*
X138370000Y-93950000D02*
X141030000Y-93950000D01*
X138370000Y-86270000D02*
X138370000Y-93950000D01*
X138370000Y-86270000D02*
X141030000Y-86270000D01*
D10*
X144018095Y-93352380D02*
X144018095Y-94161904D01*
X144065714Y-94257142D01*
X144113333Y-94304761D01*
X144208571Y-94352380D01*
X144399047Y-94352380D01*
X144494285Y-94304761D01*
X144541904Y-94257142D01*
X144589523Y-94161904D01*
X144589523Y-93352380D01*
X145589523Y-94352380D02*
X145018095Y-94352380D01*
X145303809Y-94352380D02*
X145303809Y-93352380D01*
X145208571Y-93495238D01*
X145113333Y-93590476D01*
X145018095Y-93638095D01*
M02*
