G04 #@! TF.GenerationSoftware,KiCad,Pcbnew,(5.1.5-0-10_14)*
G04 #@! TF.CreationDate,2020-06-03T14:43:28-06:00*
G04 #@! TF.ProjectId,TPS62177DQ,54505336-3231-4373-9744-512e6b696361,rev?*
G04 #@! TF.SameCoordinates,Original*
G04 #@! TF.FileFunction,Copper,L1,Top*
G04 #@! TF.FilePolarity,Positive*
%FSLAX46Y46*%
G04 Gerber Fmt 4.6, Leading zero omitted, Abs format (unit mm)*
G04 Created by KiCad (PCBNEW (5.1.5-0-10_14)) date 2020-06-03 14:43:28*
%MOMM*%
%LPD*%
G04 APERTURE LIST*
%ADD10O,1.700000X1.700000*%
%ADD11R,1.700000X1.700000*%
%ADD12R,0.840000X2.400000*%
%ADD13R,0.500000X0.250000*%
%ADD14C,0.500000*%
%ADD15C,0.840000*%
%ADD16C,0.250000*%
%ADD17C,0.254000*%
G04 APERTURE END LIST*
D10*
X72237600Y-51816000D03*
X72237600Y-54356000D03*
X72237600Y-56896000D03*
X72237600Y-59436000D03*
X72237600Y-61976000D03*
D11*
X72237600Y-64516000D03*
D10*
X62077600Y-64516000D03*
X62077600Y-61976000D03*
X62077600Y-59436000D03*
X62077600Y-56896000D03*
X62077600Y-54356000D03*
D11*
X62077600Y-51816000D03*
D12*
X67157600Y-56896000D03*
D13*
X68107600Y-55896000D03*
X68107600Y-56396000D03*
X68107600Y-56896000D03*
X68107600Y-57396000D03*
X68107600Y-57896000D03*
X66207600Y-57896000D03*
X66207600Y-57396000D03*
X66207600Y-56896000D03*
X66207600Y-56396000D03*
X66207600Y-55896000D03*
D14*
X67157600Y-56896000D03*
X67157600Y-55946000D03*
X67157600Y-57846000D03*
D15*
X70197600Y-51816000D02*
X71035519Y-51816000D01*
X71035519Y-51816000D02*
X72237600Y-51816000D01*
X67157600Y-56896000D02*
X67157600Y-54856000D01*
X67157600Y-54856000D02*
X70197600Y-51816000D01*
X67157600Y-57846000D02*
X67157600Y-59359800D01*
D16*
X70697600Y-55896000D02*
X72237600Y-54356000D01*
X68107600Y-55896000D02*
X70697600Y-55896000D01*
X71737600Y-56396000D02*
X72237600Y-56896000D01*
X68107600Y-56396000D02*
X71737600Y-56396000D01*
X71387601Y-58586001D02*
X72237600Y-59436000D01*
X69747599Y-56945999D02*
X71387601Y-58586001D01*
X68248999Y-56945999D02*
X69747599Y-56945999D01*
X68199000Y-56896000D02*
X68248999Y-56945999D01*
X68107600Y-56896000D02*
X68199000Y-56896000D01*
X68607600Y-57396000D02*
X70586600Y-59375000D01*
X68107600Y-57396000D02*
X68607600Y-57396000D01*
X71137600Y-61976000D02*
X72237600Y-61976000D01*
X70586600Y-61425000D02*
X71137600Y-61976000D01*
X70586600Y-59375000D02*
X70586600Y-61425000D01*
X62077600Y-64516000D02*
X65608200Y-64516000D01*
X68107600Y-62016600D02*
X68107600Y-57896000D01*
X65608200Y-64516000D02*
X68107600Y-62016600D01*
X66157600Y-57896000D02*
X66207600Y-57896000D01*
X62077600Y-61976000D02*
X66157600Y-57896000D01*
X62077600Y-56896000D02*
X66207600Y-56896000D01*
X64117600Y-56396000D02*
X66207600Y-56396000D01*
X62077600Y-54356000D02*
X64117600Y-56396000D01*
X62077600Y-52266000D02*
X62077600Y-51816000D01*
X65707600Y-55896000D02*
X62077600Y-52266000D01*
X66207600Y-55896000D02*
X65707600Y-55896000D01*
X64117600Y-57396000D02*
X62077600Y-59436000D01*
X66207600Y-57396000D02*
X64117600Y-57396000D01*
D17*
G36*
X71606348Y-50471843D02*
G01*
X71356245Y-50620822D01*
X71140012Y-50815731D01*
X70965959Y-51049080D01*
X70840775Y-51311901D01*
X70796124Y-51459110D01*
X70917445Y-51689000D01*
X72110600Y-51689000D01*
X72110600Y-51669000D01*
X72364600Y-51669000D01*
X72364600Y-51689000D01*
X72384600Y-51689000D01*
X72384600Y-51943000D01*
X72364600Y-51943000D01*
X72364600Y-51963000D01*
X72110600Y-51963000D01*
X72110600Y-51943000D01*
X70917445Y-51943000D01*
X70796124Y-52172890D01*
X70840775Y-52320099D01*
X70965959Y-52582920D01*
X71140012Y-52816269D01*
X71356245Y-53011178D01*
X71606348Y-53160157D01*
X71768768Y-53217772D01*
X71654503Y-53265102D01*
X71452883Y-53399820D01*
X71281420Y-53571283D01*
X71146702Y-53772903D01*
X71053907Y-53996931D01*
X71006600Y-54234757D01*
X71006600Y-54477243D01*
X71053907Y-54715069D01*
X71085842Y-54792167D01*
X70488009Y-55390000D01*
X68376313Y-55390000D01*
X68357600Y-55388157D01*
X68133073Y-55388157D01*
X68108137Y-55341506D01*
X68028785Y-55244815D01*
X67932094Y-55165463D01*
X67821780Y-55106498D01*
X67702082Y-55070188D01*
X67577600Y-55057928D01*
X67443350Y-55061000D01*
X67410494Y-55093856D01*
X67284602Y-55068986D01*
X67284602Y-55061000D01*
X67244174Y-55061000D01*
X67243602Y-55060887D01*
X67157579Y-55061000D01*
X67030598Y-55061000D01*
X67030598Y-55068862D01*
X66904889Y-55094039D01*
X66871850Y-55061000D01*
X66737600Y-55057928D01*
X66613118Y-55070188D01*
X66493420Y-55106498D01*
X66383106Y-55165463D01*
X66286415Y-55244815D01*
X66207063Y-55341506D01*
X66182127Y-55388157D01*
X65957600Y-55388157D01*
X65938887Y-55390000D01*
X65917192Y-55390000D01*
X63294893Y-52767702D01*
X63303087Y-52740689D01*
X63310443Y-52666000D01*
X63310443Y-50966000D01*
X63303087Y-50891311D01*
X63281301Y-50819492D01*
X63245922Y-50753304D01*
X63198311Y-50695289D01*
X63140296Y-50647678D01*
X63074108Y-50612299D01*
X63002289Y-50590513D01*
X62927600Y-50583157D01*
X61227600Y-50583157D01*
X61152911Y-50590513D01*
X61081092Y-50612299D01*
X61014904Y-50647678D01*
X60956889Y-50695289D01*
X60909278Y-50753304D01*
X60873899Y-50819492D01*
X60852113Y-50891311D01*
X60844757Y-50966000D01*
X60844757Y-52666000D01*
X60852113Y-52740689D01*
X60873899Y-52812508D01*
X60909278Y-52878696D01*
X60956889Y-52936711D01*
X61014904Y-52984322D01*
X61081092Y-53019701D01*
X61152911Y-53041487D01*
X61227600Y-53048843D01*
X62144852Y-53048843D01*
X62226513Y-53130504D01*
X62198843Y-53125000D01*
X61956357Y-53125000D01*
X61718531Y-53172307D01*
X61494503Y-53265102D01*
X61292883Y-53399820D01*
X61121420Y-53571283D01*
X60986702Y-53772903D01*
X60893907Y-53996931D01*
X60846600Y-54234757D01*
X60846600Y-54477243D01*
X60893907Y-54715069D01*
X60986702Y-54939097D01*
X61121420Y-55140717D01*
X61292883Y-55312180D01*
X61494503Y-55446898D01*
X61718531Y-55539693D01*
X61956357Y-55587000D01*
X62198843Y-55587000D01*
X62436669Y-55539693D01*
X62513767Y-55507758D01*
X63396008Y-56390000D01*
X63200432Y-56390000D01*
X63168498Y-56312903D01*
X63033780Y-56111283D01*
X62862317Y-55939820D01*
X62660697Y-55805102D01*
X62436669Y-55712307D01*
X62198843Y-55665000D01*
X61956357Y-55665000D01*
X61718531Y-55712307D01*
X61494503Y-55805102D01*
X61292883Y-55939820D01*
X61121420Y-56111283D01*
X60986702Y-56312903D01*
X60893907Y-56536931D01*
X60846600Y-56774757D01*
X60846600Y-57017243D01*
X60893907Y-57255069D01*
X60986702Y-57479097D01*
X61121420Y-57680717D01*
X61292883Y-57852180D01*
X61494503Y-57986898D01*
X61718531Y-58079693D01*
X61956357Y-58127000D01*
X62198843Y-58127000D01*
X62436669Y-58079693D01*
X62660697Y-57986898D01*
X62862317Y-57852180D01*
X63033780Y-57680717D01*
X63168498Y-57479097D01*
X63200432Y-57402000D01*
X63396008Y-57402000D01*
X62513767Y-58284242D01*
X62436669Y-58252307D01*
X62198843Y-58205000D01*
X61956357Y-58205000D01*
X61718531Y-58252307D01*
X61494503Y-58345102D01*
X61292883Y-58479820D01*
X61121420Y-58651283D01*
X60986702Y-58852903D01*
X60893907Y-59076931D01*
X60846600Y-59314757D01*
X60846600Y-59557243D01*
X60893907Y-59795069D01*
X60986702Y-60019097D01*
X61121420Y-60220717D01*
X61292883Y-60392180D01*
X61494503Y-60526898D01*
X61718531Y-60619693D01*
X61956357Y-60667000D01*
X62198843Y-60667000D01*
X62436669Y-60619693D01*
X62660697Y-60526898D01*
X62862317Y-60392180D01*
X63033780Y-60220717D01*
X63168498Y-60019097D01*
X63261293Y-59795069D01*
X63308600Y-59557243D01*
X63308600Y-59314757D01*
X63261293Y-59076931D01*
X63229358Y-58999833D01*
X64327192Y-57902000D01*
X65436008Y-57902000D01*
X62513767Y-60824242D01*
X62436669Y-60792307D01*
X62198843Y-60745000D01*
X61956357Y-60745000D01*
X61718531Y-60792307D01*
X61494503Y-60885102D01*
X61292883Y-61019820D01*
X61121420Y-61191283D01*
X60986702Y-61392903D01*
X60893907Y-61616931D01*
X60846600Y-61854757D01*
X60846600Y-62097243D01*
X60893907Y-62335069D01*
X60986702Y-62559097D01*
X61121420Y-62760717D01*
X61292883Y-62932180D01*
X61494503Y-63066898D01*
X61718531Y-63159693D01*
X61956357Y-63207000D01*
X62198843Y-63207000D01*
X62436669Y-63159693D01*
X62660697Y-63066898D01*
X62862317Y-62932180D01*
X63033780Y-62760717D01*
X63168498Y-62559097D01*
X63261293Y-62335069D01*
X63308600Y-62097243D01*
X63308600Y-61854757D01*
X63261293Y-61616931D01*
X63229358Y-61539833D01*
X66257383Y-58511809D01*
X66286415Y-58547185D01*
X66383106Y-58626537D01*
X66493420Y-58685502D01*
X66613118Y-58721812D01*
X66737600Y-58734072D01*
X66871850Y-58731000D01*
X66904706Y-58698144D01*
X67030598Y-58723014D01*
X67030598Y-58731000D01*
X67071026Y-58731000D01*
X67071598Y-58731113D01*
X67157621Y-58731000D01*
X67284602Y-58731000D01*
X67284602Y-58723138D01*
X67410311Y-58697961D01*
X67443350Y-58731000D01*
X67577600Y-58734072D01*
X67601601Y-58731708D01*
X67601600Y-61807008D01*
X65398609Y-64010000D01*
X63200432Y-64010000D01*
X63168498Y-63932903D01*
X63033780Y-63731283D01*
X62862317Y-63559820D01*
X62660697Y-63425102D01*
X62436669Y-63332307D01*
X62198843Y-63285000D01*
X61956357Y-63285000D01*
X61718531Y-63332307D01*
X61494503Y-63425102D01*
X61292883Y-63559820D01*
X61121420Y-63731283D01*
X60986702Y-63932903D01*
X60893907Y-64156931D01*
X60846600Y-64394757D01*
X60846600Y-64637243D01*
X60893907Y-64875069D01*
X60986702Y-65099097D01*
X61121420Y-65300717D01*
X61292883Y-65472180D01*
X61494503Y-65606898D01*
X61718531Y-65699693D01*
X61956357Y-65747000D01*
X62198843Y-65747000D01*
X62436669Y-65699693D01*
X62660697Y-65606898D01*
X62862317Y-65472180D01*
X63033780Y-65300717D01*
X63168498Y-65099097D01*
X63200432Y-65022000D01*
X65583354Y-65022000D01*
X65608200Y-65024447D01*
X65633046Y-65022000D01*
X65633054Y-65022000D01*
X65707393Y-65014678D01*
X65802775Y-64985745D01*
X65890679Y-64938759D01*
X65967727Y-64875527D01*
X65983576Y-64856215D01*
X68447820Y-62391972D01*
X68467127Y-62376127D01*
X68530359Y-62299079D01*
X68577345Y-62211175D01*
X68606278Y-62115793D01*
X68613600Y-62041454D01*
X68613600Y-62041447D01*
X68616047Y-62016601D01*
X68613600Y-61991755D01*
X68613600Y-58303784D01*
X68628311Y-58291711D01*
X68675922Y-58233696D01*
X68694656Y-58198647D01*
X70080600Y-59584592D01*
X70080601Y-61400144D01*
X70078153Y-61425000D01*
X70087922Y-61524192D01*
X70116855Y-61619574D01*
X70125517Y-61635779D01*
X70163842Y-61707479D01*
X70227074Y-61784527D01*
X70246380Y-61800371D01*
X70762228Y-62316220D01*
X70778073Y-62335527D01*
X70855121Y-62398759D01*
X70931078Y-62439359D01*
X70943025Y-62445745D01*
X71038407Y-62474678D01*
X71114854Y-62482208D01*
X71146702Y-62559097D01*
X71281420Y-62760717D01*
X71452883Y-62932180D01*
X71597894Y-63029073D01*
X71387600Y-63027928D01*
X71263118Y-63040188D01*
X71143420Y-63076498D01*
X71033106Y-63135463D01*
X70936415Y-63214815D01*
X70857063Y-63311506D01*
X70798098Y-63421820D01*
X70761788Y-63541518D01*
X70749528Y-63666000D01*
X70752600Y-64230250D01*
X70911350Y-64389000D01*
X72110600Y-64389000D01*
X72110600Y-64369000D01*
X72364600Y-64369000D01*
X72364600Y-64389000D01*
X72384600Y-64389000D01*
X72384600Y-64643000D01*
X72364600Y-64643000D01*
X72364600Y-64663000D01*
X72110600Y-64663000D01*
X72110600Y-64643000D01*
X70911350Y-64643000D01*
X70752600Y-64801750D01*
X70749528Y-65366000D01*
X70761788Y-65490482D01*
X70798098Y-65610180D01*
X70857063Y-65720494D01*
X70936415Y-65817185D01*
X71033106Y-65896537D01*
X71112173Y-65938800D01*
X60654800Y-65938800D01*
X60654800Y-50393200D01*
X71828046Y-50393200D01*
X71606348Y-50471843D01*
G37*
X71606348Y-50471843D02*
X71356245Y-50620822D01*
X71140012Y-50815731D01*
X70965959Y-51049080D01*
X70840775Y-51311901D01*
X70796124Y-51459110D01*
X70917445Y-51689000D01*
X72110600Y-51689000D01*
X72110600Y-51669000D01*
X72364600Y-51669000D01*
X72364600Y-51689000D01*
X72384600Y-51689000D01*
X72384600Y-51943000D01*
X72364600Y-51943000D01*
X72364600Y-51963000D01*
X72110600Y-51963000D01*
X72110600Y-51943000D01*
X70917445Y-51943000D01*
X70796124Y-52172890D01*
X70840775Y-52320099D01*
X70965959Y-52582920D01*
X71140012Y-52816269D01*
X71356245Y-53011178D01*
X71606348Y-53160157D01*
X71768768Y-53217772D01*
X71654503Y-53265102D01*
X71452883Y-53399820D01*
X71281420Y-53571283D01*
X71146702Y-53772903D01*
X71053907Y-53996931D01*
X71006600Y-54234757D01*
X71006600Y-54477243D01*
X71053907Y-54715069D01*
X71085842Y-54792167D01*
X70488009Y-55390000D01*
X68376313Y-55390000D01*
X68357600Y-55388157D01*
X68133073Y-55388157D01*
X68108137Y-55341506D01*
X68028785Y-55244815D01*
X67932094Y-55165463D01*
X67821780Y-55106498D01*
X67702082Y-55070188D01*
X67577600Y-55057928D01*
X67443350Y-55061000D01*
X67410494Y-55093856D01*
X67284602Y-55068986D01*
X67284602Y-55061000D01*
X67244174Y-55061000D01*
X67243602Y-55060887D01*
X67157579Y-55061000D01*
X67030598Y-55061000D01*
X67030598Y-55068862D01*
X66904889Y-55094039D01*
X66871850Y-55061000D01*
X66737600Y-55057928D01*
X66613118Y-55070188D01*
X66493420Y-55106498D01*
X66383106Y-55165463D01*
X66286415Y-55244815D01*
X66207063Y-55341506D01*
X66182127Y-55388157D01*
X65957600Y-55388157D01*
X65938887Y-55390000D01*
X65917192Y-55390000D01*
X63294893Y-52767702D01*
X63303087Y-52740689D01*
X63310443Y-52666000D01*
X63310443Y-50966000D01*
X63303087Y-50891311D01*
X63281301Y-50819492D01*
X63245922Y-50753304D01*
X63198311Y-50695289D01*
X63140296Y-50647678D01*
X63074108Y-50612299D01*
X63002289Y-50590513D01*
X62927600Y-50583157D01*
X61227600Y-50583157D01*
X61152911Y-50590513D01*
X61081092Y-50612299D01*
X61014904Y-50647678D01*
X60956889Y-50695289D01*
X60909278Y-50753304D01*
X60873899Y-50819492D01*
X60852113Y-50891311D01*
X60844757Y-50966000D01*
X60844757Y-52666000D01*
X60852113Y-52740689D01*
X60873899Y-52812508D01*
X60909278Y-52878696D01*
X60956889Y-52936711D01*
X61014904Y-52984322D01*
X61081092Y-53019701D01*
X61152911Y-53041487D01*
X61227600Y-53048843D01*
X62144852Y-53048843D01*
X62226513Y-53130504D01*
X62198843Y-53125000D01*
X61956357Y-53125000D01*
X61718531Y-53172307D01*
X61494503Y-53265102D01*
X61292883Y-53399820D01*
X61121420Y-53571283D01*
X60986702Y-53772903D01*
X60893907Y-53996931D01*
X60846600Y-54234757D01*
X60846600Y-54477243D01*
X60893907Y-54715069D01*
X60986702Y-54939097D01*
X61121420Y-55140717D01*
X61292883Y-55312180D01*
X61494503Y-55446898D01*
X61718531Y-55539693D01*
X61956357Y-55587000D01*
X62198843Y-55587000D01*
X62436669Y-55539693D01*
X62513767Y-55507758D01*
X63396008Y-56390000D01*
X63200432Y-56390000D01*
X63168498Y-56312903D01*
X63033780Y-56111283D01*
X62862317Y-55939820D01*
X62660697Y-55805102D01*
X62436669Y-55712307D01*
X62198843Y-55665000D01*
X61956357Y-55665000D01*
X61718531Y-55712307D01*
X61494503Y-55805102D01*
X61292883Y-55939820D01*
X61121420Y-56111283D01*
X60986702Y-56312903D01*
X60893907Y-56536931D01*
X60846600Y-56774757D01*
X60846600Y-57017243D01*
X60893907Y-57255069D01*
X60986702Y-57479097D01*
X61121420Y-57680717D01*
X61292883Y-57852180D01*
X61494503Y-57986898D01*
X61718531Y-58079693D01*
X61956357Y-58127000D01*
X62198843Y-58127000D01*
X62436669Y-58079693D01*
X62660697Y-57986898D01*
X62862317Y-57852180D01*
X63033780Y-57680717D01*
X63168498Y-57479097D01*
X63200432Y-57402000D01*
X63396008Y-57402000D01*
X62513767Y-58284242D01*
X62436669Y-58252307D01*
X62198843Y-58205000D01*
X61956357Y-58205000D01*
X61718531Y-58252307D01*
X61494503Y-58345102D01*
X61292883Y-58479820D01*
X61121420Y-58651283D01*
X60986702Y-58852903D01*
X60893907Y-59076931D01*
X60846600Y-59314757D01*
X60846600Y-59557243D01*
X60893907Y-59795069D01*
X60986702Y-60019097D01*
X61121420Y-60220717D01*
X61292883Y-60392180D01*
X61494503Y-60526898D01*
X61718531Y-60619693D01*
X61956357Y-60667000D01*
X62198843Y-60667000D01*
X62436669Y-60619693D01*
X62660697Y-60526898D01*
X62862317Y-60392180D01*
X63033780Y-60220717D01*
X63168498Y-60019097D01*
X63261293Y-59795069D01*
X63308600Y-59557243D01*
X63308600Y-59314757D01*
X63261293Y-59076931D01*
X63229358Y-58999833D01*
X64327192Y-57902000D01*
X65436008Y-57902000D01*
X62513767Y-60824242D01*
X62436669Y-60792307D01*
X62198843Y-60745000D01*
X61956357Y-60745000D01*
X61718531Y-60792307D01*
X61494503Y-60885102D01*
X61292883Y-61019820D01*
X61121420Y-61191283D01*
X60986702Y-61392903D01*
X60893907Y-61616931D01*
X60846600Y-61854757D01*
X60846600Y-62097243D01*
X60893907Y-62335069D01*
X60986702Y-62559097D01*
X61121420Y-62760717D01*
X61292883Y-62932180D01*
X61494503Y-63066898D01*
X61718531Y-63159693D01*
X61956357Y-63207000D01*
X62198843Y-63207000D01*
X62436669Y-63159693D01*
X62660697Y-63066898D01*
X62862317Y-62932180D01*
X63033780Y-62760717D01*
X63168498Y-62559097D01*
X63261293Y-62335069D01*
X63308600Y-62097243D01*
X63308600Y-61854757D01*
X63261293Y-61616931D01*
X63229358Y-61539833D01*
X66257383Y-58511809D01*
X66286415Y-58547185D01*
X66383106Y-58626537D01*
X66493420Y-58685502D01*
X66613118Y-58721812D01*
X66737600Y-58734072D01*
X66871850Y-58731000D01*
X66904706Y-58698144D01*
X67030598Y-58723014D01*
X67030598Y-58731000D01*
X67071026Y-58731000D01*
X67071598Y-58731113D01*
X67157621Y-58731000D01*
X67284602Y-58731000D01*
X67284602Y-58723138D01*
X67410311Y-58697961D01*
X67443350Y-58731000D01*
X67577600Y-58734072D01*
X67601601Y-58731708D01*
X67601600Y-61807008D01*
X65398609Y-64010000D01*
X63200432Y-64010000D01*
X63168498Y-63932903D01*
X63033780Y-63731283D01*
X62862317Y-63559820D01*
X62660697Y-63425102D01*
X62436669Y-63332307D01*
X62198843Y-63285000D01*
X61956357Y-63285000D01*
X61718531Y-63332307D01*
X61494503Y-63425102D01*
X61292883Y-63559820D01*
X61121420Y-63731283D01*
X60986702Y-63932903D01*
X60893907Y-64156931D01*
X60846600Y-64394757D01*
X60846600Y-64637243D01*
X60893907Y-64875069D01*
X60986702Y-65099097D01*
X61121420Y-65300717D01*
X61292883Y-65472180D01*
X61494503Y-65606898D01*
X61718531Y-65699693D01*
X61956357Y-65747000D01*
X62198843Y-65747000D01*
X62436669Y-65699693D01*
X62660697Y-65606898D01*
X62862317Y-65472180D01*
X63033780Y-65300717D01*
X63168498Y-65099097D01*
X63200432Y-65022000D01*
X65583354Y-65022000D01*
X65608200Y-65024447D01*
X65633046Y-65022000D01*
X65633054Y-65022000D01*
X65707393Y-65014678D01*
X65802775Y-64985745D01*
X65890679Y-64938759D01*
X65967727Y-64875527D01*
X65983576Y-64856215D01*
X68447820Y-62391972D01*
X68467127Y-62376127D01*
X68530359Y-62299079D01*
X68577345Y-62211175D01*
X68606278Y-62115793D01*
X68613600Y-62041454D01*
X68613600Y-62041447D01*
X68616047Y-62016601D01*
X68613600Y-61991755D01*
X68613600Y-58303784D01*
X68628311Y-58291711D01*
X68675922Y-58233696D01*
X68694656Y-58198647D01*
X70080600Y-59584592D01*
X70080601Y-61400144D01*
X70078153Y-61425000D01*
X70087922Y-61524192D01*
X70116855Y-61619574D01*
X70125517Y-61635779D01*
X70163842Y-61707479D01*
X70227074Y-61784527D01*
X70246380Y-61800371D01*
X70762228Y-62316220D01*
X70778073Y-62335527D01*
X70855121Y-62398759D01*
X70931078Y-62439359D01*
X70943025Y-62445745D01*
X71038407Y-62474678D01*
X71114854Y-62482208D01*
X71146702Y-62559097D01*
X71281420Y-62760717D01*
X71452883Y-62932180D01*
X71597894Y-63029073D01*
X71387600Y-63027928D01*
X71263118Y-63040188D01*
X71143420Y-63076498D01*
X71033106Y-63135463D01*
X70936415Y-63214815D01*
X70857063Y-63311506D01*
X70798098Y-63421820D01*
X70761788Y-63541518D01*
X70749528Y-63666000D01*
X70752600Y-64230250D01*
X70911350Y-64389000D01*
X72110600Y-64389000D01*
X72110600Y-64369000D01*
X72364600Y-64369000D01*
X72364600Y-64389000D01*
X72384600Y-64389000D01*
X72384600Y-64643000D01*
X72364600Y-64643000D01*
X72364600Y-64663000D01*
X72110600Y-64663000D01*
X72110600Y-64643000D01*
X70911350Y-64643000D01*
X70752600Y-64801750D01*
X70749528Y-65366000D01*
X70761788Y-65490482D01*
X70798098Y-65610180D01*
X70857063Y-65720494D01*
X70936415Y-65817185D01*
X71033106Y-65896537D01*
X71112173Y-65938800D01*
X60654800Y-65938800D01*
X60654800Y-50393200D01*
X71828046Y-50393200D01*
X71606348Y-50471843D01*
G36*
X67071598Y-56831113D02*
G01*
X67245928Y-56830884D01*
X67291289Y-56821799D01*
X67304600Y-56835110D01*
X67304600Y-56956890D01*
X67291200Y-56970290D01*
X67243602Y-56960887D01*
X67069272Y-56961116D01*
X67023911Y-56970201D01*
X67010600Y-56956890D01*
X67010600Y-56835110D01*
X67024000Y-56821710D01*
X67071598Y-56831113D01*
G37*
X67071598Y-56831113D02*
X67245928Y-56830884D01*
X67291289Y-56821799D01*
X67304600Y-56835110D01*
X67304600Y-56956890D01*
X67291200Y-56970290D01*
X67243602Y-56960887D01*
X67069272Y-56961116D01*
X67023911Y-56970201D01*
X67010600Y-56956890D01*
X67010600Y-56835110D01*
X67024000Y-56821710D01*
X67071598Y-56831113D01*
M02*
