G04 #@! TF.GenerationSoftware,KiCad,Pcbnew,(5.1.5-0-10_14)*
G04 #@! TF.CreationDate,2020-06-03T14:43:28-06:00*
G04 #@! TF.ProjectId,TPS62177DQ,54505336-3231-4373-9744-512e6b696361,rev?*
G04 #@! TF.SameCoordinates,Original*
G04 #@! TF.FileFunction,Soldermask,Top*
G04 #@! TF.FilePolarity,Negative*
%FSLAX46Y46*%
G04 Gerber Fmt 4.6, Leading zero omitted, Abs format (unit mm)*
G04 Created by KiCad (PCBNEW (5.1.5-0-10_14)) date 2020-06-03 14:43:28*
%MOMM*%
%LPD*%
G04 APERTURE LIST*
%ADD10C,0.100000*%
G04 APERTURE END LIST*
D10*
G36*
X73138600Y-65417000D02*
G01*
X71336600Y-65417000D01*
X71336600Y-63615000D01*
X73138600Y-63615000D01*
X73138600Y-65417000D01*
G37*
G36*
X62191112Y-63619927D02*
G01*
X62340412Y-63649624D01*
X62504384Y-63717544D01*
X62651954Y-63816147D01*
X62777453Y-63941646D01*
X62876056Y-64089216D01*
X62943976Y-64253188D01*
X62978600Y-64427259D01*
X62978600Y-64604741D01*
X62943976Y-64778812D01*
X62876056Y-64942784D01*
X62777453Y-65090354D01*
X62651954Y-65215853D01*
X62504384Y-65314456D01*
X62340412Y-65382376D01*
X62191112Y-65412073D01*
X62166342Y-65417000D01*
X61988858Y-65417000D01*
X61964088Y-65412073D01*
X61814788Y-65382376D01*
X61650816Y-65314456D01*
X61503246Y-65215853D01*
X61377747Y-65090354D01*
X61279144Y-64942784D01*
X61211224Y-64778812D01*
X61176600Y-64604741D01*
X61176600Y-64427259D01*
X61211224Y-64253188D01*
X61279144Y-64089216D01*
X61377747Y-63941646D01*
X61503246Y-63816147D01*
X61650816Y-63717544D01*
X61814788Y-63649624D01*
X61964088Y-63619927D01*
X61988858Y-63615000D01*
X62166342Y-63615000D01*
X62191112Y-63619927D01*
G37*
G36*
X62191112Y-61079927D02*
G01*
X62340412Y-61109624D01*
X62504384Y-61177544D01*
X62651954Y-61276147D01*
X62777453Y-61401646D01*
X62876056Y-61549216D01*
X62943976Y-61713188D01*
X62978600Y-61887259D01*
X62978600Y-62064741D01*
X62943976Y-62238812D01*
X62876056Y-62402784D01*
X62777453Y-62550354D01*
X62651954Y-62675853D01*
X62504384Y-62774456D01*
X62340412Y-62842376D01*
X62191112Y-62872073D01*
X62166342Y-62877000D01*
X61988858Y-62877000D01*
X61964088Y-62872073D01*
X61814788Y-62842376D01*
X61650816Y-62774456D01*
X61503246Y-62675853D01*
X61377747Y-62550354D01*
X61279144Y-62402784D01*
X61211224Y-62238812D01*
X61176600Y-62064741D01*
X61176600Y-61887259D01*
X61211224Y-61713188D01*
X61279144Y-61549216D01*
X61377747Y-61401646D01*
X61503246Y-61276147D01*
X61650816Y-61177544D01*
X61814788Y-61109624D01*
X61964088Y-61079927D01*
X61988858Y-61075000D01*
X62166342Y-61075000D01*
X62191112Y-61079927D01*
G37*
G36*
X72351112Y-61079927D02*
G01*
X72500412Y-61109624D01*
X72664384Y-61177544D01*
X72811954Y-61276147D01*
X72937453Y-61401646D01*
X73036056Y-61549216D01*
X73103976Y-61713188D01*
X73138600Y-61887259D01*
X73138600Y-62064741D01*
X73103976Y-62238812D01*
X73036056Y-62402784D01*
X72937453Y-62550354D01*
X72811954Y-62675853D01*
X72664384Y-62774456D01*
X72500412Y-62842376D01*
X72351112Y-62872073D01*
X72326342Y-62877000D01*
X72148858Y-62877000D01*
X72124088Y-62872073D01*
X71974788Y-62842376D01*
X71810816Y-62774456D01*
X71663246Y-62675853D01*
X71537747Y-62550354D01*
X71439144Y-62402784D01*
X71371224Y-62238812D01*
X71336600Y-62064741D01*
X71336600Y-61887259D01*
X71371224Y-61713188D01*
X71439144Y-61549216D01*
X71537747Y-61401646D01*
X71663246Y-61276147D01*
X71810816Y-61177544D01*
X71974788Y-61109624D01*
X72124088Y-61079927D01*
X72148858Y-61075000D01*
X72326342Y-61075000D01*
X72351112Y-61079927D01*
G37*
G36*
X62191112Y-58539927D02*
G01*
X62340412Y-58569624D01*
X62504384Y-58637544D01*
X62651954Y-58736147D01*
X62777453Y-58861646D01*
X62876056Y-59009216D01*
X62943976Y-59173188D01*
X62978600Y-59347259D01*
X62978600Y-59524741D01*
X62943976Y-59698812D01*
X62876056Y-59862784D01*
X62777453Y-60010354D01*
X62651954Y-60135853D01*
X62504384Y-60234456D01*
X62340412Y-60302376D01*
X62191112Y-60332073D01*
X62166342Y-60337000D01*
X61988858Y-60337000D01*
X61964088Y-60332073D01*
X61814788Y-60302376D01*
X61650816Y-60234456D01*
X61503246Y-60135853D01*
X61377747Y-60010354D01*
X61279144Y-59862784D01*
X61211224Y-59698812D01*
X61176600Y-59524741D01*
X61176600Y-59347259D01*
X61211224Y-59173188D01*
X61279144Y-59009216D01*
X61377747Y-58861646D01*
X61503246Y-58736147D01*
X61650816Y-58637544D01*
X61814788Y-58569624D01*
X61964088Y-58539927D01*
X61988858Y-58535000D01*
X62166342Y-58535000D01*
X62191112Y-58539927D01*
G37*
G36*
X72351112Y-58539927D02*
G01*
X72500412Y-58569624D01*
X72664384Y-58637544D01*
X72811954Y-58736147D01*
X72937453Y-58861646D01*
X73036056Y-59009216D01*
X73103976Y-59173188D01*
X73138600Y-59347259D01*
X73138600Y-59524741D01*
X73103976Y-59698812D01*
X73036056Y-59862784D01*
X72937453Y-60010354D01*
X72811954Y-60135853D01*
X72664384Y-60234456D01*
X72500412Y-60302376D01*
X72351112Y-60332073D01*
X72326342Y-60337000D01*
X72148858Y-60337000D01*
X72124088Y-60332073D01*
X71974788Y-60302376D01*
X71810816Y-60234456D01*
X71663246Y-60135853D01*
X71537747Y-60010354D01*
X71439144Y-59862784D01*
X71371224Y-59698812D01*
X71336600Y-59524741D01*
X71336600Y-59347259D01*
X71371224Y-59173188D01*
X71439144Y-59009216D01*
X71537747Y-58861646D01*
X71663246Y-58736147D01*
X71810816Y-58637544D01*
X71974788Y-58569624D01*
X72124088Y-58539927D01*
X72148858Y-58535000D01*
X72326342Y-58535000D01*
X72351112Y-58539927D01*
G37*
G36*
X67649666Y-55664447D02*
G01*
X67665211Y-55683389D01*
X67684153Y-55698934D01*
X67705764Y-55710485D01*
X67729213Y-55717598D01*
X67753599Y-55720000D01*
X68408600Y-55720000D01*
X68408600Y-58072000D01*
X67753599Y-58072000D01*
X67729213Y-58074402D01*
X67705764Y-58081515D01*
X67684153Y-58093066D01*
X67665211Y-58108611D01*
X67649666Y-58127553D01*
X67639272Y-58147000D01*
X66675928Y-58147000D01*
X66665534Y-58127553D01*
X66649989Y-58108611D01*
X66631047Y-58093066D01*
X66609436Y-58081515D01*
X66585987Y-58074402D01*
X66561601Y-58072000D01*
X65906600Y-58072000D01*
X65906600Y-55720000D01*
X66561601Y-55720000D01*
X66585987Y-55717598D01*
X66609436Y-55710485D01*
X66631047Y-55698934D01*
X66649989Y-55683389D01*
X66665534Y-55664447D01*
X66675928Y-55645000D01*
X67639272Y-55645000D01*
X67649666Y-55664447D01*
G37*
G36*
X72351112Y-55999927D02*
G01*
X72500412Y-56029624D01*
X72664384Y-56097544D01*
X72811954Y-56196147D01*
X72937453Y-56321646D01*
X73036056Y-56469216D01*
X73103976Y-56633188D01*
X73138600Y-56807259D01*
X73138600Y-56984741D01*
X73103976Y-57158812D01*
X73036056Y-57322784D01*
X72937453Y-57470354D01*
X72811954Y-57595853D01*
X72664384Y-57694456D01*
X72500412Y-57762376D01*
X72351112Y-57792073D01*
X72326342Y-57797000D01*
X72148858Y-57797000D01*
X72124088Y-57792073D01*
X71974788Y-57762376D01*
X71810816Y-57694456D01*
X71663246Y-57595853D01*
X71537747Y-57470354D01*
X71439144Y-57322784D01*
X71371224Y-57158812D01*
X71336600Y-56984741D01*
X71336600Y-56807259D01*
X71371224Y-56633188D01*
X71439144Y-56469216D01*
X71537747Y-56321646D01*
X71663246Y-56196147D01*
X71810816Y-56097544D01*
X71974788Y-56029624D01*
X72124088Y-55999927D01*
X72148858Y-55995000D01*
X72326342Y-55995000D01*
X72351112Y-55999927D01*
G37*
G36*
X62191112Y-55999927D02*
G01*
X62340412Y-56029624D01*
X62504384Y-56097544D01*
X62651954Y-56196147D01*
X62777453Y-56321646D01*
X62876056Y-56469216D01*
X62943976Y-56633188D01*
X62978600Y-56807259D01*
X62978600Y-56984741D01*
X62943976Y-57158812D01*
X62876056Y-57322784D01*
X62777453Y-57470354D01*
X62651954Y-57595853D01*
X62504384Y-57694456D01*
X62340412Y-57762376D01*
X62191112Y-57792073D01*
X62166342Y-57797000D01*
X61988858Y-57797000D01*
X61964088Y-57792073D01*
X61814788Y-57762376D01*
X61650816Y-57694456D01*
X61503246Y-57595853D01*
X61377747Y-57470354D01*
X61279144Y-57322784D01*
X61211224Y-57158812D01*
X61176600Y-56984741D01*
X61176600Y-56807259D01*
X61211224Y-56633188D01*
X61279144Y-56469216D01*
X61377747Y-56321646D01*
X61503246Y-56196147D01*
X61650816Y-56097544D01*
X61814788Y-56029624D01*
X61964088Y-55999927D01*
X61988858Y-55995000D01*
X62166342Y-55995000D01*
X62191112Y-55999927D01*
G37*
G36*
X72351112Y-53459927D02*
G01*
X72500412Y-53489624D01*
X72664384Y-53557544D01*
X72811954Y-53656147D01*
X72937453Y-53781646D01*
X73036056Y-53929216D01*
X73103976Y-54093188D01*
X73138600Y-54267259D01*
X73138600Y-54444741D01*
X73103976Y-54618812D01*
X73036056Y-54782784D01*
X72937453Y-54930354D01*
X72811954Y-55055853D01*
X72664384Y-55154456D01*
X72500412Y-55222376D01*
X72351112Y-55252073D01*
X72326342Y-55257000D01*
X72148858Y-55257000D01*
X72124088Y-55252073D01*
X71974788Y-55222376D01*
X71810816Y-55154456D01*
X71663246Y-55055853D01*
X71537747Y-54930354D01*
X71439144Y-54782784D01*
X71371224Y-54618812D01*
X71336600Y-54444741D01*
X71336600Y-54267259D01*
X71371224Y-54093188D01*
X71439144Y-53929216D01*
X71537747Y-53781646D01*
X71663246Y-53656147D01*
X71810816Y-53557544D01*
X71974788Y-53489624D01*
X72124088Y-53459927D01*
X72148858Y-53455000D01*
X72326342Y-53455000D01*
X72351112Y-53459927D01*
G37*
G36*
X62191112Y-53459927D02*
G01*
X62340412Y-53489624D01*
X62504384Y-53557544D01*
X62651954Y-53656147D01*
X62777453Y-53781646D01*
X62876056Y-53929216D01*
X62943976Y-54093188D01*
X62978600Y-54267259D01*
X62978600Y-54444741D01*
X62943976Y-54618812D01*
X62876056Y-54782784D01*
X62777453Y-54930354D01*
X62651954Y-55055853D01*
X62504384Y-55154456D01*
X62340412Y-55222376D01*
X62191112Y-55252073D01*
X62166342Y-55257000D01*
X61988858Y-55257000D01*
X61964088Y-55252073D01*
X61814788Y-55222376D01*
X61650816Y-55154456D01*
X61503246Y-55055853D01*
X61377747Y-54930354D01*
X61279144Y-54782784D01*
X61211224Y-54618812D01*
X61176600Y-54444741D01*
X61176600Y-54267259D01*
X61211224Y-54093188D01*
X61279144Y-53929216D01*
X61377747Y-53781646D01*
X61503246Y-53656147D01*
X61650816Y-53557544D01*
X61814788Y-53489624D01*
X61964088Y-53459927D01*
X61988858Y-53455000D01*
X62166342Y-53455000D01*
X62191112Y-53459927D01*
G37*
G36*
X72351112Y-50919927D02*
G01*
X72500412Y-50949624D01*
X72664384Y-51017544D01*
X72811954Y-51116147D01*
X72937453Y-51241646D01*
X73036056Y-51389216D01*
X73103976Y-51553188D01*
X73138600Y-51727259D01*
X73138600Y-51904741D01*
X73103976Y-52078812D01*
X73036056Y-52242784D01*
X72937453Y-52390354D01*
X72811954Y-52515853D01*
X72664384Y-52614456D01*
X72500412Y-52682376D01*
X72351112Y-52712073D01*
X72326342Y-52717000D01*
X72148858Y-52717000D01*
X72124088Y-52712073D01*
X71974788Y-52682376D01*
X71810816Y-52614456D01*
X71663246Y-52515853D01*
X71537747Y-52390354D01*
X71439144Y-52242784D01*
X71371224Y-52078812D01*
X71336600Y-51904741D01*
X71336600Y-51727259D01*
X71371224Y-51553188D01*
X71439144Y-51389216D01*
X71537747Y-51241646D01*
X71663246Y-51116147D01*
X71810816Y-51017544D01*
X71974788Y-50949624D01*
X72124088Y-50919927D01*
X72148858Y-50915000D01*
X72326342Y-50915000D01*
X72351112Y-50919927D01*
G37*
G36*
X62978600Y-52717000D02*
G01*
X61176600Y-52717000D01*
X61176600Y-50915000D01*
X62978600Y-50915000D01*
X62978600Y-52717000D01*
G37*
M02*
