G04 #@! TF.GenerationSoftware,KiCad,Pcbnew,(5.1.5-0-10_14)*
G04 #@! TF.CreationDate,2020-06-09T21:28:00-06:00*
G04 #@! TF.ProjectId,WSON-10,57534f4e-2d31-4302-9e6b-696361645f70,rev?*
G04 #@! TF.SameCoordinates,Original*
G04 #@! TF.FileFunction,Soldermask,Bot*
G04 #@! TF.FilePolarity,Negative*
%FSLAX46Y46*%
G04 Gerber Fmt 4.6, Leading zero omitted, Abs format (unit mm)*
G04 Created by KiCad (PCBNEW (5.1.5-0-10_14)) date 2020-06-09 21:28:00*
%MOMM*%
%LPD*%
G04 APERTURE LIST*
%ADD10C,0.100000*%
G04 APERTURE END LIST*
D10*
G36*
X73164000Y-65417000D02*
G01*
X71362000Y-65417000D01*
X71362000Y-63615000D01*
X73164000Y-63615000D01*
X73164000Y-65417000D01*
G37*
G36*
X62216512Y-63619927D02*
G01*
X62365812Y-63649624D01*
X62529784Y-63717544D01*
X62677354Y-63816147D01*
X62802853Y-63941646D01*
X62901456Y-64089216D01*
X62969376Y-64253188D01*
X63004000Y-64427259D01*
X63004000Y-64604741D01*
X62969376Y-64778812D01*
X62901456Y-64942784D01*
X62802853Y-65090354D01*
X62677354Y-65215853D01*
X62529784Y-65314456D01*
X62365812Y-65382376D01*
X62216512Y-65412073D01*
X62191742Y-65417000D01*
X62014258Y-65417000D01*
X61989488Y-65412073D01*
X61840188Y-65382376D01*
X61676216Y-65314456D01*
X61528646Y-65215853D01*
X61403147Y-65090354D01*
X61304544Y-64942784D01*
X61236624Y-64778812D01*
X61202000Y-64604741D01*
X61202000Y-64427259D01*
X61236624Y-64253188D01*
X61304544Y-64089216D01*
X61403147Y-63941646D01*
X61528646Y-63816147D01*
X61676216Y-63717544D01*
X61840188Y-63649624D01*
X61989488Y-63619927D01*
X62014258Y-63615000D01*
X62191742Y-63615000D01*
X62216512Y-63619927D01*
G37*
G36*
X72376512Y-61079927D02*
G01*
X72525812Y-61109624D01*
X72689784Y-61177544D01*
X72837354Y-61276147D01*
X72962853Y-61401646D01*
X73061456Y-61549216D01*
X73129376Y-61713188D01*
X73164000Y-61887259D01*
X73164000Y-62064741D01*
X73129376Y-62238812D01*
X73061456Y-62402784D01*
X72962853Y-62550354D01*
X72837354Y-62675853D01*
X72689784Y-62774456D01*
X72525812Y-62842376D01*
X72376512Y-62872073D01*
X72351742Y-62877000D01*
X72174258Y-62877000D01*
X72149488Y-62872073D01*
X72000188Y-62842376D01*
X71836216Y-62774456D01*
X71688646Y-62675853D01*
X71563147Y-62550354D01*
X71464544Y-62402784D01*
X71396624Y-62238812D01*
X71362000Y-62064741D01*
X71362000Y-61887259D01*
X71396624Y-61713188D01*
X71464544Y-61549216D01*
X71563147Y-61401646D01*
X71688646Y-61276147D01*
X71836216Y-61177544D01*
X72000188Y-61109624D01*
X72149488Y-61079927D01*
X72174258Y-61075000D01*
X72351742Y-61075000D01*
X72376512Y-61079927D01*
G37*
G36*
X62216512Y-61079927D02*
G01*
X62365812Y-61109624D01*
X62529784Y-61177544D01*
X62677354Y-61276147D01*
X62802853Y-61401646D01*
X62901456Y-61549216D01*
X62969376Y-61713188D01*
X63004000Y-61887259D01*
X63004000Y-62064741D01*
X62969376Y-62238812D01*
X62901456Y-62402784D01*
X62802853Y-62550354D01*
X62677354Y-62675853D01*
X62529784Y-62774456D01*
X62365812Y-62842376D01*
X62216512Y-62872073D01*
X62191742Y-62877000D01*
X62014258Y-62877000D01*
X61989488Y-62872073D01*
X61840188Y-62842376D01*
X61676216Y-62774456D01*
X61528646Y-62675853D01*
X61403147Y-62550354D01*
X61304544Y-62402784D01*
X61236624Y-62238812D01*
X61202000Y-62064741D01*
X61202000Y-61887259D01*
X61236624Y-61713188D01*
X61304544Y-61549216D01*
X61403147Y-61401646D01*
X61528646Y-61276147D01*
X61676216Y-61177544D01*
X61840188Y-61109624D01*
X61989488Y-61079927D01*
X62014258Y-61075000D01*
X62191742Y-61075000D01*
X62216512Y-61079927D01*
G37*
G36*
X72376512Y-58539927D02*
G01*
X72525812Y-58569624D01*
X72689784Y-58637544D01*
X72837354Y-58736147D01*
X72962853Y-58861646D01*
X73061456Y-59009216D01*
X73129376Y-59173188D01*
X73164000Y-59347259D01*
X73164000Y-59524741D01*
X73129376Y-59698812D01*
X73061456Y-59862784D01*
X72962853Y-60010354D01*
X72837354Y-60135853D01*
X72689784Y-60234456D01*
X72525812Y-60302376D01*
X72376512Y-60332073D01*
X72351742Y-60337000D01*
X72174258Y-60337000D01*
X72149488Y-60332073D01*
X72000188Y-60302376D01*
X71836216Y-60234456D01*
X71688646Y-60135853D01*
X71563147Y-60010354D01*
X71464544Y-59862784D01*
X71396624Y-59698812D01*
X71362000Y-59524741D01*
X71362000Y-59347259D01*
X71396624Y-59173188D01*
X71464544Y-59009216D01*
X71563147Y-58861646D01*
X71688646Y-58736147D01*
X71836216Y-58637544D01*
X72000188Y-58569624D01*
X72149488Y-58539927D01*
X72174258Y-58535000D01*
X72351742Y-58535000D01*
X72376512Y-58539927D01*
G37*
G36*
X62216512Y-58539927D02*
G01*
X62365812Y-58569624D01*
X62529784Y-58637544D01*
X62677354Y-58736147D01*
X62802853Y-58861646D01*
X62901456Y-59009216D01*
X62969376Y-59173188D01*
X63004000Y-59347259D01*
X63004000Y-59524741D01*
X62969376Y-59698812D01*
X62901456Y-59862784D01*
X62802853Y-60010354D01*
X62677354Y-60135853D01*
X62529784Y-60234456D01*
X62365812Y-60302376D01*
X62216512Y-60332073D01*
X62191742Y-60337000D01*
X62014258Y-60337000D01*
X61989488Y-60332073D01*
X61840188Y-60302376D01*
X61676216Y-60234456D01*
X61528646Y-60135853D01*
X61403147Y-60010354D01*
X61304544Y-59862784D01*
X61236624Y-59698812D01*
X61202000Y-59524741D01*
X61202000Y-59347259D01*
X61236624Y-59173188D01*
X61304544Y-59009216D01*
X61403147Y-58861646D01*
X61528646Y-58736147D01*
X61676216Y-58637544D01*
X61840188Y-58569624D01*
X61989488Y-58539927D01*
X62014258Y-58535000D01*
X62191742Y-58535000D01*
X62216512Y-58539927D01*
G37*
G36*
X72376512Y-55999927D02*
G01*
X72525812Y-56029624D01*
X72689784Y-56097544D01*
X72837354Y-56196147D01*
X72962853Y-56321646D01*
X73061456Y-56469216D01*
X73129376Y-56633188D01*
X73164000Y-56807259D01*
X73164000Y-56984741D01*
X73129376Y-57158812D01*
X73061456Y-57322784D01*
X72962853Y-57470354D01*
X72837354Y-57595853D01*
X72689784Y-57694456D01*
X72525812Y-57762376D01*
X72376512Y-57792073D01*
X72351742Y-57797000D01*
X72174258Y-57797000D01*
X72149488Y-57792073D01*
X72000188Y-57762376D01*
X71836216Y-57694456D01*
X71688646Y-57595853D01*
X71563147Y-57470354D01*
X71464544Y-57322784D01*
X71396624Y-57158812D01*
X71362000Y-56984741D01*
X71362000Y-56807259D01*
X71396624Y-56633188D01*
X71464544Y-56469216D01*
X71563147Y-56321646D01*
X71688646Y-56196147D01*
X71836216Y-56097544D01*
X72000188Y-56029624D01*
X72149488Y-55999927D01*
X72174258Y-55995000D01*
X72351742Y-55995000D01*
X72376512Y-55999927D01*
G37*
G36*
X62216512Y-55999927D02*
G01*
X62365812Y-56029624D01*
X62529784Y-56097544D01*
X62677354Y-56196147D01*
X62802853Y-56321646D01*
X62901456Y-56469216D01*
X62969376Y-56633188D01*
X63004000Y-56807259D01*
X63004000Y-56984741D01*
X62969376Y-57158812D01*
X62901456Y-57322784D01*
X62802853Y-57470354D01*
X62677354Y-57595853D01*
X62529784Y-57694456D01*
X62365812Y-57762376D01*
X62216512Y-57792073D01*
X62191742Y-57797000D01*
X62014258Y-57797000D01*
X61989488Y-57792073D01*
X61840188Y-57762376D01*
X61676216Y-57694456D01*
X61528646Y-57595853D01*
X61403147Y-57470354D01*
X61304544Y-57322784D01*
X61236624Y-57158812D01*
X61202000Y-56984741D01*
X61202000Y-56807259D01*
X61236624Y-56633188D01*
X61304544Y-56469216D01*
X61403147Y-56321646D01*
X61528646Y-56196147D01*
X61676216Y-56097544D01*
X61840188Y-56029624D01*
X61989488Y-55999927D01*
X62014258Y-55995000D01*
X62191742Y-55995000D01*
X62216512Y-55999927D01*
G37*
G36*
X72376512Y-53459927D02*
G01*
X72525812Y-53489624D01*
X72689784Y-53557544D01*
X72837354Y-53656147D01*
X72962853Y-53781646D01*
X73061456Y-53929216D01*
X73129376Y-54093188D01*
X73164000Y-54267259D01*
X73164000Y-54444741D01*
X73129376Y-54618812D01*
X73061456Y-54782784D01*
X72962853Y-54930354D01*
X72837354Y-55055853D01*
X72689784Y-55154456D01*
X72525812Y-55222376D01*
X72376512Y-55252073D01*
X72351742Y-55257000D01*
X72174258Y-55257000D01*
X72149488Y-55252073D01*
X72000188Y-55222376D01*
X71836216Y-55154456D01*
X71688646Y-55055853D01*
X71563147Y-54930354D01*
X71464544Y-54782784D01*
X71396624Y-54618812D01*
X71362000Y-54444741D01*
X71362000Y-54267259D01*
X71396624Y-54093188D01*
X71464544Y-53929216D01*
X71563147Y-53781646D01*
X71688646Y-53656147D01*
X71836216Y-53557544D01*
X72000188Y-53489624D01*
X72149488Y-53459927D01*
X72174258Y-53455000D01*
X72351742Y-53455000D01*
X72376512Y-53459927D01*
G37*
G36*
X62216512Y-53459927D02*
G01*
X62365812Y-53489624D01*
X62529784Y-53557544D01*
X62677354Y-53656147D01*
X62802853Y-53781646D01*
X62901456Y-53929216D01*
X62969376Y-54093188D01*
X63004000Y-54267259D01*
X63004000Y-54444741D01*
X62969376Y-54618812D01*
X62901456Y-54782784D01*
X62802853Y-54930354D01*
X62677354Y-55055853D01*
X62529784Y-55154456D01*
X62365812Y-55222376D01*
X62216512Y-55252073D01*
X62191742Y-55257000D01*
X62014258Y-55257000D01*
X61989488Y-55252073D01*
X61840188Y-55222376D01*
X61676216Y-55154456D01*
X61528646Y-55055853D01*
X61403147Y-54930354D01*
X61304544Y-54782784D01*
X61236624Y-54618812D01*
X61202000Y-54444741D01*
X61202000Y-54267259D01*
X61236624Y-54093188D01*
X61304544Y-53929216D01*
X61403147Y-53781646D01*
X61528646Y-53656147D01*
X61676216Y-53557544D01*
X61840188Y-53489624D01*
X61989488Y-53459927D01*
X62014258Y-53455000D01*
X62191742Y-53455000D01*
X62216512Y-53459927D01*
G37*
G36*
X72376512Y-50919927D02*
G01*
X72525812Y-50949624D01*
X72689784Y-51017544D01*
X72837354Y-51116147D01*
X72962853Y-51241646D01*
X73061456Y-51389216D01*
X73129376Y-51553188D01*
X73164000Y-51727259D01*
X73164000Y-51904741D01*
X73129376Y-52078812D01*
X73061456Y-52242784D01*
X72962853Y-52390354D01*
X72837354Y-52515853D01*
X72689784Y-52614456D01*
X72525812Y-52682376D01*
X72376512Y-52712073D01*
X72351742Y-52717000D01*
X72174258Y-52717000D01*
X72149488Y-52712073D01*
X72000188Y-52682376D01*
X71836216Y-52614456D01*
X71688646Y-52515853D01*
X71563147Y-52390354D01*
X71464544Y-52242784D01*
X71396624Y-52078812D01*
X71362000Y-51904741D01*
X71362000Y-51727259D01*
X71396624Y-51553188D01*
X71464544Y-51389216D01*
X71563147Y-51241646D01*
X71688646Y-51116147D01*
X71836216Y-51017544D01*
X72000188Y-50949624D01*
X72149488Y-50919927D01*
X72174258Y-50915000D01*
X72351742Y-50915000D01*
X72376512Y-50919927D01*
G37*
G36*
X63004000Y-52717000D02*
G01*
X61202000Y-52717000D01*
X61202000Y-50915000D01*
X63004000Y-50915000D01*
X63004000Y-52717000D01*
G37*
M02*
