G04 #@! TF.GenerationSoftware,KiCad,Pcbnew,(5.1.5-0-10_14)*
G04 #@! TF.CreationDate,2020-06-09T21:28:00-06:00*
G04 #@! TF.ProjectId,WSON-10,57534f4e-2d31-4302-9e6b-696361645f70,rev?*
G04 #@! TF.SameCoordinates,Original*
G04 #@! TF.FileFunction,Copper,L1,Top*
G04 #@! TF.FilePolarity,Positive*
%FSLAX46Y46*%
G04 Gerber Fmt 4.6, Leading zero omitted, Abs format (unit mm)*
G04 Created by KiCad (PCBNEW (5.1.5-0-10_14)) date 2020-06-09 21:28:00*
%MOMM*%
%LPD*%
G04 APERTURE LIST*
%ADD10R,0.840000X2.400000*%
%ADD11R,0.500000X0.250000*%
%ADD12C,0.500000*%
%ADD13O,1.700000X1.700000*%
%ADD14R,1.700000X1.700000*%
%ADD15C,0.840000*%
%ADD16C,0.250000*%
%ADD17C,0.254000*%
G04 APERTURE END LIST*
D10*
X67183000Y-58166000D03*
D11*
X68133000Y-57166000D03*
X68133000Y-57666000D03*
X68133000Y-58166000D03*
X68133000Y-58666000D03*
X68133000Y-59166000D03*
X66233000Y-59166000D03*
X66233000Y-58666000D03*
X66233000Y-58166000D03*
X66233000Y-57666000D03*
X66233000Y-57166000D03*
D12*
X67183000Y-58166000D03*
X67183000Y-57216000D03*
X67183000Y-59116000D03*
D13*
X72263000Y-51816000D03*
X72263000Y-54356000D03*
X72263000Y-56896000D03*
X72263000Y-59436000D03*
X72263000Y-61976000D03*
D14*
X72263000Y-64516000D03*
D13*
X62103000Y-64516000D03*
X62103000Y-61976000D03*
X62103000Y-59436000D03*
X62103000Y-56896000D03*
X62103000Y-54356000D03*
D14*
X62103000Y-51816000D03*
D15*
X67183000Y-58166000D02*
X67183000Y-55693919D01*
D16*
X69453000Y-57166000D02*
X72263000Y-54356000D01*
X68133000Y-57166000D02*
X69453000Y-57166000D01*
X71493000Y-57666000D02*
X72263000Y-56896000D01*
X68133000Y-57666000D02*
X71493000Y-57666000D01*
X70993000Y-58166000D02*
X72263000Y-59436000D01*
X68133000Y-58166000D02*
X70993000Y-58166000D01*
X68953000Y-58666000D02*
X72263000Y-61976000D01*
X68133000Y-58666000D02*
X68953000Y-58666000D01*
X68133000Y-59688081D02*
X68133000Y-59116001D01*
X63305081Y-64516000D02*
X68133000Y-59688081D01*
X62103000Y-64516000D02*
X63305081Y-64516000D01*
X63798000Y-61976000D02*
X63305081Y-61976000D01*
X63305081Y-61976000D02*
X62103000Y-61976000D01*
X66233000Y-59541000D02*
X63798000Y-61976000D01*
X66233000Y-59166000D02*
X66233000Y-59541000D01*
X63373000Y-58166000D02*
X62103000Y-56896000D01*
X66233000Y-58166000D02*
X63373000Y-58166000D01*
X65413000Y-57666000D02*
X62103000Y-54356000D01*
X66233000Y-57666000D02*
X65413000Y-57666000D01*
X63203000Y-51816000D02*
X62103000Y-51816000D01*
X66233000Y-54846000D02*
X63203000Y-51816000D01*
X66233000Y-57166000D02*
X66233000Y-54846000D01*
X62873000Y-58666000D02*
X62103000Y-59436000D01*
X66233000Y-58666000D02*
X62873000Y-58666000D01*
D17*
G36*
X71631748Y-50471843D02*
G01*
X71381645Y-50620822D01*
X71165412Y-50815731D01*
X70991359Y-51049080D01*
X70866175Y-51311901D01*
X70821524Y-51459110D01*
X70942845Y-51689000D01*
X72136000Y-51689000D01*
X72136000Y-51669000D01*
X72390000Y-51669000D01*
X72390000Y-51689000D01*
X72410000Y-51689000D01*
X72410000Y-51943000D01*
X72390000Y-51943000D01*
X72390000Y-51963000D01*
X72136000Y-51963000D01*
X72136000Y-51943000D01*
X70942845Y-51943000D01*
X70821524Y-52172890D01*
X70866175Y-52320099D01*
X70991359Y-52582920D01*
X71165412Y-52816269D01*
X71381645Y-53011178D01*
X71631748Y-53160157D01*
X71794168Y-53217772D01*
X71679903Y-53265102D01*
X71478283Y-53399820D01*
X71306820Y-53571283D01*
X71172102Y-53772903D01*
X71079307Y-53996931D01*
X71032000Y-54234757D01*
X71032000Y-54477243D01*
X71079307Y-54715069D01*
X71111242Y-54792167D01*
X69243409Y-56660000D01*
X68401713Y-56660000D01*
X68383000Y-56658157D01*
X68158473Y-56658157D01*
X68133537Y-56611506D01*
X68054185Y-56514815D01*
X67957494Y-56435463D01*
X67847180Y-56376498D01*
X67727482Y-56340188D01*
X67603000Y-56327928D01*
X67468750Y-56331000D01*
X67435894Y-56363856D01*
X67310002Y-56338986D01*
X67310002Y-56331000D01*
X67269574Y-56331000D01*
X67269002Y-56330887D01*
X67182979Y-56331000D01*
X67055998Y-56331000D01*
X67055998Y-56338862D01*
X66930289Y-56364039D01*
X66897250Y-56331000D01*
X66763000Y-56327928D01*
X66739000Y-56330292D01*
X66739000Y-54870845D01*
X66741447Y-54845999D01*
X66739000Y-54821153D01*
X66739000Y-54821146D01*
X66731678Y-54746807D01*
X66702745Y-54651425D01*
X66655759Y-54563521D01*
X66592527Y-54486473D01*
X66573220Y-54470628D01*
X63578376Y-51475785D01*
X63562527Y-51456473D01*
X63485479Y-51393241D01*
X63397575Y-51346255D01*
X63335843Y-51327529D01*
X63335843Y-50966000D01*
X63328487Y-50891311D01*
X63306701Y-50819492D01*
X63271322Y-50753304D01*
X63223711Y-50695289D01*
X63165696Y-50647678D01*
X63099508Y-50612299D01*
X63027689Y-50590513D01*
X62953000Y-50583157D01*
X61253000Y-50583157D01*
X61178311Y-50590513D01*
X61106492Y-50612299D01*
X61040304Y-50647678D01*
X60982289Y-50695289D01*
X60934678Y-50753304D01*
X60899299Y-50819492D01*
X60877513Y-50891311D01*
X60870157Y-50966000D01*
X60870157Y-52666000D01*
X60877513Y-52740689D01*
X60899299Y-52812508D01*
X60934678Y-52878696D01*
X60982289Y-52936711D01*
X61040304Y-52984322D01*
X61106492Y-53019701D01*
X61178311Y-53041487D01*
X61253000Y-53048843D01*
X62953000Y-53048843D01*
X63027689Y-53041487D01*
X63099508Y-53019701D01*
X63165696Y-52984322D01*
X63223711Y-52936711D01*
X63271322Y-52878696D01*
X63306701Y-52812508D01*
X63328487Y-52740689D01*
X63335843Y-52666000D01*
X63335843Y-52664434D01*
X65727001Y-55055593D01*
X65727000Y-56758216D01*
X65712289Y-56770289D01*
X65664678Y-56828304D01*
X65629299Y-56894492D01*
X65607513Y-56966311D01*
X65600157Y-57041000D01*
X65600157Y-57137565D01*
X63254758Y-54792167D01*
X63286693Y-54715069D01*
X63334000Y-54477243D01*
X63334000Y-54234757D01*
X63286693Y-53996931D01*
X63193898Y-53772903D01*
X63059180Y-53571283D01*
X62887717Y-53399820D01*
X62686097Y-53265102D01*
X62462069Y-53172307D01*
X62224243Y-53125000D01*
X61981757Y-53125000D01*
X61743931Y-53172307D01*
X61519903Y-53265102D01*
X61318283Y-53399820D01*
X61146820Y-53571283D01*
X61012102Y-53772903D01*
X60919307Y-53996931D01*
X60872000Y-54234757D01*
X60872000Y-54477243D01*
X60919307Y-54715069D01*
X61012102Y-54939097D01*
X61146820Y-55140717D01*
X61318283Y-55312180D01*
X61519903Y-55446898D01*
X61743931Y-55539693D01*
X61981757Y-55587000D01*
X62224243Y-55587000D01*
X62462069Y-55539693D01*
X62539167Y-55507758D01*
X64691408Y-57660000D01*
X63582592Y-57660000D01*
X63254758Y-57332167D01*
X63286693Y-57255069D01*
X63334000Y-57017243D01*
X63334000Y-56774757D01*
X63286693Y-56536931D01*
X63193898Y-56312903D01*
X63059180Y-56111283D01*
X62887717Y-55939820D01*
X62686097Y-55805102D01*
X62462069Y-55712307D01*
X62224243Y-55665000D01*
X61981757Y-55665000D01*
X61743931Y-55712307D01*
X61519903Y-55805102D01*
X61318283Y-55939820D01*
X61146820Y-56111283D01*
X61012102Y-56312903D01*
X60919307Y-56536931D01*
X60872000Y-56774757D01*
X60872000Y-57017243D01*
X60919307Y-57255069D01*
X61012102Y-57479097D01*
X61146820Y-57680717D01*
X61318283Y-57852180D01*
X61519903Y-57986898D01*
X61743931Y-58079693D01*
X61981757Y-58127000D01*
X62224243Y-58127000D01*
X62462069Y-58079693D01*
X62539167Y-58047758D01*
X62685513Y-58194105D01*
X62678425Y-58196255D01*
X62590521Y-58243241D01*
X62540094Y-58284626D01*
X62462069Y-58252307D01*
X62224243Y-58205000D01*
X61981757Y-58205000D01*
X61743931Y-58252307D01*
X61519903Y-58345102D01*
X61318283Y-58479820D01*
X61146820Y-58651283D01*
X61012102Y-58852903D01*
X60919307Y-59076931D01*
X60872000Y-59314757D01*
X60872000Y-59557243D01*
X60919307Y-59795069D01*
X61012102Y-60019097D01*
X61146820Y-60220717D01*
X61318283Y-60392180D01*
X61519903Y-60526898D01*
X61743931Y-60619693D01*
X61981757Y-60667000D01*
X62224243Y-60667000D01*
X62462069Y-60619693D01*
X62686097Y-60526898D01*
X62887717Y-60392180D01*
X63059180Y-60220717D01*
X63193898Y-60019097D01*
X63286693Y-59795069D01*
X63334000Y-59557243D01*
X63334000Y-59314757D01*
X63305604Y-59172000D01*
X65600157Y-59172000D01*
X65600157Y-59291000D01*
X65607513Y-59365689D01*
X65627344Y-59431064D01*
X63588409Y-61470000D01*
X63225832Y-61470000D01*
X63193898Y-61392903D01*
X63059180Y-61191283D01*
X62887717Y-61019820D01*
X62686097Y-60885102D01*
X62462069Y-60792307D01*
X62224243Y-60745000D01*
X61981757Y-60745000D01*
X61743931Y-60792307D01*
X61519903Y-60885102D01*
X61318283Y-61019820D01*
X61146820Y-61191283D01*
X61012102Y-61392903D01*
X60919307Y-61616931D01*
X60872000Y-61854757D01*
X60872000Y-62097243D01*
X60919307Y-62335069D01*
X61012102Y-62559097D01*
X61146820Y-62760717D01*
X61318283Y-62932180D01*
X61519903Y-63066898D01*
X61743931Y-63159693D01*
X61981757Y-63207000D01*
X62224243Y-63207000D01*
X62462069Y-63159693D01*
X62686097Y-63066898D01*
X62887717Y-62932180D01*
X63059180Y-62760717D01*
X63193898Y-62559097D01*
X63225832Y-62482000D01*
X63773154Y-62482000D01*
X63798000Y-62484447D01*
X63822846Y-62482000D01*
X63822854Y-62482000D01*
X63897193Y-62474678D01*
X63992575Y-62445745D01*
X64080479Y-62398759D01*
X64157527Y-62335527D01*
X64173376Y-62316215D01*
X66530536Y-59959056D01*
X66638518Y-59991812D01*
X66763000Y-60004072D01*
X66897250Y-60001000D01*
X66930106Y-59968144D01*
X67055998Y-59993014D01*
X67055998Y-60001000D01*
X67096426Y-60001000D01*
X67096998Y-60001113D01*
X67104386Y-60001103D01*
X63185362Y-63920128D01*
X63059180Y-63731283D01*
X62887717Y-63559820D01*
X62686097Y-63425102D01*
X62462069Y-63332307D01*
X62224243Y-63285000D01*
X61981757Y-63285000D01*
X61743931Y-63332307D01*
X61519903Y-63425102D01*
X61318283Y-63559820D01*
X61146820Y-63731283D01*
X61012102Y-63932903D01*
X60919307Y-64156931D01*
X60872000Y-64394757D01*
X60872000Y-64637243D01*
X60919307Y-64875069D01*
X61012102Y-65099097D01*
X61146820Y-65300717D01*
X61318283Y-65472180D01*
X61519903Y-65606898D01*
X61743931Y-65699693D01*
X61981757Y-65747000D01*
X62224243Y-65747000D01*
X62462069Y-65699693D01*
X62686097Y-65606898D01*
X62887717Y-65472180D01*
X63059180Y-65300717D01*
X63193898Y-65099097D01*
X63225832Y-65022000D01*
X63280235Y-65022000D01*
X63305081Y-65024447D01*
X63329927Y-65022000D01*
X63329935Y-65022000D01*
X63404274Y-65014678D01*
X63499656Y-64985745D01*
X63587560Y-64938759D01*
X63664608Y-64875527D01*
X63680457Y-64856215D01*
X68473220Y-60063453D01*
X68492527Y-60047608D01*
X68555759Y-59970560D01*
X68602745Y-59882656D01*
X68631678Y-59787274D01*
X68639000Y-59712935D01*
X68639000Y-59712934D01*
X68641448Y-59688081D01*
X68639000Y-59663227D01*
X68639000Y-59573784D01*
X68653711Y-59561711D01*
X68701322Y-59503696D01*
X68736701Y-59437508D01*
X68758487Y-59365689D01*
X68765843Y-59291000D01*
X68765843Y-59194434D01*
X71111242Y-61539833D01*
X71079307Y-61616931D01*
X71032000Y-61854757D01*
X71032000Y-62097243D01*
X71079307Y-62335069D01*
X71172102Y-62559097D01*
X71306820Y-62760717D01*
X71478283Y-62932180D01*
X71623294Y-63029073D01*
X71413000Y-63027928D01*
X71288518Y-63040188D01*
X71168820Y-63076498D01*
X71058506Y-63135463D01*
X70961815Y-63214815D01*
X70882463Y-63311506D01*
X70823498Y-63421820D01*
X70787188Y-63541518D01*
X70774928Y-63666000D01*
X70778000Y-64230250D01*
X70936750Y-64389000D01*
X72136000Y-64389000D01*
X72136000Y-64369000D01*
X72390000Y-64369000D01*
X72390000Y-64389000D01*
X72410000Y-64389000D01*
X72410000Y-64643000D01*
X72390000Y-64643000D01*
X72390000Y-64663000D01*
X72136000Y-64663000D01*
X72136000Y-64643000D01*
X70936750Y-64643000D01*
X70778000Y-64801750D01*
X70774928Y-65366000D01*
X70787188Y-65490482D01*
X70823498Y-65610180D01*
X70882463Y-65720494D01*
X70961815Y-65817185D01*
X71058506Y-65896537D01*
X71137573Y-65938800D01*
X60654800Y-65938800D01*
X60654800Y-50393200D01*
X71853446Y-50393200D01*
X71631748Y-50471843D01*
G37*
X71631748Y-50471843D02*
X71381645Y-50620822D01*
X71165412Y-50815731D01*
X70991359Y-51049080D01*
X70866175Y-51311901D01*
X70821524Y-51459110D01*
X70942845Y-51689000D01*
X72136000Y-51689000D01*
X72136000Y-51669000D01*
X72390000Y-51669000D01*
X72390000Y-51689000D01*
X72410000Y-51689000D01*
X72410000Y-51943000D01*
X72390000Y-51943000D01*
X72390000Y-51963000D01*
X72136000Y-51963000D01*
X72136000Y-51943000D01*
X70942845Y-51943000D01*
X70821524Y-52172890D01*
X70866175Y-52320099D01*
X70991359Y-52582920D01*
X71165412Y-52816269D01*
X71381645Y-53011178D01*
X71631748Y-53160157D01*
X71794168Y-53217772D01*
X71679903Y-53265102D01*
X71478283Y-53399820D01*
X71306820Y-53571283D01*
X71172102Y-53772903D01*
X71079307Y-53996931D01*
X71032000Y-54234757D01*
X71032000Y-54477243D01*
X71079307Y-54715069D01*
X71111242Y-54792167D01*
X69243409Y-56660000D01*
X68401713Y-56660000D01*
X68383000Y-56658157D01*
X68158473Y-56658157D01*
X68133537Y-56611506D01*
X68054185Y-56514815D01*
X67957494Y-56435463D01*
X67847180Y-56376498D01*
X67727482Y-56340188D01*
X67603000Y-56327928D01*
X67468750Y-56331000D01*
X67435894Y-56363856D01*
X67310002Y-56338986D01*
X67310002Y-56331000D01*
X67269574Y-56331000D01*
X67269002Y-56330887D01*
X67182979Y-56331000D01*
X67055998Y-56331000D01*
X67055998Y-56338862D01*
X66930289Y-56364039D01*
X66897250Y-56331000D01*
X66763000Y-56327928D01*
X66739000Y-56330292D01*
X66739000Y-54870845D01*
X66741447Y-54845999D01*
X66739000Y-54821153D01*
X66739000Y-54821146D01*
X66731678Y-54746807D01*
X66702745Y-54651425D01*
X66655759Y-54563521D01*
X66592527Y-54486473D01*
X66573220Y-54470628D01*
X63578376Y-51475785D01*
X63562527Y-51456473D01*
X63485479Y-51393241D01*
X63397575Y-51346255D01*
X63335843Y-51327529D01*
X63335843Y-50966000D01*
X63328487Y-50891311D01*
X63306701Y-50819492D01*
X63271322Y-50753304D01*
X63223711Y-50695289D01*
X63165696Y-50647678D01*
X63099508Y-50612299D01*
X63027689Y-50590513D01*
X62953000Y-50583157D01*
X61253000Y-50583157D01*
X61178311Y-50590513D01*
X61106492Y-50612299D01*
X61040304Y-50647678D01*
X60982289Y-50695289D01*
X60934678Y-50753304D01*
X60899299Y-50819492D01*
X60877513Y-50891311D01*
X60870157Y-50966000D01*
X60870157Y-52666000D01*
X60877513Y-52740689D01*
X60899299Y-52812508D01*
X60934678Y-52878696D01*
X60982289Y-52936711D01*
X61040304Y-52984322D01*
X61106492Y-53019701D01*
X61178311Y-53041487D01*
X61253000Y-53048843D01*
X62953000Y-53048843D01*
X63027689Y-53041487D01*
X63099508Y-53019701D01*
X63165696Y-52984322D01*
X63223711Y-52936711D01*
X63271322Y-52878696D01*
X63306701Y-52812508D01*
X63328487Y-52740689D01*
X63335843Y-52666000D01*
X63335843Y-52664434D01*
X65727001Y-55055593D01*
X65727000Y-56758216D01*
X65712289Y-56770289D01*
X65664678Y-56828304D01*
X65629299Y-56894492D01*
X65607513Y-56966311D01*
X65600157Y-57041000D01*
X65600157Y-57137565D01*
X63254758Y-54792167D01*
X63286693Y-54715069D01*
X63334000Y-54477243D01*
X63334000Y-54234757D01*
X63286693Y-53996931D01*
X63193898Y-53772903D01*
X63059180Y-53571283D01*
X62887717Y-53399820D01*
X62686097Y-53265102D01*
X62462069Y-53172307D01*
X62224243Y-53125000D01*
X61981757Y-53125000D01*
X61743931Y-53172307D01*
X61519903Y-53265102D01*
X61318283Y-53399820D01*
X61146820Y-53571283D01*
X61012102Y-53772903D01*
X60919307Y-53996931D01*
X60872000Y-54234757D01*
X60872000Y-54477243D01*
X60919307Y-54715069D01*
X61012102Y-54939097D01*
X61146820Y-55140717D01*
X61318283Y-55312180D01*
X61519903Y-55446898D01*
X61743931Y-55539693D01*
X61981757Y-55587000D01*
X62224243Y-55587000D01*
X62462069Y-55539693D01*
X62539167Y-55507758D01*
X64691408Y-57660000D01*
X63582592Y-57660000D01*
X63254758Y-57332167D01*
X63286693Y-57255069D01*
X63334000Y-57017243D01*
X63334000Y-56774757D01*
X63286693Y-56536931D01*
X63193898Y-56312903D01*
X63059180Y-56111283D01*
X62887717Y-55939820D01*
X62686097Y-55805102D01*
X62462069Y-55712307D01*
X62224243Y-55665000D01*
X61981757Y-55665000D01*
X61743931Y-55712307D01*
X61519903Y-55805102D01*
X61318283Y-55939820D01*
X61146820Y-56111283D01*
X61012102Y-56312903D01*
X60919307Y-56536931D01*
X60872000Y-56774757D01*
X60872000Y-57017243D01*
X60919307Y-57255069D01*
X61012102Y-57479097D01*
X61146820Y-57680717D01*
X61318283Y-57852180D01*
X61519903Y-57986898D01*
X61743931Y-58079693D01*
X61981757Y-58127000D01*
X62224243Y-58127000D01*
X62462069Y-58079693D01*
X62539167Y-58047758D01*
X62685513Y-58194105D01*
X62678425Y-58196255D01*
X62590521Y-58243241D01*
X62540094Y-58284626D01*
X62462069Y-58252307D01*
X62224243Y-58205000D01*
X61981757Y-58205000D01*
X61743931Y-58252307D01*
X61519903Y-58345102D01*
X61318283Y-58479820D01*
X61146820Y-58651283D01*
X61012102Y-58852903D01*
X60919307Y-59076931D01*
X60872000Y-59314757D01*
X60872000Y-59557243D01*
X60919307Y-59795069D01*
X61012102Y-60019097D01*
X61146820Y-60220717D01*
X61318283Y-60392180D01*
X61519903Y-60526898D01*
X61743931Y-60619693D01*
X61981757Y-60667000D01*
X62224243Y-60667000D01*
X62462069Y-60619693D01*
X62686097Y-60526898D01*
X62887717Y-60392180D01*
X63059180Y-60220717D01*
X63193898Y-60019097D01*
X63286693Y-59795069D01*
X63334000Y-59557243D01*
X63334000Y-59314757D01*
X63305604Y-59172000D01*
X65600157Y-59172000D01*
X65600157Y-59291000D01*
X65607513Y-59365689D01*
X65627344Y-59431064D01*
X63588409Y-61470000D01*
X63225832Y-61470000D01*
X63193898Y-61392903D01*
X63059180Y-61191283D01*
X62887717Y-61019820D01*
X62686097Y-60885102D01*
X62462069Y-60792307D01*
X62224243Y-60745000D01*
X61981757Y-60745000D01*
X61743931Y-60792307D01*
X61519903Y-60885102D01*
X61318283Y-61019820D01*
X61146820Y-61191283D01*
X61012102Y-61392903D01*
X60919307Y-61616931D01*
X60872000Y-61854757D01*
X60872000Y-62097243D01*
X60919307Y-62335069D01*
X61012102Y-62559097D01*
X61146820Y-62760717D01*
X61318283Y-62932180D01*
X61519903Y-63066898D01*
X61743931Y-63159693D01*
X61981757Y-63207000D01*
X62224243Y-63207000D01*
X62462069Y-63159693D01*
X62686097Y-63066898D01*
X62887717Y-62932180D01*
X63059180Y-62760717D01*
X63193898Y-62559097D01*
X63225832Y-62482000D01*
X63773154Y-62482000D01*
X63798000Y-62484447D01*
X63822846Y-62482000D01*
X63822854Y-62482000D01*
X63897193Y-62474678D01*
X63992575Y-62445745D01*
X64080479Y-62398759D01*
X64157527Y-62335527D01*
X64173376Y-62316215D01*
X66530536Y-59959056D01*
X66638518Y-59991812D01*
X66763000Y-60004072D01*
X66897250Y-60001000D01*
X66930106Y-59968144D01*
X67055998Y-59993014D01*
X67055998Y-60001000D01*
X67096426Y-60001000D01*
X67096998Y-60001113D01*
X67104386Y-60001103D01*
X63185362Y-63920128D01*
X63059180Y-63731283D01*
X62887717Y-63559820D01*
X62686097Y-63425102D01*
X62462069Y-63332307D01*
X62224243Y-63285000D01*
X61981757Y-63285000D01*
X61743931Y-63332307D01*
X61519903Y-63425102D01*
X61318283Y-63559820D01*
X61146820Y-63731283D01*
X61012102Y-63932903D01*
X60919307Y-64156931D01*
X60872000Y-64394757D01*
X60872000Y-64637243D01*
X60919307Y-64875069D01*
X61012102Y-65099097D01*
X61146820Y-65300717D01*
X61318283Y-65472180D01*
X61519903Y-65606898D01*
X61743931Y-65699693D01*
X61981757Y-65747000D01*
X62224243Y-65747000D01*
X62462069Y-65699693D01*
X62686097Y-65606898D01*
X62887717Y-65472180D01*
X63059180Y-65300717D01*
X63193898Y-65099097D01*
X63225832Y-65022000D01*
X63280235Y-65022000D01*
X63305081Y-65024447D01*
X63329927Y-65022000D01*
X63329935Y-65022000D01*
X63404274Y-65014678D01*
X63499656Y-64985745D01*
X63587560Y-64938759D01*
X63664608Y-64875527D01*
X63680457Y-64856215D01*
X68473220Y-60063453D01*
X68492527Y-60047608D01*
X68555759Y-59970560D01*
X68602745Y-59882656D01*
X68631678Y-59787274D01*
X68639000Y-59712935D01*
X68639000Y-59712934D01*
X68641448Y-59688081D01*
X68639000Y-59663227D01*
X68639000Y-59573784D01*
X68653711Y-59561711D01*
X68701322Y-59503696D01*
X68736701Y-59437508D01*
X68758487Y-59365689D01*
X68765843Y-59291000D01*
X68765843Y-59194434D01*
X71111242Y-61539833D01*
X71079307Y-61616931D01*
X71032000Y-61854757D01*
X71032000Y-62097243D01*
X71079307Y-62335069D01*
X71172102Y-62559097D01*
X71306820Y-62760717D01*
X71478283Y-62932180D01*
X71623294Y-63029073D01*
X71413000Y-63027928D01*
X71288518Y-63040188D01*
X71168820Y-63076498D01*
X71058506Y-63135463D01*
X70961815Y-63214815D01*
X70882463Y-63311506D01*
X70823498Y-63421820D01*
X70787188Y-63541518D01*
X70774928Y-63666000D01*
X70778000Y-64230250D01*
X70936750Y-64389000D01*
X72136000Y-64389000D01*
X72136000Y-64369000D01*
X72390000Y-64369000D01*
X72390000Y-64389000D01*
X72410000Y-64389000D01*
X72410000Y-64643000D01*
X72390000Y-64643000D01*
X72390000Y-64663000D01*
X72136000Y-64663000D01*
X72136000Y-64643000D01*
X70936750Y-64643000D01*
X70778000Y-64801750D01*
X70774928Y-65366000D01*
X70787188Y-65490482D01*
X70823498Y-65610180D01*
X70882463Y-65720494D01*
X70961815Y-65817185D01*
X71058506Y-65896537D01*
X71137573Y-65938800D01*
X60654800Y-65938800D01*
X60654800Y-50393200D01*
X71853446Y-50393200D01*
X71631748Y-50471843D01*
G36*
X67096998Y-58101113D02*
G01*
X67271328Y-58100884D01*
X67316689Y-58091799D01*
X67330000Y-58105110D01*
X67330000Y-58226890D01*
X67316600Y-58240290D01*
X67269002Y-58230887D01*
X67094672Y-58231116D01*
X67049311Y-58240201D01*
X67036000Y-58226890D01*
X67036000Y-58105110D01*
X67049400Y-58091710D01*
X67096998Y-58101113D01*
G37*
X67096998Y-58101113D02*
X67271328Y-58100884D01*
X67316689Y-58091799D01*
X67330000Y-58105110D01*
X67330000Y-58226890D01*
X67316600Y-58240290D01*
X67269002Y-58230887D01*
X67094672Y-58231116D01*
X67049311Y-58240201D01*
X67036000Y-58226890D01*
X67036000Y-58105110D01*
X67049400Y-58091710D01*
X67096998Y-58101113D01*
M02*
