G04 #@! TF.GenerationSoftware,KiCad,Pcbnew,(5.1.5-0-10_14)*
G04 #@! TF.CreationDate,2020-06-09T01:35:05-06:00*
G04 #@! TF.ProjectId,WSON-10,57534f4e-2d31-4302-9e6b-696361645f70,rev?*
G04 #@! TF.SameCoordinates,Original*
G04 #@! TF.FileFunction,Legend,Top*
G04 #@! TF.FilePolarity,Positive*
%FSLAX46Y46*%
G04 Gerber Fmt 4.6, Leading zero omitted, Abs format (unit mm)*
G04 Created by KiCad (PCBNEW (5.1.5-0-10_14)) date 2020-06-09 01:35:05*
%MOMM*%
%LPD*%
G04 APERTURE LIST*
%ADD10C,0.150000*%
%ADD11C,0.120000*%
G04 APERTURE END LIST*
D10*
X64471828Y-52990704D02*
X64471828Y-52190704D01*
X64662304Y-52190704D01*
X64776590Y-52228800D01*
X64852780Y-52304990D01*
X64890876Y-52381180D01*
X64928971Y-52533561D01*
X64928971Y-52647847D01*
X64890876Y-52800228D01*
X64852780Y-52876419D01*
X64776590Y-52952609D01*
X64662304Y-52990704D01*
X64471828Y-52990704D01*
X65538495Y-52571657D02*
X65271828Y-52571657D01*
X65271828Y-52990704D02*
X65271828Y-52190704D01*
X65652780Y-52190704D01*
X65957542Y-52990704D02*
X65957542Y-52190704D01*
X66414685Y-52990704D01*
X66414685Y-52190704D01*
X66795638Y-52685942D02*
X67405161Y-52685942D01*
X68205161Y-52990704D02*
X67748019Y-52990704D01*
X67976590Y-52990704D02*
X67976590Y-52190704D01*
X67900400Y-52304990D01*
X67824209Y-52381180D01*
X67748019Y-52419276D01*
X68700400Y-52190704D02*
X68776590Y-52190704D01*
X68852780Y-52228800D01*
X68890876Y-52266895D01*
X68928971Y-52343085D01*
X68967066Y-52495466D01*
X68967066Y-52685942D01*
X68928971Y-52838323D01*
X68890876Y-52914514D01*
X68852780Y-52952609D01*
X68776590Y-52990704D01*
X68700400Y-52990704D01*
X68624209Y-52952609D01*
X68586114Y-52914514D01*
X68548019Y-52838323D01*
X68509923Y-52685942D01*
X68509923Y-52495466D01*
X68548019Y-52343085D01*
X68586114Y-52266895D01*
X68624209Y-52228800D01*
X68700400Y-52190704D01*
X64389352Y-51073104D02*
X64579828Y-51873104D01*
X64732209Y-51301676D01*
X64884590Y-51873104D01*
X65075066Y-51073104D01*
X65341733Y-51835009D02*
X65456019Y-51873104D01*
X65646495Y-51873104D01*
X65722685Y-51835009D01*
X65760780Y-51796914D01*
X65798876Y-51720723D01*
X65798876Y-51644533D01*
X65760780Y-51568342D01*
X65722685Y-51530247D01*
X65646495Y-51492152D01*
X65494114Y-51454057D01*
X65417923Y-51415961D01*
X65379828Y-51377866D01*
X65341733Y-51301676D01*
X65341733Y-51225485D01*
X65379828Y-51149295D01*
X65417923Y-51111200D01*
X65494114Y-51073104D01*
X65684590Y-51073104D01*
X65798876Y-51111200D01*
X66294114Y-51073104D02*
X66446495Y-51073104D01*
X66522685Y-51111200D01*
X66598876Y-51187390D01*
X66636971Y-51339771D01*
X66636971Y-51606438D01*
X66598876Y-51758819D01*
X66522685Y-51835009D01*
X66446495Y-51873104D01*
X66294114Y-51873104D01*
X66217923Y-51835009D01*
X66141733Y-51758819D01*
X66103638Y-51606438D01*
X66103638Y-51339771D01*
X66141733Y-51187390D01*
X66217923Y-51111200D01*
X66294114Y-51073104D01*
X66979828Y-51873104D02*
X66979828Y-51073104D01*
X67436971Y-51873104D01*
X67436971Y-51073104D01*
X67817923Y-51568342D02*
X68427447Y-51568342D01*
X69227447Y-51873104D02*
X68770304Y-51873104D01*
X68998876Y-51873104D02*
X68998876Y-51073104D01*
X68922685Y-51187390D01*
X68846495Y-51263580D01*
X68770304Y-51301676D01*
X69722685Y-51073104D02*
X69798876Y-51073104D01*
X69875066Y-51111200D01*
X69913161Y-51149295D01*
X69951257Y-51225485D01*
X69989352Y-51377866D01*
X69989352Y-51568342D01*
X69951257Y-51720723D01*
X69913161Y-51796914D01*
X69875066Y-51835009D01*
X69798876Y-51873104D01*
X69722685Y-51873104D01*
X69646495Y-51835009D01*
X69608400Y-51796914D01*
X69570304Y-51720723D01*
X69532209Y-51568342D01*
X69532209Y-51377866D01*
X69570304Y-51225485D01*
X69608400Y-51149295D01*
X69646495Y-51111200D01*
X69722685Y-51073104D01*
X65807600Y-56541000D02*
X67732600Y-56541000D01*
X66582600Y-59791000D02*
X67732600Y-59791000D01*
D11*
X78673000Y-65846000D02*
X77343000Y-65846000D01*
X78673000Y-64516000D02*
X78673000Y-65846000D01*
X78673000Y-63246000D02*
X76013000Y-63246000D01*
X76013000Y-63246000D02*
X76013000Y-50486000D01*
X78673000Y-63246000D02*
X78673000Y-50486000D01*
X78673000Y-50486000D02*
X76013000Y-50486000D01*
X55693000Y-50486000D02*
X57023000Y-50486000D01*
X55693000Y-51816000D02*
X55693000Y-50486000D01*
X55693000Y-53086000D02*
X58353000Y-53086000D01*
X58353000Y-53086000D02*
X58353000Y-65846000D01*
X55693000Y-53086000D02*
X55693000Y-65846000D01*
X55693000Y-65846000D02*
X58353000Y-65846000D01*
M02*
