G04 #@! TF.GenerationSoftware,KiCad,Pcbnew,(5.1.5-0-10_14)*
G04 #@! TF.CreationDate,2020-06-09T21:28:00-06:00*
G04 #@! TF.ProjectId,WSON-10,57534f4e-2d31-4302-9e6b-696361645f70,rev?*
G04 #@! TF.SameCoordinates,Original*
G04 #@! TF.FileFunction,Legend,Top*
G04 #@! TF.FilePolarity,Positive*
%FSLAX46Y46*%
G04 Gerber Fmt 4.6, Leading zero omitted, Abs format (unit mm)*
G04 Created by KiCad (PCBNEW (5.1.5-0-10_14)) date 2020-06-09 21:28:00*
%MOMM*%
%LPD*%
G04 APERTURE LIST*
%ADD10C,0.150000*%
%ADD11C,0.120000*%
G04 APERTURE END LIST*
D10*
X64535328Y-52419204D02*
X64535328Y-51619204D01*
X64725804Y-51619204D01*
X64840090Y-51657300D01*
X64916280Y-51733490D01*
X64954376Y-51809680D01*
X64992471Y-51962061D01*
X64992471Y-52076347D01*
X64954376Y-52228728D01*
X64916280Y-52304919D01*
X64840090Y-52381109D01*
X64725804Y-52419204D01*
X64535328Y-52419204D01*
X65601995Y-52000157D02*
X65335328Y-52000157D01*
X65335328Y-52419204D02*
X65335328Y-51619204D01*
X65716280Y-51619204D01*
X66021042Y-52419204D02*
X66021042Y-51619204D01*
X66478185Y-52419204D01*
X66478185Y-51619204D01*
X66859138Y-52114442D02*
X67468661Y-52114442D01*
X68268661Y-52419204D02*
X67811519Y-52419204D01*
X68040090Y-52419204D02*
X68040090Y-51619204D01*
X67963900Y-51733490D01*
X67887709Y-51809680D01*
X67811519Y-51847776D01*
X68763900Y-51619204D02*
X68840090Y-51619204D01*
X68916280Y-51657300D01*
X68954376Y-51695395D01*
X68992471Y-51771585D01*
X69030566Y-51923966D01*
X69030566Y-52114442D01*
X68992471Y-52266823D01*
X68954376Y-52343014D01*
X68916280Y-52381109D01*
X68840090Y-52419204D01*
X68763900Y-52419204D01*
X68687709Y-52381109D01*
X68649614Y-52343014D01*
X68611519Y-52266823D01*
X68573423Y-52114442D01*
X68573423Y-51923966D01*
X68611519Y-51771585D01*
X68649614Y-51695395D01*
X68687709Y-51657300D01*
X68763900Y-51619204D01*
X64452852Y-50501604D02*
X64643328Y-51301604D01*
X64795709Y-50730176D01*
X64948090Y-51301604D01*
X65138566Y-50501604D01*
X65405233Y-51263509D02*
X65519519Y-51301604D01*
X65709995Y-51301604D01*
X65786185Y-51263509D01*
X65824280Y-51225414D01*
X65862376Y-51149223D01*
X65862376Y-51073033D01*
X65824280Y-50996842D01*
X65786185Y-50958747D01*
X65709995Y-50920652D01*
X65557614Y-50882557D01*
X65481423Y-50844461D01*
X65443328Y-50806366D01*
X65405233Y-50730176D01*
X65405233Y-50653985D01*
X65443328Y-50577795D01*
X65481423Y-50539700D01*
X65557614Y-50501604D01*
X65748090Y-50501604D01*
X65862376Y-50539700D01*
X66357614Y-50501604D02*
X66509995Y-50501604D01*
X66586185Y-50539700D01*
X66662376Y-50615890D01*
X66700471Y-50768271D01*
X66700471Y-51034938D01*
X66662376Y-51187319D01*
X66586185Y-51263509D01*
X66509995Y-51301604D01*
X66357614Y-51301604D01*
X66281423Y-51263509D01*
X66205233Y-51187319D01*
X66167138Y-51034938D01*
X66167138Y-50768271D01*
X66205233Y-50615890D01*
X66281423Y-50539700D01*
X66357614Y-50501604D01*
X67043328Y-51301604D02*
X67043328Y-50501604D01*
X67500471Y-51301604D01*
X67500471Y-50501604D01*
X67881423Y-50996842D02*
X68490947Y-50996842D01*
X69290947Y-51301604D02*
X68833804Y-51301604D01*
X69062376Y-51301604D02*
X69062376Y-50501604D01*
X68986185Y-50615890D01*
X68909995Y-50692080D01*
X68833804Y-50730176D01*
X69786185Y-50501604D02*
X69862376Y-50501604D01*
X69938566Y-50539700D01*
X69976661Y-50577795D01*
X70014757Y-50653985D01*
X70052852Y-50806366D01*
X70052852Y-50996842D01*
X70014757Y-51149223D01*
X69976661Y-51225414D01*
X69938566Y-51263509D01*
X69862376Y-51301604D01*
X69786185Y-51301604D01*
X69709995Y-51263509D01*
X69671900Y-51225414D01*
X69633804Y-51149223D01*
X69595709Y-50996842D01*
X69595709Y-50806366D01*
X69633804Y-50653985D01*
X69671900Y-50577795D01*
X69709995Y-50539700D01*
X69786185Y-50501604D01*
X65833000Y-56541000D02*
X67758000Y-56541000D01*
X66608000Y-59791000D02*
X67758000Y-59791000D01*
D11*
X73593000Y-65846000D02*
X72263000Y-65846000D01*
X73593000Y-64516000D02*
X73593000Y-65846000D01*
X73593000Y-63246000D02*
X70933000Y-63246000D01*
X70933000Y-63246000D02*
X70933000Y-50486000D01*
X73593000Y-63246000D02*
X73593000Y-50486000D01*
X73593000Y-50486000D02*
X70933000Y-50486000D01*
X60773000Y-50486000D02*
X62103000Y-50486000D01*
X60773000Y-51816000D02*
X60773000Y-50486000D01*
X60773000Y-53086000D02*
X63433000Y-53086000D01*
X63433000Y-53086000D02*
X63433000Y-65846000D01*
X60773000Y-53086000D02*
X60773000Y-65846000D01*
X60773000Y-65846000D02*
X63433000Y-65846000D01*
M02*
