G04 #@! TF.GenerationSoftware,KiCad,Pcbnew,(5.1.5-0-10_14)*
G04 #@! TF.CreationDate,2020-04-28T22:37:27-06:00*
G04 #@! TF.ProjectId,SSOP4-Breakout,53534f50-342d-4427-9265-616b6f75742e,rev?*
G04 #@! TF.SameCoordinates,Original*
G04 #@! TF.FileFunction,Legend,Top*
G04 #@! TF.FilePolarity,Positive*
%FSLAX46Y46*%
G04 Gerber Fmt 4.6, Leading zero omitted, Abs format (unit mm)*
G04 Created by KiCad (PCBNEW (5.1.5-0-10_14)) date 2020-04-28 22:37:27*
%MOMM*%
%LPD*%
G04 APERTURE LIST*
%ADD10C,0.050000*%
%ADD11C,0.120000*%
%ADD12C,0.150000*%
G04 APERTURE END LIST*
D10*
X24892000Y-25908000D02*
X25908000Y-25908000D01*
X25908000Y-12065000D02*
X24892000Y-12065000D01*
X24892000Y-12065000D02*
X12065000Y-12065000D01*
X25908000Y-25908000D02*
X25908000Y-12065000D01*
X12065000Y-25908000D02*
X24892000Y-25908000D01*
X12065000Y-12065000D02*
X12065000Y-25908000D01*
D11*
X17623000Y-18853000D02*
X20223000Y-18853000D01*
X20223000Y-18853000D02*
X20223000Y-18653000D01*
X20223000Y-16653000D02*
X20223000Y-16453000D01*
X20223000Y-16453000D02*
X17623000Y-16453000D01*
X17623000Y-16453000D02*
X17623000Y-16553000D01*
X17623000Y-16553000D02*
X17223000Y-16553000D01*
X17623000Y-18853000D02*
X17623000Y-18653000D01*
X25409200Y-25333000D02*
X24079200Y-25333000D01*
X25409200Y-24003000D02*
X25409200Y-25333000D01*
X25409200Y-22733000D02*
X22749200Y-22733000D01*
X22749200Y-22733000D02*
X22749200Y-12513000D01*
X25409200Y-22733000D02*
X25409200Y-12513000D01*
X25409200Y-12513000D02*
X22749200Y-12513000D01*
X12560001Y-12560001D02*
X13890001Y-12560001D01*
X12560001Y-13890001D02*
X12560001Y-12560001D01*
X12560001Y-15160001D02*
X15220001Y-15160001D01*
X15220001Y-15160001D02*
X15220001Y-25380001D01*
X12560001Y-15160001D02*
X12560001Y-25380001D01*
X12560001Y-25380001D02*
X15220001Y-25380001D01*
D12*
X18161095Y-14565380D02*
X18161095Y-15374904D01*
X18208714Y-15470142D01*
X18256333Y-15517761D01*
X18351571Y-15565380D01*
X18542047Y-15565380D01*
X18637285Y-15517761D01*
X18684904Y-15470142D01*
X18732523Y-15374904D01*
X18732523Y-14565380D01*
X19732523Y-15565380D02*
X19161095Y-15565380D01*
X19446809Y-15565380D02*
X19446809Y-14565380D01*
X19351571Y-14708238D01*
X19256333Y-14803476D01*
X19161095Y-14851095D01*
M02*
