G04 #@! TF.GenerationSoftware,KiCad,Pcbnew,(5.1.5-0-10_14)*
G04 #@! TF.CreationDate,2020-04-28T22:37:27-06:00*
G04 #@! TF.ProjectId,SSOP4-Breakout,53534f50-342d-4427-9265-616b6f75742e,rev?*
G04 #@! TF.SameCoordinates,Original*
G04 #@! TF.FileFunction,Copper,L1,Top*
G04 #@! TF.FilePolarity,Positive*
%FSLAX46Y46*%
G04 Gerber Fmt 4.6, Leading zero omitted, Abs format (unit mm)*
G04 Created by KiCad (PCBNEW (5.1.5-0-10_14)) date 2020-04-28 22:37:27*
%MOMM*%
%LPD*%
G04 APERTURE LIST*
%ADD10C,0.050000*%
%ADD11R,0.750000X0.250000*%
%ADD12O,1.700000X1.700000*%
%ADD13R,1.700000X1.700000*%
%ADD14C,0.250000*%
%ADD15C,0.254000*%
G04 APERTURE END LIST*
D10*
X24892000Y-25908000D02*
X25908000Y-25908000D01*
X25908000Y-12065000D02*
X24892000Y-12065000D01*
X24892000Y-12065000D02*
X12065000Y-12065000D01*
X25908000Y-25908000D02*
X25908000Y-12065000D01*
X12065000Y-25908000D02*
X24892000Y-25908000D01*
X12065000Y-12065000D02*
X12065000Y-25908000D01*
D11*
X20473000Y-16903000D03*
X20473000Y-17403000D03*
X20473000Y-17903000D03*
X20473000Y-18403000D03*
X17373000Y-18403000D03*
X17373000Y-17903000D03*
X17373000Y-17403000D03*
X17373000Y-16903000D03*
D12*
X24079200Y-13843000D03*
X24079200Y-16383000D03*
X24079200Y-18923000D03*
X24079200Y-21463000D03*
D13*
X24079200Y-24003000D03*
D12*
X13890001Y-24050001D03*
X13890001Y-21510001D03*
X13890001Y-18970001D03*
X13890001Y-16430001D03*
D13*
X13890001Y-13890001D03*
D14*
X14640999Y-21510001D02*
X13890001Y-21510001D01*
X17373000Y-18778000D02*
X14640999Y-21510001D01*
X17373000Y-18403000D02*
X17373000Y-18778000D01*
X14195002Y-18665000D02*
X13890001Y-18970001D01*
X14957002Y-17903000D02*
X17373000Y-17903000D01*
X13890001Y-18970001D02*
X14957002Y-17903000D01*
X14863000Y-17403000D02*
X13890001Y-16430001D01*
X17373000Y-17403000D02*
X14863000Y-17403000D01*
X17373000Y-16273000D02*
X17373000Y-16528000D01*
X14990001Y-13890001D02*
X17373000Y-16273000D01*
X17373000Y-16528000D02*
X17373000Y-16903000D01*
X13890001Y-13890001D02*
X14990001Y-13890001D01*
X23158000Y-13843000D02*
X24079200Y-13843000D01*
X20473000Y-16528000D02*
X23158000Y-13843000D01*
X20473000Y-16903000D02*
X20473000Y-16528000D01*
X23059200Y-17403000D02*
X24079200Y-16383000D01*
X20473000Y-17403000D02*
X23059200Y-17403000D01*
X23059200Y-17903000D02*
X24079200Y-18923000D01*
X20473000Y-17903000D02*
X23059200Y-17903000D01*
X23158000Y-21463000D02*
X24079200Y-21463000D01*
X20473000Y-18778000D02*
X23158000Y-21463000D01*
X20473000Y-18403000D02*
X20473000Y-18778000D01*
D15*
G36*
X22925725Y-12896368D02*
G01*
X22763210Y-13139589D01*
X22735186Y-13207244D01*
X22733724Y-13208026D01*
X22733722Y-13208027D01*
X22733723Y-13208027D01*
X22646996Y-13279201D01*
X22646992Y-13279205D01*
X22617999Y-13302999D01*
X22594205Y-13331992D01*
X19962001Y-15964198D01*
X19932999Y-15987999D01*
X19838026Y-16103724D01*
X19768270Y-16234226D01*
X19743506Y-16247463D01*
X19646815Y-16326815D01*
X19567463Y-16423506D01*
X19508498Y-16533820D01*
X19472188Y-16653518D01*
X19459928Y-16778000D01*
X19459928Y-17028000D01*
X19472188Y-17152482D01*
X19472345Y-17153000D01*
X19472188Y-17153518D01*
X19459928Y-17278000D01*
X19459928Y-17528000D01*
X19472188Y-17652482D01*
X19472345Y-17653000D01*
X19472188Y-17653518D01*
X19459928Y-17778000D01*
X19459928Y-18028000D01*
X19472188Y-18152482D01*
X19472345Y-18153000D01*
X19472188Y-18153518D01*
X19459928Y-18278000D01*
X19459928Y-18528000D01*
X19472188Y-18652482D01*
X19508498Y-18772180D01*
X19567463Y-18882494D01*
X19646815Y-18979185D01*
X19743506Y-19058537D01*
X19768270Y-19071774D01*
X19838026Y-19202276D01*
X19932999Y-19318001D01*
X19962001Y-19341802D01*
X22594205Y-21974008D01*
X22617999Y-22003001D01*
X22646992Y-22026795D01*
X22646996Y-22026799D01*
X22704268Y-22073800D01*
X22733724Y-22097974D01*
X22735186Y-22098756D01*
X22763210Y-22166411D01*
X22925725Y-22409632D01*
X23057580Y-22541487D01*
X22985020Y-22563498D01*
X22874706Y-22622463D01*
X22778015Y-22701815D01*
X22698663Y-22798506D01*
X22639698Y-22908820D01*
X22603388Y-23028518D01*
X22591128Y-23153000D01*
X22594200Y-23717250D01*
X22752950Y-23876000D01*
X23952200Y-23876000D01*
X23952200Y-23856000D01*
X24206200Y-23856000D01*
X24206200Y-23876000D01*
X24226200Y-23876000D01*
X24226200Y-24130000D01*
X24206200Y-24130000D01*
X24206200Y-24150000D01*
X23952200Y-24150000D01*
X23952200Y-24130000D01*
X22752950Y-24130000D01*
X22594200Y-24288750D01*
X22591128Y-24853000D01*
X22603388Y-24977482D01*
X22639698Y-25097180D01*
X22698663Y-25207494D01*
X22731905Y-25248000D01*
X14766620Y-25248000D01*
X14771356Y-25245179D01*
X14987589Y-25050270D01*
X15161642Y-24816921D01*
X15286826Y-24554100D01*
X15331477Y-24406891D01*
X15210156Y-24177001D01*
X14017001Y-24177001D01*
X14017001Y-24197001D01*
X13763001Y-24197001D01*
X13763001Y-24177001D01*
X13743001Y-24177001D01*
X13743001Y-23923001D01*
X13763001Y-23923001D01*
X13763001Y-23903001D01*
X14017001Y-23903001D01*
X14017001Y-23923001D01*
X15210156Y-23923001D01*
X15331477Y-23693111D01*
X15286826Y-23545902D01*
X15161642Y-23283081D01*
X14987589Y-23049732D01*
X14771356Y-22854823D01*
X14654467Y-22785196D01*
X14836633Y-22663476D01*
X15043476Y-22456633D01*
X15205991Y-22213412D01*
X15317933Y-21943159D01*
X15326696Y-21899105D01*
X17884003Y-19341799D01*
X17913001Y-19318001D01*
X18007974Y-19202276D01*
X18077730Y-19071774D01*
X18102494Y-19058537D01*
X18199185Y-18979185D01*
X18278537Y-18882494D01*
X18337502Y-18772180D01*
X18373812Y-18652482D01*
X18386072Y-18528000D01*
X18386072Y-18278000D01*
X18373812Y-18153518D01*
X18373655Y-18153000D01*
X18373812Y-18152482D01*
X18386072Y-18028000D01*
X18386072Y-17778000D01*
X18373812Y-17653518D01*
X18373655Y-17653000D01*
X18373812Y-17652482D01*
X18386072Y-17528000D01*
X18386072Y-17278000D01*
X18373812Y-17153518D01*
X18373655Y-17153000D01*
X18373812Y-17152482D01*
X18386072Y-17028000D01*
X18386072Y-16778000D01*
X18373812Y-16653518D01*
X18337502Y-16533820D01*
X18278537Y-16423506D01*
X18199185Y-16326815D01*
X18136448Y-16275328D01*
X18136677Y-16273000D01*
X18122003Y-16124014D01*
X18078546Y-15980753D01*
X18007974Y-15848724D01*
X17936799Y-15761997D01*
X17913001Y-15732999D01*
X17884004Y-15709202D01*
X15553805Y-13379004D01*
X15530002Y-13350000D01*
X15414277Y-13255027D01*
X15378073Y-13235675D01*
X15378073Y-13040001D01*
X15365813Y-12915519D01*
X15329503Y-12795821D01*
X15291648Y-12725000D01*
X23097093Y-12725000D01*
X22925725Y-12896368D01*
G37*
X22925725Y-12896368D02*
X22763210Y-13139589D01*
X22735186Y-13207244D01*
X22733724Y-13208026D01*
X22733722Y-13208027D01*
X22733723Y-13208027D01*
X22646996Y-13279201D01*
X22646992Y-13279205D01*
X22617999Y-13302999D01*
X22594205Y-13331992D01*
X19962001Y-15964198D01*
X19932999Y-15987999D01*
X19838026Y-16103724D01*
X19768270Y-16234226D01*
X19743506Y-16247463D01*
X19646815Y-16326815D01*
X19567463Y-16423506D01*
X19508498Y-16533820D01*
X19472188Y-16653518D01*
X19459928Y-16778000D01*
X19459928Y-17028000D01*
X19472188Y-17152482D01*
X19472345Y-17153000D01*
X19472188Y-17153518D01*
X19459928Y-17278000D01*
X19459928Y-17528000D01*
X19472188Y-17652482D01*
X19472345Y-17653000D01*
X19472188Y-17653518D01*
X19459928Y-17778000D01*
X19459928Y-18028000D01*
X19472188Y-18152482D01*
X19472345Y-18153000D01*
X19472188Y-18153518D01*
X19459928Y-18278000D01*
X19459928Y-18528000D01*
X19472188Y-18652482D01*
X19508498Y-18772180D01*
X19567463Y-18882494D01*
X19646815Y-18979185D01*
X19743506Y-19058537D01*
X19768270Y-19071774D01*
X19838026Y-19202276D01*
X19932999Y-19318001D01*
X19962001Y-19341802D01*
X22594205Y-21974008D01*
X22617999Y-22003001D01*
X22646992Y-22026795D01*
X22646996Y-22026799D01*
X22704268Y-22073800D01*
X22733724Y-22097974D01*
X22735186Y-22098756D01*
X22763210Y-22166411D01*
X22925725Y-22409632D01*
X23057580Y-22541487D01*
X22985020Y-22563498D01*
X22874706Y-22622463D01*
X22778015Y-22701815D01*
X22698663Y-22798506D01*
X22639698Y-22908820D01*
X22603388Y-23028518D01*
X22591128Y-23153000D01*
X22594200Y-23717250D01*
X22752950Y-23876000D01*
X23952200Y-23876000D01*
X23952200Y-23856000D01*
X24206200Y-23856000D01*
X24206200Y-23876000D01*
X24226200Y-23876000D01*
X24226200Y-24130000D01*
X24206200Y-24130000D01*
X24206200Y-24150000D01*
X23952200Y-24150000D01*
X23952200Y-24130000D01*
X22752950Y-24130000D01*
X22594200Y-24288750D01*
X22591128Y-24853000D01*
X22603388Y-24977482D01*
X22639698Y-25097180D01*
X22698663Y-25207494D01*
X22731905Y-25248000D01*
X14766620Y-25248000D01*
X14771356Y-25245179D01*
X14987589Y-25050270D01*
X15161642Y-24816921D01*
X15286826Y-24554100D01*
X15331477Y-24406891D01*
X15210156Y-24177001D01*
X14017001Y-24177001D01*
X14017001Y-24197001D01*
X13763001Y-24197001D01*
X13763001Y-24177001D01*
X13743001Y-24177001D01*
X13743001Y-23923001D01*
X13763001Y-23923001D01*
X13763001Y-23903001D01*
X14017001Y-23903001D01*
X14017001Y-23923001D01*
X15210156Y-23923001D01*
X15331477Y-23693111D01*
X15286826Y-23545902D01*
X15161642Y-23283081D01*
X14987589Y-23049732D01*
X14771356Y-22854823D01*
X14654467Y-22785196D01*
X14836633Y-22663476D01*
X15043476Y-22456633D01*
X15205991Y-22213412D01*
X15317933Y-21943159D01*
X15326696Y-21899105D01*
X17884003Y-19341799D01*
X17913001Y-19318001D01*
X18007974Y-19202276D01*
X18077730Y-19071774D01*
X18102494Y-19058537D01*
X18199185Y-18979185D01*
X18278537Y-18882494D01*
X18337502Y-18772180D01*
X18373812Y-18652482D01*
X18386072Y-18528000D01*
X18386072Y-18278000D01*
X18373812Y-18153518D01*
X18373655Y-18153000D01*
X18373812Y-18152482D01*
X18386072Y-18028000D01*
X18386072Y-17778000D01*
X18373812Y-17653518D01*
X18373655Y-17653000D01*
X18373812Y-17652482D01*
X18386072Y-17528000D01*
X18386072Y-17278000D01*
X18373812Y-17153518D01*
X18373655Y-17153000D01*
X18373812Y-17152482D01*
X18386072Y-17028000D01*
X18386072Y-16778000D01*
X18373812Y-16653518D01*
X18337502Y-16533820D01*
X18278537Y-16423506D01*
X18199185Y-16326815D01*
X18136448Y-16275328D01*
X18136677Y-16273000D01*
X18122003Y-16124014D01*
X18078546Y-15980753D01*
X18007974Y-15848724D01*
X17936799Y-15761997D01*
X17913001Y-15732999D01*
X17884004Y-15709202D01*
X15553805Y-13379004D01*
X15530002Y-13350000D01*
X15414277Y-13255027D01*
X15378073Y-13235675D01*
X15378073Y-13040001D01*
X15365813Y-12915519D01*
X15329503Y-12795821D01*
X15291648Y-12725000D01*
X23097093Y-12725000D01*
X22925725Y-12896368D01*
M02*
