G04 #@! TF.GenerationSoftware,KiCad,Pcbnew,(5.1.5-0-10_14)*
G04 #@! TF.CreationDate,2020-04-28T22:37:27-06:00*
G04 #@! TF.ProjectId,SSOP4-Breakout,53534f50-342d-4427-9265-616b6f75742e,rev?*
G04 #@! TF.SameCoordinates,Original*
G04 #@! TF.FileFunction,Soldermask,Top*
G04 #@! TF.FilePolarity,Negative*
%FSLAX46Y46*%
G04 Gerber Fmt 4.6, Leading zero omitted, Abs format (unit mm)*
G04 Created by KiCad (PCBNEW (5.1.5-0-10_14)) date 2020-04-28 22:37:27*
%MOMM*%
%LPD*%
G04 APERTURE LIST*
%ADD10C,0.050000*%
%ADD11C,0.100000*%
G04 APERTURE END LIST*
D10*
X24892000Y-25908000D02*
X25908000Y-25908000D01*
X25908000Y-12065000D02*
X24892000Y-12065000D01*
X24892000Y-12065000D02*
X12065000Y-12065000D01*
X25908000Y-25908000D02*
X25908000Y-12065000D01*
X12065000Y-25908000D02*
X24892000Y-25908000D01*
X12065000Y-12065000D02*
X12065000Y-25908000D01*
D11*
G36*
X14003513Y-23153928D02*
G01*
X14152813Y-23183625D01*
X14316785Y-23251545D01*
X14464355Y-23350148D01*
X14589854Y-23475647D01*
X14688457Y-23623217D01*
X14756377Y-23787189D01*
X14791001Y-23961260D01*
X14791001Y-24138742D01*
X14756377Y-24312813D01*
X14688457Y-24476785D01*
X14589854Y-24624355D01*
X14464355Y-24749854D01*
X14316785Y-24848457D01*
X14152813Y-24916377D01*
X14003513Y-24946074D01*
X13978743Y-24951001D01*
X13801259Y-24951001D01*
X13776489Y-24946074D01*
X13627189Y-24916377D01*
X13463217Y-24848457D01*
X13315647Y-24749854D01*
X13190148Y-24624355D01*
X13091545Y-24476785D01*
X13023625Y-24312813D01*
X12989001Y-24138742D01*
X12989001Y-23961260D01*
X13023625Y-23787189D01*
X13091545Y-23623217D01*
X13190148Y-23475647D01*
X13315647Y-23350148D01*
X13463217Y-23251545D01*
X13627189Y-23183625D01*
X13776489Y-23153928D01*
X13801259Y-23149001D01*
X13978743Y-23149001D01*
X14003513Y-23153928D01*
G37*
G36*
X24980200Y-24904000D02*
G01*
X23178200Y-24904000D01*
X23178200Y-23102000D01*
X24980200Y-23102000D01*
X24980200Y-24904000D01*
G37*
G36*
X14003513Y-20613928D02*
G01*
X14152813Y-20643625D01*
X14316785Y-20711545D01*
X14464355Y-20810148D01*
X14589854Y-20935647D01*
X14688457Y-21083217D01*
X14756377Y-21247189D01*
X14791001Y-21421260D01*
X14791001Y-21598742D01*
X14756377Y-21772813D01*
X14688457Y-21936785D01*
X14589854Y-22084355D01*
X14464355Y-22209854D01*
X14316785Y-22308457D01*
X14152813Y-22376377D01*
X14003513Y-22406074D01*
X13978743Y-22411001D01*
X13801259Y-22411001D01*
X13776489Y-22406074D01*
X13627189Y-22376377D01*
X13463217Y-22308457D01*
X13315647Y-22209854D01*
X13190148Y-22084355D01*
X13091545Y-21936785D01*
X13023625Y-21772813D01*
X12989001Y-21598742D01*
X12989001Y-21421260D01*
X13023625Y-21247189D01*
X13091545Y-21083217D01*
X13190148Y-20935647D01*
X13315647Y-20810148D01*
X13463217Y-20711545D01*
X13627189Y-20643625D01*
X13776489Y-20613928D01*
X13801259Y-20609001D01*
X13978743Y-20609001D01*
X14003513Y-20613928D01*
G37*
G36*
X24192712Y-20566927D02*
G01*
X24342012Y-20596624D01*
X24505984Y-20664544D01*
X24653554Y-20763147D01*
X24779053Y-20888646D01*
X24877656Y-21036216D01*
X24945576Y-21200188D01*
X24980200Y-21374259D01*
X24980200Y-21551741D01*
X24945576Y-21725812D01*
X24877656Y-21889784D01*
X24779053Y-22037354D01*
X24653554Y-22162853D01*
X24505984Y-22261456D01*
X24342012Y-22329376D01*
X24192712Y-22359073D01*
X24167942Y-22364000D01*
X23990458Y-22364000D01*
X23965688Y-22359073D01*
X23816388Y-22329376D01*
X23652416Y-22261456D01*
X23504846Y-22162853D01*
X23379347Y-22037354D01*
X23280744Y-21889784D01*
X23212824Y-21725812D01*
X23178200Y-21551741D01*
X23178200Y-21374259D01*
X23212824Y-21200188D01*
X23280744Y-21036216D01*
X23379347Y-20888646D01*
X23504846Y-20763147D01*
X23652416Y-20664544D01*
X23816388Y-20596624D01*
X23965688Y-20566927D01*
X23990458Y-20562000D01*
X24167942Y-20562000D01*
X24192712Y-20566927D01*
G37*
G36*
X14003513Y-18073928D02*
G01*
X14152813Y-18103625D01*
X14316785Y-18171545D01*
X14464355Y-18270148D01*
X14589854Y-18395647D01*
X14688457Y-18543217D01*
X14756377Y-18707189D01*
X14791001Y-18881260D01*
X14791001Y-19058742D01*
X14756377Y-19232813D01*
X14688457Y-19396785D01*
X14589854Y-19544355D01*
X14464355Y-19669854D01*
X14316785Y-19768457D01*
X14152813Y-19836377D01*
X14003513Y-19866074D01*
X13978743Y-19871001D01*
X13801259Y-19871001D01*
X13776489Y-19866074D01*
X13627189Y-19836377D01*
X13463217Y-19768457D01*
X13315647Y-19669854D01*
X13190148Y-19544355D01*
X13091545Y-19396785D01*
X13023625Y-19232813D01*
X12989001Y-19058742D01*
X12989001Y-18881260D01*
X13023625Y-18707189D01*
X13091545Y-18543217D01*
X13190148Y-18395647D01*
X13315647Y-18270148D01*
X13463217Y-18171545D01*
X13627189Y-18103625D01*
X13776489Y-18073928D01*
X13801259Y-18069001D01*
X13978743Y-18069001D01*
X14003513Y-18073928D01*
G37*
G36*
X24192712Y-18026927D02*
G01*
X24342012Y-18056624D01*
X24505984Y-18124544D01*
X24653554Y-18223147D01*
X24779053Y-18348646D01*
X24877656Y-18496216D01*
X24945576Y-18660188D01*
X24980200Y-18834259D01*
X24980200Y-19011741D01*
X24945576Y-19185812D01*
X24877656Y-19349784D01*
X24779053Y-19497354D01*
X24653554Y-19622853D01*
X24505984Y-19721456D01*
X24342012Y-19789376D01*
X24192712Y-19819073D01*
X24167942Y-19824000D01*
X23990458Y-19824000D01*
X23965688Y-19819073D01*
X23816388Y-19789376D01*
X23652416Y-19721456D01*
X23504846Y-19622853D01*
X23379347Y-19497354D01*
X23280744Y-19349784D01*
X23212824Y-19185812D01*
X23178200Y-19011741D01*
X23178200Y-18834259D01*
X23212824Y-18660188D01*
X23280744Y-18496216D01*
X23379347Y-18348646D01*
X23504846Y-18223147D01*
X23652416Y-18124544D01*
X23816388Y-18056624D01*
X23965688Y-18026927D01*
X23990458Y-18022000D01*
X24167942Y-18022000D01*
X24192712Y-18026927D01*
G37*
G36*
X20899000Y-18579000D02*
G01*
X20047000Y-18579000D01*
X20047000Y-16727000D01*
X20899000Y-16727000D01*
X20899000Y-18579000D01*
G37*
G36*
X17799000Y-18579000D02*
G01*
X16947000Y-18579000D01*
X16947000Y-16727000D01*
X17799000Y-16727000D01*
X17799000Y-18579000D01*
G37*
G36*
X14003513Y-15533928D02*
G01*
X14152813Y-15563625D01*
X14316785Y-15631545D01*
X14464355Y-15730148D01*
X14589854Y-15855647D01*
X14688457Y-16003217D01*
X14756377Y-16167189D01*
X14791001Y-16341260D01*
X14791001Y-16518742D01*
X14756377Y-16692813D01*
X14688457Y-16856785D01*
X14589854Y-17004355D01*
X14464355Y-17129854D01*
X14316785Y-17228457D01*
X14152813Y-17296377D01*
X14003513Y-17326074D01*
X13978743Y-17331001D01*
X13801259Y-17331001D01*
X13776489Y-17326074D01*
X13627189Y-17296377D01*
X13463217Y-17228457D01*
X13315647Y-17129854D01*
X13190148Y-17004355D01*
X13091545Y-16856785D01*
X13023625Y-16692813D01*
X12989001Y-16518742D01*
X12989001Y-16341260D01*
X13023625Y-16167189D01*
X13091545Y-16003217D01*
X13190148Y-15855647D01*
X13315647Y-15730148D01*
X13463217Y-15631545D01*
X13627189Y-15563625D01*
X13776489Y-15533928D01*
X13801259Y-15529001D01*
X13978743Y-15529001D01*
X14003513Y-15533928D01*
G37*
G36*
X24192712Y-15486927D02*
G01*
X24342012Y-15516624D01*
X24505984Y-15584544D01*
X24653554Y-15683147D01*
X24779053Y-15808646D01*
X24877656Y-15956216D01*
X24945576Y-16120188D01*
X24980200Y-16294259D01*
X24980200Y-16471741D01*
X24945576Y-16645812D01*
X24877656Y-16809784D01*
X24779053Y-16957354D01*
X24653554Y-17082853D01*
X24505984Y-17181456D01*
X24342012Y-17249376D01*
X24192712Y-17279073D01*
X24167942Y-17284000D01*
X23990458Y-17284000D01*
X23965688Y-17279073D01*
X23816388Y-17249376D01*
X23652416Y-17181456D01*
X23504846Y-17082853D01*
X23379347Y-16957354D01*
X23280744Y-16809784D01*
X23212824Y-16645812D01*
X23178200Y-16471741D01*
X23178200Y-16294259D01*
X23212824Y-16120188D01*
X23280744Y-15956216D01*
X23379347Y-15808646D01*
X23504846Y-15683147D01*
X23652416Y-15584544D01*
X23816388Y-15516624D01*
X23965688Y-15486927D01*
X23990458Y-15482000D01*
X24167942Y-15482000D01*
X24192712Y-15486927D01*
G37*
G36*
X14791001Y-14791001D02*
G01*
X12989001Y-14791001D01*
X12989001Y-12989001D01*
X14791001Y-12989001D01*
X14791001Y-14791001D01*
G37*
G36*
X24192712Y-12946927D02*
G01*
X24342012Y-12976624D01*
X24505984Y-13044544D01*
X24653554Y-13143147D01*
X24779053Y-13268646D01*
X24877656Y-13416216D01*
X24945576Y-13580188D01*
X24980200Y-13754259D01*
X24980200Y-13931741D01*
X24945576Y-14105812D01*
X24877656Y-14269784D01*
X24779053Y-14417354D01*
X24653554Y-14542853D01*
X24505984Y-14641456D01*
X24342012Y-14709376D01*
X24192712Y-14739073D01*
X24167942Y-14744000D01*
X23990458Y-14744000D01*
X23965688Y-14739073D01*
X23816388Y-14709376D01*
X23652416Y-14641456D01*
X23504846Y-14542853D01*
X23379347Y-14417354D01*
X23280744Y-14269784D01*
X23212824Y-14105812D01*
X23178200Y-13931741D01*
X23178200Y-13754259D01*
X23212824Y-13580188D01*
X23280744Y-13416216D01*
X23379347Y-13268646D01*
X23504846Y-13143147D01*
X23652416Y-13044544D01*
X23816388Y-12976624D01*
X23965688Y-12946927D01*
X23990458Y-12942000D01*
X24167942Y-12942000D01*
X24192712Y-12946927D01*
G37*
M02*
