%TF.GenerationSoftware,KiCad,Pcbnew,5.1.9-73d0e3b20d~88~ubuntu20.04.1*%
%TF.CreationDate,2021-03-30T20:26:41-06:00*%
%TF.ProjectId,STM32F411CE,53544d33-3246-4343-9131-43452e6b6963,rev?*%
%TF.SameCoordinates,Original*%
%TF.FileFunction,Copper,L2,Inr*%
%TF.FilePolarity,Positive*%
%FSLAX46Y46*%
G04 Gerber Fmt 4.6, Leading zero omitted, Abs format (unit mm)*
G04 Created by KiCad (PCBNEW 5.1.9-73d0e3b20d~88~ubuntu20.04.1) date 2021-03-30 20:26:41*
%MOMM*%
%LPD*%
G01*
G04 APERTURE LIST*
%TA.AperFunction,ComponentPad*%
%ADD10O,1.700000X1.700000*%
%TD*%
%TA.AperFunction,ComponentPad*%
%ADD11R,1.700000X1.700000*%
%TD*%
%TA.AperFunction,ViaPad*%
%ADD12C,0.800000*%
%TD*%
%TA.AperFunction,Conductor*%
%ADD13C,0.254000*%
%TD*%
%TA.AperFunction,Conductor*%
%ADD14C,0.100000*%
%TD*%
G04 APERTURE END LIST*
D10*
%TO.N,GND*%
%TO.C,J3*%
X36626800Y-13766800D03*
X36626800Y-16306800D03*
%TO.N,PB9*%
X36626800Y-18846800D03*
%TO.N,PB8*%
X36626800Y-21386800D03*
%TO.N,BOOT0*%
X36626800Y-23926800D03*
%TO.N,PB7*%
X36626800Y-26466800D03*
%TO.N,PB6*%
X36626800Y-29006800D03*
%TO.N,PB5*%
X36626800Y-31546800D03*
%TO.N,FM_MISO*%
X36626800Y-34086800D03*
%TO.N,SWO*%
X36626800Y-36626800D03*
%TO.N,PA15*%
X36626800Y-39166800D03*
%TO.N,SWDCLK*%
X36626800Y-41706800D03*
%TO.N,SWDIO*%
X36626800Y-44246800D03*
%TO.N,N/C*%
X36626800Y-46786800D03*
X36626800Y-49326800D03*
X36626800Y-51866800D03*
%TO.N,PB15*%
X36626800Y-54406800D03*
%TO.N,PB14*%
X36626800Y-56946800D03*
%TO.N,PB13*%
X36626800Y-59486800D03*
D11*
%TO.N,GND*%
X36626800Y-62026800D03*
%TD*%
D10*
%TO.N,GND*%
%TO.C,J2*%
X13766800Y-62026800D03*
X13766800Y-59486800D03*
%TO.N,PB12*%
X13766800Y-56946800D03*
%TO.N,PB10*%
X13766800Y-54406800D03*
%TO.N,PB2*%
X13766800Y-51866800D03*
%TO.N,PB1*%
X13766800Y-49326800D03*
%TO.N,PBO*%
X13766800Y-46786800D03*
%TO.N,FM_MOSI*%
X13766800Y-44246800D03*
%TO.N,PA6*%
X13766800Y-41706800D03*
%TO.N,FM_SCK*%
X13766800Y-39166800D03*
%TO.N,FM_CS*%
X13766800Y-36626800D03*
%TO.N,PA3*%
X13766800Y-34086800D03*
%TO.N,PA2*%
X13766800Y-31546800D03*
%TO.N,PA1*%
X13766800Y-29006800D03*
%TO.N,KEY*%
X13766800Y-26466800D03*
%TO.N,~RST*%
X13766800Y-23926800D03*
%TO.N,+3V3*%
X13766800Y-21386800D03*
%TO.N,N/C*%
X13766800Y-18846800D03*
X13766800Y-16306800D03*
D11*
%TO.N,+BATT*%
X13766800Y-13766800D03*
%TD*%
D12*
%TO.N,GND*%
X24130000Y-32512000D03*
X26416000Y-32512000D03*
X26416000Y-35560000D03*
X24130000Y-35560000D03*
X22402800Y-42773600D03*
X22758400Y-49225200D03*
X17018000Y-26924000D03*
X26797000Y-22352000D03*
X23368000Y-25908000D03*
X28194000Y-23114000D03*
X26289000Y-20320000D03*
X26797000Y-53213000D03*
%TO.N,+3V3*%
X27178000Y-27051000D03*
X30657800Y-34594800D03*
X24307800Y-39420800D03*
X20535900Y-29806900D03*
%TO.N,+BATT*%
X24307800Y-28498800D03*
%TO.N,PB14*%
X26847800Y-40055800D03*
%TO.N,PB13*%
X25831800Y-39547800D03*
%TO.N,PB15*%
X27736800Y-39293800D03*
%TD*%
D13*
%TO.N,GND*%
X35529212Y-12766531D02*
X35355159Y-12999880D01*
X35229975Y-13262701D01*
X35185324Y-13409910D01*
X35306645Y-13639800D01*
X36499800Y-13639800D01*
X36499800Y-13619800D01*
X36753800Y-13619800D01*
X36753800Y-13639800D01*
X36773800Y-13639800D01*
X36773800Y-13893800D01*
X36753800Y-13893800D01*
X36753800Y-16179800D01*
X36773800Y-16179800D01*
X36773800Y-16433800D01*
X36753800Y-16433800D01*
X36753800Y-16453800D01*
X36499800Y-16453800D01*
X36499800Y-16433800D01*
X35306645Y-16433800D01*
X35185324Y-16663690D01*
X35229975Y-16810899D01*
X35355159Y-17073720D01*
X35529212Y-17307069D01*
X35745445Y-17501978D01*
X35862334Y-17571605D01*
X35680168Y-17693325D01*
X35473325Y-17900168D01*
X35310810Y-18143389D01*
X35198868Y-18413642D01*
X35141800Y-18700540D01*
X35141800Y-18993060D01*
X35198868Y-19279958D01*
X35310810Y-19550211D01*
X35473325Y-19793432D01*
X35680168Y-20000275D01*
X35854560Y-20116800D01*
X35680168Y-20233325D01*
X35473325Y-20440168D01*
X35310810Y-20683389D01*
X35198868Y-20953642D01*
X35141800Y-21240540D01*
X35141800Y-21533060D01*
X35198868Y-21819958D01*
X35310810Y-22090211D01*
X35473325Y-22333432D01*
X35680168Y-22540275D01*
X35854560Y-22656800D01*
X35680168Y-22773325D01*
X35473325Y-22980168D01*
X35310810Y-23223389D01*
X35198868Y-23493642D01*
X35141800Y-23780540D01*
X35141800Y-24073060D01*
X35198868Y-24359958D01*
X35310810Y-24630211D01*
X35473325Y-24873432D01*
X35680168Y-25080275D01*
X35854560Y-25196800D01*
X35680168Y-25313325D01*
X35473325Y-25520168D01*
X35310810Y-25763389D01*
X35198868Y-26033642D01*
X35141800Y-26320540D01*
X35141800Y-26613060D01*
X35198868Y-26899958D01*
X35310810Y-27170211D01*
X35473325Y-27413432D01*
X35680168Y-27620275D01*
X35854560Y-27736800D01*
X35680168Y-27853325D01*
X35473325Y-28060168D01*
X35310810Y-28303389D01*
X35198868Y-28573642D01*
X35141800Y-28860540D01*
X35141800Y-29153060D01*
X35198868Y-29439958D01*
X35310810Y-29710211D01*
X35473325Y-29953432D01*
X35680168Y-30160275D01*
X35854560Y-30276800D01*
X35680168Y-30393325D01*
X35473325Y-30600168D01*
X35310810Y-30843389D01*
X35198868Y-31113642D01*
X35141800Y-31400540D01*
X35141800Y-31693060D01*
X35198868Y-31979958D01*
X35310810Y-32250211D01*
X35473325Y-32493432D01*
X35680168Y-32700275D01*
X35854560Y-32816800D01*
X35680168Y-32933325D01*
X35473325Y-33140168D01*
X35310810Y-33383389D01*
X35198868Y-33653642D01*
X35141800Y-33940540D01*
X35141800Y-34233060D01*
X35198868Y-34519958D01*
X35310810Y-34790211D01*
X35473325Y-35033432D01*
X35680168Y-35240275D01*
X35854560Y-35356800D01*
X35680168Y-35473325D01*
X35473325Y-35680168D01*
X35310810Y-35923389D01*
X35198868Y-36193642D01*
X35141800Y-36480540D01*
X35141800Y-36773060D01*
X35198868Y-37059958D01*
X35310810Y-37330211D01*
X35473325Y-37573432D01*
X35680168Y-37780275D01*
X35854560Y-37896800D01*
X35680168Y-38013325D01*
X35473325Y-38220168D01*
X35310810Y-38463389D01*
X35198868Y-38733642D01*
X35141800Y-39020540D01*
X35141800Y-39313060D01*
X35198868Y-39599958D01*
X35310810Y-39870211D01*
X35473325Y-40113432D01*
X35680168Y-40320275D01*
X35854560Y-40436800D01*
X35680168Y-40553325D01*
X35473325Y-40760168D01*
X35310810Y-41003389D01*
X35198868Y-41273642D01*
X35141800Y-41560540D01*
X35141800Y-41853060D01*
X35198868Y-42139958D01*
X35310810Y-42410211D01*
X35473325Y-42653432D01*
X35680168Y-42860275D01*
X35854560Y-42976800D01*
X35680168Y-43093325D01*
X35473325Y-43300168D01*
X35310810Y-43543389D01*
X35198868Y-43813642D01*
X35141800Y-44100540D01*
X35141800Y-44393060D01*
X35198868Y-44679958D01*
X35310810Y-44950211D01*
X35473325Y-45193432D01*
X35680168Y-45400275D01*
X35854560Y-45516800D01*
X35680168Y-45633325D01*
X35473325Y-45840168D01*
X35310810Y-46083389D01*
X35198868Y-46353642D01*
X35141800Y-46640540D01*
X35141800Y-46933060D01*
X35198868Y-47219958D01*
X35310810Y-47490211D01*
X35473325Y-47733432D01*
X35680168Y-47940275D01*
X35854560Y-48056800D01*
X35680168Y-48173325D01*
X35473325Y-48380168D01*
X35310810Y-48623389D01*
X35198868Y-48893642D01*
X35141800Y-49180540D01*
X35141800Y-49473060D01*
X35198868Y-49759958D01*
X35310810Y-50030211D01*
X35473325Y-50273432D01*
X35680168Y-50480275D01*
X35854560Y-50596800D01*
X35680168Y-50713325D01*
X35473325Y-50920168D01*
X35310810Y-51163389D01*
X35198868Y-51433642D01*
X35141800Y-51720540D01*
X35141800Y-52013060D01*
X35198868Y-52299958D01*
X35310810Y-52570211D01*
X35473325Y-52813432D01*
X35680168Y-53020275D01*
X35854560Y-53136800D01*
X35680168Y-53253325D01*
X35473325Y-53460168D01*
X35310810Y-53703389D01*
X35198868Y-53973642D01*
X35141800Y-54260540D01*
X35141800Y-54553060D01*
X35198868Y-54839958D01*
X35310810Y-55110211D01*
X35473325Y-55353432D01*
X35680168Y-55560275D01*
X35854560Y-55676800D01*
X35680168Y-55793325D01*
X35473325Y-56000168D01*
X35310810Y-56243389D01*
X35198868Y-56513642D01*
X35141800Y-56800540D01*
X35141800Y-57093060D01*
X35198868Y-57379958D01*
X35310810Y-57650211D01*
X35473325Y-57893432D01*
X35680168Y-58100275D01*
X35854560Y-58216800D01*
X35680168Y-58333325D01*
X35473325Y-58540168D01*
X35310810Y-58783389D01*
X35198868Y-59053642D01*
X35141800Y-59340540D01*
X35141800Y-59633060D01*
X35198868Y-59919958D01*
X35310810Y-60190211D01*
X35473325Y-60433432D01*
X35605180Y-60565287D01*
X35532620Y-60587298D01*
X35422306Y-60646263D01*
X35325615Y-60725615D01*
X35246263Y-60822306D01*
X35187298Y-60932620D01*
X35150988Y-61052318D01*
X35138728Y-61176800D01*
X35141800Y-61741050D01*
X35300550Y-61899800D01*
X36499800Y-61899800D01*
X36499800Y-61879800D01*
X36753800Y-61879800D01*
X36753800Y-61899800D01*
X36773800Y-61899800D01*
X36773800Y-62153800D01*
X36753800Y-62153800D01*
X36753800Y-62173800D01*
X36499800Y-62173800D01*
X36499800Y-62153800D01*
X35300550Y-62153800D01*
X35141800Y-62312550D01*
X35138728Y-62876800D01*
X35150988Y-63001282D01*
X35187298Y-63120980D01*
X35200030Y-63144800D01*
X14733777Y-63144800D01*
X14864388Y-63027069D01*
X15038441Y-62793720D01*
X15163625Y-62530899D01*
X15208276Y-62383690D01*
X15086955Y-62153800D01*
X13893800Y-62153800D01*
X13893800Y-62173800D01*
X13639800Y-62173800D01*
X13639800Y-62153800D01*
X13619800Y-62153800D01*
X13619800Y-61899800D01*
X13639800Y-61899800D01*
X13639800Y-59613800D01*
X13893800Y-59613800D01*
X13893800Y-61899800D01*
X15086955Y-61899800D01*
X15208276Y-61669910D01*
X15163625Y-61522701D01*
X15038441Y-61259880D01*
X14864388Y-61026531D01*
X14648155Y-60831622D01*
X14522545Y-60756800D01*
X14648155Y-60681978D01*
X14864388Y-60487069D01*
X15038441Y-60253720D01*
X15163625Y-59990899D01*
X15208276Y-59843690D01*
X15086955Y-59613800D01*
X13893800Y-59613800D01*
X13639800Y-59613800D01*
X13619800Y-59613800D01*
X13619800Y-59359800D01*
X13639800Y-59359800D01*
X13639800Y-59339800D01*
X13893800Y-59339800D01*
X13893800Y-59359800D01*
X15086955Y-59359800D01*
X15208276Y-59129910D01*
X15163625Y-58982701D01*
X15038441Y-58719880D01*
X14864388Y-58486531D01*
X14648155Y-58291622D01*
X14531266Y-58221995D01*
X14713432Y-58100275D01*
X14920275Y-57893432D01*
X15082790Y-57650211D01*
X15102785Y-57601937D01*
X21911800Y-57601937D01*
X21911800Y-57815663D01*
X21953496Y-58025283D01*
X22035285Y-58222740D01*
X22154025Y-58400447D01*
X22305153Y-58551575D01*
X22482860Y-58670315D01*
X22680317Y-58752104D01*
X22889937Y-58793800D01*
X23103663Y-58793800D01*
X23313283Y-58752104D01*
X23510740Y-58670315D01*
X23688447Y-58551575D01*
X23839575Y-58400447D01*
X23958315Y-58222740D01*
X24040104Y-58025283D01*
X24081800Y-57815663D01*
X24081800Y-57601937D01*
X26311800Y-57601937D01*
X26311800Y-57815663D01*
X26353496Y-58025283D01*
X26435285Y-58222740D01*
X26554025Y-58400447D01*
X26705153Y-58551575D01*
X26882860Y-58670315D01*
X27080317Y-58752104D01*
X27289937Y-58793800D01*
X27503663Y-58793800D01*
X27713283Y-58752104D01*
X27910740Y-58670315D01*
X28088447Y-58551575D01*
X28239575Y-58400447D01*
X28358315Y-58222740D01*
X28440104Y-58025283D01*
X28481800Y-57815663D01*
X28481800Y-57601937D01*
X28440104Y-57392317D01*
X28358315Y-57194860D01*
X28239575Y-57017153D01*
X28088447Y-56866025D01*
X27910740Y-56747285D01*
X27713283Y-56665496D01*
X27503663Y-56623800D01*
X27289937Y-56623800D01*
X27080317Y-56665496D01*
X26882860Y-56747285D01*
X26705153Y-56866025D01*
X26554025Y-57017153D01*
X26435285Y-57194860D01*
X26353496Y-57392317D01*
X26311800Y-57601937D01*
X24081800Y-57601937D01*
X24040104Y-57392317D01*
X23958315Y-57194860D01*
X23839575Y-57017153D01*
X23688447Y-56866025D01*
X23510740Y-56747285D01*
X23313283Y-56665496D01*
X23103663Y-56623800D01*
X22889937Y-56623800D01*
X22680317Y-56665496D01*
X22482860Y-56747285D01*
X22305153Y-56866025D01*
X22154025Y-57017153D01*
X22035285Y-57194860D01*
X21953496Y-57392317D01*
X21911800Y-57601937D01*
X15102785Y-57601937D01*
X15194732Y-57379958D01*
X15251800Y-57093060D01*
X15251800Y-56800540D01*
X15194732Y-56513642D01*
X15082790Y-56243389D01*
X14920275Y-56000168D01*
X14713432Y-55793325D01*
X14539040Y-55676800D01*
X14713432Y-55560275D01*
X14920275Y-55353432D01*
X15082790Y-55110211D01*
X15194732Y-54839958D01*
X15251800Y-54553060D01*
X15251800Y-54260540D01*
X15194732Y-53973642D01*
X15082790Y-53703389D01*
X14920275Y-53460168D01*
X14713432Y-53253325D01*
X14539040Y-53136800D01*
X14713432Y-53020275D01*
X14920275Y-52813432D01*
X15082790Y-52570211D01*
X15194732Y-52299958D01*
X15251800Y-52013060D01*
X15251800Y-51720540D01*
X15194732Y-51433642D01*
X15082790Y-51163389D01*
X14920275Y-50920168D01*
X14713432Y-50713325D01*
X14539040Y-50596800D01*
X14713432Y-50480275D01*
X14920275Y-50273432D01*
X15082790Y-50030211D01*
X15194732Y-49759958D01*
X15251800Y-49473060D01*
X15251800Y-49180540D01*
X15194732Y-48893642D01*
X15082790Y-48623389D01*
X14920275Y-48380168D01*
X14713432Y-48173325D01*
X14539040Y-48056800D01*
X14713432Y-47940275D01*
X14920275Y-47733432D01*
X15082790Y-47490211D01*
X15194732Y-47219958D01*
X15251800Y-46933060D01*
X15251800Y-46640540D01*
X15194732Y-46353642D01*
X15082790Y-46083389D01*
X14920275Y-45840168D01*
X14713432Y-45633325D01*
X14539040Y-45516800D01*
X14713432Y-45400275D01*
X14920275Y-45193432D01*
X15082790Y-44950211D01*
X15194732Y-44679958D01*
X15251800Y-44393060D01*
X15251800Y-44100540D01*
X15194732Y-43813642D01*
X15082790Y-43543389D01*
X14920275Y-43300168D01*
X14713432Y-43093325D01*
X14539040Y-42976800D01*
X14713432Y-42860275D01*
X14920275Y-42653432D01*
X15082790Y-42410211D01*
X15194732Y-42139958D01*
X15251800Y-41853060D01*
X15251800Y-41560540D01*
X15194732Y-41273642D01*
X15082790Y-41003389D01*
X14920275Y-40760168D01*
X14713432Y-40553325D01*
X14539040Y-40436800D01*
X14713432Y-40320275D01*
X14920275Y-40113432D01*
X15082790Y-39870211D01*
X15194732Y-39599958D01*
X15250646Y-39318861D01*
X23272800Y-39318861D01*
X23272800Y-39522739D01*
X23312574Y-39722698D01*
X23390595Y-39911056D01*
X23503863Y-40080574D01*
X23648026Y-40224737D01*
X23817544Y-40338005D01*
X24005902Y-40416026D01*
X24205861Y-40455800D01*
X24409739Y-40455800D01*
X24609698Y-40416026D01*
X24798056Y-40338005D01*
X24967574Y-40224737D01*
X25010589Y-40181722D01*
X25027863Y-40207574D01*
X25172026Y-40351737D01*
X25341544Y-40465005D01*
X25529902Y-40543026D01*
X25729861Y-40582800D01*
X25933739Y-40582800D01*
X25952635Y-40579041D01*
X26043863Y-40715574D01*
X26188026Y-40859737D01*
X26357544Y-40973005D01*
X26545902Y-41051026D01*
X26745861Y-41090800D01*
X26949739Y-41090800D01*
X27149698Y-41051026D01*
X27338056Y-40973005D01*
X27507574Y-40859737D01*
X27651737Y-40715574D01*
X27765005Y-40546056D01*
X27843026Y-40357698D01*
X27849188Y-40326722D01*
X28038698Y-40289026D01*
X28227056Y-40211005D01*
X28396574Y-40097737D01*
X28540737Y-39953574D01*
X28654005Y-39784056D01*
X28732026Y-39595698D01*
X28771800Y-39395739D01*
X28771800Y-39191861D01*
X28732026Y-38991902D01*
X28654005Y-38803544D01*
X28540737Y-38634026D01*
X28396574Y-38489863D01*
X28227056Y-38376595D01*
X28038698Y-38298574D01*
X27838739Y-38258800D01*
X27634861Y-38258800D01*
X27434902Y-38298574D01*
X27246544Y-38376595D01*
X27077026Y-38489863D01*
X26932863Y-38634026D01*
X26819595Y-38803544D01*
X26741574Y-38991902D01*
X26735412Y-39022878D01*
X26726965Y-39024559D01*
X26635737Y-38888026D01*
X26491574Y-38743863D01*
X26322056Y-38630595D01*
X26133698Y-38552574D01*
X25933739Y-38512800D01*
X25729861Y-38512800D01*
X25529902Y-38552574D01*
X25341544Y-38630595D01*
X25172026Y-38743863D01*
X25129011Y-38786878D01*
X25111737Y-38761026D01*
X24967574Y-38616863D01*
X24798056Y-38503595D01*
X24609698Y-38425574D01*
X24409739Y-38385800D01*
X24205861Y-38385800D01*
X24005902Y-38425574D01*
X23817544Y-38503595D01*
X23648026Y-38616863D01*
X23503863Y-38761026D01*
X23390595Y-38930544D01*
X23312574Y-39118902D01*
X23272800Y-39318861D01*
X15250646Y-39318861D01*
X15251800Y-39313060D01*
X15251800Y-39020540D01*
X15194732Y-38733642D01*
X15082790Y-38463389D01*
X14920275Y-38220168D01*
X14713432Y-38013325D01*
X14539040Y-37896800D01*
X14713432Y-37780275D01*
X14920275Y-37573432D01*
X15082790Y-37330211D01*
X15194732Y-37059958D01*
X15251800Y-36773060D01*
X15251800Y-36480540D01*
X15194732Y-36193642D01*
X15082790Y-35923389D01*
X14920275Y-35680168D01*
X14713432Y-35473325D01*
X14539040Y-35356800D01*
X14713432Y-35240275D01*
X14920275Y-35033432D01*
X15082790Y-34790211D01*
X15194732Y-34519958D01*
X15200121Y-34492861D01*
X29622800Y-34492861D01*
X29622800Y-34696739D01*
X29662574Y-34896698D01*
X29740595Y-35085056D01*
X29853863Y-35254574D01*
X29998026Y-35398737D01*
X30167544Y-35512005D01*
X30355902Y-35590026D01*
X30555861Y-35629800D01*
X30759739Y-35629800D01*
X30959698Y-35590026D01*
X31148056Y-35512005D01*
X31317574Y-35398737D01*
X31461737Y-35254574D01*
X31575005Y-35085056D01*
X31653026Y-34896698D01*
X31692800Y-34696739D01*
X31692800Y-34492861D01*
X31653026Y-34292902D01*
X31575005Y-34104544D01*
X31461737Y-33935026D01*
X31317574Y-33790863D01*
X31148056Y-33677595D01*
X30959698Y-33599574D01*
X30759739Y-33559800D01*
X30555861Y-33559800D01*
X30355902Y-33599574D01*
X30167544Y-33677595D01*
X29998026Y-33790863D01*
X29853863Y-33935026D01*
X29740595Y-34104544D01*
X29662574Y-34292902D01*
X29622800Y-34492861D01*
X15200121Y-34492861D01*
X15251800Y-34233060D01*
X15251800Y-33940540D01*
X15194732Y-33653642D01*
X15082790Y-33383389D01*
X14920275Y-33140168D01*
X14713432Y-32933325D01*
X14539040Y-32816800D01*
X14713432Y-32700275D01*
X14920275Y-32493432D01*
X15082790Y-32250211D01*
X15194732Y-31979958D01*
X15251800Y-31693060D01*
X15251800Y-31400540D01*
X15194732Y-31113642D01*
X15082790Y-30843389D01*
X14920275Y-30600168D01*
X14713432Y-30393325D01*
X14539040Y-30276800D01*
X14713432Y-30160275D01*
X14920275Y-29953432D01*
X15082790Y-29710211D01*
X15084964Y-29704961D01*
X19500900Y-29704961D01*
X19500900Y-29908839D01*
X19540674Y-30108798D01*
X19618695Y-30297156D01*
X19731963Y-30466674D01*
X19876126Y-30610837D01*
X20045644Y-30724105D01*
X20234002Y-30802126D01*
X20433961Y-30841900D01*
X20637839Y-30841900D01*
X20837798Y-30802126D01*
X21026156Y-30724105D01*
X21195674Y-30610837D01*
X21339837Y-30466674D01*
X21453105Y-30297156D01*
X21531126Y-30108798D01*
X21570900Y-29908839D01*
X21570900Y-29704961D01*
X21531126Y-29505002D01*
X21453105Y-29316644D01*
X21339837Y-29147126D01*
X21195674Y-29002963D01*
X21026156Y-28889695D01*
X20837798Y-28811674D01*
X20637839Y-28771900D01*
X20433961Y-28771900D01*
X20234002Y-28811674D01*
X20045644Y-28889695D01*
X19876126Y-29002963D01*
X19731963Y-29147126D01*
X19618695Y-29316644D01*
X19540674Y-29505002D01*
X19500900Y-29704961D01*
X15084964Y-29704961D01*
X15194732Y-29439958D01*
X15251800Y-29153060D01*
X15251800Y-28860540D01*
X15194732Y-28573642D01*
X15121508Y-28396861D01*
X23272800Y-28396861D01*
X23272800Y-28600739D01*
X23312574Y-28800698D01*
X23390595Y-28989056D01*
X23503863Y-29158574D01*
X23648026Y-29302737D01*
X23817544Y-29416005D01*
X24005902Y-29494026D01*
X24205861Y-29533800D01*
X24409739Y-29533800D01*
X24609698Y-29494026D01*
X24798056Y-29416005D01*
X24967574Y-29302737D01*
X25111737Y-29158574D01*
X25225005Y-28989056D01*
X25303026Y-28800698D01*
X25342800Y-28600739D01*
X25342800Y-28396861D01*
X25303026Y-28196902D01*
X25225005Y-28008544D01*
X25111737Y-27839026D01*
X24967574Y-27694863D01*
X24798056Y-27581595D01*
X24609698Y-27503574D01*
X24409739Y-27463800D01*
X24205861Y-27463800D01*
X24005902Y-27503574D01*
X23817544Y-27581595D01*
X23648026Y-27694863D01*
X23503863Y-27839026D01*
X23390595Y-28008544D01*
X23312574Y-28196902D01*
X23272800Y-28396861D01*
X15121508Y-28396861D01*
X15082790Y-28303389D01*
X14920275Y-28060168D01*
X14713432Y-27853325D01*
X14539040Y-27736800D01*
X14713432Y-27620275D01*
X14920275Y-27413432D01*
X15082790Y-27170211D01*
X15174392Y-26949061D01*
X26143000Y-26949061D01*
X26143000Y-27152939D01*
X26182774Y-27352898D01*
X26260795Y-27541256D01*
X26374063Y-27710774D01*
X26518226Y-27854937D01*
X26687744Y-27968205D01*
X26876102Y-28046226D01*
X27076061Y-28086000D01*
X27279939Y-28086000D01*
X27479898Y-28046226D01*
X27668256Y-27968205D01*
X27837774Y-27854937D01*
X27981937Y-27710774D01*
X28095205Y-27541256D01*
X28173226Y-27352898D01*
X28213000Y-27152939D01*
X28213000Y-26949061D01*
X28173226Y-26749102D01*
X28095205Y-26560744D01*
X27981937Y-26391226D01*
X27837774Y-26247063D01*
X27668256Y-26133795D01*
X27479898Y-26055774D01*
X27279939Y-26016000D01*
X27076061Y-26016000D01*
X26876102Y-26055774D01*
X26687744Y-26133795D01*
X26518226Y-26247063D01*
X26374063Y-26391226D01*
X26260795Y-26560744D01*
X26182774Y-26749102D01*
X26143000Y-26949061D01*
X15174392Y-26949061D01*
X15194732Y-26899958D01*
X15251800Y-26613060D01*
X15251800Y-26320540D01*
X15194732Y-26033642D01*
X15082790Y-25763389D01*
X14920275Y-25520168D01*
X14713432Y-25313325D01*
X14539040Y-25196800D01*
X14713432Y-25080275D01*
X14920275Y-24873432D01*
X15082790Y-24630211D01*
X15194732Y-24359958D01*
X15251800Y-24073060D01*
X15251800Y-23780540D01*
X15194732Y-23493642D01*
X15082790Y-23223389D01*
X14920275Y-22980168D01*
X14713432Y-22773325D01*
X14539040Y-22656800D01*
X14713432Y-22540275D01*
X14920275Y-22333432D01*
X15082790Y-22090211D01*
X15194732Y-21819958D01*
X15251800Y-21533060D01*
X15251800Y-21240540D01*
X15194732Y-20953642D01*
X15082790Y-20683389D01*
X14920275Y-20440168D01*
X14713432Y-20233325D01*
X14539040Y-20116800D01*
X14713432Y-20000275D01*
X14920275Y-19793432D01*
X15082790Y-19550211D01*
X15194732Y-19279958D01*
X15251800Y-18993060D01*
X15251800Y-18700540D01*
X15194732Y-18413642D01*
X15082790Y-18143389D01*
X14920275Y-17900168D01*
X14713432Y-17693325D01*
X14539040Y-17576800D01*
X14713432Y-17460275D01*
X14920275Y-17253432D01*
X15082790Y-17010211D01*
X15194732Y-16739958D01*
X15251800Y-16453060D01*
X15251800Y-16160540D01*
X15194732Y-15873642D01*
X15082790Y-15603389D01*
X14920275Y-15360168D01*
X14788420Y-15228313D01*
X14860980Y-15206302D01*
X14971294Y-15147337D01*
X15067985Y-15067985D01*
X15147337Y-14971294D01*
X15206302Y-14860980D01*
X15242612Y-14741282D01*
X15254872Y-14616800D01*
X15254872Y-14123690D01*
X35185324Y-14123690D01*
X35229975Y-14270899D01*
X35355159Y-14533720D01*
X35529212Y-14767069D01*
X35745445Y-14961978D01*
X35871055Y-15036800D01*
X35745445Y-15111622D01*
X35529212Y-15306531D01*
X35355159Y-15539880D01*
X35229975Y-15802701D01*
X35185324Y-15949910D01*
X35306645Y-16179800D01*
X36499800Y-16179800D01*
X36499800Y-13893800D01*
X35306645Y-13893800D01*
X35185324Y-14123690D01*
X15254872Y-14123690D01*
X15254872Y-12916800D01*
X15242612Y-12792318D01*
X15206302Y-12672620D01*
X15193570Y-12648800D01*
X35659823Y-12648800D01*
X35529212Y-12766531D01*
%TA.AperFunction,Conductor*%
D14*
G36*
X35529212Y-12766531D02*
G01*
X35355159Y-12999880D01*
X35229975Y-13262701D01*
X35185324Y-13409910D01*
X35306645Y-13639800D01*
X36499800Y-13639800D01*
X36499800Y-13619800D01*
X36753800Y-13619800D01*
X36753800Y-13639800D01*
X36773800Y-13639800D01*
X36773800Y-13893800D01*
X36753800Y-13893800D01*
X36753800Y-16179800D01*
X36773800Y-16179800D01*
X36773800Y-16433800D01*
X36753800Y-16433800D01*
X36753800Y-16453800D01*
X36499800Y-16453800D01*
X36499800Y-16433800D01*
X35306645Y-16433800D01*
X35185324Y-16663690D01*
X35229975Y-16810899D01*
X35355159Y-17073720D01*
X35529212Y-17307069D01*
X35745445Y-17501978D01*
X35862334Y-17571605D01*
X35680168Y-17693325D01*
X35473325Y-17900168D01*
X35310810Y-18143389D01*
X35198868Y-18413642D01*
X35141800Y-18700540D01*
X35141800Y-18993060D01*
X35198868Y-19279958D01*
X35310810Y-19550211D01*
X35473325Y-19793432D01*
X35680168Y-20000275D01*
X35854560Y-20116800D01*
X35680168Y-20233325D01*
X35473325Y-20440168D01*
X35310810Y-20683389D01*
X35198868Y-20953642D01*
X35141800Y-21240540D01*
X35141800Y-21533060D01*
X35198868Y-21819958D01*
X35310810Y-22090211D01*
X35473325Y-22333432D01*
X35680168Y-22540275D01*
X35854560Y-22656800D01*
X35680168Y-22773325D01*
X35473325Y-22980168D01*
X35310810Y-23223389D01*
X35198868Y-23493642D01*
X35141800Y-23780540D01*
X35141800Y-24073060D01*
X35198868Y-24359958D01*
X35310810Y-24630211D01*
X35473325Y-24873432D01*
X35680168Y-25080275D01*
X35854560Y-25196800D01*
X35680168Y-25313325D01*
X35473325Y-25520168D01*
X35310810Y-25763389D01*
X35198868Y-26033642D01*
X35141800Y-26320540D01*
X35141800Y-26613060D01*
X35198868Y-26899958D01*
X35310810Y-27170211D01*
X35473325Y-27413432D01*
X35680168Y-27620275D01*
X35854560Y-27736800D01*
X35680168Y-27853325D01*
X35473325Y-28060168D01*
X35310810Y-28303389D01*
X35198868Y-28573642D01*
X35141800Y-28860540D01*
X35141800Y-29153060D01*
X35198868Y-29439958D01*
X35310810Y-29710211D01*
X35473325Y-29953432D01*
X35680168Y-30160275D01*
X35854560Y-30276800D01*
X35680168Y-30393325D01*
X35473325Y-30600168D01*
X35310810Y-30843389D01*
X35198868Y-31113642D01*
X35141800Y-31400540D01*
X35141800Y-31693060D01*
X35198868Y-31979958D01*
X35310810Y-32250211D01*
X35473325Y-32493432D01*
X35680168Y-32700275D01*
X35854560Y-32816800D01*
X35680168Y-32933325D01*
X35473325Y-33140168D01*
X35310810Y-33383389D01*
X35198868Y-33653642D01*
X35141800Y-33940540D01*
X35141800Y-34233060D01*
X35198868Y-34519958D01*
X35310810Y-34790211D01*
X35473325Y-35033432D01*
X35680168Y-35240275D01*
X35854560Y-35356800D01*
X35680168Y-35473325D01*
X35473325Y-35680168D01*
X35310810Y-35923389D01*
X35198868Y-36193642D01*
X35141800Y-36480540D01*
X35141800Y-36773060D01*
X35198868Y-37059958D01*
X35310810Y-37330211D01*
X35473325Y-37573432D01*
X35680168Y-37780275D01*
X35854560Y-37896800D01*
X35680168Y-38013325D01*
X35473325Y-38220168D01*
X35310810Y-38463389D01*
X35198868Y-38733642D01*
X35141800Y-39020540D01*
X35141800Y-39313060D01*
X35198868Y-39599958D01*
X35310810Y-39870211D01*
X35473325Y-40113432D01*
X35680168Y-40320275D01*
X35854560Y-40436800D01*
X35680168Y-40553325D01*
X35473325Y-40760168D01*
X35310810Y-41003389D01*
X35198868Y-41273642D01*
X35141800Y-41560540D01*
X35141800Y-41853060D01*
X35198868Y-42139958D01*
X35310810Y-42410211D01*
X35473325Y-42653432D01*
X35680168Y-42860275D01*
X35854560Y-42976800D01*
X35680168Y-43093325D01*
X35473325Y-43300168D01*
X35310810Y-43543389D01*
X35198868Y-43813642D01*
X35141800Y-44100540D01*
X35141800Y-44393060D01*
X35198868Y-44679958D01*
X35310810Y-44950211D01*
X35473325Y-45193432D01*
X35680168Y-45400275D01*
X35854560Y-45516800D01*
X35680168Y-45633325D01*
X35473325Y-45840168D01*
X35310810Y-46083389D01*
X35198868Y-46353642D01*
X35141800Y-46640540D01*
X35141800Y-46933060D01*
X35198868Y-47219958D01*
X35310810Y-47490211D01*
X35473325Y-47733432D01*
X35680168Y-47940275D01*
X35854560Y-48056800D01*
X35680168Y-48173325D01*
X35473325Y-48380168D01*
X35310810Y-48623389D01*
X35198868Y-48893642D01*
X35141800Y-49180540D01*
X35141800Y-49473060D01*
X35198868Y-49759958D01*
X35310810Y-50030211D01*
X35473325Y-50273432D01*
X35680168Y-50480275D01*
X35854560Y-50596800D01*
X35680168Y-50713325D01*
X35473325Y-50920168D01*
X35310810Y-51163389D01*
X35198868Y-51433642D01*
X35141800Y-51720540D01*
X35141800Y-52013060D01*
X35198868Y-52299958D01*
X35310810Y-52570211D01*
X35473325Y-52813432D01*
X35680168Y-53020275D01*
X35854560Y-53136800D01*
X35680168Y-53253325D01*
X35473325Y-53460168D01*
X35310810Y-53703389D01*
X35198868Y-53973642D01*
X35141800Y-54260540D01*
X35141800Y-54553060D01*
X35198868Y-54839958D01*
X35310810Y-55110211D01*
X35473325Y-55353432D01*
X35680168Y-55560275D01*
X35854560Y-55676800D01*
X35680168Y-55793325D01*
X35473325Y-56000168D01*
X35310810Y-56243389D01*
X35198868Y-56513642D01*
X35141800Y-56800540D01*
X35141800Y-57093060D01*
X35198868Y-57379958D01*
X35310810Y-57650211D01*
X35473325Y-57893432D01*
X35680168Y-58100275D01*
X35854560Y-58216800D01*
X35680168Y-58333325D01*
X35473325Y-58540168D01*
X35310810Y-58783389D01*
X35198868Y-59053642D01*
X35141800Y-59340540D01*
X35141800Y-59633060D01*
X35198868Y-59919958D01*
X35310810Y-60190211D01*
X35473325Y-60433432D01*
X35605180Y-60565287D01*
X35532620Y-60587298D01*
X35422306Y-60646263D01*
X35325615Y-60725615D01*
X35246263Y-60822306D01*
X35187298Y-60932620D01*
X35150988Y-61052318D01*
X35138728Y-61176800D01*
X35141800Y-61741050D01*
X35300550Y-61899800D01*
X36499800Y-61899800D01*
X36499800Y-61879800D01*
X36753800Y-61879800D01*
X36753800Y-61899800D01*
X36773800Y-61899800D01*
X36773800Y-62153800D01*
X36753800Y-62153800D01*
X36753800Y-62173800D01*
X36499800Y-62173800D01*
X36499800Y-62153800D01*
X35300550Y-62153800D01*
X35141800Y-62312550D01*
X35138728Y-62876800D01*
X35150988Y-63001282D01*
X35187298Y-63120980D01*
X35200030Y-63144800D01*
X14733777Y-63144800D01*
X14864388Y-63027069D01*
X15038441Y-62793720D01*
X15163625Y-62530899D01*
X15208276Y-62383690D01*
X15086955Y-62153800D01*
X13893800Y-62153800D01*
X13893800Y-62173800D01*
X13639800Y-62173800D01*
X13639800Y-62153800D01*
X13619800Y-62153800D01*
X13619800Y-61899800D01*
X13639800Y-61899800D01*
X13639800Y-59613800D01*
X13893800Y-59613800D01*
X13893800Y-61899800D01*
X15086955Y-61899800D01*
X15208276Y-61669910D01*
X15163625Y-61522701D01*
X15038441Y-61259880D01*
X14864388Y-61026531D01*
X14648155Y-60831622D01*
X14522545Y-60756800D01*
X14648155Y-60681978D01*
X14864388Y-60487069D01*
X15038441Y-60253720D01*
X15163625Y-59990899D01*
X15208276Y-59843690D01*
X15086955Y-59613800D01*
X13893800Y-59613800D01*
X13639800Y-59613800D01*
X13619800Y-59613800D01*
X13619800Y-59359800D01*
X13639800Y-59359800D01*
X13639800Y-59339800D01*
X13893800Y-59339800D01*
X13893800Y-59359800D01*
X15086955Y-59359800D01*
X15208276Y-59129910D01*
X15163625Y-58982701D01*
X15038441Y-58719880D01*
X14864388Y-58486531D01*
X14648155Y-58291622D01*
X14531266Y-58221995D01*
X14713432Y-58100275D01*
X14920275Y-57893432D01*
X15082790Y-57650211D01*
X15102785Y-57601937D01*
X21911800Y-57601937D01*
X21911800Y-57815663D01*
X21953496Y-58025283D01*
X22035285Y-58222740D01*
X22154025Y-58400447D01*
X22305153Y-58551575D01*
X22482860Y-58670315D01*
X22680317Y-58752104D01*
X22889937Y-58793800D01*
X23103663Y-58793800D01*
X23313283Y-58752104D01*
X23510740Y-58670315D01*
X23688447Y-58551575D01*
X23839575Y-58400447D01*
X23958315Y-58222740D01*
X24040104Y-58025283D01*
X24081800Y-57815663D01*
X24081800Y-57601937D01*
X26311800Y-57601937D01*
X26311800Y-57815663D01*
X26353496Y-58025283D01*
X26435285Y-58222740D01*
X26554025Y-58400447D01*
X26705153Y-58551575D01*
X26882860Y-58670315D01*
X27080317Y-58752104D01*
X27289937Y-58793800D01*
X27503663Y-58793800D01*
X27713283Y-58752104D01*
X27910740Y-58670315D01*
X28088447Y-58551575D01*
X28239575Y-58400447D01*
X28358315Y-58222740D01*
X28440104Y-58025283D01*
X28481800Y-57815663D01*
X28481800Y-57601937D01*
X28440104Y-57392317D01*
X28358315Y-57194860D01*
X28239575Y-57017153D01*
X28088447Y-56866025D01*
X27910740Y-56747285D01*
X27713283Y-56665496D01*
X27503663Y-56623800D01*
X27289937Y-56623800D01*
X27080317Y-56665496D01*
X26882860Y-56747285D01*
X26705153Y-56866025D01*
X26554025Y-57017153D01*
X26435285Y-57194860D01*
X26353496Y-57392317D01*
X26311800Y-57601937D01*
X24081800Y-57601937D01*
X24040104Y-57392317D01*
X23958315Y-57194860D01*
X23839575Y-57017153D01*
X23688447Y-56866025D01*
X23510740Y-56747285D01*
X23313283Y-56665496D01*
X23103663Y-56623800D01*
X22889937Y-56623800D01*
X22680317Y-56665496D01*
X22482860Y-56747285D01*
X22305153Y-56866025D01*
X22154025Y-57017153D01*
X22035285Y-57194860D01*
X21953496Y-57392317D01*
X21911800Y-57601937D01*
X15102785Y-57601937D01*
X15194732Y-57379958D01*
X15251800Y-57093060D01*
X15251800Y-56800540D01*
X15194732Y-56513642D01*
X15082790Y-56243389D01*
X14920275Y-56000168D01*
X14713432Y-55793325D01*
X14539040Y-55676800D01*
X14713432Y-55560275D01*
X14920275Y-55353432D01*
X15082790Y-55110211D01*
X15194732Y-54839958D01*
X15251800Y-54553060D01*
X15251800Y-54260540D01*
X15194732Y-53973642D01*
X15082790Y-53703389D01*
X14920275Y-53460168D01*
X14713432Y-53253325D01*
X14539040Y-53136800D01*
X14713432Y-53020275D01*
X14920275Y-52813432D01*
X15082790Y-52570211D01*
X15194732Y-52299958D01*
X15251800Y-52013060D01*
X15251800Y-51720540D01*
X15194732Y-51433642D01*
X15082790Y-51163389D01*
X14920275Y-50920168D01*
X14713432Y-50713325D01*
X14539040Y-50596800D01*
X14713432Y-50480275D01*
X14920275Y-50273432D01*
X15082790Y-50030211D01*
X15194732Y-49759958D01*
X15251800Y-49473060D01*
X15251800Y-49180540D01*
X15194732Y-48893642D01*
X15082790Y-48623389D01*
X14920275Y-48380168D01*
X14713432Y-48173325D01*
X14539040Y-48056800D01*
X14713432Y-47940275D01*
X14920275Y-47733432D01*
X15082790Y-47490211D01*
X15194732Y-47219958D01*
X15251800Y-46933060D01*
X15251800Y-46640540D01*
X15194732Y-46353642D01*
X15082790Y-46083389D01*
X14920275Y-45840168D01*
X14713432Y-45633325D01*
X14539040Y-45516800D01*
X14713432Y-45400275D01*
X14920275Y-45193432D01*
X15082790Y-44950211D01*
X15194732Y-44679958D01*
X15251800Y-44393060D01*
X15251800Y-44100540D01*
X15194732Y-43813642D01*
X15082790Y-43543389D01*
X14920275Y-43300168D01*
X14713432Y-43093325D01*
X14539040Y-42976800D01*
X14713432Y-42860275D01*
X14920275Y-42653432D01*
X15082790Y-42410211D01*
X15194732Y-42139958D01*
X15251800Y-41853060D01*
X15251800Y-41560540D01*
X15194732Y-41273642D01*
X15082790Y-41003389D01*
X14920275Y-40760168D01*
X14713432Y-40553325D01*
X14539040Y-40436800D01*
X14713432Y-40320275D01*
X14920275Y-40113432D01*
X15082790Y-39870211D01*
X15194732Y-39599958D01*
X15250646Y-39318861D01*
X23272800Y-39318861D01*
X23272800Y-39522739D01*
X23312574Y-39722698D01*
X23390595Y-39911056D01*
X23503863Y-40080574D01*
X23648026Y-40224737D01*
X23817544Y-40338005D01*
X24005902Y-40416026D01*
X24205861Y-40455800D01*
X24409739Y-40455800D01*
X24609698Y-40416026D01*
X24798056Y-40338005D01*
X24967574Y-40224737D01*
X25010589Y-40181722D01*
X25027863Y-40207574D01*
X25172026Y-40351737D01*
X25341544Y-40465005D01*
X25529902Y-40543026D01*
X25729861Y-40582800D01*
X25933739Y-40582800D01*
X25952635Y-40579041D01*
X26043863Y-40715574D01*
X26188026Y-40859737D01*
X26357544Y-40973005D01*
X26545902Y-41051026D01*
X26745861Y-41090800D01*
X26949739Y-41090800D01*
X27149698Y-41051026D01*
X27338056Y-40973005D01*
X27507574Y-40859737D01*
X27651737Y-40715574D01*
X27765005Y-40546056D01*
X27843026Y-40357698D01*
X27849188Y-40326722D01*
X28038698Y-40289026D01*
X28227056Y-40211005D01*
X28396574Y-40097737D01*
X28540737Y-39953574D01*
X28654005Y-39784056D01*
X28732026Y-39595698D01*
X28771800Y-39395739D01*
X28771800Y-39191861D01*
X28732026Y-38991902D01*
X28654005Y-38803544D01*
X28540737Y-38634026D01*
X28396574Y-38489863D01*
X28227056Y-38376595D01*
X28038698Y-38298574D01*
X27838739Y-38258800D01*
X27634861Y-38258800D01*
X27434902Y-38298574D01*
X27246544Y-38376595D01*
X27077026Y-38489863D01*
X26932863Y-38634026D01*
X26819595Y-38803544D01*
X26741574Y-38991902D01*
X26735412Y-39022878D01*
X26726965Y-39024559D01*
X26635737Y-38888026D01*
X26491574Y-38743863D01*
X26322056Y-38630595D01*
X26133698Y-38552574D01*
X25933739Y-38512800D01*
X25729861Y-38512800D01*
X25529902Y-38552574D01*
X25341544Y-38630595D01*
X25172026Y-38743863D01*
X25129011Y-38786878D01*
X25111737Y-38761026D01*
X24967574Y-38616863D01*
X24798056Y-38503595D01*
X24609698Y-38425574D01*
X24409739Y-38385800D01*
X24205861Y-38385800D01*
X24005902Y-38425574D01*
X23817544Y-38503595D01*
X23648026Y-38616863D01*
X23503863Y-38761026D01*
X23390595Y-38930544D01*
X23312574Y-39118902D01*
X23272800Y-39318861D01*
X15250646Y-39318861D01*
X15251800Y-39313060D01*
X15251800Y-39020540D01*
X15194732Y-38733642D01*
X15082790Y-38463389D01*
X14920275Y-38220168D01*
X14713432Y-38013325D01*
X14539040Y-37896800D01*
X14713432Y-37780275D01*
X14920275Y-37573432D01*
X15082790Y-37330211D01*
X15194732Y-37059958D01*
X15251800Y-36773060D01*
X15251800Y-36480540D01*
X15194732Y-36193642D01*
X15082790Y-35923389D01*
X14920275Y-35680168D01*
X14713432Y-35473325D01*
X14539040Y-35356800D01*
X14713432Y-35240275D01*
X14920275Y-35033432D01*
X15082790Y-34790211D01*
X15194732Y-34519958D01*
X15200121Y-34492861D01*
X29622800Y-34492861D01*
X29622800Y-34696739D01*
X29662574Y-34896698D01*
X29740595Y-35085056D01*
X29853863Y-35254574D01*
X29998026Y-35398737D01*
X30167544Y-35512005D01*
X30355902Y-35590026D01*
X30555861Y-35629800D01*
X30759739Y-35629800D01*
X30959698Y-35590026D01*
X31148056Y-35512005D01*
X31317574Y-35398737D01*
X31461737Y-35254574D01*
X31575005Y-35085056D01*
X31653026Y-34896698D01*
X31692800Y-34696739D01*
X31692800Y-34492861D01*
X31653026Y-34292902D01*
X31575005Y-34104544D01*
X31461737Y-33935026D01*
X31317574Y-33790863D01*
X31148056Y-33677595D01*
X30959698Y-33599574D01*
X30759739Y-33559800D01*
X30555861Y-33559800D01*
X30355902Y-33599574D01*
X30167544Y-33677595D01*
X29998026Y-33790863D01*
X29853863Y-33935026D01*
X29740595Y-34104544D01*
X29662574Y-34292902D01*
X29622800Y-34492861D01*
X15200121Y-34492861D01*
X15251800Y-34233060D01*
X15251800Y-33940540D01*
X15194732Y-33653642D01*
X15082790Y-33383389D01*
X14920275Y-33140168D01*
X14713432Y-32933325D01*
X14539040Y-32816800D01*
X14713432Y-32700275D01*
X14920275Y-32493432D01*
X15082790Y-32250211D01*
X15194732Y-31979958D01*
X15251800Y-31693060D01*
X15251800Y-31400540D01*
X15194732Y-31113642D01*
X15082790Y-30843389D01*
X14920275Y-30600168D01*
X14713432Y-30393325D01*
X14539040Y-30276800D01*
X14713432Y-30160275D01*
X14920275Y-29953432D01*
X15082790Y-29710211D01*
X15084964Y-29704961D01*
X19500900Y-29704961D01*
X19500900Y-29908839D01*
X19540674Y-30108798D01*
X19618695Y-30297156D01*
X19731963Y-30466674D01*
X19876126Y-30610837D01*
X20045644Y-30724105D01*
X20234002Y-30802126D01*
X20433961Y-30841900D01*
X20637839Y-30841900D01*
X20837798Y-30802126D01*
X21026156Y-30724105D01*
X21195674Y-30610837D01*
X21339837Y-30466674D01*
X21453105Y-30297156D01*
X21531126Y-30108798D01*
X21570900Y-29908839D01*
X21570900Y-29704961D01*
X21531126Y-29505002D01*
X21453105Y-29316644D01*
X21339837Y-29147126D01*
X21195674Y-29002963D01*
X21026156Y-28889695D01*
X20837798Y-28811674D01*
X20637839Y-28771900D01*
X20433961Y-28771900D01*
X20234002Y-28811674D01*
X20045644Y-28889695D01*
X19876126Y-29002963D01*
X19731963Y-29147126D01*
X19618695Y-29316644D01*
X19540674Y-29505002D01*
X19500900Y-29704961D01*
X15084964Y-29704961D01*
X15194732Y-29439958D01*
X15251800Y-29153060D01*
X15251800Y-28860540D01*
X15194732Y-28573642D01*
X15121508Y-28396861D01*
X23272800Y-28396861D01*
X23272800Y-28600739D01*
X23312574Y-28800698D01*
X23390595Y-28989056D01*
X23503863Y-29158574D01*
X23648026Y-29302737D01*
X23817544Y-29416005D01*
X24005902Y-29494026D01*
X24205861Y-29533800D01*
X24409739Y-29533800D01*
X24609698Y-29494026D01*
X24798056Y-29416005D01*
X24967574Y-29302737D01*
X25111737Y-29158574D01*
X25225005Y-28989056D01*
X25303026Y-28800698D01*
X25342800Y-28600739D01*
X25342800Y-28396861D01*
X25303026Y-28196902D01*
X25225005Y-28008544D01*
X25111737Y-27839026D01*
X24967574Y-27694863D01*
X24798056Y-27581595D01*
X24609698Y-27503574D01*
X24409739Y-27463800D01*
X24205861Y-27463800D01*
X24005902Y-27503574D01*
X23817544Y-27581595D01*
X23648026Y-27694863D01*
X23503863Y-27839026D01*
X23390595Y-28008544D01*
X23312574Y-28196902D01*
X23272800Y-28396861D01*
X15121508Y-28396861D01*
X15082790Y-28303389D01*
X14920275Y-28060168D01*
X14713432Y-27853325D01*
X14539040Y-27736800D01*
X14713432Y-27620275D01*
X14920275Y-27413432D01*
X15082790Y-27170211D01*
X15174392Y-26949061D01*
X26143000Y-26949061D01*
X26143000Y-27152939D01*
X26182774Y-27352898D01*
X26260795Y-27541256D01*
X26374063Y-27710774D01*
X26518226Y-27854937D01*
X26687744Y-27968205D01*
X26876102Y-28046226D01*
X27076061Y-28086000D01*
X27279939Y-28086000D01*
X27479898Y-28046226D01*
X27668256Y-27968205D01*
X27837774Y-27854937D01*
X27981937Y-27710774D01*
X28095205Y-27541256D01*
X28173226Y-27352898D01*
X28213000Y-27152939D01*
X28213000Y-26949061D01*
X28173226Y-26749102D01*
X28095205Y-26560744D01*
X27981937Y-26391226D01*
X27837774Y-26247063D01*
X27668256Y-26133795D01*
X27479898Y-26055774D01*
X27279939Y-26016000D01*
X27076061Y-26016000D01*
X26876102Y-26055774D01*
X26687744Y-26133795D01*
X26518226Y-26247063D01*
X26374063Y-26391226D01*
X26260795Y-26560744D01*
X26182774Y-26749102D01*
X26143000Y-26949061D01*
X15174392Y-26949061D01*
X15194732Y-26899958D01*
X15251800Y-26613060D01*
X15251800Y-26320540D01*
X15194732Y-26033642D01*
X15082790Y-25763389D01*
X14920275Y-25520168D01*
X14713432Y-25313325D01*
X14539040Y-25196800D01*
X14713432Y-25080275D01*
X14920275Y-24873432D01*
X15082790Y-24630211D01*
X15194732Y-24359958D01*
X15251800Y-24073060D01*
X15251800Y-23780540D01*
X15194732Y-23493642D01*
X15082790Y-23223389D01*
X14920275Y-22980168D01*
X14713432Y-22773325D01*
X14539040Y-22656800D01*
X14713432Y-22540275D01*
X14920275Y-22333432D01*
X15082790Y-22090211D01*
X15194732Y-21819958D01*
X15251800Y-21533060D01*
X15251800Y-21240540D01*
X15194732Y-20953642D01*
X15082790Y-20683389D01*
X14920275Y-20440168D01*
X14713432Y-20233325D01*
X14539040Y-20116800D01*
X14713432Y-20000275D01*
X14920275Y-19793432D01*
X15082790Y-19550211D01*
X15194732Y-19279958D01*
X15251800Y-18993060D01*
X15251800Y-18700540D01*
X15194732Y-18413642D01*
X15082790Y-18143389D01*
X14920275Y-17900168D01*
X14713432Y-17693325D01*
X14539040Y-17576800D01*
X14713432Y-17460275D01*
X14920275Y-17253432D01*
X15082790Y-17010211D01*
X15194732Y-16739958D01*
X15251800Y-16453060D01*
X15251800Y-16160540D01*
X15194732Y-15873642D01*
X15082790Y-15603389D01*
X14920275Y-15360168D01*
X14788420Y-15228313D01*
X14860980Y-15206302D01*
X14971294Y-15147337D01*
X15067985Y-15067985D01*
X15147337Y-14971294D01*
X15206302Y-14860980D01*
X15242612Y-14741282D01*
X15254872Y-14616800D01*
X15254872Y-14123690D01*
X35185324Y-14123690D01*
X35229975Y-14270899D01*
X35355159Y-14533720D01*
X35529212Y-14767069D01*
X35745445Y-14961978D01*
X35871055Y-15036800D01*
X35745445Y-15111622D01*
X35529212Y-15306531D01*
X35355159Y-15539880D01*
X35229975Y-15802701D01*
X35185324Y-15949910D01*
X35306645Y-16179800D01*
X36499800Y-16179800D01*
X36499800Y-13893800D01*
X35306645Y-13893800D01*
X35185324Y-14123690D01*
X15254872Y-14123690D01*
X15254872Y-12916800D01*
X15242612Y-12792318D01*
X15206302Y-12672620D01*
X15193570Y-12648800D01*
X35659823Y-12648800D01*
X35529212Y-12766531D01*
G37*
%TD.AperFunction*%
%TD*%
M02*
