M48
; DRILL file {KiCad 5.1.9-73d0e3b20d~88~ubuntu20.04.1} date Wed Apr 21 23:40:30 2021
; FORMAT={-:-/ absolute / inch / decimal}
; #@! TF.CreationDate,2021-04-21T23:40:30-06:00
; #@! TF.GenerationSoftware,Kicad,Pcbnew,5.1.9-73d0e3b20d~88~ubuntu20.04.1
; #@! TF.FileFunction,Plated,1,4,PTH
FMAT,2
INCH
T1C0.0157
T2C0.0394
%
G90
G05
T1
X0.67Y-1.06
X0.8085Y-1.1735
X0.882Y-1.684
X0.92Y-1.02
X0.95Y-1.28
X0.95Y-1.4
X0.957Y-1.122
X0.957Y-1.552
X1.017Y-1.557
X1.035Y-0.8
X1.04Y-1.28
X1.04Y-1.4
X1.055Y-0.88
X1.055Y-2.095
X1.057Y-1.577
X1.0591Y-2.0118
X1.07Y-1.065
X1.092Y-1.547
X1.11Y-0.91
X1.207Y-1.362
T2
X0.542Y-0.542
X0.542Y-0.642
X0.542Y-0.742
X0.542Y-0.842
X0.542Y-0.942
X0.542Y-1.042
X0.542Y-1.142
X0.542Y-1.242
X0.542Y-1.342
X0.542Y-1.442
X0.542Y-1.542
X0.542Y-1.642
X0.542Y-1.742
X0.542Y-1.842
X0.542Y-1.942
X0.542Y-2.042
X0.542Y-2.142
X0.542Y-2.242
X0.542Y-2.342
X0.542Y-2.442
X1.442Y-0.542
X1.442Y-0.642
X1.442Y-0.742
X1.442Y-0.842
X1.442Y-0.942
X1.442Y-1.042
X1.442Y-1.142
X1.442Y-1.242
X1.442Y-1.342
X1.442Y-1.442
X1.442Y-1.542
X1.442Y-1.642
X1.442Y-1.742
X1.442Y-1.842
X1.442Y-1.942
X1.442Y-2.042
X1.442Y-2.142
X1.442Y-2.242
X1.442Y-2.342
X1.442Y-2.442
T0
M30
